M48
;Layer_Color=9474304
;FILE_FORMAT=4:4
METRIC,LZ
;TYPE=PLATED
T1F00S00C0.3000
T2F00S00C0.5000
T4F00S00C0.8000
T5F00S00C0.9000
T6F00S00C1.0000
T7F00S00C1.1000
T8F00S00C1.7000
T9F00S00C4.2000
%
T01
X0101Y0101
Y01035
Y0106
Y010775
Y011
Y0112
Y01145
Y0117
X010695Y01189
X01075Y01125
X011
Y011
X01075Y01075
X0105
Y0105
X0106Y0101
X01085
X01125
X0115
X01175
X0118125Y010768
X011885Y0115775
X01135Y01175
X0104225Y011075
X01035Y0101
X0125
X01275
X01305
X01329731Y01039481
X01298515Y01067753
X0129525Y0109675
X0130125Y011105
X0130175Y01133
X013015Y01166
X0125525Y011625
Y011545
X012555Y011305
Y011225
X0125575Y0109875
X01253262Y01066503
X0121925Y01082
X0119825Y01134
Y011485
X0125525Y011865
X01372Y01179
Y0115875
X0136625Y0114745
Y0113815
X013545Y011135
X013385Y0111785
X01339Y0112715
X014115Y0113815
Y0114745
X01425Y0115
X0144025Y0115025
X01451Y0115
X01475
Y01175
X0145
Y01125
X01425
X01525
X0155
X01575
Y0115
Y01175
X0155
Y0115
X01525
Y01175
X0152Y0101
X01545
X0157
X01495
X01455
X01415
X013765Y010565
X01375018Y01067503
X01595Y0101
X0167
X0169
X01715
X0172Y01025
Y0105
Y01075
Y011
X01745
X0177
X0179
Y01125
Y0115
Y01175
X0175
X01725
X017
Y0115
X01675
X0165
X01625
Y01125
X0165
X01675
X01725Y0115
X0175
X0174Y0101
X01765
X0179
Y012
Y01225
Y0125
Y0127
X01765
X0174
X0172
Y01285
X0169Y0129
Y01315
Y0134
X01665
X0166975Y0135425
X0164Y0134
Y01315
X01665
Y0129
X0164
X016314Y01239
X016568
X016445Y012185
X016185
X01606Y01239
X015935Y01228
X017Y012
X01725
X0175
Y01345
X01775
X0179Y0135
Y01375
Y014
Y01425
Y0145
Y01475
Y0149
X01765
X0174
X01715
X0169
X01665
X0164
X01615
X01609Y01476
X0159Y0149
X0160625Y01401
X016095Y0139
X01617Y01406525
X01589Y0138275
X01629Y01365
X0165675Y013925
X0167725Y0139975
X017Y014
X01689975Y0141175
X017Y01425
X0167725Y0142475
Y01452
X017
X01725
Y01425
Y014
X0172Y01345
X0157575Y0135675
X0155775Y013565
X0153875Y0134725
X015245Y0135675
X0152575Y0137775
X01545Y01385
Y01395
X01555
Y01385
X01565Y01405
X015495Y014555
X0154Y0149
X01565
X01515
X0147
X014675Y0148025
X0146275Y0147
X0145
Y0145
X0146625Y0143375
X014775Y0143275
X01475773Y0140277
X01457772Y01394019
X01458272Y01419521
X01437021Y01422021
X0140575Y01442
X01387Y01439
X01395019Y01475023
X0140575Y014725
X014255Y01489
X0145Y0149
X01343Y0147875
X01324Y01445
X012925Y014355
X012705Y0144
X0125775Y014395
X01245Y0143925
X01224Y014365
X0122Y0149
X012
X0120225Y0136875
X0121125Y01362
X0129275Y0135825
X0130675
X0132675Y0138325
X01327Y01406
X0131725Y0139675
X01377518Y01394769
X0140125Y013955
X01415Y01331
X0143025Y013435
X01436Y0132075
X014455Y013265
X01469
X014815Y0132675
X0149275Y01339
X0147025Y0134225
X01471Y013695
X0147Y0130275
X0147Y012805
X01456Y01282
X0144825Y01292
X0143625Y0128575
X0142725Y0129425
X0142575Y0124975
X0143575Y012495
X01392Y01251
X0137875
X01372Y01193
X01425771Y0120676
X013015Y011985
X012565Y01207
X0125625Y0123875
X012363Y012231
X011957Y011962
X0119925Y01281
X01216261Y01273263
X0126525Y012815
X01284Y0125025
X013365Y013255
X0150425Y0132325
X0149125Y01297
X01484Y01289
X0154Y0128025
X015705Y013165
X01137Y01233
X01135Y012
X0108925Y012165
X01058003Y01235511
X0106025Y0125075
X01025Y0125
X0101
Y01275
X01025
X0101Y013
Y01325
Y0135
Y01375
Y01395
Y014125
Y0143
Y01455
Y01475
Y0149
X0103
X0105
X01075
X01125
X0115
X01175
X011Y01425
Y014
Y01375
X01075
Y014
Y01425
X0104275Y013295
X0104875Y01301
X01025Y01225
X0101Y0122
Y01195
T02
X011982Y011016
X012725Y01102
Y0111825
X01302Y01052
X01498Y0105025
X01512
X01526
X0154
Y0106425
X01526
X01512
X01498
X01573Y0102225
X015875
X0160125
X01536Y01299
X0150675Y0129925
Y01415422
X0137175Y0143375
X01361
X0135025Y01448
X0136925Y0145275
X01368018Y014785
X01368Y0149
X01383Y0148925
X0133675Y014695
X01293Y014795
Y0149
X0128425Y014672
X0127175
X012345Y0141525
Y01402
X01231761Y01374518
X0120525Y0141475
Y014295
X01270263Y01344267
X0128325Y0134525
X0129575
X01318Y01353
X0133125
X013463Y012837
X01383899Y01305399
X012925Y012945
X01297484Y01239016
X01165Y0122
X01112Y01228
X01096
Y0127625
Y012885
X0110975Y01285
X011335Y0128525
X0115725Y01285
X0115325Y013085
X0115325Y01327
X0117175Y0132475
Y01312
X01185Y0131025
X011745Y0129625
X011265Y0130825
T04
X017475Y0142875
Y0144875
Y0146875
T05
X0113855Y0106225
Y0108765
Y0111305
Y0113845
X0116395Y0112575
Y0110035
Y0107495
Y0104955
X0116195Y0135755
Y0138295
Y0140835
Y0143375
X0113655Y0142105
Y0139565
Y0137025
Y0144645
T06
X0102605Y0102775
Y0105315
Y0113485
Y0116025
X01324Y01017
X0136
X01396091Y0101695
X0102405Y0133575
Y0136115
Y0144285
Y0146825
T07
X01228Y0146925
X01253
T08
X0110555Y0101655
Y0117145
X0110355Y0132455
Y0147945
T09
X01758Y010595
Y013055
M30
