G04*
G04 #@! TF.GenerationSoftware,Altium Limited,Altium Designer,20.0.2 (26)*
G04*
G04 Layer_Physical_Order=4*
G04 Layer_Color=16711680*
%FSLAX44Y44*%
%MOMM*%
G71*
G01*
G75*
%ADD10C,0.2000*%
%ADD13C,0.1270*%
%ADD14R,4.8260X2.4130*%
%ADD15R,0.7500X0.6000*%
G04:AMPARAMS|DCode=17|XSize=0.64mm|YSize=0.6mm|CornerRadius=0.045mm|HoleSize=0mm|Usage=FLASHONLY|Rotation=0.000|XOffset=0mm|YOffset=0mm|HoleType=Round|Shape=RoundedRectangle|*
%AMROUNDEDRECTD17*
21,1,0.6400,0.5100,0,0,0.0*
21,1,0.5500,0.6000,0,0,0.0*
1,1,0.0900,0.2750,-0.2550*
1,1,0.0900,-0.2750,-0.2550*
1,1,0.0900,-0.2750,0.2550*
1,1,0.0900,0.2750,0.2550*
%
%ADD17ROUNDEDRECTD17*%
G04:AMPARAMS|DCode=20|XSize=0.64mm|YSize=0.6mm|CornerRadius=0.045mm|HoleSize=0mm|Usage=FLASHONLY|Rotation=270.000|XOffset=0mm|YOffset=0mm|HoleType=Round|Shape=RoundedRectangle|*
%AMROUNDEDRECTD20*
21,1,0.6400,0.5100,0,0,270.0*
21,1,0.5500,0.6000,0,0,270.0*
1,1,0.0900,-0.2550,-0.2750*
1,1,0.0900,-0.2550,0.2750*
1,1,0.0900,0.2550,0.2750*
1,1,0.0900,0.2550,-0.2750*
%
%ADD20ROUNDEDRECTD20*%
%ADD21R,0.6000X0.7500*%
%ADD37R,1.3000X1.8000*%
%ADD75C,2.0000*%
G04:AMPARAMS|DCode=76|XSize=2mm|YSize=2mm|CornerRadius=0.5mm|HoleSize=0mm|Usage=FLASHONLY|Rotation=180.000|XOffset=0mm|YOffset=0mm|HoleType=Round|Shape=RoundedRectangle|*
%AMROUNDEDRECTD76*
21,1,2.0000,1.0000,0,0,180.0*
21,1,1.0000,2.0000,0,0,180.0*
1,1,1.0000,-0.5000,0.5000*
1,1,1.0000,0.5000,0.5000*
1,1,1.0000,0.5000,-0.5000*
1,1,1.0000,-0.5000,-0.5000*
%
%ADD76ROUNDEDRECTD76*%
%ADD85C,0.4000*%
%ADD86C,0.5000*%
%ADD87C,0.2100*%
%ADD89C,0.3000*%
%ADD90C,0.6000*%
%ADD93C,1.4000*%
G04:AMPARAMS|DCode=94|XSize=1.4mm|YSize=1.4mm|CornerRadius=0.14mm|HoleSize=0mm|Usage=FLASHONLY|Rotation=90.000|XOffset=0mm|YOffset=0mm|HoleType=Round|Shape=RoundedRectangle|*
%AMROUNDEDRECTD94*
21,1,1.4000,1.1200,0,0,90.0*
21,1,1.1200,1.4000,0,0,90.0*
1,1,0.2800,0.5600,0.5600*
1,1,0.2800,0.5600,-0.5600*
1,1,0.2800,-0.5600,-0.5600*
1,1,0.2800,-0.5600,0.5600*
%
%ADD94ROUNDEDRECTD94*%
%ADD95C,1.2000*%
%ADD96C,1.7000*%
%ADD97C,3.5000*%
%ADD98O,4.8000X6.0000*%
%ADD99C,1.6000*%
%ADD100C,1.1000*%
%ADD101O,1.9500X1.9000*%
%ADD102C,0.2500*%
%ADD103O,2.1000X1.0000*%
%ADD104O,1.6000X1.0000*%
%ADD105C,3.3000*%
%ADD106C,2.7000*%
%ADD107C,1.8000*%
G04:AMPARAMS|DCode=108|XSize=1.6mm|YSize=1.6mm|CornerRadius=0.4mm|HoleSize=0mm|Usage=FLASHONLY|Rotation=90.000|XOffset=0mm|YOffset=0mm|HoleType=Round|Shape=RoundedRectangle|*
%AMROUNDEDRECTD108*
21,1,1.6000,0.8000,0,0,90.0*
21,1,0.8000,1.6000,0,0,90.0*
1,1,0.8000,0.4000,0.4000*
1,1,0.8000,0.4000,-0.4000*
1,1,0.8000,-0.4000,-0.4000*
1,1,0.8000,-0.4000,0.4000*
%
%ADD108ROUNDEDRECTD108*%
%ADD109C,0.7200*%
%ADD110C,1.0000*%
G04:AMPARAMS|DCode=112|XSize=1.8mm|YSize=1.4mm|CornerRadius=0.105mm|HoleSize=0mm|Usage=FLASHONLY|Rotation=270.000|XOffset=0mm|YOffset=0mm|HoleType=Round|Shape=RoundedRectangle|*
%AMROUNDEDRECTD112*
21,1,1.8000,1.1900,0,0,270.0*
21,1,1.5900,1.4000,0,0,270.0*
1,1,0.2100,-0.5950,-0.7950*
1,1,0.2100,-0.5950,0.7950*
1,1,0.2100,0.5950,0.7950*
1,1,0.2100,0.5950,-0.7950*
%
%ADD112ROUNDEDRECTD112*%
G04:AMPARAMS|DCode=113|XSize=1.2mm|YSize=0.65mm|CornerRadius=0.065mm|HoleSize=0mm|Usage=FLASHONLY|Rotation=180.000|XOffset=0mm|YOffset=0mm|HoleType=Round|Shape=RoundedRectangle|*
%AMROUNDEDRECTD113*
21,1,1.2000,0.5200,0,0,180.0*
21,1,1.0700,0.6500,0,0,180.0*
1,1,0.1300,-0.5350,0.2600*
1,1,0.1300,0.5350,0.2600*
1,1,0.1300,0.5350,-0.2600*
1,1,0.1300,-0.5350,-0.2600*
%
%ADD113ROUNDEDRECTD113*%
%ADD114R,1.0000X0.9000*%
G04:AMPARAMS|DCode=115|XSize=1.6mm|YSize=0.9mm|CornerRadius=0.0675mm|HoleSize=0mm|Usage=FLASHONLY|Rotation=90.000|XOffset=0mm|YOffset=0mm|HoleType=Round|Shape=RoundedRectangle|*
%AMROUNDEDRECTD115*
21,1,1.6000,0.7650,0,0,90.0*
21,1,1.4650,0.9000,0,0,90.0*
1,1,0.1350,0.3825,0.7325*
1,1,0.1350,0.3825,-0.7325*
1,1,0.1350,-0.3825,-0.7325*
1,1,0.1350,-0.3825,0.7325*
%
%ADD115ROUNDEDRECTD115*%
G04:AMPARAMS|DCode=116|XSize=1.6mm|YSize=0.9mm|CornerRadius=0.0675mm|HoleSize=0mm|Usage=FLASHONLY|Rotation=180.000|XOffset=0mm|YOffset=0mm|HoleType=Round|Shape=RoundedRectangle|*
%AMROUNDEDRECTD116*
21,1,1.6000,0.7650,0,0,180.0*
21,1,1.4650,0.9000,0,0,180.0*
1,1,0.1350,-0.7325,0.3825*
1,1,0.1350,0.7325,0.3825*
1,1,0.1350,0.7325,-0.3825*
1,1,0.1350,-0.7325,-0.3825*
%
%ADD116ROUNDEDRECTD116*%
G04:AMPARAMS|DCode=117|XSize=1.5mm|YSize=3mm|CornerRadius=0.15mm|HoleSize=0mm|Usage=FLASHONLY|Rotation=270.000|XOffset=0mm|YOffset=0mm|HoleType=Round|Shape=RoundedRectangle|*
%AMROUNDEDRECTD117*
21,1,1.5000,2.7000,0,0,270.0*
21,1,1.2000,3.0000,0,0,270.0*
1,1,0.3000,-1.3500,-0.6000*
1,1,0.3000,-1.3500,0.6000*
1,1,0.3000,1.3500,0.6000*
1,1,0.3000,1.3500,-0.6000*
%
%ADD117ROUNDEDRECTD117*%
G04:AMPARAMS|DCode=118|XSize=5mm|YSize=5mm|CornerRadius=0.625mm|HoleSize=0mm|Usage=FLASHONLY|Rotation=270.000|XOffset=0mm|YOffset=0mm|HoleType=Round|Shape=RoundedRectangle|*
%AMROUNDEDRECTD118*
21,1,5.0000,3.7500,0,0,270.0*
21,1,3.7500,5.0000,0,0,270.0*
1,1,1.2500,-1.8750,-1.8750*
1,1,1.2500,-1.8750,1.8750*
1,1,1.2500,1.8750,1.8750*
1,1,1.2500,1.8750,-1.8750*
%
%ADD118ROUNDEDRECTD118*%
G04:AMPARAMS|DCode=119|XSize=1.45mm|YSize=2mm|CornerRadius=0.1088mm|HoleSize=0mm|Usage=FLASHONLY|Rotation=180.000|XOffset=0mm|YOffset=0mm|HoleType=Round|Shape=RoundedRectangle|*
%AMROUNDEDRECTD119*
21,1,1.4500,1.7825,0,0,180.0*
21,1,1.2325,2.0000,0,0,180.0*
1,1,0.2175,-0.6163,0.8913*
1,1,0.2175,0.6163,0.8913*
1,1,0.2175,0.6163,-0.8913*
1,1,0.2175,-0.6163,-0.8913*
%
%ADD119ROUNDEDRECTD119*%
G04:AMPARAMS|DCode=120|XSize=0.8mm|YSize=1.5mm|CornerRadius=0.06mm|HoleSize=0mm|Usage=FLASHONLY|Rotation=180.000|XOffset=0mm|YOffset=0mm|HoleType=Round|Shape=RoundedRectangle|*
%AMROUNDEDRECTD120*
21,1,0.8000,1.3800,0,0,180.0*
21,1,0.6800,1.5000,0,0,180.0*
1,1,0.1200,-0.3400,0.6900*
1,1,0.1200,0.3400,0.6900*
1,1,0.1200,0.3400,-0.6900*
1,1,0.1200,-0.3400,-0.6900*
%
%ADD120ROUNDEDRECTD120*%
%ADD121R,3.7000X1.1000*%
G36*
X1361516Y1492900D02*
X1361083Y1491853D01*
X1360839Y1490000D01*
X1361083Y1488147D01*
X1361798Y1486419D01*
X1362263Y1485814D01*
X1361100Y1483904D01*
X1350400D01*
X1349327Y1483690D01*
X1348417Y1483083D01*
X1347810Y1482173D01*
X1347596Y1481100D01*
Y1475900D01*
X1347810Y1474827D01*
X1348336Y1473750D01*
X1347810Y1472673D01*
X1347596Y1471600D01*
Y1466400D01*
X1347810Y1465327D01*
X1348072Y1464934D01*
X1347769Y1464731D01*
X1346962Y1463524D01*
X1346837Y1462895D01*
X1344696D01*
X1344640Y1463173D01*
X1344033Y1464083D01*
X1343197Y1465503D01*
X1343314Y1466794D01*
X1343667Y1467646D01*
X1343911Y1469500D01*
X1343667Y1471353D01*
X1342952Y1473081D01*
X1341814Y1474564D01*
X1340331Y1475702D01*
X1338604Y1476417D01*
X1336750Y1476661D01*
X1334897Y1476417D01*
X1333169Y1475702D01*
X1331100Y1476761D01*
Y1483000D01*
X1332000D01*
Y1487750D01*
X1326000D01*
X1320000D01*
Y1483000D01*
X1320900D01*
Y1472400D01*
X1322788D01*
Y1453750D01*
X1323033Y1452521D01*
X1323729Y1451479D01*
X1327229Y1447979D01*
X1328271Y1447283D01*
X1328582Y1447221D01*
X1328760Y1446327D01*
X1329286Y1445250D01*
X1328760Y1444173D01*
X1328546Y1443100D01*
Y1437900D01*
X1328760Y1436827D01*
X1329367Y1435917D01*
X1330277Y1435310D01*
X1331350Y1435096D01*
X1341116D01*
X1341200Y1435079D01*
X1351896D01*
X1353484Y1433993D01*
X1353761Y1433057D01*
X1352917Y1431795D01*
X1352560Y1430000D01*
Y1425850D01*
X1350150D01*
Y1423957D01*
X1344850D01*
Y1426867D01*
X1303650D01*
Y1426203D01*
X1301550Y1425333D01*
X1297566Y1429316D01*
X1296045Y1430333D01*
X1294250Y1430690D01*
X1291386D01*
X1290695Y1431152D01*
X1290057Y1431279D01*
X1289967Y1431729D01*
X1289271Y1432771D01*
X1286771Y1435271D01*
X1285729Y1435967D01*
X1284500Y1436212D01*
X1277157D01*
X1275976Y1438312D01*
X1276312Y1440000D01*
X1275869Y1442224D01*
X1275484Y1442800D01*
X1276607Y1444900D01*
X1285850D01*
Y1446254D01*
X1289299D01*
X1289662Y1445712D01*
X1290505Y1445148D01*
X1291500Y1444950D01*
X1297000D01*
X1297995Y1445148D01*
X1298838Y1445712D01*
X1299251Y1446329D01*
X1301741D01*
X1302805Y1444265D01*
X1302760Y1444173D01*
X1302546Y1443100D01*
Y1437900D01*
X1302760Y1436827D01*
X1303367Y1435917D01*
X1304277Y1435310D01*
X1305350Y1435096D01*
X1316050D01*
X1317123Y1435310D01*
X1318033Y1435917D01*
X1318640Y1436827D01*
X1318854Y1437900D01*
Y1443100D01*
X1318640Y1444173D01*
X1318114Y1445250D01*
X1318640Y1446327D01*
X1318854Y1447400D01*
Y1452600D01*
X1318640Y1453673D01*
X1318114Y1454750D01*
X1318640Y1455827D01*
X1318854Y1456900D01*
Y1462100D01*
X1318640Y1463173D01*
X1318033Y1464083D01*
X1317123Y1464690D01*
X1316050Y1464904D01*
X1307200D01*
X1302204Y1469900D01*
X1303074Y1472000D01*
X1306000D01*
Y1482000D01*
X1298500D01*
Y1473180D01*
X1297550Y1472400D01*
X1297550Y1472400D01*
X1293625D01*
X1293625Y1472400D01*
X1293625Y1472400D01*
X1289136D01*
X1287831Y1473402D01*
X1287600Y1473497D01*
Y1495000D01*
X1298500D01*
Y1486000D01*
X1308000D01*
X1317500D01*
Y1495000D01*
X1320000D01*
Y1491750D01*
X1326000D01*
X1332000D01*
Y1495000D01*
X1360474D01*
X1361516Y1492900D01*
D02*
G37*
G36*
X1795000Y1005000D02*
X1403118D01*
X1402805Y1005615D01*
X1402560Y1007100D01*
X1404615Y1008677D01*
X1406474Y1011100D01*
X1407643Y1013922D01*
X1408041Y1016950D01*
X1407643Y1019978D01*
X1406474Y1022800D01*
X1404615Y1025223D01*
X1402191Y1027082D01*
X1399370Y1028251D01*
X1396341Y1028650D01*
X1395841D01*
X1392813Y1028251D01*
X1389991Y1027082D01*
X1387568Y1025223D01*
X1385709Y1022800D01*
X1384540Y1019978D01*
X1384141Y1016950D01*
X1384540Y1013922D01*
X1385709Y1011100D01*
X1387568Y1008677D01*
X1389623Y1007100D01*
X1389378Y1005615D01*
X1389065Y1005000D01*
X1366976D01*
X1366524Y1005964D01*
X1366403Y1007100D01*
X1368523Y1008727D01*
X1370383Y1011150D01*
X1371551Y1013972D01*
X1371950Y1017000D01*
X1371551Y1020028D01*
X1370383Y1022850D01*
X1368523Y1025273D01*
X1366100Y1027133D01*
X1363278Y1028301D01*
X1360250Y1028700D01*
X1359750D01*
X1356722Y1028301D01*
X1353900Y1027133D01*
X1351477Y1025273D01*
X1349617Y1022850D01*
X1348449Y1020028D01*
X1348050Y1017000D01*
X1348449Y1013972D01*
X1349617Y1011150D01*
X1351477Y1008727D01*
X1353597Y1007100D01*
X1353476Y1005964D01*
X1353024Y1005000D01*
X1332594D01*
X1331882Y1007100D01*
X1333165Y1008085D01*
X1335169Y1010696D01*
X1336428Y1013737D01*
X1336595Y1015000D01*
X1311405D01*
X1311572Y1013737D01*
X1312831Y1010696D01*
X1314835Y1008085D01*
X1316118Y1007100D01*
X1315406Y1005000D01*
X1119872D01*
X1118974Y1006898D01*
X1119336Y1007339D01*
X1120868Y1010205D01*
X1121811Y1013315D01*
X1121933Y1014550D01*
X1105550D01*
X1089167D01*
X1089289Y1013315D01*
X1090232Y1010205D01*
X1091764Y1007339D01*
X1092126Y1006898D01*
X1091228Y1005000D01*
X1005000D01*
Y1495000D01*
X1093277D01*
X1093582Y1494493D01*
X1093930Y1492900D01*
X1091826Y1491174D01*
X1089764Y1488661D01*
X1088232Y1485795D01*
X1087289Y1482685D01*
X1087167Y1481450D01*
X1103550D01*
X1119933D01*
X1119811Y1482685D01*
X1118868Y1485795D01*
X1117336Y1488661D01*
X1115274Y1491174D01*
X1113170Y1492900D01*
X1113518Y1494493D01*
X1113823Y1495000D01*
X1270400D01*
Y1488465D01*
X1267015D01*
X1267015Y1488465D01*
X1265025Y1488069D01*
X1263338Y1486942D01*
X1257061Y1480665D01*
X1256159Y1481039D01*
X1253000Y1481454D01*
X1249841Y1481039D01*
X1246898Y1479819D01*
X1244370Y1477880D01*
X1242431Y1475352D01*
X1242206Y1474809D01*
X1240050Y1475093D01*
X1239917Y1476104D01*
X1239202Y1477831D01*
X1238064Y1479314D01*
X1236581Y1480452D01*
X1234854Y1481167D01*
X1233000Y1481411D01*
X1223000D01*
X1221146Y1481167D01*
X1219419Y1480452D01*
X1217936Y1479314D01*
X1216798Y1477831D01*
X1216083Y1476104D01*
X1215839Y1474250D01*
Y1464250D01*
X1216083Y1462397D01*
X1216798Y1460669D01*
X1217936Y1459186D01*
X1219419Y1458048D01*
X1221146Y1457333D01*
X1223000Y1457089D01*
X1233000D01*
X1234854Y1457333D01*
X1236581Y1458048D01*
X1238064Y1459186D01*
X1239202Y1460669D01*
X1239917Y1462397D01*
X1240050Y1463407D01*
X1242206Y1463691D01*
X1242431Y1463148D01*
X1244370Y1460620D01*
X1246898Y1458681D01*
X1249346Y1457666D01*
X1249609Y1456345D01*
X1250405Y1455155D01*
X1258155Y1447404D01*
X1258223Y1447359D01*
X1257873Y1445845D01*
X1257563Y1445274D01*
X1255526Y1444869D01*
X1253641Y1443609D01*
X1252442Y1441816D01*
X1251174Y1441607D01*
X1250231Y1441681D01*
X1249109Y1443360D01*
X1247224Y1444619D01*
X1245000Y1445062D01*
X1242776Y1444619D01*
X1240891Y1443360D01*
X1239631Y1441474D01*
X1239188Y1439250D01*
X1239631Y1437026D01*
X1240891Y1435141D01*
X1242776Y1433881D01*
X1245000Y1433438D01*
X1247224Y1433881D01*
X1249109Y1435141D01*
X1250308Y1436934D01*
X1251576Y1437143D01*
X1252519Y1437069D01*
X1253641Y1435391D01*
X1255526Y1434131D01*
X1257559Y1433726D01*
X1257982Y1433266D01*
X1258812Y1431759D01*
X1258529Y1431300D01*
X1245650D01*
Y1429870D01*
X1241100D01*
Y1431300D01*
X1230500D01*
Y1432200D01*
X1225750D01*
Y1426200D01*
Y1420200D01*
X1226924D01*
X1227996Y1418100D01*
X1227583Y1417103D01*
X1227339Y1415250D01*
X1227583Y1413396D01*
X1228298Y1411669D01*
X1229436Y1410186D01*
X1229797Y1409910D01*
Y1407340D01*
X1229436Y1407064D01*
X1228298Y1405581D01*
X1227583Y1403853D01*
X1227339Y1402000D01*
X1227583Y1400147D01*
X1228298Y1398419D01*
X1229436Y1396936D01*
X1230919Y1395798D01*
X1232646Y1395083D01*
X1234500Y1394839D01*
X1236134Y1395054D01*
X1236590Y1394882D01*
X1238150Y1393554D01*
Y1382250D01*
X1237250D01*
Y1376750D01*
X1245250D01*
Y1374750D01*
X1247250D01*
Y1367250D01*
X1250935D01*
Y1342875D01*
X1251292Y1341080D01*
X1252309Y1339559D01*
X1260934Y1330934D01*
X1262455Y1329917D01*
X1264250Y1329560D01*
X1299250D01*
X1301045Y1329917D01*
X1302566Y1330934D01*
X1317533Y1345900D01*
X1318000Y1345839D01*
X1319854Y1346083D01*
X1321581Y1346798D01*
X1323064Y1347936D01*
X1323351Y1348310D01*
X1325900D01*
X1326186Y1347936D01*
X1327669Y1346798D01*
X1329397Y1346083D01*
X1331250Y1345839D01*
X1333103Y1346083D01*
X1334831Y1346798D01*
X1336314Y1347936D01*
X1337452Y1349419D01*
X1338167Y1351147D01*
X1338411Y1353000D01*
X1338167Y1354854D01*
X1337452Y1356581D01*
X1336314Y1358064D01*
X1334831Y1359202D01*
X1333103Y1359917D01*
X1331250Y1360161D01*
X1329397Y1359917D01*
X1327669Y1359202D01*
X1326186Y1358064D01*
X1325900Y1357690D01*
X1323351D01*
X1323064Y1358064D01*
X1321581Y1359202D01*
X1319854Y1359917D01*
X1318000Y1360161D01*
X1316147Y1359917D01*
X1314419Y1359202D01*
X1312936Y1358064D01*
X1311798Y1356581D01*
X1311083Y1354854D01*
X1310839Y1353000D01*
X1310900Y1352533D01*
X1304865Y1346498D01*
X1302667Y1347103D01*
X1301952Y1348831D01*
X1300814Y1350314D01*
X1299331Y1351452D01*
X1297603Y1352167D01*
X1295750Y1352411D01*
X1293896Y1352167D01*
X1292169Y1351452D01*
X1290686Y1350314D01*
X1290555Y1350143D01*
X1288445D01*
X1288314Y1350314D01*
X1286831Y1351452D01*
X1285103Y1352167D01*
X1283250Y1352411D01*
X1281396Y1352167D01*
X1279669Y1351452D01*
X1278186Y1350314D01*
X1277048Y1348831D01*
X1276333Y1347103D01*
X1276089Y1345250D01*
X1276333Y1343397D01*
X1277048Y1341669D01*
X1277531Y1341040D01*
X1276495Y1338940D01*
X1266193D01*
X1260315Y1344818D01*
Y1348439D01*
X1260650Y1350400D01*
X1270850D01*
Y1352788D01*
X1276750D01*
X1277979Y1353033D01*
X1279021Y1353729D01*
X1282021Y1356729D01*
X1282717Y1357771D01*
X1282962Y1359000D01*
Y1361144D01*
X1284500Y1362500D01*
X1289250D01*
Y1368500D01*
Y1374500D01*
X1284500D01*
X1282962Y1375856D01*
Y1382807D01*
X1283053Y1382892D01*
X1285062Y1383737D01*
X1285327Y1383560D01*
X1286400Y1383346D01*
X1295771D01*
X1303650Y1375467D01*
Y1363633D01*
X1344850D01*
Y1378833D01*
X1313550D01*
X1300983Y1391400D01*
X1300334Y1392239D01*
X1300538Y1394226D01*
X1300822Y1395650D01*
Y1396250D01*
X1291750D01*
Y1400250D01*
X1300822D01*
Y1400850D01*
X1300538Y1402274D01*
X1299731Y1403481D01*
X1299428Y1403684D01*
X1299690Y1404077D01*
X1299904Y1405150D01*
Y1410350D01*
X1299690Y1411423D01*
X1299083Y1412333D01*
X1298173Y1412941D01*
X1297100Y1413154D01*
X1286400D01*
X1285327Y1412941D01*
X1285083Y1412777D01*
X1284753Y1412829D01*
X1283040Y1413764D01*
Y1418892D01*
X1284600Y1420650D01*
X1289700D01*
X1290695Y1420848D01*
X1291386Y1421310D01*
X1292307D01*
X1297667Y1415951D01*
X1299188Y1414934D01*
X1300983Y1414577D01*
X1303650D01*
Y1411667D01*
X1344850D01*
Y1414577D01*
X1347700D01*
X1349250Y1413250D01*
Y1407750D01*
X1365250D01*
Y1413250D01*
X1366807Y1414560D01*
X1368193D01*
X1369750Y1413250D01*
Y1407750D01*
X1385750D01*
Y1413250D01*
X1384850D01*
Y1425850D01*
X1376489D01*
X1375854Y1427950D01*
X1376814Y1428686D01*
X1377952Y1430169D01*
X1378667Y1431897D01*
X1378911Y1433750D01*
X1378667Y1435603D01*
X1377952Y1437331D01*
X1377058Y1438495D01*
X1376996Y1439727D01*
X1377264Y1441072D01*
X1377288Y1441097D01*
X1384346Y1448155D01*
X1385141Y1449345D01*
X1385421Y1450750D01*
Y1454096D01*
X1387100D01*
X1388173Y1454310D01*
X1389083Y1454917D01*
X1389690Y1455827D01*
X1389904Y1456900D01*
Y1462100D01*
X1389690Y1463173D01*
X1389164Y1464250D01*
X1389690Y1465327D01*
X1389904Y1466400D01*
Y1469060D01*
X1392004Y1470183D01*
X1392795Y1469654D01*
X1395019Y1469211D01*
X1397243Y1469654D01*
X1398232Y1470314D01*
X1399973Y1470283D01*
X1400778Y1469682D01*
X1401640Y1468391D01*
X1403526Y1467131D01*
X1405750Y1466688D01*
X1407974Y1467131D01*
X1409859Y1468391D01*
X1411119Y1470276D01*
X1411562Y1472500D01*
X1411119Y1474724D01*
X1410141Y1476188D01*
X1410641Y1477692D01*
X1411071Y1478288D01*
X1449920D01*
X1457149Y1471059D01*
X1456938Y1470000D01*
X1457381Y1467776D01*
X1458641Y1465891D01*
X1460526Y1464631D01*
X1462750Y1464188D01*
X1464974Y1464631D01*
X1466188Y1465442D01*
X1468242Y1464557D01*
X1468288Y1464512D01*
Y1441030D01*
X1466530Y1439506D01*
X1466250Y1439562D01*
X1464026Y1439119D01*
X1462141Y1437859D01*
X1460881Y1435974D01*
X1460438Y1433750D01*
X1460881Y1431526D01*
X1462141Y1429641D01*
X1464026Y1428381D01*
X1466250Y1427938D01*
X1468474Y1428381D01*
X1470359Y1429641D01*
X1471619Y1431526D01*
X1472062Y1433750D01*
X1471851Y1434809D01*
X1473771Y1436729D01*
X1474467Y1437771D01*
X1474712Y1439000D01*
Y1476250D01*
X1474467Y1477479D01*
X1473771Y1478521D01*
X1473101Y1479191D01*
X1473312Y1480250D01*
X1472869Y1482474D01*
X1471609Y1484359D01*
X1469724Y1485619D01*
X1467500Y1486062D01*
X1465276Y1485619D01*
X1463391Y1484359D01*
X1462131Y1482474D01*
X1461688Y1480250D01*
X1462105Y1478157D01*
X1462013Y1478029D01*
X1459996Y1477296D01*
X1453521Y1483771D01*
X1452479Y1484467D01*
X1451250Y1484712D01*
X1432016D01*
X1430869Y1486776D01*
X1431312Y1489000D01*
X1430869Y1491224D01*
X1429749Y1492900D01*
X1429990Y1493866D01*
X1430560Y1495000D01*
X1795000D01*
Y1005000D01*
D02*
G37*
G36*
X1373855Y1463265D02*
X1373810Y1463173D01*
X1373596Y1462100D01*
Y1456900D01*
X1373810Y1455827D01*
X1374417Y1454917D01*
X1375327Y1454310D01*
X1376400Y1454096D01*
X1377417D01*
X1377805Y1451996D01*
X1373148Y1447339D01*
X1358081D01*
X1356676Y1447060D01*
X1355486Y1446264D01*
X1351642Y1442421D01*
X1344854D01*
Y1443100D01*
X1344640Y1444173D01*
X1344114Y1445250D01*
X1344640Y1446327D01*
X1344854Y1447400D01*
Y1452600D01*
X1344640Y1453673D01*
X1344423Y1454117D01*
X1344925Y1455033D01*
X1345564Y1455172D01*
X1347291Y1454983D01*
X1347769Y1454268D01*
X1348976Y1453462D01*
X1350400Y1453179D01*
X1353750D01*
Y1459500D01*
X1355750D01*
Y1461500D01*
X1364821D01*
Y1462100D01*
X1364597Y1463230D01*
X1364903Y1464024D01*
X1365858Y1465329D01*
X1372791D01*
X1373855Y1463265D01*
D02*
G37*
%LPC*%
G36*
X1317500Y1482000D02*
X1310000D01*
Y1472000D01*
X1317500D01*
Y1482000D01*
D02*
G37*
G36*
X1749500Y1478573D02*
Y1470750D01*
X1757323D01*
X1757243Y1471360D01*
X1756235Y1473793D01*
X1754632Y1475882D01*
X1752543Y1477485D01*
X1750110Y1478493D01*
X1749500Y1478573D01*
D02*
G37*
G36*
X1745500Y1478573D02*
X1744890Y1478493D01*
X1742457Y1477485D01*
X1740368Y1475882D01*
X1738765Y1473793D01*
X1737757Y1471360D01*
X1737677Y1470750D01*
X1745500D01*
Y1478573D01*
D02*
G37*
G36*
X1609000Y1481812D02*
X1606776Y1481369D01*
X1604890Y1480110D01*
X1603631Y1478224D01*
X1603188Y1476000D01*
X1603399Y1474941D01*
X1582479Y1454021D01*
X1581783Y1452979D01*
X1581538Y1451750D01*
Y1420500D01*
X1581783Y1419271D01*
X1582479Y1418229D01*
X1593538Y1407170D01*
Y1403531D01*
X1591438Y1403113D01*
X1591259Y1403546D01*
X1589560Y1405760D01*
X1587346Y1407459D01*
X1584767Y1408527D01*
X1582000Y1408891D01*
X1579233Y1408527D01*
X1576654Y1407459D01*
X1574440Y1405760D01*
X1572741Y1403546D01*
X1571673Y1400967D01*
X1571309Y1398200D01*
X1571673Y1395433D01*
X1572741Y1392854D01*
X1574440Y1390640D01*
X1576654Y1388941D01*
X1579233Y1387873D01*
X1582000Y1387509D01*
X1582876Y1387624D01*
X1584093Y1385666D01*
X1583631Y1384974D01*
X1583188Y1382750D01*
X1583631Y1380526D01*
X1584890Y1378640D01*
X1586776Y1377381D01*
X1588939Y1376951D01*
X1589126Y1376677D01*
X1589943Y1374985D01*
X1580729Y1365771D01*
X1580033Y1364729D01*
X1579788Y1363500D01*
Y1269830D01*
X1541020Y1231062D01*
X1471095D01*
X1469866Y1230817D01*
X1468824Y1230121D01*
X1458729Y1220026D01*
X1458033Y1218985D01*
X1457788Y1217755D01*
Y1149330D01*
X1454420Y1145962D01*
X1446766D01*
X1445619Y1148026D01*
X1446062Y1150250D01*
X1445619Y1152474D01*
X1444359Y1154360D01*
X1442474Y1155619D01*
X1440250Y1156062D01*
X1438026Y1155619D01*
X1436140Y1154360D01*
X1434881Y1152474D01*
X1434438Y1150250D01*
X1434881Y1148026D01*
X1433734Y1145962D01*
X1423336D01*
X1419576Y1149721D01*
X1418535Y1150417D01*
X1417305Y1150662D01*
X1416209D01*
X1415609Y1151560D01*
X1413724Y1152819D01*
X1411728Y1153216D01*
X1411237Y1154023D01*
X1410807Y1155265D01*
X1449420Y1193878D01*
X1450117Y1194920D01*
X1450361Y1196150D01*
Y1229520D01*
X1457730Y1236889D01*
X1517899D01*
X1519129Y1237133D01*
X1520170Y1237830D01*
X1528271Y1245930D01*
X1528967Y1246972D01*
X1529212Y1248201D01*
Y1255846D01*
X1529825D01*
X1530908Y1256061D01*
X1531088Y1256181D01*
X1531837Y1256670D01*
X1533797Y1255844D01*
X1534741Y1255213D01*
X1536175Y1254928D01*
X1538000D01*
Y1266000D01*
Y1277072D01*
X1536175D01*
X1534741Y1276787D01*
X1533797Y1276156D01*
X1531837Y1275330D01*
X1531088Y1275819D01*
X1530908Y1275939D01*
X1529825Y1276154D01*
X1522175D01*
X1521092Y1275939D01*
X1520174Y1275326D01*
X1517826D01*
X1516908Y1275939D01*
X1515825Y1276154D01*
X1508175D01*
X1507092Y1275939D01*
X1506227Y1275361D01*
X1506161Y1275326D01*
X1505000D01*
X1503839D01*
X1503773Y1275361D01*
X1502908Y1275939D01*
X1501825Y1276154D01*
X1501212D01*
Y1290250D01*
X1500967Y1291479D01*
X1500271Y1292521D01*
X1496851Y1295941D01*
X1497062Y1297000D01*
X1496619Y1299224D01*
X1495359Y1301109D01*
X1494332Y1301796D01*
Y1304120D01*
X1494087Y1305349D01*
X1493391Y1306391D01*
X1480856Y1318925D01*
X1481233Y1320103D01*
X1481761Y1320990D01*
X1483724Y1321381D01*
X1485609Y1322641D01*
X1486869Y1324526D01*
X1487312Y1326750D01*
X1486869Y1328974D01*
X1485609Y1330860D01*
X1483724Y1332119D01*
X1481500Y1332562D01*
X1480441Y1332351D01*
X1475854Y1336938D01*
X1475874Y1337293D01*
X1476532Y1339038D01*
X1479000D01*
X1480229Y1339283D01*
X1481271Y1339979D01*
X1484271Y1342979D01*
X1484967Y1344021D01*
X1485212Y1345250D01*
Y1345908D01*
X1486099Y1346451D01*
X1487312Y1346799D01*
X1488195Y1346209D01*
X1489600Y1345930D01*
X1491000D01*
Y1356500D01*
Y1367070D01*
X1489600D01*
X1488195Y1366791D01*
X1487005Y1365995D01*
X1486810Y1365705D01*
X1486454Y1365943D01*
X1485400Y1366153D01*
X1478600D01*
X1478075Y1366048D01*
X1477252Y1366641D01*
X1476851Y1367065D01*
X1476454Y1367704D01*
X1476812Y1369500D01*
X1476369Y1371724D01*
X1475110Y1373609D01*
X1473224Y1374869D01*
X1471000Y1375312D01*
X1468776Y1374869D01*
X1466891Y1373609D01*
X1465631Y1371724D01*
X1465188Y1369500D01*
X1465546Y1367704D01*
X1465149Y1367065D01*
X1464748Y1366641D01*
X1463925Y1366048D01*
X1463400Y1366153D01*
X1456600D01*
X1455547Y1365943D01*
X1454653Y1365347D01*
X1454347D01*
X1453454Y1365943D01*
X1452400Y1366153D01*
X1445600D01*
X1444547Y1365943D01*
X1443653Y1365347D01*
X1443347D01*
X1442453Y1365943D01*
X1441400Y1366153D01*
X1434600D01*
X1433546Y1365943D01*
X1432653Y1365347D01*
X1432057Y1364453D01*
X1431847Y1363400D01*
Y1351135D01*
X1430250Y1349312D01*
X1428026Y1348869D01*
X1426140Y1347610D01*
X1424881Y1345724D01*
X1424438Y1343500D01*
X1424881Y1341276D01*
X1425025Y1341060D01*
X1424788Y1339870D01*
Y1317250D01*
X1425033Y1316021D01*
X1425729Y1314979D01*
X1433288Y1307420D01*
Y1299253D01*
X1432033Y1298671D01*
X1431188Y1298474D01*
X1429474Y1299619D01*
X1427250Y1300062D01*
X1425026Y1299619D01*
X1423141Y1298360D01*
X1421881Y1296474D01*
X1421438Y1294250D01*
X1421881Y1292026D01*
X1423141Y1290141D01*
X1425026Y1288881D01*
X1427250Y1288438D01*
X1429067Y1288800D01*
X1429168Y1288754D01*
X1430221Y1287872D01*
X1430725Y1287191D01*
X1430438Y1285750D01*
X1430690Y1284483D01*
X1425729Y1279521D01*
X1425033Y1278479D01*
X1424788Y1277250D01*
Y1276154D01*
X1424175D01*
X1423092Y1275939D01*
X1422912Y1275819D01*
X1422163Y1275330D01*
X1420203Y1276156D01*
X1419259Y1276787D01*
X1417825Y1277072D01*
X1416000D01*
Y1266000D01*
Y1254928D01*
X1417825D01*
X1419259Y1255213D01*
X1420095Y1255772D01*
X1420390Y1255713D01*
X1420509Y1255629D01*
X1421640Y1253859D01*
X1420381Y1251974D01*
X1419938Y1249750D01*
X1420381Y1247526D01*
X1421640Y1245640D01*
X1422559Y1245027D01*
Y1211469D01*
X1421661Y1210870D01*
X1420401Y1208984D01*
X1419959Y1206760D01*
X1420401Y1204536D01*
X1421661Y1202651D01*
X1423547Y1201391D01*
X1425771Y1200948D01*
X1427995Y1201391D01*
X1429880Y1202651D01*
X1431140Y1204536D01*
X1431582Y1206760D01*
X1431140Y1208984D01*
X1429880Y1210870D01*
X1428983Y1211469D01*
Y1245055D01*
X1429229Y1245219D01*
X1431641Y1245390D01*
X1433526Y1244131D01*
X1435750Y1243688D01*
X1436691Y1243876D01*
X1437954Y1241986D01*
X1437783Y1241729D01*
X1437538Y1240500D01*
Y1200580D01*
X1373978Y1137020D01*
X1372043Y1138055D01*
X1372062Y1138150D01*
X1371619Y1140374D01*
X1371027Y1141261D01*
X1370533Y1142800D01*
X1371027Y1144339D01*
X1371619Y1145226D01*
X1372062Y1147450D01*
X1371619Y1149674D01*
X1370359Y1151560D01*
X1368474Y1152819D01*
X1368154Y1152883D01*
X1366873Y1155279D01*
X1367102Y1155831D01*
X1367420Y1158246D01*
Y1174996D01*
X1339340D01*
X1311260D01*
Y1158246D01*
X1311578Y1155831D01*
X1312510Y1153581D01*
X1313993Y1151649D01*
X1315605Y1150412D01*
X1315457Y1149189D01*
X1315036Y1148312D01*
X1249100D01*
X1247871Y1148067D01*
X1246829Y1147371D01*
X1238479Y1139021D01*
X1237783Y1137979D01*
X1237538Y1136750D01*
Y1130580D01*
X1235170Y1128212D01*
X1230154D01*
Y1128825D01*
X1229939Y1129908D01*
X1229361Y1130773D01*
X1229326Y1130839D01*
Y1132000D01*
Y1133161D01*
X1229361Y1133227D01*
X1229939Y1134092D01*
X1230154Y1135175D01*
Y1142825D01*
X1229939Y1143908D01*
X1229361Y1144773D01*
X1229326Y1144839D01*
Y1146000D01*
Y1147161D01*
X1229361Y1147227D01*
X1229939Y1148092D01*
X1230154Y1149175D01*
Y1156825D01*
X1229939Y1157908D01*
X1229361Y1158773D01*
X1229326Y1158839D01*
Y1160000D01*
Y1161161D01*
X1229361Y1161227D01*
X1229939Y1162092D01*
X1230154Y1163175D01*
Y1170825D01*
X1229939Y1171908D01*
X1229361Y1172773D01*
X1229326Y1172839D01*
Y1174000D01*
Y1175161D01*
X1229361Y1175227D01*
X1229939Y1176092D01*
X1230154Y1177175D01*
Y1184825D01*
X1229939Y1185908D01*
X1229361Y1186773D01*
X1229326Y1186839D01*
Y1188000D01*
Y1189161D01*
X1229361Y1189227D01*
X1229939Y1190092D01*
X1230154Y1191175D01*
Y1191788D01*
X1244500D01*
X1245729Y1192033D01*
X1246771Y1192729D01*
X1255441Y1201399D01*
X1256500Y1201188D01*
X1258724Y1201631D01*
X1260610Y1202890D01*
X1261869Y1204776D01*
X1262312Y1207000D01*
X1261869Y1209224D01*
X1260610Y1211109D01*
X1258724Y1212369D01*
X1256500Y1212812D01*
X1254276Y1212369D01*
X1252391Y1211109D01*
X1251131Y1209224D01*
X1250688Y1207000D01*
X1250899Y1205941D01*
X1243170Y1198212D01*
X1230154D01*
Y1198825D01*
X1229939Y1199908D01*
X1229361Y1200773D01*
X1229326Y1200839D01*
Y1202000D01*
Y1203161D01*
X1229361Y1203227D01*
X1229939Y1204092D01*
X1230154Y1205175D01*
Y1212825D01*
X1229939Y1213908D01*
X1229361Y1214773D01*
X1229326Y1214839D01*
Y1216000D01*
Y1217161D01*
X1229361Y1217227D01*
X1229361Y1217227D01*
X1230352Y1218259D01*
X1232191Y1218991D01*
X1234076Y1217731D01*
X1236300Y1217288D01*
X1238524Y1217731D01*
X1240409Y1218991D01*
X1241669Y1220876D01*
X1242112Y1223100D01*
X1241669Y1225324D01*
X1240409Y1227209D01*
X1238524Y1228469D01*
X1236300Y1228912D01*
X1234076Y1228469D01*
X1232191Y1227209D01*
X1230844Y1227500D01*
X1229361Y1228773D01*
X1229361Y1228773D01*
X1229326Y1228839D01*
Y1230000D01*
Y1231161D01*
X1229361Y1231227D01*
X1229939Y1232092D01*
X1230154Y1233175D01*
Y1240825D01*
X1230082Y1241188D01*
X1231142Y1242943D01*
X1231542Y1243288D01*
X1268750D01*
X1269979Y1243533D01*
X1271021Y1244229D01*
X1276212Y1249420D01*
X1276508Y1249422D01*
X1278446Y1248954D01*
X1278631Y1248026D01*
X1279891Y1246141D01*
X1281776Y1244881D01*
X1284000Y1244438D01*
X1286224Y1244881D01*
X1288109Y1246141D01*
X1288709Y1247038D01*
X1292981D01*
X1293306Y1246397D01*
X1293540Y1244938D01*
X1292421Y1244079D01*
X1291283Y1242596D01*
X1290567Y1240869D01*
X1290323Y1239016D01*
X1290567Y1237162D01*
X1291283Y1235435D01*
X1292421Y1233952D01*
X1293904Y1232814D01*
X1295631Y1232098D01*
X1297484Y1231854D01*
X1299338Y1232098D01*
X1301065Y1232814D01*
X1302548Y1233952D01*
X1303686Y1235435D01*
X1304402Y1237162D01*
X1304646Y1239016D01*
X1304402Y1240869D01*
X1303686Y1242596D01*
X1302548Y1244079D01*
X1301429Y1244938D01*
X1301663Y1246397D01*
X1301988Y1247038D01*
X1325750D01*
X1326979Y1247283D01*
X1328021Y1247979D01*
X1332271Y1252229D01*
X1332967Y1253271D01*
X1333212Y1254500D01*
Y1255846D01*
X1333825D01*
X1334908Y1256061D01*
X1335773Y1256639D01*
X1335839Y1256674D01*
X1337000D01*
X1338161D01*
X1338227Y1256639D01*
X1339092Y1256061D01*
X1340175Y1255846D01*
X1347825D01*
X1348908Y1256061D01*
X1349773Y1256639D01*
X1349839Y1256674D01*
X1351000D01*
X1352161D01*
X1352227Y1256639D01*
X1353092Y1256061D01*
X1354175Y1255846D01*
X1361825D01*
X1362908Y1256061D01*
X1363773Y1256639D01*
X1363839Y1256674D01*
X1365000D01*
X1366161D01*
X1366227Y1256639D01*
X1367092Y1256061D01*
X1368175Y1255846D01*
X1375825D01*
X1376908Y1256061D01*
X1377773Y1256639D01*
X1377839Y1256674D01*
X1379000D01*
X1380161D01*
X1380227Y1256639D01*
X1381092Y1256061D01*
X1382175Y1255846D01*
X1389825D01*
X1390908Y1256061D01*
X1391088Y1256181D01*
X1391837Y1256670D01*
X1393797Y1255844D01*
X1394741Y1255213D01*
X1396175Y1254928D01*
X1398000D01*
Y1266000D01*
Y1277072D01*
X1396175D01*
X1394741Y1276787D01*
X1393797Y1276156D01*
X1391837Y1275330D01*
X1391088Y1275819D01*
X1390908Y1275939D01*
X1389825Y1276154D01*
X1382175D01*
X1381092Y1275939D01*
X1380227Y1275361D01*
X1380161Y1275326D01*
X1379000D01*
X1377839D01*
X1377773Y1275361D01*
X1376908Y1275939D01*
X1375825Y1276154D01*
X1368175D01*
X1367092Y1275939D01*
X1366227Y1275361D01*
X1366161Y1275326D01*
X1365000D01*
X1363839D01*
X1363773Y1275361D01*
X1362908Y1275939D01*
X1361825Y1276154D01*
X1354175D01*
X1353092Y1275939D01*
X1352227Y1275361D01*
X1352161Y1275326D01*
X1351000D01*
X1349839D01*
X1349773Y1275361D01*
X1348908Y1275939D01*
X1347825Y1276154D01*
X1340175D01*
X1339092Y1275939D01*
X1338227Y1275361D01*
X1338161Y1275326D01*
X1337000D01*
X1335839D01*
X1335773Y1275361D01*
X1334908Y1275939D01*
X1333825Y1276154D01*
X1326175D01*
X1325092Y1275939D01*
X1324174Y1275326D01*
X1321826D01*
X1320908Y1275939D01*
X1319825Y1276154D01*
X1319212D01*
Y1284750D01*
X1318967Y1285979D01*
X1318271Y1287021D01*
X1286371Y1318921D01*
X1285329Y1319617D01*
X1284100Y1319862D01*
X1273382D01*
X1272627Y1319712D01*
X1221080D01*
X1199740Y1341052D01*
X1195212Y1345580D01*
Y1431000D01*
X1194967Y1432229D01*
X1194271Y1433271D01*
X1162771Y1464771D01*
X1161729Y1465467D01*
X1160500Y1465712D01*
X1128250D01*
X1127021Y1465467D01*
X1125979Y1464771D01*
X1119729Y1458521D01*
X1119033Y1457479D01*
X1118788Y1456250D01*
Y1435600D01*
X1119033Y1434371D01*
X1119729Y1433329D01*
X1127489Y1425569D01*
X1126710Y1423687D01*
X1126363Y1421050D01*
X1126710Y1418413D01*
X1127728Y1415957D01*
X1129347Y1413847D01*
X1131456Y1412228D01*
X1133913Y1411210D01*
X1136550Y1410863D01*
X1139187Y1411210D01*
X1141644Y1412228D01*
X1143753Y1413847D01*
X1145372Y1415957D01*
X1146390Y1418413D01*
X1146737Y1421050D01*
X1146707Y1421281D01*
X1148696Y1422262D01*
X1151729Y1419229D01*
X1152771Y1418533D01*
X1154000Y1418288D01*
X1154861D01*
X1155574Y1416188D01*
X1154747Y1415553D01*
X1153128Y1413444D01*
X1152110Y1410987D01*
X1151763Y1408350D01*
X1152110Y1405713D01*
X1153128Y1403257D01*
X1154747Y1401147D01*
X1156856Y1399528D01*
X1159313Y1398510D01*
X1161950Y1398163D01*
X1164587Y1398510D01*
X1167044Y1399528D01*
X1169153Y1401147D01*
X1170772Y1403257D01*
X1171790Y1405713D01*
X1172137Y1408350D01*
X1172137Y1408351D01*
X1174126Y1409332D01*
X1178288Y1405170D01*
Y1374124D01*
X1176188Y1373254D01*
X1171011Y1378432D01*
X1171790Y1380313D01*
X1172137Y1382950D01*
X1171790Y1385587D01*
X1170772Y1388044D01*
X1169153Y1390153D01*
X1167044Y1391772D01*
X1164587Y1392790D01*
X1161950Y1393137D01*
X1159313Y1392790D01*
X1156856Y1391772D01*
X1154747Y1390153D01*
X1153128Y1388044D01*
X1152110Y1385587D01*
X1151763Y1382950D01*
X1152110Y1380313D01*
X1153128Y1377856D01*
X1154747Y1375747D01*
X1156856Y1374128D01*
X1159313Y1373110D01*
X1161950Y1372763D01*
X1164587Y1373110D01*
X1166469Y1373889D01*
X1172538Y1367820D01*
Y1365270D01*
X1170438Y1364557D01*
X1169795Y1365395D01*
X1167497Y1367159D01*
X1164821Y1368267D01*
X1163950Y1368382D01*
Y1357550D01*
Y1346718D01*
X1164821Y1346833D01*
X1167497Y1347942D01*
X1169795Y1349705D01*
X1170438Y1350543D01*
X1172538Y1349830D01*
Y1336000D01*
X1172783Y1334771D01*
X1173426Y1333809D01*
X1173354Y1333506D01*
X1172414Y1331824D01*
X1171750Y1331911D01*
X1169896Y1331667D01*
X1168169Y1330952D01*
X1166686Y1329814D01*
X1165548Y1328331D01*
X1164833Y1326604D01*
X1164589Y1324750D01*
X1164833Y1322897D01*
X1165548Y1321169D01*
X1166686Y1319686D01*
Y1317064D01*
X1165548Y1315581D01*
X1164833Y1313853D01*
X1164589Y1312000D01*
X1164833Y1310147D01*
X1165548Y1308419D01*
X1166686Y1306936D01*
X1168169Y1305798D01*
X1169896Y1305083D01*
X1171750Y1304839D01*
X1173604Y1305083D01*
X1175331Y1305798D01*
X1176814Y1306936D01*
X1177952Y1308419D01*
X1178667Y1310147D01*
X1178911Y1312000D01*
X1178667Y1313853D01*
X1177952Y1315581D01*
X1176814Y1317064D01*
Y1319686D01*
X1177952Y1321169D01*
X1178667Y1322897D01*
X1178911Y1324750D01*
X1178824Y1325414D01*
X1180813Y1326395D01*
X1221806Y1285402D01*
X1221003Y1283462D01*
X1208750D01*
X1207521Y1283217D01*
X1206479Y1282521D01*
X1184104Y1260146D01*
X1183408Y1259104D01*
X1183163Y1257875D01*
Y1224205D01*
X1164979Y1206021D01*
X1164283Y1204979D01*
X1164038Y1203750D01*
Y1168480D01*
X1143949Y1148391D01*
X1142550Y1148670D01*
X1134550D01*
X1132170Y1148196D01*
X1130152Y1146848D01*
X1128804Y1144830D01*
X1128331Y1142450D01*
Y1134450D01*
X1128804Y1132070D01*
X1130152Y1130052D01*
X1132170Y1128704D01*
X1134550Y1128231D01*
X1142550D01*
X1144930Y1128704D01*
X1145045Y1128781D01*
X1147179Y1127743D01*
X1147333Y1126375D01*
X1143068Y1122111D01*
X1141187Y1122890D01*
X1138550Y1123237D01*
X1135913Y1122890D01*
X1133456Y1121872D01*
X1131347Y1120253D01*
X1129728Y1118144D01*
X1128710Y1115687D01*
X1128363Y1113050D01*
X1128710Y1110413D01*
X1129728Y1107956D01*
X1131347Y1105847D01*
X1133456Y1104228D01*
X1135913Y1103210D01*
X1138550Y1102863D01*
X1141187Y1103210D01*
X1143643Y1104228D01*
X1145753Y1105847D01*
X1147372Y1107956D01*
X1148390Y1110413D01*
X1148737Y1113050D01*
X1148390Y1115687D01*
X1147610Y1117569D01*
X1152223Y1122181D01*
X1154700Y1121688D01*
X1155128Y1120656D01*
X1156747Y1118547D01*
X1158856Y1116928D01*
X1161313Y1115910D01*
X1163950Y1115563D01*
X1166587Y1115910D01*
X1169044Y1116928D01*
X1171153Y1118547D01*
X1172772Y1120656D01*
X1173790Y1123113D01*
X1174137Y1125750D01*
X1173790Y1128387D01*
X1172772Y1130844D01*
X1171153Y1132953D01*
X1169044Y1134572D01*
X1166587Y1135590D01*
X1163950Y1135937D01*
X1161313Y1135590D01*
X1158856Y1134572D01*
X1158320Y1134161D01*
X1155968Y1135003D01*
X1155935Y1135143D01*
X1175388Y1154596D01*
X1177488Y1153726D01*
Y1093030D01*
X1168468Y1084010D01*
X1166587Y1084790D01*
X1163950Y1085137D01*
X1161313Y1084790D01*
X1158856Y1083772D01*
X1156747Y1082153D01*
X1155128Y1080044D01*
X1154110Y1077587D01*
X1153763Y1074950D01*
X1154110Y1072313D01*
X1155128Y1069856D01*
X1156747Y1067747D01*
X1158856Y1066128D01*
X1161313Y1065110D01*
X1163950Y1064763D01*
X1166587Y1065110D01*
X1169044Y1066128D01*
X1171153Y1067747D01*
X1172772Y1069856D01*
X1173790Y1072313D01*
X1174137Y1074950D01*
X1173790Y1077587D01*
X1173010Y1079469D01*
X1182971Y1089429D01*
X1183667Y1090471D01*
X1183912Y1091700D01*
Y1151435D01*
X1186012Y1152557D01*
X1186276Y1152381D01*
X1188500Y1151938D01*
X1190724Y1152381D01*
X1192609Y1153641D01*
X1193869Y1155526D01*
X1194312Y1157750D01*
X1193869Y1159974D01*
X1192609Y1161860D01*
X1191712Y1162459D01*
Y1189755D01*
X1193812Y1190764D01*
X1195700Y1190388D01*
X1197924Y1190831D01*
X1199809Y1192091D01*
X1201069Y1193976D01*
X1201512Y1196200D01*
X1201152Y1198010D01*
X1207806Y1204664D01*
X1209054Y1204348D01*
X1210637Y1203229D01*
X1210643Y1203220D01*
X1210674Y1203161D01*
Y1202000D01*
Y1200839D01*
X1210639Y1200773D01*
X1210061Y1199908D01*
X1209846Y1198825D01*
Y1191175D01*
X1210061Y1190092D01*
X1210639Y1189227D01*
X1210674Y1189161D01*
Y1188000D01*
Y1186839D01*
X1210639Y1186773D01*
X1210061Y1185908D01*
X1209846Y1184825D01*
Y1177175D01*
X1210061Y1176092D01*
X1210639Y1175227D01*
X1210674Y1175161D01*
Y1174000D01*
Y1172839D01*
X1210639Y1172773D01*
X1210061Y1171908D01*
X1209846Y1170825D01*
Y1163175D01*
X1210061Y1162092D01*
X1210639Y1161227D01*
X1210674Y1161161D01*
Y1160000D01*
Y1158839D01*
X1210639Y1158773D01*
X1210061Y1157908D01*
X1209846Y1156825D01*
Y1149175D01*
X1210061Y1148092D01*
X1210639Y1147227D01*
X1210674Y1147161D01*
Y1146000D01*
Y1144839D01*
X1210639Y1144773D01*
X1210061Y1143908D01*
X1209846Y1142825D01*
Y1135175D01*
X1210061Y1134092D01*
X1210639Y1133227D01*
X1210674Y1133161D01*
Y1132000D01*
Y1130839D01*
X1210639Y1130773D01*
X1210061Y1129908D01*
X1209846Y1128825D01*
Y1121175D01*
X1210061Y1120092D01*
X1210674Y1119174D01*
Y1116826D01*
X1210061Y1115908D01*
X1209846Y1114825D01*
Y1107175D01*
X1210061Y1106092D01*
X1210674Y1105174D01*
X1211592Y1104561D01*
X1212675Y1104346D01*
X1227325D01*
X1228408Y1104561D01*
X1229326Y1105174D01*
X1229939Y1106092D01*
X1230154Y1107175D01*
Y1108838D01*
X1232055D01*
X1233284Y1109083D01*
X1234326Y1109779D01*
X1247621Y1123074D01*
X1248317Y1124116D01*
X1248562Y1125345D01*
Y1133514D01*
X1252336Y1137288D01*
X1360610D01*
X1360881Y1135926D01*
X1362141Y1134041D01*
X1364026Y1132781D01*
X1366250Y1132338D01*
X1366346Y1132357D01*
X1367380Y1130422D01*
X1363420Y1126462D01*
X1348500D01*
X1347271Y1126217D01*
X1346690Y1125829D01*
X1345264Y1126526D01*
X1344787Y1127023D01*
X1344812Y1127150D01*
X1344369Y1129374D01*
X1343109Y1131260D01*
X1341224Y1132519D01*
X1339000Y1132962D01*
X1336776Y1132519D01*
X1334890Y1131260D01*
X1333631Y1129374D01*
X1333188Y1127150D01*
X1333631Y1124926D01*
X1334890Y1123041D01*
X1333878Y1121192D01*
X1333131Y1120074D01*
X1332688Y1117850D01*
X1333131Y1115626D01*
X1334391Y1113740D01*
X1336276Y1112481D01*
X1338500Y1112038D01*
X1340724Y1112481D01*
X1342610Y1113740D01*
X1343626Y1115261D01*
X1343723D01*
X1344952Y1115506D01*
X1345994Y1116202D01*
X1348465Y1118673D01*
X1348560Y1118650D01*
X1349484Y1116253D01*
X1349131Y1115724D01*
X1348688Y1113500D01*
X1349131Y1111276D01*
X1350390Y1109390D01*
X1352276Y1108131D01*
X1354500Y1107688D01*
X1356724Y1108131D01*
X1358609Y1109390D01*
X1359209Y1110288D01*
X1364500D01*
X1365729Y1110533D01*
X1366771Y1111229D01*
X1403685Y1148143D01*
X1404928Y1147713D01*
X1405734Y1147222D01*
X1406131Y1145226D01*
X1406723Y1144339D01*
X1407217Y1142800D01*
X1406723Y1141261D01*
X1406131Y1140374D01*
X1405688Y1138150D01*
X1406131Y1135926D01*
X1407390Y1134041D01*
X1409276Y1132781D01*
X1411500Y1132338D01*
X1413724Y1132781D01*
X1415609Y1134041D01*
X1416209Y1134938D01*
X1459905D01*
X1461134Y1135183D01*
X1462176Y1135879D01*
X1467871Y1141574D01*
X1468567Y1142616D01*
X1468812Y1143845D01*
Y1213915D01*
X1474435Y1219538D01*
X1545500D01*
X1546729Y1219783D01*
X1547771Y1220479D01*
X1588348Y1261056D01*
X1590288Y1260253D01*
Y1232709D01*
X1589391Y1232110D01*
X1588131Y1230224D01*
X1587688Y1228000D01*
X1588131Y1225776D01*
X1589391Y1223891D01*
X1591276Y1222631D01*
X1593500Y1222188D01*
X1595724Y1222631D01*
X1597229Y1223637D01*
X1598615Y1223199D01*
X1599330Y1222706D01*
Y1200662D01*
X1597050D01*
X1595821Y1200417D01*
X1594779Y1199721D01*
X1594083Y1198679D01*
X1593838Y1197450D01*
Y1181550D01*
X1594083Y1180321D01*
X1594779Y1179279D01*
X1595821Y1178583D01*
X1597050Y1178338D01*
X1608950D01*
X1610179Y1178583D01*
X1611221Y1179279D01*
X1611917Y1180321D01*
X1612162Y1181550D01*
Y1197450D01*
X1611917Y1198679D01*
X1611221Y1199721D01*
X1610179Y1200417D01*
X1608950Y1200662D01*
X1606671D01*
Y1233322D01*
X1608224Y1233631D01*
X1610110Y1234891D01*
X1611369Y1236776D01*
X1611812Y1239000D01*
X1611369Y1241224D01*
X1610110Y1243110D01*
X1608224Y1244369D01*
X1606000Y1244812D01*
X1603776Y1244369D01*
X1601891Y1243110D01*
X1600631Y1241224D01*
X1600188Y1239000D01*
X1600434Y1237767D01*
X1600405Y1237738D01*
X1599609Y1236547D01*
X1599330Y1235143D01*
Y1234956D01*
X1599321Y1234940D01*
X1597229Y1233967D01*
X1596712Y1234402D01*
Y1349170D01*
X1630671Y1383129D01*
X1631367Y1384171D01*
X1631612Y1385400D01*
Y1431338D01*
X1634350D01*
X1635579Y1431583D01*
X1636621Y1432279D01*
X1637317Y1433321D01*
X1637562Y1434550D01*
Y1450450D01*
X1637317Y1451679D01*
X1636621Y1452721D01*
X1635579Y1453417D01*
X1634350Y1453662D01*
X1622450D01*
X1621221Y1453417D01*
X1620179Y1452721D01*
X1619483Y1451679D01*
X1619238Y1450450D01*
Y1434550D01*
X1619483Y1433321D01*
X1620179Y1432279D01*
X1621221Y1431583D01*
X1622450Y1431338D01*
X1625188D01*
Y1386730D01*
X1622079Y1383620D01*
X1620143Y1384655D01*
X1620212Y1385000D01*
Y1401816D01*
X1621109Y1402416D01*
X1622369Y1404301D01*
X1622812Y1406525D01*
X1622369Y1408749D01*
X1621109Y1410634D01*
X1619224Y1411894D01*
X1617000Y1412337D01*
X1614776Y1411894D01*
X1612891Y1410634D01*
X1611631Y1408749D01*
X1611188Y1406525D01*
X1611631Y1404301D01*
X1612891Y1402416D01*
X1613788Y1401816D01*
Y1396516D01*
X1611724Y1395369D01*
X1609500Y1395812D01*
X1607276Y1395369D01*
X1605390Y1394109D01*
X1604131Y1392224D01*
X1603688Y1390000D01*
X1603899Y1388941D01*
X1597874Y1382916D01*
X1595567Y1383579D01*
X1595391Y1384345D01*
X1595449Y1384657D01*
X1599021Y1388229D01*
X1599717Y1389271D01*
X1599962Y1390500D01*
Y1408500D01*
X1599717Y1409729D01*
X1599021Y1410771D01*
X1587962Y1421830D01*
Y1450420D01*
X1607941Y1470399D01*
X1609000Y1470188D01*
X1611224Y1470631D01*
X1613109Y1471891D01*
X1614369Y1473776D01*
X1614812Y1476000D01*
X1614369Y1478224D01*
X1613109Y1480110D01*
X1611224Y1481369D01*
X1609000Y1481812D01*
D02*
G37*
G36*
X1073050Y1477840D02*
X1069404Y1477481D01*
X1065898Y1476417D01*
X1062666Y1474690D01*
X1059834Y1472366D01*
X1057510Y1469534D01*
X1055783Y1466302D01*
X1054719Y1462796D01*
X1054360Y1459150D01*
X1054719Y1455504D01*
X1055783Y1451998D01*
X1057510Y1448766D01*
X1059834Y1445934D01*
X1062666Y1443610D01*
X1065898Y1441883D01*
X1069404Y1440819D01*
X1073050Y1440460D01*
X1076696Y1440819D01*
X1080202Y1441883D01*
X1083434Y1443610D01*
X1086266Y1445934D01*
X1088590Y1448766D01*
X1090317Y1451998D01*
X1091381Y1455504D01*
X1091740Y1459150D01*
X1091381Y1462796D01*
X1090317Y1466302D01*
X1090294Y1466345D01*
X1091826Y1467726D01*
X1094339Y1465664D01*
X1097205Y1464132D01*
X1100315Y1463189D01*
X1101550Y1463067D01*
Y1477450D01*
X1087167D01*
X1087289Y1476216D01*
X1088232Y1473105D01*
X1086368Y1472242D01*
X1086266Y1472366D01*
X1083434Y1474690D01*
X1080202Y1476417D01*
X1076696Y1477481D01*
X1073050Y1477840D01*
D02*
G37*
G36*
X1119933Y1477450D02*
X1105550D01*
Y1463067D01*
X1106785Y1463189D01*
X1109895Y1464132D01*
X1112761Y1465664D01*
X1115274Y1467726D01*
X1117336Y1470239D01*
X1118868Y1473105D01*
X1119811Y1476216D01*
X1119933Y1477450D01*
D02*
G37*
G36*
X1026050Y1454690D02*
Y1444850D01*
X1035890D01*
X1035741Y1445983D01*
X1034532Y1448902D01*
X1032608Y1451409D01*
X1030102Y1453332D01*
X1027183Y1454541D01*
X1026050Y1454690D01*
D02*
G37*
G36*
X1022050D02*
X1020917Y1454541D01*
X1017998Y1453332D01*
X1015491Y1451409D01*
X1013568Y1448902D01*
X1012359Y1445983D01*
X1012210Y1444850D01*
X1022050D01*
Y1454690D01*
D02*
G37*
G36*
X1608950Y1454579D02*
X1605000D01*
Y1444500D01*
X1613079D01*
Y1450450D01*
X1612765Y1452030D01*
X1611870Y1453370D01*
X1610530Y1454265D01*
X1608950Y1454579D01*
D02*
G37*
G36*
X1601000D02*
X1597050D01*
X1595470Y1454265D01*
X1594130Y1453370D01*
X1593235Y1452030D01*
X1592921Y1450450D01*
Y1444500D01*
X1601000D01*
Y1454579D01*
D02*
G37*
G36*
X1405750Y1447812D02*
X1403526Y1447369D01*
X1401640Y1446109D01*
X1400381Y1444224D01*
X1399938Y1442000D01*
X1400381Y1439776D01*
X1401640Y1437890D01*
X1403526Y1436631D01*
X1405750Y1436188D01*
X1407974Y1436631D01*
X1409859Y1437890D01*
X1411119Y1439776D01*
X1411562Y1442000D01*
X1411119Y1444224D01*
X1409859Y1446109D01*
X1407974Y1447369D01*
X1405750Y1447812D01*
D02*
G37*
G36*
X1035890Y1440850D02*
X1026050D01*
Y1431010D01*
X1027183Y1431159D01*
X1030102Y1432368D01*
X1032608Y1434292D01*
X1034532Y1436798D01*
X1035741Y1439717D01*
X1035890Y1440850D01*
D02*
G37*
G36*
X1022050D02*
X1012210D01*
X1012359Y1439717D01*
X1013568Y1436798D01*
X1015491Y1434292D01*
X1017998Y1432368D01*
X1020917Y1431159D01*
X1022050Y1431010D01*
Y1440850D01*
D02*
G37*
G36*
X1757323Y1466750D02*
X1747500D01*
X1737677D01*
X1737757Y1466140D01*
X1738765Y1463707D01*
X1740368Y1461618D01*
X1742457Y1460015D01*
X1743943Y1459400D01*
Y1457126D01*
X1742911Y1456699D01*
X1741010Y1455240D01*
X1739551Y1453339D01*
X1738634Y1451126D01*
X1738322Y1448750D01*
X1738634Y1446375D01*
X1739551Y1444161D01*
X1741010Y1442260D01*
X1742735Y1440936D01*
X1742736Y1440701D01*
X1741900Y1438836D01*
X1740183Y1438495D01*
X1738728Y1437522D01*
X1737755Y1436067D01*
X1737414Y1434350D01*
Y1430750D01*
X1747500D01*
X1757586D01*
Y1434350D01*
X1757245Y1436067D01*
X1756272Y1437522D01*
X1754817Y1438495D01*
X1753100Y1438836D01*
X1752264Y1440701D01*
X1752265Y1440936D01*
X1753990Y1442260D01*
X1755449Y1444161D01*
X1756366Y1446375D01*
X1756678Y1448750D01*
X1756366Y1451126D01*
X1755449Y1453339D01*
X1753990Y1455240D01*
X1752089Y1456699D01*
X1751057Y1457126D01*
Y1459400D01*
X1752543Y1460015D01*
X1754632Y1461618D01*
X1756235Y1463707D01*
X1757243Y1466140D01*
X1757323Y1466750D01*
D02*
G37*
G36*
X1613079Y1440500D02*
X1605000D01*
Y1430421D01*
X1608950D01*
X1610530Y1430735D01*
X1611870Y1431630D01*
X1612765Y1432970D01*
X1613079Y1434550D01*
Y1440500D01*
D02*
G37*
G36*
X1601000D02*
X1592921D01*
Y1434550D01*
X1593235Y1432970D01*
X1594130Y1431630D01*
X1595470Y1430735D01*
X1597050Y1430421D01*
X1601000D01*
Y1440500D01*
D02*
G37*
G36*
X1221750Y1432200D02*
X1217000D01*
Y1428200D01*
X1221750D01*
Y1432200D01*
D02*
G37*
G36*
Y1424200D02*
X1217000D01*
Y1420200D01*
X1221750D01*
Y1424200D01*
D02*
G37*
G36*
X1757586Y1426750D02*
X1749500D01*
Y1418664D01*
X1753100D01*
X1754817Y1419005D01*
X1756272Y1419978D01*
X1757245Y1421433D01*
X1757586Y1423150D01*
Y1426750D01*
D02*
G37*
G36*
X1745500D02*
X1737414D01*
Y1423150D01*
X1737755Y1421433D01*
X1738728Y1419978D01*
X1740183Y1419005D01*
X1741900Y1418664D01*
X1745500D01*
Y1426750D01*
D02*
G37*
G36*
X1407413Y1426580D02*
X1403250D01*
Y1415500D01*
X1411580D01*
Y1422413D01*
X1411263Y1424007D01*
X1410359Y1425359D01*
X1409007Y1426263D01*
X1407413Y1426580D01*
D02*
G37*
G36*
X1544913D02*
X1540750D01*
Y1415500D01*
X1549080D01*
Y1422413D01*
X1548763Y1424007D01*
X1547859Y1425359D01*
X1546507Y1426263D01*
X1544913Y1426580D01*
D02*
G37*
G36*
X1536750D02*
X1532587D01*
X1530993Y1426263D01*
X1529641Y1425359D01*
X1528737Y1424007D01*
X1528420Y1422413D01*
Y1415500D01*
X1536750D01*
Y1426580D01*
D02*
G37*
G36*
X1399250D02*
X1395087D01*
X1393493Y1426263D01*
X1392141Y1425359D01*
X1391237Y1424007D01*
X1390920Y1422413D01*
Y1415500D01*
X1399250D01*
Y1426580D01*
D02*
G37*
G36*
X1506750Y1422583D02*
X1504897Y1422339D01*
X1503169Y1421624D01*
X1501686Y1420486D01*
X1500548Y1419003D01*
X1499833Y1417275D01*
X1499589Y1415422D01*
X1499833Y1413568D01*
X1500548Y1411841D01*
X1501686Y1410358D01*
X1503169Y1409220D01*
X1504897Y1408505D01*
X1506750Y1408261D01*
X1508604Y1408505D01*
X1510331Y1409220D01*
X1511814Y1410358D01*
X1512952Y1411841D01*
X1513667Y1413568D01*
X1513911Y1415422D01*
X1513667Y1417275D01*
X1512952Y1419003D01*
X1511814Y1420486D01*
X1510331Y1421624D01*
X1508604Y1422339D01*
X1506750Y1422583D01*
D02*
G37*
G36*
X1689975Y1417562D02*
X1687751Y1417119D01*
X1685865Y1415860D01*
X1684606Y1413974D01*
X1684163Y1411750D01*
X1684606Y1409526D01*
X1685865Y1407641D01*
X1687751Y1406381D01*
X1689975Y1405938D01*
X1692199Y1406381D01*
X1694084Y1407641D01*
X1695344Y1409526D01*
X1695787Y1411750D01*
X1695344Y1413974D01*
X1694084Y1415860D01*
X1692199Y1417119D01*
X1689975Y1417562D01*
D02*
G37*
G36*
X1549080Y1411500D02*
X1540750D01*
Y1400420D01*
X1544913D01*
X1546507Y1400737D01*
X1547859Y1401641D01*
X1548763Y1402993D01*
X1549080Y1404588D01*
Y1411500D01*
D02*
G37*
G36*
X1536750D02*
X1528420D01*
Y1404588D01*
X1528737Y1402993D01*
X1529641Y1401641D01*
X1530993Y1400737D01*
X1532587Y1400420D01*
X1536750D01*
Y1411500D01*
D02*
G37*
G36*
X1411580D02*
X1403250D01*
Y1400420D01*
X1407413D01*
X1409007Y1400737D01*
X1410359Y1401641D01*
X1411263Y1402993D01*
X1411580Y1404588D01*
Y1411500D01*
D02*
G37*
G36*
X1399250D02*
X1390920D01*
Y1404588D01*
X1391237Y1402993D01*
X1392141Y1401641D01*
X1393493Y1400737D01*
X1395087Y1400420D01*
X1399250D01*
Y1411500D01*
D02*
G37*
G36*
X1385750Y1403750D02*
X1379750D01*
Y1398250D01*
X1385750D01*
Y1403750D01*
D02*
G37*
G36*
X1375750D02*
X1369750D01*
Y1398250D01*
X1375750D01*
Y1403750D01*
D02*
G37*
G36*
X1365250D02*
X1359250D01*
Y1398250D01*
X1365250D01*
Y1403750D01*
D02*
G37*
G36*
X1355250D02*
X1349250D01*
Y1398250D01*
X1355250D01*
Y1403750D01*
D02*
G37*
G36*
X1659750Y1453662D02*
X1647850D01*
X1646621Y1453417D01*
X1645579Y1452721D01*
X1644883Y1451679D01*
X1644638Y1450450D01*
Y1434550D01*
X1644883Y1433321D01*
X1645579Y1432279D01*
X1646621Y1431583D01*
X1647850Y1431338D01*
X1650588D01*
Y1396280D01*
X1650833Y1395051D01*
X1651305Y1394344D01*
X1650938Y1392500D01*
X1651381Y1390276D01*
X1652641Y1388391D01*
X1654526Y1387131D01*
X1656750Y1386688D01*
X1658974Y1387131D01*
X1660860Y1388391D01*
X1662119Y1390276D01*
X1662562Y1392500D01*
X1662119Y1394724D01*
X1660860Y1396609D01*
X1658974Y1397869D01*
X1657012Y1398260D01*
Y1431338D01*
X1659750D01*
X1660979Y1431583D01*
X1662021Y1432279D01*
X1662717Y1433321D01*
X1662962Y1434550D01*
Y1450450D01*
X1662717Y1451679D01*
X1662021Y1452721D01*
X1660979Y1453417D01*
X1659750Y1453662D01*
D02*
G37*
G36*
X1136550Y1405837D02*
X1133913Y1405490D01*
X1131456Y1404472D01*
X1129347Y1402853D01*
X1127728Y1400744D01*
X1126710Y1398287D01*
X1126363Y1395650D01*
X1126710Y1393013D01*
X1127728Y1390556D01*
X1129347Y1388447D01*
X1131456Y1386828D01*
X1133913Y1385810D01*
X1136550Y1385463D01*
X1139187Y1385810D01*
X1141644Y1386828D01*
X1143753Y1388447D01*
X1145372Y1390556D01*
X1146390Y1393013D01*
X1146737Y1395650D01*
X1146390Y1398287D01*
X1145372Y1400744D01*
X1143753Y1402853D01*
X1141644Y1404472D01*
X1139187Y1405490D01*
X1136550Y1405837D01*
D02*
G37*
G36*
X1293250Y1374500D02*
Y1370500D01*
X1298000D01*
Y1374500D01*
X1293250D01*
D02*
G37*
G36*
X1243250Y1372750D02*
X1237250D01*
Y1367250D01*
X1243250D01*
Y1372750D01*
D02*
G37*
G36*
X1298000Y1366500D02*
X1293250D01*
Y1362500D01*
X1298000D01*
Y1366500D01*
D02*
G37*
G36*
X1136550Y1380437D02*
X1133913Y1380090D01*
X1131456Y1379072D01*
X1129347Y1377453D01*
X1127728Y1375344D01*
X1126710Y1372887D01*
X1126363Y1370250D01*
X1126710Y1367613D01*
X1127728Y1365157D01*
X1129347Y1363047D01*
X1131456Y1361428D01*
X1133913Y1360410D01*
X1136550Y1360063D01*
X1139187Y1360410D01*
X1141644Y1361428D01*
X1143753Y1363047D01*
X1145372Y1365157D01*
X1146390Y1367613D01*
X1146737Y1370250D01*
X1146390Y1372887D01*
X1145372Y1375344D01*
X1143753Y1377453D01*
X1141644Y1379072D01*
X1139187Y1380090D01*
X1136550Y1380437D01*
D02*
G37*
G36*
X1159950Y1368382D02*
X1159078Y1368267D01*
X1156403Y1367159D01*
X1154105Y1365395D01*
X1152342Y1363098D01*
X1151233Y1360422D01*
X1151118Y1359550D01*
X1159950D01*
Y1368382D01*
D02*
G37*
G36*
X1496400Y1367070D02*
X1495000D01*
Y1356500D01*
Y1345930D01*
X1496400D01*
X1497805Y1346209D01*
X1498688Y1346799D01*
X1499901Y1346451D01*
X1500788Y1345908D01*
Y1327792D01*
X1500141Y1327359D01*
X1498881Y1325474D01*
X1498438Y1323250D01*
X1498881Y1321026D01*
X1500141Y1319140D01*
X1502026Y1317881D01*
X1504250Y1317438D01*
X1506474Y1317881D01*
X1508360Y1319140D01*
X1509619Y1321026D01*
X1510062Y1323250D01*
X1509619Y1325474D01*
X1508360Y1327359D01*
X1507212Y1328126D01*
Y1346847D01*
X1507400D01*
X1508454Y1347057D01*
X1509347Y1347653D01*
X1509653D01*
X1510547Y1347057D01*
X1511600Y1346847D01*
X1518400D01*
X1519453Y1347057D01*
X1520347Y1347653D01*
X1520943Y1348546D01*
X1521153Y1349600D01*
Y1349798D01*
X1523253Y1351186D01*
X1524500Y1350938D01*
X1526724Y1351381D01*
X1528609Y1352641D01*
X1529869Y1354526D01*
X1530312Y1356750D01*
X1529869Y1358974D01*
X1528609Y1360860D01*
X1526724Y1362119D01*
X1524500Y1362562D01*
X1523253Y1362314D01*
X1521977Y1362974D01*
X1521293Y1363514D01*
X1521066Y1363837D01*
X1520943Y1364453D01*
X1520347Y1365347D01*
X1519453Y1365943D01*
X1518400Y1366153D01*
X1511600D01*
X1510547Y1365943D01*
X1509653Y1365347D01*
X1509347D01*
X1508454Y1365943D01*
X1507400Y1366153D01*
X1500600D01*
X1499547Y1365943D01*
X1499190Y1365705D01*
X1498995Y1365995D01*
X1497805Y1366791D01*
X1496400Y1367070D01*
D02*
G37*
G36*
X1024050Y1372346D02*
X1021152Y1371964D01*
X1018452Y1370846D01*
X1016133Y1369067D01*
X1014354Y1366748D01*
X1013236Y1364048D01*
X1012854Y1361150D01*
X1013236Y1358252D01*
X1014354Y1355552D01*
X1016133Y1353233D01*
X1018452Y1351454D01*
X1021152Y1350336D01*
X1024050Y1349954D01*
X1026948Y1350336D01*
X1029648Y1351454D01*
X1031967Y1353233D01*
X1033746Y1355552D01*
X1034864Y1358252D01*
X1035246Y1361150D01*
X1034864Y1364048D01*
X1033746Y1366748D01*
X1031967Y1369067D01*
X1029648Y1370846D01*
X1026948Y1371964D01*
X1024050Y1372346D01*
D02*
G37*
G36*
X1629000Y1370812D02*
X1626776Y1370369D01*
X1624891Y1369109D01*
X1623631Y1367224D01*
X1623188Y1365000D01*
X1623631Y1362776D01*
X1624891Y1360891D01*
X1626776Y1359631D01*
X1629000Y1359188D01*
X1631224Y1359631D01*
X1633109Y1360891D01*
X1633709Y1361788D01*
X1657670D01*
X1664149Y1355309D01*
X1663938Y1354250D01*
X1664381Y1352026D01*
X1665641Y1350141D01*
X1667526Y1348881D01*
X1669750Y1348438D01*
X1671974Y1348881D01*
X1673860Y1350141D01*
X1675119Y1352026D01*
X1675562Y1354250D01*
X1675119Y1356474D01*
X1673860Y1358360D01*
X1671974Y1359619D01*
X1669750Y1360062D01*
X1668691Y1359851D01*
X1661271Y1367271D01*
X1660229Y1367967D01*
X1659000Y1368212D01*
X1633709D01*
X1633109Y1369109D01*
X1631224Y1370369D01*
X1629000Y1370812D01*
D02*
G37*
G36*
X1159950Y1355550D02*
X1151118D01*
X1151233Y1354678D01*
X1152342Y1352003D01*
X1154105Y1349705D01*
X1156403Y1347942D01*
X1159078Y1346833D01*
X1159950Y1346718D01*
Y1355550D01*
D02*
G37*
G36*
X1407413Y1343580D02*
X1403250D01*
Y1332500D01*
X1411580D01*
Y1339413D01*
X1411263Y1341007D01*
X1410359Y1342359D01*
X1409007Y1343263D01*
X1407413Y1343580D01*
D02*
G37*
G36*
X1544913D02*
X1540750D01*
Y1332500D01*
X1549080D01*
Y1339413D01*
X1548763Y1341007D01*
X1547859Y1342359D01*
X1546507Y1343263D01*
X1544913Y1343580D01*
D02*
G37*
G36*
X1536750D02*
X1532587D01*
X1530993Y1343263D01*
X1529641Y1342359D01*
X1528737Y1341007D01*
X1528420Y1339413D01*
Y1332500D01*
X1536750D01*
Y1343580D01*
D02*
G37*
G36*
X1399250D02*
X1395087D01*
X1393493Y1343263D01*
X1392141Y1342359D01*
X1391237Y1341007D01*
X1390920Y1339413D01*
Y1332500D01*
X1399250D01*
Y1343580D01*
D02*
G37*
G36*
X1105550Y1340933D02*
Y1326550D01*
X1119933D01*
X1119811Y1327785D01*
X1118868Y1330895D01*
X1117336Y1333761D01*
X1115274Y1336274D01*
X1112761Y1338336D01*
X1109895Y1339868D01*
X1106785Y1340811D01*
X1105550Y1340933D01*
D02*
G37*
G36*
X1073050Y1363540D02*
X1069404Y1363181D01*
X1065898Y1362117D01*
X1062666Y1360390D01*
X1059834Y1358066D01*
X1057510Y1355234D01*
X1055783Y1352002D01*
X1054719Y1348496D01*
X1054360Y1344850D01*
X1054719Y1341204D01*
X1055783Y1337698D01*
X1057510Y1334466D01*
X1059834Y1331634D01*
X1062666Y1329310D01*
X1065898Y1327583D01*
X1069404Y1326519D01*
X1073050Y1326160D01*
X1076696Y1326519D01*
X1080202Y1327583D01*
X1083434Y1329310D01*
X1086266Y1331634D01*
X1086368Y1331758D01*
X1088232Y1330895D01*
X1087289Y1327785D01*
X1087167Y1326550D01*
X1101550D01*
Y1340933D01*
X1100315Y1340811D01*
X1097205Y1339868D01*
X1094339Y1338336D01*
X1091826Y1336274D01*
X1090294Y1337655D01*
X1090317Y1337698D01*
X1091381Y1341204D01*
X1091740Y1344850D01*
X1091381Y1348496D01*
X1090317Y1352002D01*
X1088590Y1355234D01*
X1086266Y1358066D01*
X1083434Y1360390D01*
X1080202Y1362117D01*
X1076696Y1363181D01*
X1073050Y1363540D01*
D02*
G37*
G36*
X1024050Y1346946D02*
X1021152Y1346564D01*
X1018452Y1345446D01*
X1016133Y1343667D01*
X1014354Y1341348D01*
X1013236Y1338648D01*
X1012854Y1335750D01*
X1013236Y1332852D01*
X1014354Y1330152D01*
X1016133Y1327833D01*
X1018452Y1326054D01*
X1021152Y1324936D01*
X1024050Y1324554D01*
X1026948Y1324936D01*
X1029648Y1326054D01*
X1031967Y1327833D01*
X1033746Y1330152D01*
X1034864Y1332852D01*
X1035246Y1335750D01*
X1034864Y1338648D01*
X1033746Y1341348D01*
X1031967Y1343667D01*
X1029648Y1345446D01*
X1026948Y1346564D01*
X1024050Y1346946D01*
D02*
G37*
G36*
Y1479446D02*
X1021152Y1479064D01*
X1018452Y1477946D01*
X1016133Y1476167D01*
X1014354Y1473848D01*
X1013236Y1471148D01*
X1012854Y1468250D01*
X1013236Y1465352D01*
X1014354Y1462652D01*
X1016133Y1460333D01*
X1018452Y1458554D01*
X1021152Y1457436D01*
X1024050Y1457054D01*
X1026948Y1457436D01*
X1029334Y1458424D01*
X1039788Y1447970D01*
Y1334376D01*
X1038641Y1333609D01*
X1037381Y1331724D01*
X1036938Y1329500D01*
X1037381Y1327276D01*
X1038641Y1325390D01*
X1040526Y1324131D01*
X1042750Y1323688D01*
X1044974Y1324131D01*
X1046860Y1325390D01*
X1048119Y1327276D01*
X1048562Y1329500D01*
X1048119Y1331724D01*
X1046860Y1333609D01*
X1046212Y1334042D01*
Y1449300D01*
X1045967Y1450529D01*
X1045271Y1451571D01*
X1033876Y1462966D01*
X1034864Y1465352D01*
X1035246Y1468250D01*
X1034864Y1471148D01*
X1033746Y1473848D01*
X1031967Y1476167D01*
X1029648Y1477946D01*
X1026948Y1479064D01*
X1024050Y1479446D01*
D02*
G37*
G36*
X1549080Y1328500D02*
X1540750D01*
Y1317420D01*
X1544913D01*
X1546507Y1317737D01*
X1547859Y1318641D01*
X1548763Y1319993D01*
X1549080Y1321588D01*
Y1328500D01*
D02*
G37*
G36*
X1536750D02*
X1528420D01*
Y1321588D01*
X1528737Y1319993D01*
X1529641Y1318641D01*
X1530993Y1317737D01*
X1532587Y1317420D01*
X1536750D01*
Y1328500D01*
D02*
G37*
G36*
X1411580D02*
X1403250D01*
Y1317420D01*
X1407413D01*
X1409007Y1317737D01*
X1410359Y1318641D01*
X1411263Y1319993D01*
X1411580Y1321588D01*
Y1328500D01*
D02*
G37*
G36*
X1399250D02*
X1390920D01*
Y1321588D01*
X1391237Y1319993D01*
X1392141Y1318641D01*
X1393493Y1317737D01*
X1395087Y1317420D01*
X1399250D01*
Y1328500D01*
D02*
G37*
G36*
X1119933Y1322550D02*
X1105550D01*
Y1308167D01*
X1106785Y1308289D01*
X1109895Y1309232D01*
X1112761Y1310764D01*
X1115274Y1312826D01*
X1117336Y1315339D01*
X1118868Y1318205D01*
X1119811Y1321315D01*
X1119933Y1322550D01*
D02*
G37*
G36*
X1101550D02*
X1087167D01*
X1087289Y1321315D01*
X1088232Y1318205D01*
X1089764Y1315339D01*
X1091826Y1312826D01*
X1094339Y1310764D01*
X1097205Y1309232D01*
X1100315Y1308289D01*
X1101550Y1308167D01*
Y1322550D01*
D02*
G37*
G36*
X1076200Y1303319D02*
X1072700D01*
Y1297250D01*
X1084006D01*
X1083994Y1297338D01*
X1083188Y1299285D01*
X1081906Y1300956D01*
X1080235Y1302238D01*
X1078288Y1303044D01*
X1076200Y1303319D01*
D02*
G37*
G36*
X1068700D02*
X1065200D01*
X1063112Y1303044D01*
X1061165Y1302238D01*
X1059494Y1300956D01*
X1058212Y1299285D01*
X1057406Y1297338D01*
X1057394Y1297250D01*
X1068700D01*
Y1303319D01*
D02*
G37*
G36*
X1031900D02*
X1030900D01*
Y1297250D01*
X1039706D01*
X1039694Y1297338D01*
X1038888Y1299285D01*
X1037606Y1300956D01*
X1035935Y1302238D01*
X1033988Y1303044D01*
X1031900Y1303319D01*
D02*
G37*
G36*
X1026900D02*
X1025900D01*
X1023812Y1303044D01*
X1021865Y1302238D01*
X1020194Y1300956D01*
X1018912Y1299285D01*
X1018106Y1297338D01*
X1018094Y1297250D01*
X1026900D01*
Y1303319D01*
D02*
G37*
G36*
X1506750Y1306411D02*
X1504897Y1306167D01*
X1503169Y1305452D01*
X1501686Y1304314D01*
X1500548Y1302831D01*
X1499833Y1301104D01*
X1499589Y1299250D01*
X1499833Y1297397D01*
X1500548Y1295669D01*
X1501686Y1294186D01*
X1503169Y1293048D01*
X1504897Y1292333D01*
X1506750Y1292089D01*
X1508604Y1292333D01*
X1510331Y1293048D01*
X1511814Y1294186D01*
X1512952Y1295669D01*
X1513667Y1297397D01*
X1513911Y1299250D01*
X1513667Y1301104D01*
X1512952Y1302831D01*
X1511814Y1304314D01*
X1510331Y1305452D01*
X1508604Y1306167D01*
X1506750Y1306411D01*
D02*
G37*
G36*
X1039706Y1293250D02*
X1030900D01*
Y1287181D01*
X1031900D01*
X1033988Y1287456D01*
X1035935Y1288262D01*
X1037606Y1289544D01*
X1038888Y1291216D01*
X1039694Y1293162D01*
X1039706Y1293250D01*
D02*
G37*
G36*
X1026900D02*
X1018094D01*
X1018106Y1293162D01*
X1018912Y1291216D01*
X1020194Y1289544D01*
X1021865Y1288262D01*
X1023812Y1287456D01*
X1025900Y1287181D01*
X1026900D01*
Y1293250D01*
D02*
G37*
G36*
X1412000Y1277072D02*
X1410175D01*
X1408741Y1276787D01*
X1408545Y1276656D01*
X1407000Y1276147D01*
X1405455Y1276656D01*
X1405259Y1276787D01*
X1403825Y1277072D01*
X1402000D01*
Y1266000D01*
Y1254928D01*
X1403825D01*
X1405259Y1255213D01*
X1405455Y1255344D01*
X1407000Y1255853D01*
X1408545Y1255344D01*
X1408741Y1255213D01*
X1410175Y1254928D01*
X1412000D01*
Y1266000D01*
Y1277072D01*
D02*
G37*
G36*
X1758000Y1337726D02*
X1752883Y1337222D01*
X1747964Y1335730D01*
X1743430Y1333306D01*
X1739455Y1330045D01*
X1736194Y1326071D01*
X1733770Y1321536D01*
X1732278Y1316617D01*
X1731774Y1311500D01*
Y1299500D01*
X1732278Y1294384D01*
X1733770Y1289464D01*
X1736194Y1284930D01*
X1739455Y1280955D01*
X1743430Y1277694D01*
X1747964Y1275270D01*
X1752883Y1273778D01*
X1758000Y1273274D01*
X1763116Y1273778D01*
X1768036Y1275270D01*
X1772570Y1277694D01*
X1776545Y1280955D01*
X1779806Y1284930D01*
X1782230Y1289464D01*
X1783722Y1294384D01*
X1784226Y1299500D01*
Y1311500D01*
X1783722Y1316617D01*
X1782230Y1321536D01*
X1779806Y1326071D01*
X1776545Y1330045D01*
X1772570Y1333306D01*
X1768036Y1335730D01*
X1763116Y1337222D01*
X1758000Y1337726D01*
D02*
G37*
G36*
X1084006Y1293250D02*
X1070700D01*
X1057394D01*
X1057406Y1293162D01*
X1058212Y1291216D01*
X1059494Y1289544D01*
X1059647Y1289427D01*
X1059745Y1286855D01*
X1058406Y1285111D01*
X1057565Y1283080D01*
X1057278Y1280900D01*
X1057565Y1278720D01*
X1058406Y1276689D01*
X1059745Y1274945D01*
X1061489Y1273606D01*
X1063520Y1272765D01*
X1065700Y1272478D01*
X1067880Y1272765D01*
X1069911Y1273606D01*
X1071655Y1274945D01*
X1072994Y1276689D01*
X1073835Y1278720D01*
X1074122Y1280900D01*
X1073835Y1283080D01*
X1072994Y1285111D01*
X1074052Y1287181D01*
X1076200D01*
X1078288Y1287456D01*
X1080235Y1288262D01*
X1081906Y1289544D01*
X1083188Y1291216D01*
X1083994Y1293162D01*
X1084006Y1293250D01*
D02*
G37*
G36*
X1096000Y1295661D02*
X1094147Y1295417D01*
X1092419Y1294702D01*
X1090936Y1293564D01*
X1089798Y1292081D01*
X1089083Y1290354D01*
X1088839Y1288500D01*
X1089083Y1286647D01*
X1089798Y1284919D01*
X1090683Y1283766D01*
X1090951Y1282498D01*
Y1282251D01*
X1090683Y1280984D01*
X1089798Y1279831D01*
X1089083Y1278103D01*
X1088839Y1276250D01*
X1089083Y1274397D01*
X1089798Y1272669D01*
X1090936Y1271186D01*
X1092419Y1270048D01*
X1094147Y1269333D01*
X1096000Y1269089D01*
X1097853Y1269333D01*
X1099581Y1270048D01*
X1101064Y1271186D01*
X1102202Y1272669D01*
X1102917Y1274397D01*
X1103161Y1276250D01*
X1102917Y1278103D01*
X1102202Y1279831D01*
X1101317Y1280984D01*
X1101049Y1282251D01*
Y1282498D01*
X1101317Y1283766D01*
X1102202Y1284919D01*
X1102917Y1286647D01*
X1103161Y1288500D01*
X1102917Y1290354D01*
X1102202Y1292081D01*
X1101064Y1293564D01*
X1099581Y1294702D01*
X1097853Y1295417D01*
X1096000Y1295661D01*
D02*
G37*
G36*
X1543825Y1277072D02*
X1542000D01*
Y1268000D01*
X1547572D01*
Y1273325D01*
X1547287Y1274759D01*
X1546474Y1275975D01*
X1545259Y1276787D01*
X1543825Y1277072D01*
D02*
G37*
G36*
X1547572Y1264000D02*
X1542000D01*
Y1254928D01*
X1543825D01*
X1545259Y1255213D01*
X1546474Y1256025D01*
X1547287Y1257241D01*
X1547572Y1258675D01*
Y1264000D01*
D02*
G37*
G36*
X1702000Y1248370D02*
X1699886Y1248092D01*
X1697915Y1247275D01*
X1696223Y1245977D01*
X1694925Y1244285D01*
X1694108Y1242315D01*
X1693830Y1240200D01*
X1694108Y1238085D01*
X1694925Y1236115D01*
X1696223Y1234423D01*
X1697915Y1233125D01*
X1699886Y1232309D01*
X1702000Y1232030D01*
X1704115Y1232309D01*
X1706085Y1233125D01*
X1707777Y1234423D01*
X1709075Y1236115D01*
X1709892Y1238085D01*
X1710170Y1240200D01*
X1709892Y1242315D01*
X1709075Y1244285D01*
X1707777Y1245977D01*
X1706085Y1247275D01*
X1704115Y1248092D01*
X1702000Y1248370D01*
D02*
G37*
G36*
X1112000Y1235161D02*
X1110146Y1234917D01*
X1108419Y1234202D01*
X1106936Y1233064D01*
X1105798Y1231581D01*
X1105083Y1229854D01*
X1105059Y1229673D01*
X1102941D01*
X1102917Y1229854D01*
X1102202Y1231581D01*
X1101064Y1233064D01*
X1099581Y1234202D01*
X1097853Y1234917D01*
X1096000Y1235161D01*
X1094147Y1234917D01*
X1092419Y1234202D01*
X1090936Y1233064D01*
X1089798Y1231581D01*
X1089083Y1229854D01*
X1088839Y1228000D01*
X1089083Y1226146D01*
X1089798Y1224419D01*
X1090936Y1222936D01*
X1092419Y1221798D01*
X1094147Y1221083D01*
X1096000Y1220839D01*
X1097853Y1221083D01*
X1099581Y1221798D01*
X1101064Y1222936D01*
X1102202Y1224419D01*
X1102917Y1226146D01*
X1102941Y1226327D01*
X1105059D01*
X1105083Y1226146D01*
X1105798Y1224419D01*
X1106936Y1222936D01*
X1108419Y1221798D01*
X1110146Y1221083D01*
X1112000Y1220839D01*
X1113854Y1221083D01*
X1115581Y1221798D01*
X1117064Y1222936D01*
X1118202Y1224419D01*
X1118917Y1226146D01*
X1119161Y1228000D01*
X1118917Y1229854D01*
X1118202Y1231581D01*
X1117064Y1233064D01*
X1115581Y1234202D01*
X1113854Y1234917D01*
X1112000Y1235161D01*
D02*
G37*
G36*
X1165000Y1227161D02*
X1163147Y1226917D01*
X1161419Y1226202D01*
X1159936Y1225064D01*
X1158798Y1223581D01*
X1158083Y1221853D01*
X1157839Y1220000D01*
X1158083Y1218147D01*
X1158798Y1216419D01*
X1159936Y1214936D01*
X1161419Y1213798D01*
X1163147Y1213083D01*
X1165000Y1212839D01*
X1166853Y1213083D01*
X1168581Y1213798D01*
X1170064Y1214936D01*
X1171202Y1216419D01*
X1171917Y1218147D01*
X1172161Y1220000D01*
X1171917Y1221853D01*
X1171202Y1223581D01*
X1170064Y1225064D01*
X1168581Y1226202D01*
X1166853Y1226917D01*
X1165000Y1227161D01*
D02*
G37*
G36*
X1048750Y1306812D02*
X1046526Y1306369D01*
X1044641Y1305110D01*
X1043381Y1303224D01*
X1042938Y1301000D01*
X1043381Y1298776D01*
X1044641Y1296891D01*
X1045538Y1296291D01*
Y1148274D01*
X1043438Y1147404D01*
X1035876Y1154966D01*
X1036864Y1157352D01*
X1037246Y1160250D01*
X1036864Y1163148D01*
X1035746Y1165848D01*
X1033967Y1168167D01*
X1031648Y1169946D01*
X1028948Y1171064D01*
X1026050Y1171446D01*
X1023152Y1171064D01*
X1020452Y1169946D01*
X1018133Y1168167D01*
X1016354Y1165848D01*
X1015236Y1163148D01*
X1014854Y1160250D01*
X1015236Y1157352D01*
X1016354Y1154652D01*
X1018133Y1152333D01*
X1020452Y1150554D01*
X1023152Y1149436D01*
X1026050Y1149054D01*
X1028948Y1149436D01*
X1031334Y1150424D01*
X1039038Y1142720D01*
Y1140338D01*
X1036938Y1139921D01*
X1036532Y1140902D01*
X1034608Y1143409D01*
X1032102Y1145332D01*
X1029183Y1146541D01*
X1028050Y1146690D01*
Y1134850D01*
Y1123010D01*
X1029183Y1123159D01*
X1032102Y1124368D01*
X1034608Y1126292D01*
X1036532Y1128798D01*
X1036938Y1129779D01*
X1039038Y1129362D01*
Y1112209D01*
X1038140Y1111609D01*
X1036881Y1109724D01*
X1036438Y1107500D01*
X1036881Y1105276D01*
X1038140Y1103391D01*
X1040026Y1102131D01*
X1042250Y1101688D01*
X1044474Y1102131D01*
X1046359Y1103391D01*
X1047619Y1105276D01*
X1048062Y1107500D01*
X1047619Y1109724D01*
X1046359Y1111609D01*
X1045462Y1112209D01*
Y1117526D01*
X1047562Y1118396D01*
X1137479Y1028479D01*
X1138521Y1027783D01*
X1139750Y1027538D01*
X1166150D01*
X1167379Y1027783D01*
X1168421Y1028479D01*
X1189730Y1049788D01*
X1192988D01*
X1193514Y1047688D01*
X1191058Y1046376D01*
X1188074Y1043926D01*
X1185624Y1040942D01*
X1183804Y1037537D01*
X1182684Y1033842D01*
X1182305Y1030000D01*
X1182684Y1026158D01*
X1183804Y1022463D01*
X1185624Y1019058D01*
X1188074Y1016074D01*
X1191058Y1013624D01*
X1194463Y1011804D01*
X1198158Y1010684D01*
X1202000Y1010305D01*
X1205842Y1010684D01*
X1209537Y1011804D01*
X1212942Y1013624D01*
X1215926Y1016074D01*
X1218376Y1019058D01*
X1220196Y1022463D01*
X1221316Y1026158D01*
X1221695Y1030000D01*
X1221316Y1033842D01*
X1220196Y1037537D01*
X1218376Y1040942D01*
X1215926Y1043926D01*
X1212942Y1046376D01*
X1210486Y1047688D01*
X1211012Y1049788D01*
X1251270D01*
X1263829Y1037229D01*
X1264871Y1036533D01*
X1266100Y1036288D01*
X1313500D01*
X1314729Y1036533D01*
X1315771Y1037229D01*
X1323580Y1045038D01*
X1379500D01*
X1380729Y1045283D01*
X1381771Y1045979D01*
X1388271Y1052479D01*
X1388967Y1053521D01*
X1389212Y1054750D01*
Y1071846D01*
X1389825D01*
X1390908Y1072061D01*
X1391773Y1072639D01*
X1391839Y1072674D01*
X1393000D01*
X1394161D01*
X1394227Y1072639D01*
X1395092Y1072061D01*
X1396175Y1071846D01*
X1403825D01*
X1404908Y1072061D01*
X1405773Y1072639D01*
X1405839Y1072674D01*
X1407000D01*
X1408161D01*
X1408227Y1072639D01*
X1409092Y1072061D01*
X1410175Y1071846D01*
X1417825D01*
X1418908Y1072061D01*
X1419773Y1072639D01*
X1419839Y1072674D01*
X1421000D01*
X1422161D01*
X1422227Y1072639D01*
X1423092Y1072061D01*
X1424175Y1071846D01*
X1431825D01*
X1432908Y1072061D01*
X1433773Y1072639D01*
X1433839Y1072674D01*
X1435000D01*
X1436161D01*
X1436227Y1072639D01*
X1437092Y1072061D01*
X1438175Y1071846D01*
X1445825D01*
X1446908Y1072061D01*
X1447773Y1072639D01*
X1447839Y1072674D01*
X1449000D01*
X1450161D01*
X1450227Y1072639D01*
X1451092Y1072061D01*
X1452175Y1071846D01*
X1459825D01*
X1460908Y1072061D01*
X1461773Y1072639D01*
X1461839Y1072674D01*
X1463000D01*
X1464161D01*
X1464227Y1072639D01*
X1465092Y1072061D01*
X1466175Y1071846D01*
X1473825D01*
X1474908Y1072061D01*
X1475773Y1072639D01*
X1475839Y1072674D01*
X1477000D01*
X1478161D01*
X1478227Y1072639D01*
X1479092Y1072061D01*
X1480175Y1071846D01*
X1487825D01*
X1488908Y1072061D01*
X1489088Y1072181D01*
X1489837Y1072670D01*
X1491797Y1071844D01*
X1492741Y1071213D01*
X1494175Y1070928D01*
X1496000D01*
Y1082000D01*
Y1093072D01*
X1494175D01*
X1492741Y1092787D01*
X1491797Y1092156D01*
X1489837Y1091330D01*
X1489088Y1091819D01*
X1488908Y1091939D01*
X1487825Y1092154D01*
X1480175D01*
X1479092Y1091939D01*
X1478227Y1091361D01*
X1478161Y1091326D01*
X1477000D01*
X1475839D01*
X1475773Y1091361D01*
X1474908Y1091939D01*
X1473825Y1092154D01*
X1466175D01*
X1465092Y1091939D01*
X1464227Y1091361D01*
X1464161Y1091326D01*
X1463000D01*
X1461839D01*
X1461773Y1091361D01*
X1460908Y1091939D01*
X1459825Y1092154D01*
X1452175D01*
X1451092Y1091939D01*
X1450227Y1091361D01*
X1450161Y1091326D01*
X1449000D01*
X1447839D01*
X1447773Y1091361D01*
X1446908Y1091939D01*
X1445825Y1092154D01*
X1438175D01*
X1437092Y1091939D01*
X1436227Y1091361D01*
X1436161Y1091326D01*
X1435000D01*
X1433839D01*
X1433773Y1091361D01*
X1432908Y1091939D01*
X1431825Y1092154D01*
X1424175D01*
X1423092Y1091939D01*
X1422227Y1091361D01*
X1422161Y1091326D01*
X1421000D01*
X1419839D01*
X1419773Y1091361D01*
X1418908Y1091939D01*
X1417825Y1092154D01*
X1410175D01*
X1409092Y1091939D01*
X1408227Y1091361D01*
X1408161Y1091326D01*
X1407000D01*
X1405839D01*
X1405773Y1091361D01*
X1404908Y1091939D01*
X1403825Y1092154D01*
X1396175D01*
X1395092Y1091939D01*
X1394227Y1091361D01*
X1394161Y1091326D01*
X1393000D01*
X1391839D01*
X1391773Y1091361D01*
X1390908Y1091939D01*
X1389825Y1092154D01*
X1382175D01*
X1381092Y1091939D01*
X1380174Y1091326D01*
X1377826D01*
X1376908Y1091939D01*
X1375825Y1092154D01*
X1375212D01*
Y1092250D01*
X1374967Y1093479D01*
X1374271Y1094521D01*
X1369521Y1099271D01*
X1368479Y1099967D01*
X1367250Y1100212D01*
X1299792D01*
X1299359Y1100860D01*
X1297474Y1102119D01*
X1295250Y1102562D01*
X1293026Y1102119D01*
X1291140Y1100860D01*
X1289881Y1098974D01*
X1289438Y1096750D01*
X1289881Y1094526D01*
X1290062Y1094254D01*
X1288940Y1092154D01*
X1284175D01*
X1283092Y1091939D01*
X1282227Y1091361D01*
X1282161Y1091326D01*
X1281000D01*
X1279839D01*
X1279773Y1091361D01*
X1278908Y1091939D01*
X1277825Y1092154D01*
X1270175D01*
X1269092Y1091939D01*
X1268912Y1091819D01*
X1268163Y1091330D01*
X1266203Y1092156D01*
X1265259Y1092787D01*
X1263825Y1093072D01*
X1262000D01*
Y1082000D01*
Y1070928D01*
X1263825D01*
X1265259Y1071213D01*
X1266203Y1071844D01*
X1268163Y1072670D01*
X1268912Y1072181D01*
X1269092Y1072061D01*
X1270175Y1071846D01*
X1277825D01*
X1278908Y1072061D01*
X1279773Y1072639D01*
X1279839Y1072674D01*
X1281000D01*
X1282161D01*
X1282227Y1072639D01*
X1283092Y1072061D01*
X1284175Y1071846D01*
X1291825D01*
X1292908Y1072061D01*
X1293826Y1072674D01*
X1296174D01*
X1297092Y1072061D01*
X1298175Y1071846D01*
X1305825D01*
X1306908Y1072061D01*
X1307773Y1072639D01*
X1307839Y1072674D01*
X1309000D01*
X1310161D01*
X1310227Y1072639D01*
X1311092Y1072061D01*
X1312175Y1071846D01*
X1319825D01*
X1320908Y1072061D01*
X1321773Y1072639D01*
X1321839Y1072674D01*
X1323000D01*
X1324161D01*
X1324227Y1072639D01*
X1325092Y1072061D01*
X1326175Y1071846D01*
X1326788D01*
Y1069500D01*
X1327033Y1068271D01*
X1327729Y1067229D01*
X1340729Y1054229D01*
X1341771Y1053533D01*
X1341419Y1051462D01*
X1322250D01*
X1321021Y1051217D01*
X1319979Y1050521D01*
X1312170Y1042712D01*
X1267430D01*
X1254871Y1055271D01*
X1253829Y1055967D01*
X1252600Y1056212D01*
X1188400D01*
X1187171Y1055967D01*
X1186129Y1055271D01*
X1176683Y1045825D01*
X1174820Y1046631D01*
X1174682Y1046794D01*
X1174782Y1047550D01*
X1165950D01*
Y1038718D01*
X1166706Y1038818D01*
X1166869Y1038680D01*
X1167675Y1036817D01*
X1164820Y1033962D01*
X1141080D01*
X1051962Y1123080D01*
Y1230513D01*
X1053227Y1231095D01*
X1054062Y1231290D01*
X1055779Y1230142D01*
X1057647Y1229771D01*
X1058377Y1228630D01*
X1058703Y1227698D01*
X1058406Y1227311D01*
X1057565Y1225280D01*
X1057278Y1223100D01*
X1057565Y1220920D01*
X1058406Y1218889D01*
X1059745Y1217145D01*
X1059647Y1214573D01*
X1059494Y1214456D01*
X1058212Y1212785D01*
X1057406Y1210838D01*
X1057394Y1210750D01*
X1070700D01*
X1084006D01*
X1083994Y1210838D01*
X1083188Y1212785D01*
X1081906Y1214456D01*
X1080235Y1215738D01*
X1078288Y1216544D01*
X1076200Y1216819D01*
X1074052D01*
X1072994Y1218889D01*
X1073835Y1220920D01*
X1074122Y1223100D01*
X1073835Y1225280D01*
X1072994Y1227311D01*
X1071655Y1229055D01*
X1069911Y1230394D01*
X1067880Y1231235D01*
X1065700Y1231522D01*
X1064623Y1231380D01*
X1063372Y1233288D01*
X1063814Y1235511D01*
X1063372Y1237736D01*
X1062112Y1239621D01*
X1061215Y1240221D01*
Y1245130D01*
X1062474Y1245381D01*
X1064360Y1246640D01*
X1065619Y1248526D01*
X1066062Y1250750D01*
X1065619Y1252974D01*
X1064360Y1254859D01*
X1062474Y1256119D01*
X1060250Y1256562D01*
X1058026Y1256119D01*
X1056141Y1254859D01*
X1054881Y1252974D01*
X1054438Y1250750D01*
X1054881Y1248526D01*
X1055027Y1248307D01*
X1054791Y1247123D01*
Y1241597D01*
X1054062Y1240819D01*
X1053839Y1240826D01*
X1051962Y1242127D01*
Y1296291D01*
X1052859Y1296891D01*
X1054119Y1298776D01*
X1054562Y1301000D01*
X1054119Y1303224D01*
X1052859Y1305110D01*
X1050974Y1306369D01*
X1048750Y1306812D01*
D02*
G37*
G36*
X1031900Y1216819D02*
X1030900D01*
Y1210750D01*
X1039706D01*
X1039694Y1210838D01*
X1038888Y1212785D01*
X1037606Y1214456D01*
X1035935Y1215738D01*
X1033988Y1216544D01*
X1031900Y1216819D01*
D02*
G37*
G36*
X1026900D02*
X1025900D01*
X1023812Y1216544D01*
X1021865Y1215738D01*
X1020194Y1214456D01*
X1018912Y1212785D01*
X1018106Y1210838D01*
X1018094Y1210750D01*
X1026900D01*
Y1216819D01*
D02*
G37*
G36*
X1505500Y1210588D02*
X1494000D01*
Y1202000D01*
X1510088D01*
Y1206000D01*
X1509739Y1207756D01*
X1508744Y1209244D01*
X1507256Y1210239D01*
X1505500Y1210588D01*
D02*
G37*
G36*
X1490000D02*
X1478500D01*
X1476744Y1210239D01*
X1475256Y1209244D01*
X1474261Y1207756D01*
X1473912Y1206000D01*
Y1202000D01*
X1490000D01*
Y1210588D01*
D02*
G37*
G36*
X1084006Y1206750D02*
X1072700D01*
Y1200681D01*
X1076200D01*
X1078288Y1200956D01*
X1080235Y1201762D01*
X1081906Y1203044D01*
X1083188Y1204715D01*
X1083994Y1206662D01*
X1084006Y1206750D01*
D02*
G37*
G36*
X1068700D02*
X1057394D01*
X1057406Y1206662D01*
X1058212Y1204715D01*
X1059494Y1203044D01*
X1061165Y1201762D01*
X1063112Y1200956D01*
X1065200Y1200681D01*
X1068700D01*
Y1206750D01*
D02*
G37*
G36*
X1039706Y1206750D02*
X1030900D01*
Y1200681D01*
X1031900D01*
X1033988Y1200956D01*
X1035935Y1201762D01*
X1037606Y1203044D01*
X1038888Y1204715D01*
X1039694Y1206662D01*
X1039706Y1206750D01*
D02*
G37*
G36*
X1026900D02*
X1018094D01*
X1018106Y1206662D01*
X1018912Y1204715D01*
X1020194Y1203044D01*
X1021865Y1201762D01*
X1023812Y1200956D01*
X1025900Y1200681D01*
X1026900D01*
Y1206750D01*
D02*
G37*
G36*
X1510088Y1198000D02*
X1494000D01*
Y1189412D01*
X1505500D01*
X1507256Y1189761D01*
X1508744Y1190756D01*
X1509739Y1192244D01*
X1510088Y1194000D01*
Y1198000D01*
D02*
G37*
G36*
X1490000D02*
X1473912D01*
Y1194000D01*
X1474261Y1192244D01*
X1475256Y1190756D01*
X1476744Y1189761D01*
X1478500Y1189412D01*
X1490000D01*
Y1198000D01*
D02*
G37*
G36*
X1358090Y1205076D02*
X1341340D01*
Y1178996D01*
X1367420D01*
Y1195746D01*
X1367102Y1198161D01*
X1366170Y1200411D01*
X1364687Y1202343D01*
X1362755Y1203826D01*
X1360505Y1204758D01*
X1358090Y1205076D01*
D02*
G37*
G36*
X1337340D02*
X1320590D01*
X1318175Y1204758D01*
X1315925Y1203826D01*
X1313993Y1202343D01*
X1312510Y1200411D01*
X1311578Y1198161D01*
X1311260Y1195746D01*
Y1178996D01*
X1337340D01*
Y1205076D01*
D02*
G37*
G36*
X1656800Y1244812D02*
X1654576Y1244369D01*
X1652690Y1243110D01*
X1651431Y1241224D01*
X1650988Y1239000D01*
X1651344Y1237214D01*
X1650833Y1236449D01*
X1650588Y1235220D01*
Y1200662D01*
X1647850D01*
X1646621Y1200417D01*
X1645579Y1199721D01*
X1644883Y1198679D01*
X1644638Y1197450D01*
Y1181550D01*
X1644883Y1180321D01*
X1645579Y1179279D01*
X1646621Y1178583D01*
X1647850Y1178338D01*
X1659750D01*
X1660979Y1178583D01*
X1662021Y1179279D01*
X1662717Y1180321D01*
X1662962Y1181550D01*
Y1197450D01*
X1662717Y1198679D01*
X1662021Y1199721D01*
X1660979Y1200417D01*
X1659750Y1200662D01*
X1657012D01*
Y1233231D01*
X1659024Y1233631D01*
X1660909Y1234891D01*
X1662169Y1236776D01*
X1662612Y1239000D01*
X1662169Y1241224D01*
X1660909Y1243110D01*
X1659024Y1244369D01*
X1656800Y1244812D01*
D02*
G37*
G36*
X1631400D02*
X1629176Y1244369D01*
X1627290Y1243110D01*
X1626031Y1241224D01*
X1625588Y1239000D01*
X1625944Y1237214D01*
X1625433Y1236449D01*
X1625188Y1235220D01*
Y1200662D01*
X1622450D01*
X1621221Y1200417D01*
X1620179Y1199721D01*
X1619483Y1198679D01*
X1619238Y1197450D01*
Y1181550D01*
X1619483Y1180321D01*
X1620179Y1179279D01*
X1621221Y1178583D01*
X1622450Y1178338D01*
X1634350D01*
X1635579Y1178583D01*
X1636621Y1179279D01*
X1637317Y1180321D01*
X1637562Y1181550D01*
Y1197450D01*
X1637317Y1198679D01*
X1636621Y1199721D01*
X1635579Y1200417D01*
X1634350Y1200662D01*
X1631612D01*
Y1233231D01*
X1633624Y1233631D01*
X1635509Y1234891D01*
X1636769Y1236776D01*
X1637212Y1239000D01*
X1636769Y1241224D01*
X1635509Y1243110D01*
X1633624Y1244369D01*
X1631400Y1244812D01*
D02*
G37*
G36*
X1107550Y1187833D02*
Y1173450D01*
X1121933D01*
X1121811Y1174685D01*
X1120868Y1177795D01*
X1119336Y1180661D01*
X1117274Y1183174D01*
X1114761Y1185236D01*
X1111895Y1186768D01*
X1108784Y1187711D01*
X1107550Y1187833D01*
D02*
G37*
G36*
X1103550D02*
X1102315Y1187711D01*
X1099205Y1186768D01*
X1096339Y1185236D01*
X1093826Y1183174D01*
X1091764Y1180661D01*
X1090232Y1177795D01*
X1089289Y1174685D01*
X1089167Y1173450D01*
X1103550D01*
Y1187833D01*
D02*
G37*
G36*
X1121933Y1169450D02*
X1107550D01*
Y1155067D01*
X1108784Y1155189D01*
X1111895Y1156132D01*
X1114761Y1157664D01*
X1117274Y1159726D01*
X1119336Y1162239D01*
X1120868Y1165105D01*
X1121811Y1168215D01*
X1121933Y1169450D01*
D02*
G37*
G36*
X1075050Y1169840D02*
X1071404Y1169481D01*
X1067898Y1168417D01*
X1064666Y1166690D01*
X1061834Y1164366D01*
X1059510Y1161534D01*
X1057783Y1158302D01*
X1056719Y1154796D01*
X1056360Y1151150D01*
X1056719Y1147504D01*
X1057783Y1143998D01*
X1059510Y1140766D01*
X1061834Y1137934D01*
X1064666Y1135610D01*
X1067898Y1133883D01*
X1071404Y1132819D01*
X1075050Y1132460D01*
X1078696Y1132819D01*
X1082202Y1133883D01*
X1085434Y1135610D01*
X1088266Y1137934D01*
X1090590Y1140766D01*
X1092317Y1143998D01*
X1093381Y1147504D01*
X1093740Y1151150D01*
X1093381Y1154796D01*
X1092317Y1158302D01*
X1092294Y1158345D01*
X1093826Y1159726D01*
X1096339Y1157664D01*
X1099205Y1156132D01*
X1102315Y1155189D01*
X1103550Y1155067D01*
Y1169450D01*
X1089167D01*
X1089289Y1168215D01*
X1090232Y1165105D01*
X1088368Y1164242D01*
X1088266Y1164366D01*
X1085434Y1166690D01*
X1082202Y1168417D01*
X1078696Y1169481D01*
X1075050Y1169840D01*
D02*
G37*
G36*
X1024050Y1146690D02*
X1022917Y1146541D01*
X1019998Y1145332D01*
X1017492Y1143409D01*
X1015568Y1140902D01*
X1014359Y1137983D01*
X1014210Y1136850D01*
X1024050D01*
Y1146690D01*
D02*
G37*
G36*
X1505500Y1144588D02*
X1494000D01*
Y1136000D01*
X1510088D01*
Y1140000D01*
X1509739Y1141756D01*
X1508744Y1143244D01*
X1507256Y1144239D01*
X1505500Y1144588D01*
D02*
G37*
G36*
X1490000D02*
X1478500D01*
X1476744Y1144239D01*
X1475256Y1143244D01*
X1474261Y1141756D01*
X1473912Y1140000D01*
Y1136000D01*
X1490000D01*
Y1144588D01*
D02*
G37*
G36*
X1510088Y1132000D02*
X1494000D01*
Y1123412D01*
X1505500D01*
X1507256Y1123761D01*
X1508744Y1124756D01*
X1509739Y1126244D01*
X1510088Y1128000D01*
Y1132000D01*
D02*
G37*
G36*
X1490000D02*
X1473912D01*
Y1128000D01*
X1474261Y1126244D01*
X1475256Y1124756D01*
X1476744Y1123761D01*
X1478500Y1123412D01*
X1490000D01*
Y1132000D01*
D02*
G37*
G36*
X1024050Y1132850D02*
X1014210D01*
X1014359Y1131717D01*
X1015568Y1128798D01*
X1017492Y1126292D01*
X1019998Y1124368D01*
X1022917Y1123159D01*
X1024050Y1123010D01*
Y1132850D01*
D02*
G37*
G36*
X1272500Y1125411D02*
X1270647Y1125167D01*
X1268919Y1124452D01*
X1267436Y1123314D01*
X1266298Y1121831D01*
X1265583Y1120104D01*
X1265339Y1118250D01*
X1265583Y1116396D01*
X1266298Y1114669D01*
X1267436Y1113186D01*
X1267810Y1112899D01*
Y1107350D01*
X1267436Y1107064D01*
X1266298Y1105581D01*
X1265583Y1103854D01*
X1265339Y1102000D01*
X1265583Y1100146D01*
X1266298Y1098419D01*
X1267436Y1096936D01*
X1268919Y1095798D01*
X1270647Y1095083D01*
X1272500Y1094839D01*
X1274353Y1095083D01*
X1276081Y1095798D01*
X1277564Y1096936D01*
X1278702Y1098419D01*
X1279417Y1100146D01*
X1279661Y1102000D01*
X1279417Y1103854D01*
X1278702Y1105581D01*
X1277564Y1107064D01*
X1277190Y1107350D01*
Y1112899D01*
X1277564Y1113186D01*
X1278702Y1114669D01*
X1279417Y1116396D01*
X1279661Y1118250D01*
X1279417Y1120104D01*
X1278702Y1121831D01*
X1277564Y1123314D01*
X1276081Y1124452D01*
X1274353Y1125167D01*
X1272500Y1125411D01*
D02*
G37*
G36*
X1523500Y1099940D02*
X1515000D01*
X1513205Y1099583D01*
X1511684Y1098566D01*
X1508755Y1095638D01*
X1507738Y1094116D01*
X1507470Y1092768D01*
X1505897Y1091803D01*
X1505429Y1091640D01*
X1504203Y1092156D01*
X1503259Y1092787D01*
X1501825Y1093072D01*
X1500000D01*
Y1082000D01*
Y1070928D01*
X1501825D01*
X1503259Y1071213D01*
X1504203Y1071844D01*
X1505336Y1072321D01*
X1506712Y1071449D01*
X1506859Y1070049D01*
X1506836Y1069183D01*
X1505798Y1067831D01*
X1505083Y1066104D01*
X1504839Y1064250D01*
X1505083Y1062397D01*
X1505798Y1060669D01*
X1506936Y1059186D01*
X1507310Y1058900D01*
Y1055601D01*
X1506936Y1055314D01*
X1505798Y1053831D01*
X1505083Y1052104D01*
X1504839Y1050250D01*
X1505083Y1048397D01*
X1505798Y1046669D01*
X1506936Y1045186D01*
X1508419Y1044048D01*
X1510146Y1043333D01*
X1512000Y1043089D01*
X1513853Y1043333D01*
X1515581Y1044048D01*
X1517064Y1045186D01*
X1517762Y1046097D01*
X1518383Y1046271D01*
X1519617D01*
X1520238Y1046097D01*
X1520936Y1045186D01*
X1522419Y1044048D01*
X1524147Y1043333D01*
X1526000Y1043089D01*
X1527854Y1043333D01*
X1529581Y1044048D01*
X1531064Y1045186D01*
X1532202Y1046669D01*
X1532917Y1048397D01*
X1533161Y1050250D01*
X1532917Y1052104D01*
X1532202Y1053831D01*
X1531064Y1055314D01*
X1530690Y1055601D01*
Y1058900D01*
X1531064Y1059186D01*
X1532202Y1060669D01*
X1532917Y1062397D01*
X1533161Y1064250D01*
X1532917Y1066104D01*
X1532202Y1067831D01*
X1531164Y1069183D01*
X1531141Y1070049D01*
X1531288Y1071449D01*
X1532664Y1072321D01*
X1533797Y1071844D01*
X1534741Y1071213D01*
X1536175Y1070928D01*
X1538000D01*
Y1082000D01*
Y1093072D01*
X1536175D01*
X1534741Y1092787D01*
X1533797Y1092156D01*
X1532664Y1091679D01*
X1531327Y1092404D01*
X1530660Y1092900D01*
X1530333Y1094545D01*
X1529316Y1096066D01*
X1526816Y1098566D01*
X1525295Y1099583D01*
X1523500Y1099940D01*
D02*
G37*
G36*
X1258000Y1093072D02*
X1256175D01*
X1254741Y1092787D01*
X1253797Y1092156D01*
X1251837Y1091330D01*
X1251088Y1091819D01*
X1250908Y1091939D01*
X1249825Y1092154D01*
X1242175D01*
X1241092Y1091939D01*
X1240912Y1091819D01*
X1240163Y1091330D01*
X1238203Y1092156D01*
X1237259Y1092787D01*
X1235825Y1093072D01*
X1234000D01*
Y1082000D01*
Y1070928D01*
X1235825D01*
X1237259Y1071213D01*
X1238203Y1071844D01*
X1240163Y1072670D01*
X1240912Y1072181D01*
X1241092Y1072061D01*
X1242175Y1071846D01*
X1249825D01*
X1250908Y1072061D01*
X1251088Y1072181D01*
X1251837Y1072670D01*
X1253797Y1071844D01*
X1254741Y1071213D01*
X1256175Y1070928D01*
X1258000D01*
Y1082000D01*
Y1093072D01*
D02*
G37*
G36*
X1163950Y1110537D02*
X1161313Y1110190D01*
X1158856Y1109172D01*
X1156747Y1107553D01*
X1155128Y1105444D01*
X1154110Y1102987D01*
X1153763Y1100350D01*
X1154110Y1097713D01*
X1155128Y1095256D01*
X1156747Y1093147D01*
X1158856Y1091528D01*
X1161313Y1090510D01*
X1163950Y1090163D01*
X1166587Y1090510D01*
X1169044Y1091528D01*
X1171153Y1093147D01*
X1172772Y1095256D01*
X1173790Y1097713D01*
X1174137Y1100350D01*
X1173790Y1102987D01*
X1172772Y1105444D01*
X1171153Y1107553D01*
X1169044Y1109172D01*
X1166587Y1110190D01*
X1163950Y1110537D01*
D02*
G37*
G36*
X1543825Y1093072D02*
X1542000D01*
Y1084000D01*
X1547572D01*
Y1089325D01*
X1547287Y1090759D01*
X1546474Y1091974D01*
X1545259Y1092787D01*
X1543825Y1093072D01*
D02*
G37*
G36*
X1230000D02*
X1228175D01*
X1226741Y1092787D01*
X1225526Y1091974D01*
X1224713Y1090759D01*
X1224428Y1089325D01*
Y1084000D01*
X1230000D01*
Y1093072D01*
D02*
G37*
G36*
X1138550Y1097837D02*
X1135913Y1097490D01*
X1133456Y1096472D01*
X1131347Y1094853D01*
X1129728Y1092744D01*
X1128710Y1090287D01*
X1128363Y1087650D01*
X1128710Y1085013D01*
X1129728Y1082556D01*
X1131347Y1080447D01*
X1133456Y1078828D01*
X1135913Y1077810D01*
X1138550Y1077463D01*
X1141187Y1077810D01*
X1143643Y1078828D01*
X1145753Y1080447D01*
X1147372Y1082556D01*
X1148390Y1085013D01*
X1148737Y1087650D01*
X1148390Y1090287D01*
X1147372Y1092744D01*
X1145753Y1094853D01*
X1143643Y1096472D01*
X1141187Y1097490D01*
X1138550Y1097837D01*
D02*
G37*
G36*
X1547572Y1080000D02*
X1542000D01*
Y1070928D01*
X1543825D01*
X1545259Y1071213D01*
X1546474Y1072026D01*
X1547287Y1073241D01*
X1547572Y1074675D01*
Y1080000D01*
D02*
G37*
G36*
X1230000D02*
X1224428D01*
Y1074675D01*
X1224713Y1073241D01*
X1225526Y1072026D01*
X1226741Y1071213D01*
X1228175Y1070928D01*
X1230000D01*
Y1080000D01*
D02*
G37*
G36*
X1075000Y1080812D02*
X1072776Y1080369D01*
X1070891Y1079109D01*
X1069631Y1077224D01*
X1069188Y1075000D01*
X1069631Y1072776D01*
X1070891Y1070891D01*
X1072776Y1069631D01*
X1075000Y1069188D01*
X1077224Y1069631D01*
X1079109Y1070891D01*
X1080369Y1072776D01*
X1080812Y1075000D01*
X1080369Y1077224D01*
X1079109Y1079109D01*
X1077224Y1080369D01*
X1075000Y1080812D01*
D02*
G37*
G36*
X1138550Y1072437D02*
X1135913Y1072090D01*
X1133456Y1071072D01*
X1131347Y1069453D01*
X1129728Y1067344D01*
X1128710Y1064887D01*
X1128363Y1062250D01*
X1128710Y1059613D01*
X1129728Y1057156D01*
X1131347Y1055047D01*
X1133456Y1053428D01*
X1135913Y1052410D01*
X1138550Y1052063D01*
X1141187Y1052410D01*
X1143643Y1053428D01*
X1145753Y1055047D01*
X1147372Y1057156D01*
X1148390Y1059613D01*
X1148737Y1062250D01*
X1148390Y1064887D01*
X1147372Y1067344D01*
X1145753Y1069453D01*
X1143643Y1071072D01*
X1141187Y1072090D01*
X1138550Y1072437D01*
D02*
G37*
G36*
X1165950Y1060382D02*
Y1051550D01*
X1174782D01*
X1174667Y1052422D01*
X1173558Y1055098D01*
X1171795Y1057395D01*
X1169497Y1059158D01*
X1166822Y1060267D01*
X1165950Y1060382D01*
D02*
G37*
G36*
X1161950Y1060382D02*
X1161078Y1060267D01*
X1158402Y1059158D01*
X1156105Y1057395D01*
X1154342Y1055098D01*
X1153233Y1052422D01*
X1153118Y1051550D01*
X1161950D01*
Y1060382D01*
D02*
G37*
G36*
X1278000Y1063166D02*
X1276016Y1062904D01*
X1274167Y1062139D01*
X1272580Y1060920D01*
X1271361Y1059333D01*
X1270596Y1057484D01*
X1270334Y1055500D01*
X1270596Y1053516D01*
X1271361Y1051667D01*
X1272580Y1050080D01*
X1274167Y1048861D01*
X1276016Y1048096D01*
X1278000Y1047834D01*
X1279984Y1048096D01*
X1281833Y1048861D01*
X1283420Y1050080D01*
X1284639Y1051667D01*
X1285404Y1053516D01*
X1285666Y1055500D01*
X1285404Y1057484D01*
X1284639Y1059333D01*
X1283420Y1060920D01*
X1281833Y1062139D01*
X1279984Y1062904D01*
X1278000Y1063166D01*
D02*
G37*
G36*
X1302000Y1059161D02*
X1300146Y1058917D01*
X1298419Y1058202D01*
X1296936Y1057064D01*
X1295798Y1055581D01*
X1295083Y1053854D01*
X1294839Y1052000D01*
X1295083Y1050146D01*
X1295798Y1048419D01*
X1296936Y1046936D01*
X1298419Y1045798D01*
X1300146Y1045083D01*
X1302000Y1044839D01*
X1303853Y1045083D01*
X1305581Y1045798D01*
X1307064Y1046936D01*
X1308202Y1048419D01*
X1308917Y1050146D01*
X1309161Y1052000D01*
X1308917Y1053854D01*
X1308202Y1055581D01*
X1307064Y1057064D01*
X1305581Y1058202D01*
X1303853Y1058917D01*
X1302000Y1059161D01*
D02*
G37*
G36*
X1026050Y1064346D02*
X1023152Y1063964D01*
X1020452Y1062846D01*
X1018133Y1061067D01*
X1016354Y1058748D01*
X1015236Y1056048D01*
X1014854Y1053150D01*
X1015236Y1050252D01*
X1016354Y1047552D01*
X1018133Y1045233D01*
X1020452Y1043454D01*
X1023152Y1042336D01*
X1026050Y1041954D01*
X1028948Y1042336D01*
X1031648Y1043454D01*
X1033967Y1045233D01*
X1035746Y1047552D01*
X1036864Y1050252D01*
X1037246Y1053150D01*
X1036864Y1056048D01*
X1035746Y1058748D01*
X1033967Y1061067D01*
X1031648Y1062846D01*
X1028948Y1063964D01*
X1026050Y1064346D01*
D02*
G37*
G36*
X1161950Y1047550D02*
X1153118D01*
X1153233Y1046678D01*
X1154342Y1044003D01*
X1156105Y1041705D01*
X1158402Y1039941D01*
X1161078Y1038833D01*
X1161950Y1038718D01*
Y1047550D01*
D02*
G37*
G36*
X1758000Y1091726D02*
X1752883Y1091222D01*
X1747964Y1089730D01*
X1743430Y1087306D01*
X1739455Y1084045D01*
X1736194Y1080071D01*
X1733770Y1075536D01*
X1732278Y1070617D01*
X1731774Y1065500D01*
Y1053500D01*
X1732278Y1048384D01*
X1733770Y1043464D01*
X1736194Y1038930D01*
X1739455Y1034955D01*
X1743430Y1031694D01*
X1747964Y1029270D01*
X1752883Y1027778D01*
X1758000Y1027274D01*
X1763116Y1027778D01*
X1768036Y1029270D01*
X1772570Y1031694D01*
X1776545Y1034955D01*
X1779806Y1038930D01*
X1782230Y1043464D01*
X1783722Y1048384D01*
X1784226Y1053500D01*
Y1065500D01*
X1783722Y1070617D01*
X1782230Y1075536D01*
X1779806Y1080071D01*
X1776545Y1084045D01*
X1772570Y1087306D01*
X1768036Y1089730D01*
X1763116Y1091222D01*
X1758000Y1091726D01*
D02*
G37*
G36*
X1601250Y1029411D02*
X1599397Y1029167D01*
X1597669Y1028452D01*
X1596186Y1027314D01*
X1595900Y1026940D01*
X1592850D01*
X1592564Y1027314D01*
X1591081Y1028452D01*
X1589353Y1029167D01*
X1587500Y1029411D01*
X1585647Y1029167D01*
X1583919Y1028452D01*
X1582436Y1027314D01*
X1582150Y1026940D01*
X1578351D01*
X1578064Y1027314D01*
X1576581Y1028452D01*
X1574854Y1029167D01*
X1573000Y1029411D01*
X1571147Y1029167D01*
X1569419Y1028452D01*
X1567936Y1027314D01*
X1566798Y1025831D01*
X1566083Y1024103D01*
X1565839Y1022250D01*
X1566083Y1020396D01*
X1566798Y1018669D01*
X1567936Y1017186D01*
X1569419Y1016048D01*
X1571147Y1015333D01*
X1573000Y1015089D01*
X1574854Y1015333D01*
X1576581Y1016048D01*
X1578064Y1017186D01*
X1578351Y1017560D01*
X1582150D01*
X1582436Y1017186D01*
X1583919Y1016048D01*
X1585647Y1015333D01*
X1587500Y1015089D01*
X1589353Y1015333D01*
X1591081Y1016048D01*
X1592564Y1017186D01*
X1592850Y1017560D01*
X1595900D01*
X1596186Y1017186D01*
X1597669Y1016048D01*
X1599397Y1015333D01*
X1601250Y1015089D01*
X1603103Y1015333D01*
X1604831Y1016048D01*
X1606314Y1017186D01*
X1607452Y1018669D01*
X1608167Y1020396D01*
X1608411Y1022250D01*
X1608167Y1024103D01*
X1607452Y1025831D01*
X1606314Y1027314D01*
X1604831Y1028452D01*
X1603103Y1029167D01*
X1601250Y1029411D01*
D02*
G37*
G36*
X1326000Y1029378D02*
Y1019000D01*
X1336595D01*
X1336428Y1020263D01*
X1335169Y1023304D01*
X1333165Y1025915D01*
X1330554Y1027919D01*
X1327513Y1029178D01*
X1326000Y1029378D01*
D02*
G37*
G36*
X1322000D02*
X1320487Y1029178D01*
X1317446Y1027919D01*
X1314835Y1025915D01*
X1312831Y1023304D01*
X1311572Y1020263D01*
X1311405Y1019000D01*
X1322000D01*
Y1029378D01*
D02*
G37*
G36*
X1107550Y1032933D02*
Y1018550D01*
X1121933D01*
X1121811Y1019784D01*
X1120868Y1022895D01*
X1119336Y1025761D01*
X1117274Y1028274D01*
X1114761Y1030336D01*
X1111895Y1031868D01*
X1108784Y1032811D01*
X1107550Y1032933D01*
D02*
G37*
G36*
X1075050Y1055540D02*
X1071404Y1055181D01*
X1067898Y1054117D01*
X1064666Y1052390D01*
X1061834Y1050066D01*
X1059510Y1047234D01*
X1057783Y1044002D01*
X1056719Y1040496D01*
X1056360Y1036850D01*
X1056719Y1033204D01*
X1057783Y1029698D01*
X1059510Y1026466D01*
X1061834Y1023634D01*
X1064666Y1021310D01*
X1067898Y1019583D01*
X1071404Y1018519D01*
X1075050Y1018160D01*
X1078696Y1018519D01*
X1082202Y1019583D01*
X1085434Y1021310D01*
X1088266Y1023634D01*
X1088368Y1023758D01*
X1090232Y1022895D01*
X1089289Y1019784D01*
X1089167Y1018550D01*
X1103550D01*
Y1032933D01*
X1102315Y1032811D01*
X1099205Y1031868D01*
X1096339Y1030336D01*
X1093826Y1028274D01*
X1092294Y1029655D01*
X1092317Y1029698D01*
X1093381Y1033204D01*
X1093740Y1036850D01*
X1093381Y1040496D01*
X1092317Y1044002D01*
X1090590Y1047234D01*
X1088266Y1050066D01*
X1085434Y1052390D01*
X1082202Y1054117D01*
X1078696Y1055181D01*
X1075050Y1055540D01*
D02*
G37*
G36*
X1026050Y1038946D02*
X1023152Y1038564D01*
X1020452Y1037446D01*
X1018133Y1035667D01*
X1016354Y1033348D01*
X1015236Y1030648D01*
X1014854Y1027750D01*
X1015236Y1024852D01*
X1016354Y1022152D01*
X1018133Y1019833D01*
X1020452Y1018054D01*
X1023152Y1016936D01*
X1026050Y1016554D01*
X1028948Y1016936D01*
X1031648Y1018054D01*
X1033967Y1019833D01*
X1035746Y1022152D01*
X1036864Y1024852D01*
X1037246Y1027750D01*
X1036864Y1030648D01*
X1035746Y1033348D01*
X1033967Y1035667D01*
X1031648Y1037446D01*
X1028948Y1038564D01*
X1026050Y1038946D01*
D02*
G37*
%LPD*%
G36*
X1225467Y1276345D02*
X1225916Y1274938D01*
X1225561Y1274408D01*
X1225346Y1273325D01*
Y1269212D01*
X1211000D01*
X1209771Y1268967D01*
X1208729Y1268271D01*
X1191687Y1251229D01*
X1189587Y1252099D01*
Y1256545D01*
X1210080Y1277038D01*
X1224985D01*
X1225467Y1276345D01*
D02*
G37*
%LPC*%
G36*
X1364821Y1457500D02*
X1357750D01*
Y1453179D01*
X1361100D01*
X1362524Y1453462D01*
X1363732Y1454268D01*
X1364538Y1455476D01*
X1364821Y1456900D01*
Y1457500D01*
D02*
G37*
%LPD*%
G54D10*
X1940495Y1357642D02*
X2174175D01*
X1940495Y1333512D02*
X2174175D01*
X1940495D02*
Y1357642D01*
X2174175Y1333512D02*
Y1357642D01*
X1940325Y1115338D02*
X2174005D01*
X1940325Y1091208D02*
Y1115338D01*
Y1091208D02*
X2174005D01*
Y1115338D01*
G54D13*
X2108134Y1350528D02*
Y1340370D01*
Y1350528D02*
X2103781D01*
X2102330Y1350044D01*
X2101846Y1349560D01*
X2101363Y1348593D01*
Y1347626D01*
X2101846Y1346658D01*
X2102330Y1346174D01*
X2103781Y1345691D01*
X2108134D02*
X2103781D01*
X2102330Y1345207D01*
X2101846Y1344723D01*
X2101363Y1343756D01*
Y1342305D01*
X2101846Y1341337D01*
X2102330Y1340854D01*
X2103781Y1340370D01*
X2108134D01*
X2096187Y1350528D02*
X2097154Y1350044D01*
X2098122Y1349077D01*
X2098605Y1348109D01*
X2099089Y1346658D01*
Y1344240D01*
X2098605Y1342789D01*
X2098122Y1341821D01*
X2097154Y1340854D01*
X2096187Y1340370D01*
X2094252D01*
X2093285Y1340854D01*
X2092317Y1341821D01*
X2091834Y1342789D01*
X2091350Y1344240D01*
Y1346658D01*
X2091834Y1348109D01*
X2092317Y1349077D01*
X2093285Y1350044D01*
X2094252Y1350528D01*
X2096187D01*
X2085594D02*
Y1340370D01*
X2088980Y1350528D02*
X2082208D01*
X2077613D02*
Y1340370D01*
X2080999Y1350528D02*
X2074227D01*
X2070115D02*
X2071083Y1350044D01*
X2072050Y1349077D01*
X2072534Y1348109D01*
X2073017Y1346658D01*
Y1344240D01*
X2072534Y1342789D01*
X2072050Y1341821D01*
X2071083Y1340854D01*
X2070115Y1340370D01*
X2068181D01*
X2067213Y1340854D01*
X2066246Y1341821D01*
X2065762Y1342789D01*
X2065278Y1344240D01*
Y1346658D01*
X2065762Y1348109D01*
X2066246Y1349077D01*
X2067213Y1350044D01*
X2068181Y1350528D01*
X2070115D01*
X2062908D02*
Y1340370D01*
Y1350528D02*
X2059038Y1340370D01*
X2055169Y1350528D02*
X2059038Y1340370D01*
X2055169Y1350528D02*
Y1340370D01*
X2044285Y1350528D02*
Y1340370D01*
X2038481D01*
X2029629D02*
X2033499Y1350528D01*
X2037368Y1340370D01*
X2035917Y1343756D02*
X2031080D01*
X2027259Y1350528D02*
X2023389Y1345691D01*
Y1340370D01*
X2019520Y1350528D02*
X2023389Y1345691D01*
X2011926Y1350528D02*
X2018214D01*
Y1340370D01*
X2011926D01*
X2018214Y1345691D02*
X2014344D01*
X2010233Y1350528D02*
Y1340370D01*
Y1350528D02*
X2005879D01*
X2004428Y1350044D01*
X2003944Y1349560D01*
X2003461Y1348593D01*
Y1347626D01*
X2003944Y1346658D01*
X2004428Y1346174D01*
X2005879Y1345691D01*
X2010233D01*
X2006847D02*
X2003461Y1340370D01*
X2006365Y1108224D02*
Y1098066D01*
Y1108224D02*
X2010235Y1098066D01*
X2014105Y1108224D02*
X2010235Y1098066D01*
X2014105Y1108224D02*
Y1098066D01*
X2017007Y1108224D02*
Y1100968D01*
X2017491Y1099517D01*
X2018458Y1098550D01*
X2019909Y1098066D01*
X2020876D01*
X2022328Y1098550D01*
X2023295Y1099517D01*
X2023779Y1100968D01*
Y1108224D01*
X2026584D02*
Y1098066D01*
X2032389D01*
X2036887Y1108224D02*
Y1098066D01*
X2033501Y1108224D02*
X2040273D01*
X2041482D02*
Y1098066D01*
X2043611Y1108224D02*
Y1098066D01*
X2049415D01*
X2058267D02*
X2054397Y1108224D01*
X2050528Y1098066D01*
X2051979Y1101452D02*
X2056816D01*
X2060637Y1108224D02*
X2064507Y1103387D01*
Y1098066D01*
X2068376Y1108224D02*
X2064507Y1103387D01*
X2075971Y1108224D02*
X2069682D01*
Y1098066D01*
X2075971D01*
X2069682Y1103387D02*
X2073552D01*
X2077664Y1108224D02*
Y1098066D01*
Y1108224D02*
X2082017D01*
X2083468Y1107740D01*
X2083952Y1107256D01*
X2084435Y1106289D01*
Y1105322D01*
X2083952Y1104354D01*
X2083468Y1103870D01*
X2082017Y1103387D01*
X2077664D01*
X2081049D02*
X2084435Y1098066D01*
G54D14*
X2150045Y1345577D02*
D03*
X1964455Y1103273D02*
D03*
G54D15*
X1268500Y1450000D02*
D03*
X1280000D02*
D03*
X1251500Y1426200D02*
D03*
X1263000D02*
D03*
X1223750D02*
D03*
X1235250D02*
D03*
X1291250Y1368500D02*
D03*
X1279750D02*
D03*
G54D17*
X1294250Y1450100D02*
D03*
Y1458900D02*
D03*
G54D20*
X1278350Y1426000D02*
D03*
X1287150D02*
D03*
G54D21*
X1326000Y1478250D02*
D03*
Y1489750D02*
D03*
X1265750Y1356250D02*
D03*
Y1367750D02*
D03*
G54D37*
X1308000Y1484000D02*
D03*
X1279000D02*
D03*
G54D75*
X1253000Y1469250D02*
D03*
G54D76*
X1228000D02*
D03*
G54D85*
X1265625Y1388625D02*
X1265750Y1388500D01*
X1471000Y1356500D02*
Y1369500D01*
X1265750Y1367750D02*
Y1388500D01*
G54D86*
X1368018Y1478273D02*
Y1489982D01*
X1367905Y1478387D02*
X1368018Y1478273D01*
X1355750Y1478500D02*
X1355863Y1478387D01*
X1367905D01*
X1283250Y1345250D02*
X1295750D01*
X1318000Y1353000D02*
X1331250D01*
X1299250Y1334250D02*
X1318000Y1353000D01*
X1264250Y1334250D02*
X1299250D01*
X1255625Y1342875D02*
X1264250Y1334250D01*
X1401000Y1413250D02*
X1401250Y1413000D01*
X1272500Y1102000D02*
Y1118250D01*
X1324250Y1419267D02*
X1357233D01*
X1573000Y1022250D02*
X1587500D01*
X1601250D01*
X1523500Y1095250D02*
X1526000Y1092750D01*
Y1082000D02*
Y1092750D01*
X1515000Y1095250D02*
X1523500D01*
X1512071Y1082071D02*
Y1092321D01*
X1515000Y1095250D01*
X1512000Y1082000D02*
X1512071Y1082071D01*
X1526000Y1050250D02*
Y1064250D01*
X1512000Y1050250D02*
Y1064250D01*
X1540000D02*
Y1082000D01*
X1498000Y1064250D02*
Y1082000D01*
X1526000Y1064250D02*
Y1082000D01*
X1512000Y1064250D02*
Y1082000D01*
X1492000Y1200000D02*
X1492500Y1200500D01*
X1401000Y1413250D02*
X1401250Y1413500D01*
X1255625Y1342875D02*
Y1388625D01*
X1265625D01*
X1245625D02*
X1255625D01*
X1361000Y1433750D02*
X1371750D01*
X1357250Y1419250D02*
Y1430000D01*
X1361000Y1433750D01*
X1300983Y1419267D02*
X1324250D01*
X1493000Y1356500D02*
X1493000Y1356500D01*
X1540000Y1266000D02*
Y1280250D01*
X1401250Y1330500D02*
X1401750Y1331000D01*
X1415000D01*
X1278350Y1413100D02*
Y1426000D01*
X1273000Y1407750D02*
X1278350Y1413100D01*
X1265750Y1407750D02*
X1273000D01*
X1223750Y1436250D02*
X1224000Y1436500D01*
X1357250Y1419250D02*
X1377750D01*
X1357233Y1419267D02*
X1357250Y1419250D01*
X1231761Y1374518D02*
X1231993Y1374750D01*
X1294250Y1426000D02*
X1300983Y1419267D01*
X1287150Y1426000D02*
X1294250D01*
X1314517Y1371233D02*
X1324250D01*
X1297000Y1388750D02*
X1314517Y1371233D01*
X1291750Y1388750D02*
X1297000D01*
X1245250Y1388250D02*
X1245625Y1388625D01*
G54D87*
X1629000Y1365000D02*
X1659000D01*
X1491120Y1297130D02*
X1498000Y1290250D01*
X1468870Y1326370D02*
X1491120Y1304120D01*
X1498000Y1266000D02*
Y1290250D01*
X1491120Y1297130D02*
Y1304120D01*
X1545500Y1222750D02*
X1588500Y1265750D01*
X1473104Y1222750D02*
X1545500D01*
X1465600Y1215246D02*
X1473104Y1222750D01*
X1588500Y1265750D02*
Y1356500D01*
X1617000Y1385000D01*
X1470000Y1266000D02*
Y1302750D01*
X1466750Y1334750D02*
X1473500D01*
X1460000Y1341500D02*
X1466750Y1334750D01*
X1460000Y1341500D02*
Y1356500D01*
X1467500Y1480250D02*
X1471500Y1476250D01*
Y1439000D02*
Y1476250D01*
X1466250Y1433750D02*
X1471500Y1439000D01*
X1395019Y1475023D02*
X1401496Y1481500D01*
X1451250D01*
X1462750Y1470000D01*
X1436500Y1285750D02*
Y1308750D01*
X1428000Y1277250D02*
X1436375Y1285625D01*
X1484000Y1266000D02*
Y1301000D01*
X1456000Y1266000D02*
Y1300750D01*
X1504000Y1322250D02*
Y1356500D01*
X1448250Y1283000D02*
Y1292000D01*
X1442000Y1276750D02*
X1448250Y1283000D01*
X1442000Y1266000D02*
Y1276750D01*
X1428000Y1266000D02*
Y1277250D01*
Y1317250D02*
X1436500Y1308750D01*
X1428000Y1317250D02*
Y1339870D01*
X1442000Y1255750D02*
Y1266000D01*
X1435750Y1249500D02*
X1442000Y1255750D01*
X1584750Y1451750D02*
X1609000Y1476000D01*
X1584750Y1420500D02*
Y1451750D01*
Y1420500D02*
X1596750Y1408500D01*
Y1390500D02*
Y1408500D01*
X1589000Y1382750D02*
X1596750Y1390500D01*
X1659000Y1365000D02*
X1669750Y1354250D01*
X1465600Y1143845D02*
Y1215246D01*
X1240750Y1129250D02*
Y1136750D01*
X1236500Y1125000D02*
X1240750Y1129250D01*
X1220000Y1125000D02*
X1236500D01*
X1251005Y1140500D02*
X1363900D01*
X1617000Y1385000D02*
Y1406525D01*
X1583000Y1363500D02*
X1609500Y1390000D01*
X1583000Y1268500D02*
Y1363500D01*
X1461000Y1148000D02*
Y1217755D01*
X1455750Y1142750D02*
X1461000Y1148000D01*
X1422005Y1142750D02*
X1455750D01*
X1459905Y1138150D02*
X1465600Y1143845D01*
X1411500Y1138150D02*
X1459905D01*
X1417305Y1147450D02*
X1422005Y1142750D01*
X1363900Y1140500D02*
X1366250Y1138150D01*
X1245350Y1134845D02*
X1251005Y1140500D01*
X1245350Y1125345D02*
Y1134845D01*
X1232055Y1112050D02*
X1245350Y1125345D01*
X1221050Y1112050D02*
X1232055D01*
X1220000Y1111000D02*
X1221050Y1112050D01*
X1542350Y1227850D02*
X1583000Y1268500D01*
X1471095Y1227850D02*
X1542350D01*
X1461000Y1217755D02*
X1471095Y1227850D01*
X1411500Y1147450D02*
X1417305D01*
X1363900Y1145100D02*
X1366250Y1147450D01*
X1249100Y1145100D02*
X1363900D01*
X1240750Y1136750D02*
X1249100Y1145100D01*
X1440750Y1240500D02*
X1446500Y1246250D01*
X1440750Y1199250D02*
Y1240500D01*
X1504250Y1246250D02*
X1512000Y1254000D01*
X1446500Y1246250D02*
X1504250D01*
X1364750Y1123250D02*
X1440750Y1199250D01*
X1348500Y1123250D02*
X1364750D01*
X1343723Y1118473D02*
X1348500Y1123250D01*
X1628400Y1385400D02*
Y1442500D01*
X1593500Y1350500D02*
X1628400Y1385400D01*
X1593500Y1228000D02*
Y1350500D01*
X1656750Y1392500D02*
Y1393330D01*
Y1391864D02*
Y1392500D01*
X1653800Y1396280D02*
Y1442500D01*
Y1396280D02*
X1656750Y1393330D01*
X1628400Y1189500D02*
Y1235220D01*
X1631400Y1238220D01*
Y1239000D01*
X1653800Y1189500D02*
Y1235220D01*
X1656800Y1238220D01*
Y1239000D01*
X1313500Y1039500D02*
X1322250Y1048250D01*
X1266100Y1039500D02*
X1313500D01*
X1188400Y1053000D02*
X1252600D01*
X1266100Y1039500D01*
X1166150Y1030750D02*
X1188400Y1053000D01*
X1139750Y1030750D02*
X1166150D01*
X1220000Y1195000D02*
X1244500D01*
X1256500Y1207000D01*
X1220000Y1223000D02*
X1236200D01*
X1236300Y1223100D01*
X1195700Y1196200D02*
Y1197100D01*
X1207600Y1209000D02*
X1220000D01*
X1195700Y1197100D02*
X1207600Y1209000D01*
X1336450Y1450250D02*
X1336700Y1450000D01*
X1329500Y1450250D02*
X1336450D01*
X1326000Y1453750D02*
Y1478250D01*
Y1453750D02*
X1329500Y1450250D01*
X1174500Y1202500D02*
X1191875Y1219875D01*
X1174500Y1158250D02*
Y1202500D01*
X1151250Y1135000D02*
X1174500Y1158250D01*
X1167250Y1203750D02*
X1186375Y1222875D01*
X1167250Y1167150D02*
Y1203750D01*
X1138550Y1138450D02*
X1167250Y1167150D01*
X1186375Y1257875D02*
X1208750Y1280250D01*
X1186375Y1222875D02*
Y1257875D01*
X1191875Y1246875D02*
X1211000Y1266000D01*
X1191875Y1219875D02*
Y1246875D01*
X1197625Y1245125D02*
X1206000Y1253500D01*
X1180700Y1091700D02*
Y1200500D01*
X1197625Y1217425D01*
Y1245125D01*
X1203375Y1241375D02*
X1208500Y1246500D01*
X1188500Y1157750D02*
Y1199000D01*
X1203375Y1213875D01*
Y1241375D01*
X1024050Y1468250D02*
X1043000Y1449300D01*
Y1329750D02*
Y1449300D01*
X1042750Y1329500D02*
X1043000Y1329750D01*
X1042250Y1107500D02*
Y1144050D01*
X1026050Y1160250D02*
X1042250Y1144050D01*
X1048750Y1121750D02*
Y1301000D01*
Y1121750D02*
X1139750Y1030750D01*
X1322250Y1048250D02*
X1379500D01*
X1386000Y1054750D01*
Y1082000D01*
X1343000Y1056500D02*
X1376500D01*
X1330000Y1069500D02*
X1343000Y1056500D01*
X1347240Y1067503D02*
X1375018D01*
X1344000Y1070744D02*
X1347240Y1067503D01*
X1265250Y1281500D02*
Y1281527D01*
X1261527Y1285250D02*
X1265250Y1281527D01*
X1344000Y1070744D02*
Y1082000D01*
X1295250Y1096750D02*
X1295500Y1097000D01*
X1367250D02*
X1372000Y1092250D01*
X1295500Y1097000D02*
X1367250D01*
X1372000Y1082000D02*
Y1092250D01*
X1330000Y1069500D02*
Y1082000D01*
X1447150Y1196150D02*
Y1230851D01*
X1364500Y1113500D02*
X1447150Y1196150D01*
X1354500Y1113500D02*
X1364500D01*
X1339000Y1117850D02*
X1339623Y1118473D01*
X1343723D01*
X1526000Y1248201D02*
Y1266000D01*
X1517899Y1240100D02*
X1526000Y1248201D01*
X1447150Y1230851D02*
X1456400Y1240100D01*
X1517899D01*
X1512000Y1254000D02*
Y1266000D01*
X1425771Y1206760D02*
Y1249729D01*
X1425750Y1249750D02*
X1425771Y1249729D01*
X1219750Y1316500D02*
X1273232D01*
X1273382Y1316650D02*
X1284100D01*
X1273232Y1316500D02*
X1273382Y1316650D01*
X1284100D02*
X1316000Y1284750D01*
X1197469Y1338781D02*
X1219750Y1316500D01*
X1316000Y1266000D02*
Y1284750D01*
X1302000Y1266000D02*
Y1278500D01*
X1280250Y1285750D02*
X1294750D01*
X1302000Y1278500D01*
X1232000Y1295500D02*
X1270500D01*
X1280250Y1285750D01*
X1186750Y1340750D02*
X1232000Y1295500D01*
X1278000Y1279750D02*
X1283750D01*
X1288000Y1275500D01*
Y1266000D02*
Y1275500D01*
X1267750Y1290000D02*
X1278000Y1279750D01*
X1229000Y1290000D02*
X1267750D01*
X1181500Y1337500D02*
X1229000Y1290000D01*
X1226500Y1285250D02*
X1261527D01*
X1175750Y1336000D02*
X1226500Y1285250D01*
X1255250Y1280250D02*
X1259580Y1275920D01*
X1208750Y1280250D02*
X1255250D01*
X1284000Y1250250D02*
X1325750D01*
X1330000Y1254500D02*
Y1266000D01*
X1325750Y1250250D02*
X1330000Y1254500D01*
X1208500Y1246500D02*
X1268750D01*
X1274000Y1251750D02*
Y1266000D01*
X1268750Y1246500D02*
X1274000Y1251750D01*
X1259580Y1266420D02*
X1260000Y1266000D01*
X1259580Y1266420D02*
Y1275920D01*
X1206000Y1253500D02*
X1243250D01*
X1245830Y1265830D02*
X1246000Y1266000D01*
X1245830Y1256080D02*
Y1265830D01*
X1243250Y1253500D02*
X1245830Y1256080D01*
X1211000Y1266000D02*
X1232000D01*
X1504250Y1322500D02*
Y1323250D01*
X1504000Y1322250D02*
X1504250Y1322500D01*
X1515000Y1356500D02*
X1515250Y1356750D01*
X1524500D01*
X1428000Y1339870D02*
X1430250Y1342120D01*
Y1343500D01*
X1482000Y1345250D02*
Y1356500D01*
X1479000Y1342250D02*
X1482000Y1345250D01*
X1470250Y1342250D02*
X1479000D01*
X1436000Y1320750D02*
X1456000Y1300750D01*
X1473500Y1334750D02*
X1481500Y1326750D01*
X1438000Y1334000D02*
X1445500Y1326500D01*
X1438000Y1334000D02*
Y1356500D01*
X1468870Y1326370D02*
X1469000Y1326500D01*
X1449000Y1336000D02*
Y1356500D01*
Y1336000D02*
X1484000Y1301000D01*
X1265750Y1356250D02*
X1266000Y1356000D01*
X1276750D01*
X1279750Y1359000D02*
Y1368500D01*
X1276750Y1356000D02*
X1279750Y1359000D01*
Y1368948D02*
X1279750Y1368948D01*
X1279750Y1368500D02*
Y1368948D01*
X1279750Y1368948D02*
Y1403500D01*
X1291580Y1407580D02*
X1291750Y1407750D01*
X1283830Y1407580D02*
X1291580D01*
X1279750Y1403500D02*
X1283830Y1407580D01*
X1284500Y1433000D02*
X1287000Y1430500D01*
X1265750Y1433000D02*
X1284500D01*
X1263000Y1430250D02*
X1265750Y1433000D01*
X1287000Y1426150D02*
X1287150Y1426000D01*
X1287000Y1426150D02*
Y1430500D01*
X1263000Y1426200D02*
Y1430250D01*
X1122000Y1435600D02*
X1136550Y1421050D01*
X1122000Y1435600D02*
Y1456250D01*
X1128250Y1462500D01*
X1160500D01*
X1192000Y1431000D01*
Y1344250D02*
Y1431000D01*
Y1344250D02*
X1197469Y1338781D01*
X1186750Y1340750D02*
Y1408950D01*
X1181500Y1337500D02*
Y1406500D01*
X1161950Y1433750D02*
X1186750Y1408950D01*
X1166500Y1421500D02*
X1181500Y1406500D01*
X1161950Y1382950D02*
X1175750Y1369150D01*
Y1336000D02*
Y1369150D01*
X1136550Y1446450D02*
X1148250Y1434750D01*
Y1427250D02*
Y1434750D01*
Y1427250D02*
X1154000Y1421500D01*
X1166500D01*
X1058003Y1235511D02*
Y1247123D01*
X1060250Y1249370D01*
Y1250750D01*
X1163950Y1074950D02*
X1180700Y1091700D01*
X1151250Y1125750D02*
Y1135000D01*
X1138550Y1113050D02*
X1151250Y1125750D01*
G54D89*
X1603000Y1189500D02*
Y1235143D01*
X1606000Y1238143D01*
Y1239000D01*
X1336750Y1459750D02*
X1337000Y1459500D01*
X1381750Y1478500D02*
X1383000Y1479750D01*
Y1489250D01*
X1336750Y1459750D02*
Y1469500D01*
X1336700Y1459500D02*
X1337000D01*
X1353162Y1438750D02*
X1358081Y1443669D01*
X1341200Y1438750D02*
X1353162D01*
X1381750Y1450750D02*
Y1459500D01*
X1374669Y1443669D02*
X1381750Y1450750D01*
X1358081Y1443669D02*
X1374669D01*
X1336700Y1440500D02*
X1339450D01*
X1341200Y1438750D01*
X1355750Y1469000D02*
X1381750D01*
X1260750Y1450000D02*
X1268500D01*
X1253000Y1457750D02*
X1260750Y1450000D01*
X1253000Y1457750D02*
Y1469250D01*
X1280577Y1450000D02*
X1280652Y1449925D01*
X1280000Y1450000D02*
X1280577D01*
X1280652Y1449925D02*
X1294075D01*
X1294250Y1450100D01*
X1294350Y1450000D02*
X1310700D01*
X1294250Y1450100D02*
X1294350Y1450000D01*
X1256000Y1407750D02*
X1265750D01*
X1251500Y1412250D02*
X1256000Y1407750D01*
X1251500Y1412250D02*
Y1426200D01*
X1235250D02*
X1251500D01*
G54D90*
X1305250Y1459500D02*
X1310700D01*
X1297550Y1467200D02*
X1305250Y1459500D01*
X1293625Y1467200D02*
X1297550D01*
X1284250D02*
X1293625D01*
X1294250Y1458900D02*
Y1466575D01*
X1293625Y1467200D02*
X1294250Y1466575D01*
X1271750Y1467200D02*
X1284250D01*
X1278265Y1483265D02*
X1279000Y1484000D01*
X1267015Y1483265D02*
X1278265D01*
X1253000Y1469250D02*
X1267015Y1483265D01*
G54D93*
X1747500Y1468750D02*
D03*
Y1448750D02*
D03*
G54D94*
Y1428750D02*
D03*
G54D95*
X1702000Y1240200D02*
D03*
G54D96*
X1582000Y1398200D02*
D03*
G54D97*
X1202000Y1030000D02*
D03*
G54D98*
X1758000Y1059500D02*
D03*
Y1305500D02*
D03*
G54D99*
X1278000D02*
D03*
X1161950Y1357550D02*
D03*
X1136550Y1370250D02*
D03*
X1161950Y1382950D02*
D03*
X1136550Y1395650D02*
D03*
X1161950Y1408350D02*
D03*
X1136550Y1421050D02*
D03*
X1161950Y1433750D02*
D03*
X1163950Y1049550D02*
D03*
X1138550Y1062250D02*
D03*
X1163950Y1074950D02*
D03*
X1138550Y1087650D02*
D03*
X1163950Y1100350D02*
D03*
X1138550Y1113050D02*
D03*
X1163950Y1125750D02*
D03*
G54D100*
X1278000Y1055500D02*
D03*
G54D101*
X1396091Y1016950D02*
D03*
X1360000Y1017000D02*
D03*
X1324000D02*
D03*
G54D102*
X1065700Y1280900D02*
D03*
Y1223100D02*
D03*
G54D103*
X1070700Y1208750D02*
D03*
Y1295250D02*
D03*
G54D104*
X1028900Y1208750D02*
D03*
Y1295250D02*
D03*
G54D105*
X1073050Y1344850D02*
D03*
Y1459150D02*
D03*
X1075050Y1036850D02*
D03*
Y1151150D02*
D03*
G54D106*
X1103550Y1324550D02*
D03*
Y1479450D02*
D03*
X1105550Y1016550D02*
D03*
Y1171450D02*
D03*
G54D107*
X1024050Y1335750D02*
D03*
Y1361150D02*
D03*
Y1442850D02*
D03*
Y1468250D02*
D03*
X1026050Y1027750D02*
D03*
Y1053150D02*
D03*
Y1134850D02*
D03*
Y1160250D02*
D03*
G54D108*
X1136550Y1446450D02*
D03*
X1138550Y1138450D02*
D03*
G54D109*
X1629000Y1365000D02*
D03*
X1378750Y1251000D02*
D03*
X1392000D02*
D03*
X1292500Y1435500D02*
D03*
X1306750Y1358250D02*
D03*
X1327000Y1406000D02*
D03*
X1317250Y1396750D02*
D03*
X1326750Y1383250D02*
D03*
X1575750Y1356750D02*
D03*
X1557750Y1356500D02*
D03*
X1606250Y1401000D02*
D03*
X1565000Y1405000D02*
D03*
X1555000Y1385000D02*
D03*
Y1395000D02*
D03*
X1545000D02*
D03*
X1525750Y1377750D02*
D03*
X1545000Y1385000D02*
D03*
X1466250Y1433750D02*
D03*
X1467500Y1480250D02*
D03*
X1462750Y1470000D02*
D03*
X1395019Y1475023D02*
D03*
X1549500Y1455500D02*
D03*
X1491250Y1297000D02*
D03*
X1484000Y1289000D02*
D03*
X1456000Y1282000D02*
D03*
X1470000Y1280500D02*
D03*
X1436250Y1285750D02*
D03*
X1427250Y1294250D02*
D03*
X1435750Y1249500D02*
D03*
X1437021Y1422021D02*
D03*
X1457772Y1394019D02*
D03*
X1458272Y1419521D02*
D03*
X1475773Y1402770D02*
D03*
X1609000Y1476000D02*
D03*
X1589000Y1382750D02*
D03*
X1669750Y1354250D02*
D03*
X1492750Y1339000D02*
D03*
X1372000Y1158750D02*
D03*
X1440250Y1150250D02*
D03*
X1617000Y1406525D02*
D03*
X1411500Y1138150D02*
D03*
X1366250D02*
D03*
X1411500Y1147450D02*
D03*
X1366250D02*
D03*
X1609500Y1390000D02*
D03*
X1689975Y1411750D02*
D03*
X1343000Y1478750D02*
D03*
X1181250Y1076800D02*
D03*
X1236300Y1223100D02*
D03*
X1195700Y1196200D02*
D03*
X1010000Y1010000D02*
D03*
X1477500Y1432750D02*
D03*
X1324000Y1445000D02*
D03*
X1540000Y1490000D02*
D03*
X1515000D02*
D03*
X1565000D02*
D03*
X1450000Y1450000D02*
D03*
Y1470000D02*
D03*
X1470000Y1490000D02*
D03*
X1450000D02*
D03*
X1220000D02*
D03*
X1425500Y1489000D02*
D03*
X1405750Y1442000D02*
D03*
Y1472500D02*
D03*
X1387000Y1439000D02*
D03*
X1199250Y1281000D02*
D03*
X1042750Y1329500D02*
D03*
X1048750Y1301000D02*
D03*
X1042250Y1107500D02*
D03*
X1575000Y1150000D02*
D03*
Y1125000D02*
D03*
Y1175000D02*
D03*
X1550000Y1125000D02*
D03*
Y1150000D02*
D03*
Y1175000D02*
D03*
X1525000Y1125000D02*
D03*
Y1150000D02*
D03*
X1135000Y1175000D02*
D03*
Y1200000D02*
D03*
X1050000Y1050000D02*
D03*
Y1075000D02*
D03*
X1100000Y1100000D02*
D03*
Y1125000D02*
D03*
X1075000Y1075000D02*
D03*
Y1125000D02*
D03*
X1100000Y1400000D02*
D03*
Y1375000D02*
D03*
X1075000D02*
D03*
Y1400000D02*
D03*
X1100000Y1425000D02*
D03*
X1075000D02*
D03*
X1720000Y1285000D02*
D03*
X1450000Y1175000D02*
D03*
X1475000D02*
D03*
X1425000Y1150000D02*
D03*
X1451000D02*
D03*
X1475000D02*
D03*
X1425000Y1125000D02*
D03*
X1450000D02*
D03*
X1625000Y1150000D02*
D03*
X1650000D02*
D03*
X1675000D02*
D03*
X1625000Y1125000D02*
D03*
X1650000D02*
D03*
X1675000D02*
D03*
X1700000Y1200000D02*
D03*
X1725000D02*
D03*
X1750000D02*
D03*
X1700000Y1175000D02*
D03*
X1725000D02*
D03*
X1750000D02*
D03*
X1700000Y1150000D02*
D03*
X1725000D02*
D03*
X1750000D02*
D03*
X1640000Y1340000D02*
D03*
X1665000D02*
D03*
X1690000D02*
D03*
X1640000Y1315000D02*
D03*
X1665000D02*
D03*
X1690000D02*
D03*
X1640000Y1290000D02*
D03*
X1665000D02*
D03*
X1690000D02*
D03*
X1677250Y1399750D02*
D03*
X1725000Y1400000D02*
D03*
X1700000D02*
D03*
X1677250Y1424750D02*
D03*
X1725000Y1425000D02*
D03*
X1700000D02*
D03*
X1677250Y1452000D02*
D03*
X1725000D02*
D03*
X1700000D02*
D03*
X1520000Y1010000D02*
D03*
X1545000D02*
D03*
X1570000D02*
D03*
X1595000D02*
D03*
X1250000D02*
D03*
X1275000D02*
D03*
X1085000D02*
D03*
X1060000D02*
D03*
X1010000Y1060000D02*
D03*
Y1035000D02*
D03*
Y1145000D02*
D03*
Y1120000D02*
D03*
Y1100000D02*
D03*
Y1220000D02*
D03*
Y1195000D02*
D03*
Y1170000D02*
D03*
Y1300000D02*
D03*
Y1275000D02*
D03*
Y1250000D02*
D03*
Y1375000D02*
D03*
Y1350000D02*
D03*
Y1325000D02*
D03*
X1030000Y1490000D02*
D03*
X1010000D02*
D03*
X1050000D02*
D03*
X1720000Y1025000D02*
D03*
Y1050000D02*
D03*
X1790000Y1010000D02*
D03*
X1765000D02*
D03*
X1495000D02*
D03*
X1415000D02*
D03*
X1305000D02*
D03*
X1175000D02*
D03*
X1150000D02*
D03*
X1125000D02*
D03*
X1035000D02*
D03*
X1010000Y1077500D02*
D03*
Y1395000D02*
D03*
Y1412500D02*
D03*
X1025000Y1225000D02*
D03*
Y1250000D02*
D03*
Y1275000D02*
D03*
X1010000Y1430000D02*
D03*
Y1455000D02*
D03*
Y1475000D02*
D03*
X1075000Y1490000D02*
D03*
X1125000D02*
D03*
X1150000D02*
D03*
X1175000D02*
D03*
X1200000D02*
D03*
X1790000D02*
D03*
X1765000D02*
D03*
X1740000D02*
D03*
X1715000D02*
D03*
X1590000D02*
D03*
X1615000D02*
D03*
X1640000D02*
D03*
X1665000D02*
D03*
X1690000D02*
D03*
Y1010000D02*
D03*
X1740000D02*
D03*
X1715000D02*
D03*
X1670000D02*
D03*
X1720000Y1075000D02*
D03*
Y1100000D02*
D03*
X1745000D02*
D03*
X1770000D02*
D03*
X1790000D02*
D03*
Y1125000D02*
D03*
Y1150000D02*
D03*
X1775000Y1345000D02*
D03*
X1750000D02*
D03*
X1720000D02*
D03*
Y1270000D02*
D03*
X1740000D02*
D03*
X1765000D02*
D03*
X1790000D02*
D03*
Y1175000D02*
D03*
Y1200000D02*
D03*
Y1225000D02*
D03*
Y1250000D02*
D03*
Y1350000D02*
D03*
Y1375000D02*
D03*
Y1400000D02*
D03*
Y1425000D02*
D03*
Y1450000D02*
D03*
Y1475000D02*
D03*
X1329731Y1039481D02*
D03*
X1375018Y1067503D02*
D03*
X1265250Y1281500D02*
D03*
X1069500Y1189000D02*
D03*
X1298515Y1067753D02*
D03*
X1376500Y1056500D02*
D03*
X1253262Y1066503D02*
D03*
X1295250Y1096750D02*
D03*
X1336500Y1325500D02*
D03*
X1198250Y1148500D02*
D03*
Y1134000D02*
D03*
X1256500Y1207000D02*
D03*
X1525000Y1175000D02*
D03*
X1354500Y1113500D02*
D03*
X1339000Y1127150D02*
D03*
X1338500Y1117850D02*
D03*
X1425750Y1249750D02*
D03*
X1425771Y1206760D02*
D03*
X1372000Y1193000D02*
D03*
Y1179000D02*
D03*
X1593500Y1228000D02*
D03*
X1656750Y1392500D02*
D03*
X1656800Y1239000D02*
D03*
X1631400D02*
D03*
X1401250Y1395500D02*
D03*
X1644500Y1218500D02*
D03*
X1618500D02*
D03*
X1606000Y1239000D02*
D03*
X1284000Y1250250D02*
D03*
X1504250Y1323250D02*
D03*
X1377518Y1394769D02*
D03*
X1471000Y1369500D02*
D03*
X1524500Y1356750D02*
D03*
X1430250Y1343500D02*
D03*
X1448250Y1292000D02*
D03*
X1470250Y1342250D02*
D03*
X1436000Y1320750D02*
D03*
X1470000Y1302750D02*
D03*
X1481500Y1326750D02*
D03*
X1445500Y1326500D02*
D03*
X1469000D02*
D03*
X1540000Y1280250D02*
D03*
X1538750Y1347250D02*
D03*
X1570500Y1316500D02*
D03*
X1292750Y1358250D02*
D03*
X1270500Y1440000D02*
D03*
X1224000Y1436500D02*
D03*
X1211250Y1362000D02*
D03*
X1245000Y1439250D02*
D03*
X1257750Y1439500D02*
D03*
X1202250Y1368750D02*
D03*
X1455000Y1010000D02*
D03*
X1301500Y1198500D02*
D03*
X1301500Y1166000D02*
D03*
X1301750Y1133000D02*
D03*
X1301250Y1110500D02*
D03*
X1219250Y1082000D02*
D03*
X1255750Y1098750D02*
D03*
X1255500Y1130500D02*
D03*
Y1122500D02*
D03*
X1255250Y1162500D02*
D03*
Y1154500D02*
D03*
Y1186500D02*
D03*
X1256250Y1238750D02*
D03*
X1216261Y1273263D02*
D03*
X1415000Y1331000D02*
D03*
X1058003Y1235511D02*
D03*
X1060250Y1250750D02*
D03*
X1188500Y1157750D02*
D03*
X1089250Y1216500D02*
D03*
X1137000Y1233000D02*
D03*
G54D110*
X1506750Y1415422D02*
D03*
X1383000Y1489250D02*
D03*
X1336750Y1469500D02*
D03*
X1368000Y1490000D02*
D03*
X1368018Y1478500D02*
D03*
X1350250Y1448000D02*
D03*
X1369250Y1452750D02*
D03*
X1293000Y1479500D02*
D03*
X1284250Y1467200D02*
D03*
X1271750D02*
D03*
X1293000Y1490000D02*
D03*
X1318000Y1353000D02*
D03*
X1174500Y1296250D02*
D03*
X1185000Y1310250D02*
D03*
X1157250Y1285000D02*
D03*
X1133500Y1285250D02*
D03*
X1109750Y1285000D02*
D03*
X1153250Y1327000D02*
D03*
X1126500Y1308250D02*
D03*
X1153250Y1308500D02*
D03*
X1346300Y1283700D02*
D03*
X1383899Y1305399D02*
D03*
X1272500Y1102000D02*
D03*
X1601250Y1022250D02*
D03*
X1587500D02*
D03*
X1573000D02*
D03*
X1540000Y1050250D02*
D03*
X1526000D02*
D03*
X1498000D02*
D03*
X1512000D02*
D03*
X1526000Y1064250D02*
D03*
X1498000D02*
D03*
X1512000D02*
D03*
X1540000D02*
D03*
X1302000Y1052000D02*
D03*
X1272500Y1118250D02*
D03*
X1292500Y1294500D02*
D03*
X1198200Y1101600D02*
D03*
X1297484Y1239016D02*
D03*
X1331250Y1353000D02*
D03*
X1536000Y1299000D02*
D03*
X1506750Y1299250D02*
D03*
X1371750Y1433750D02*
D03*
X1361000D02*
D03*
X1231761Y1374518D02*
D03*
X1270263Y1344267D02*
D03*
X1171750Y1324750D02*
D03*
Y1312000D02*
D03*
X1205250Y1429500D02*
D03*
Y1414750D02*
D03*
X1234500Y1402000D02*
D03*
X1295750Y1345250D02*
D03*
X1283250D02*
D03*
X1234500Y1415250D02*
D03*
X1165000Y1220000D02*
D03*
X1096000Y1276250D02*
D03*
Y1288500D02*
D03*
Y1228000D02*
D03*
X1112000D02*
D03*
G54D112*
X1603000Y1189500D02*
D03*
X1628400D02*
D03*
X1653800D02*
D03*
X1603000Y1442500D02*
D03*
X1628400D02*
D03*
X1653800D02*
D03*
G54D113*
X1336700Y1440500D02*
D03*
Y1459500D02*
D03*
Y1450000D02*
D03*
X1310700Y1440500D02*
D03*
Y1459500D02*
D03*
Y1450000D02*
D03*
X1355750Y1478500D02*
D03*
Y1459500D02*
D03*
Y1469000D02*
D03*
X1381750Y1478500D02*
D03*
Y1459500D02*
D03*
Y1469000D02*
D03*
X1265750Y1407750D02*
D03*
Y1388750D02*
D03*
X1291750Y1398250D02*
D03*
Y1407750D02*
D03*
Y1388750D02*
D03*
G54D114*
X1245250Y1374750D02*
D03*
Y1388250D02*
D03*
X1357250Y1405750D02*
D03*
Y1419250D02*
D03*
X1377750Y1405750D02*
D03*
Y1419250D02*
D03*
G54D115*
X1344000Y1266000D02*
D03*
X1526000D02*
D03*
X1512000D02*
D03*
X1498000D02*
D03*
X1484000D02*
D03*
X1470000D02*
D03*
X1456000D02*
D03*
X1442000D02*
D03*
X1428000D02*
D03*
X1414000D02*
D03*
X1400000D02*
D03*
X1386000D02*
D03*
X1372000D02*
D03*
X1358000D02*
D03*
X1274000D02*
D03*
X1260000D02*
D03*
X1246000D02*
D03*
X1232000D02*
D03*
X1232000Y1082000D02*
D03*
X1246000D02*
D03*
X1260000D02*
D03*
X1274000D02*
D03*
X1288000D02*
D03*
X1302000D02*
D03*
X1316000D02*
D03*
X1330000D02*
D03*
X1344000D02*
D03*
X1358000D02*
D03*
X1372000D02*
D03*
X1386000D02*
D03*
X1400000D02*
D03*
X1414000D02*
D03*
X1428000D02*
D03*
X1442000D02*
D03*
X1456000D02*
D03*
X1470000D02*
D03*
X1498000D02*
D03*
X1512000D02*
D03*
X1526000D02*
D03*
X1540000D02*
D03*
X1540000Y1266000D02*
D03*
X1484000Y1082000D02*
D03*
X1302000Y1266000D02*
D03*
X1288000D02*
D03*
X1316000D02*
D03*
X1330000D02*
D03*
G54D116*
X1220000Y1237000D02*
D03*
Y1223000D02*
D03*
Y1209000D02*
D03*
Y1195000D02*
D03*
Y1181000D02*
D03*
Y1167000D02*
D03*
Y1153000D02*
D03*
Y1139000D02*
D03*
Y1125000D02*
D03*
Y1111000D02*
D03*
G54D117*
X1492000Y1134000D02*
D03*
Y1200000D02*
D03*
G54D118*
X1339340Y1176996D02*
D03*
G54D119*
X1401250Y1330500D02*
D03*
Y1413500D02*
D03*
X1538750D02*
D03*
Y1330500D02*
D03*
G54D120*
X1515000Y1356500D02*
D03*
X1504000D02*
D03*
X1493000D02*
D03*
X1482000D02*
D03*
X1471000D02*
D03*
X1460000D02*
D03*
X1449000D02*
D03*
X1438000D02*
D03*
G54D121*
X1324250Y1371233D02*
D03*
Y1419267D02*
D03*
M02*
