G04*
G04 #@! TF.GenerationSoftware,Altium Limited,Altium Designer,20.0.2 (26)*
G04*
G04 Layer_Physical_Order=1*
G04 Layer_Color=255*
%FSLAX44Y44*%
%MOMM*%
G71*
G01*
G75*
%ADD10C,0.2000*%
%ADD13C,0.1270*%
%ADD14R,4.8260X2.4130*%
%ADD15R,0.7500X0.6000*%
%ADD16R,1.8000X1.3000*%
G04:AMPARAMS|DCode=17|XSize=0.64mm|YSize=0.6mm|CornerRadius=0.045mm|HoleSize=0mm|Usage=FLASHONLY|Rotation=0.000|XOffset=0mm|YOffset=0mm|HoleType=Round|Shape=RoundedRectangle|*
%AMROUNDEDRECTD17*
21,1,0.6400,0.5100,0,0,0.0*
21,1,0.5500,0.6000,0,0,0.0*
1,1,0.0900,0.2750,-0.2550*
1,1,0.0900,-0.2750,-0.2550*
1,1,0.0900,-0.2750,0.2550*
1,1,0.0900,0.2750,0.2550*
%
%ADD17ROUNDEDRECTD17*%
G04:AMPARAMS|DCode=18|XSize=0.4mm|YSize=1.35mm|CornerRadius=0.04mm|HoleSize=0mm|Usage=FLASHONLY|Rotation=270.000|XOffset=0mm|YOffset=0mm|HoleType=Round|Shape=RoundedRectangle|*
%AMROUNDEDRECTD18*
21,1,0.4000,1.2700,0,0,270.0*
21,1,0.3200,1.3500,0,0,270.0*
1,1,0.0800,-0.6350,-0.1600*
1,1,0.0800,-0.6350,0.1600*
1,1,0.0800,0.6350,0.1600*
1,1,0.0800,0.6350,-0.1600*
%
%ADD18ROUNDEDRECTD18*%
G04:AMPARAMS|DCode=19|XSize=1.5mm|YSize=0.9mm|CornerRadius=0.0675mm|HoleSize=0mm|Usage=FLASHONLY|Rotation=180.000|XOffset=0mm|YOffset=0mm|HoleType=Round|Shape=RoundedRectangle|*
%AMROUNDEDRECTD19*
21,1,1.5000,0.7650,0,0,180.0*
21,1,1.3650,0.9000,0,0,180.0*
1,1,0.1350,-0.6825,0.3825*
1,1,0.1350,0.6825,0.3825*
1,1,0.1350,0.6825,-0.3825*
1,1,0.1350,-0.6825,-0.3825*
%
%ADD19ROUNDEDRECTD19*%
G04:AMPARAMS|DCode=20|XSize=0.64mm|YSize=0.6mm|CornerRadius=0.045mm|HoleSize=0mm|Usage=FLASHONLY|Rotation=270.000|XOffset=0mm|YOffset=0mm|HoleType=Round|Shape=RoundedRectangle|*
%AMROUNDEDRECTD20*
21,1,0.6400,0.5100,0,0,270.0*
21,1,0.5500,0.6000,0,0,270.0*
1,1,0.0900,-0.2550,-0.2750*
1,1,0.0900,-0.2550,0.2750*
1,1,0.0900,0.2550,0.2750*
1,1,0.0900,0.2550,-0.2750*
%
%ADD20ROUNDEDRECTD20*%
%ADD21R,0.6000X0.7500*%
G04:AMPARAMS|DCode=22|XSize=1.3mm|YSize=1.3mm|CornerRadius=0.13mm|HoleSize=0mm|Usage=FLASHONLY|Rotation=270.000|XOffset=0mm|YOffset=0mm|HoleType=Round|Shape=RoundedRectangle|*
%AMROUNDEDRECTD22*
21,1,1.3000,1.0400,0,0,270.0*
21,1,1.0400,1.3000,0,0,270.0*
1,1,0.2600,-0.5200,-0.5200*
1,1,0.2600,-0.5200,0.5200*
1,1,0.2600,0.5200,0.5200*
1,1,0.2600,0.5200,-0.5200*
%
%ADD22ROUNDEDRECTD22*%
G04:AMPARAMS|DCode=23|XSize=1.3mm|YSize=1.3mm|CornerRadius=0.13mm|HoleSize=0mm|Usage=FLASHONLY|Rotation=180.000|XOffset=0mm|YOffset=0mm|HoleType=Round|Shape=RoundedRectangle|*
%AMROUNDEDRECTD23*
21,1,1.3000,1.0400,0,0,180.0*
21,1,1.0400,1.3000,0,0,180.0*
1,1,0.2600,-0.5200,0.5200*
1,1,0.2600,0.5200,0.5200*
1,1,0.2600,0.5200,-0.5200*
1,1,0.2600,-0.5200,-0.5200*
%
%ADD23ROUNDEDRECTD23*%
G04:AMPARAMS|DCode=24|XSize=0.8mm|YSize=0.95mm|CornerRadius=0.06mm|HoleSize=0mm|Usage=FLASHONLY|Rotation=90.000|XOffset=0mm|YOffset=0mm|HoleType=Round|Shape=RoundedRectangle|*
%AMROUNDEDRECTD24*
21,1,0.8000,0.8300,0,0,90.0*
21,1,0.6800,0.9500,0,0,90.0*
1,1,0.1200,0.4150,0.3400*
1,1,0.1200,0.4150,-0.3400*
1,1,0.1200,-0.4150,-0.3400*
1,1,0.1200,-0.4150,0.3400*
%
%ADD24ROUNDEDRECTD24*%
%ADD25R,0.8500X0.9500*%
%ADD26R,1.4000X1.1200*%
G04:AMPARAMS|DCode=27|XSize=0.7mm|YSize=0.5mm|CornerRadius=0.0375mm|HoleSize=0mm|Usage=FLASHONLY|Rotation=90.000|XOffset=0mm|YOffset=0mm|HoleType=Round|Shape=RoundedRectangle|*
%AMROUNDEDRECTD27*
21,1,0.7000,0.4250,0,0,90.0*
21,1,0.6250,0.5000,0,0,90.0*
1,1,0.0750,0.2125,0.3125*
1,1,0.0750,0.2125,-0.3125*
1,1,0.0750,-0.2125,-0.3125*
1,1,0.0750,-0.2125,0.3125*
%
%ADD27ROUNDEDRECTD27*%
G04:AMPARAMS|DCode=28|XSize=2mm|YSize=0.59mm|CornerRadius=0.0738mm|HoleSize=0mm|Usage=FLASHONLY|Rotation=0.000|XOffset=0mm|YOffset=0mm|HoleType=Round|Shape=RoundedRectangle|*
%AMROUNDEDRECTD28*
21,1,2.0000,0.4425,0,0,0.0*
21,1,1.8525,0.5900,0,0,0.0*
1,1,0.1475,0.9262,-0.2213*
1,1,0.1475,-0.9262,-0.2213*
1,1,0.1475,-0.9262,0.2213*
1,1,0.1475,0.9262,0.2213*
%
%ADD28ROUNDEDRECTD28*%
G04:AMPARAMS|DCode=29|XSize=3.2mm|YSize=2.3mm|CornerRadius=0.23mm|HoleSize=0mm|Usage=FLASHONLY|Rotation=0.000|XOffset=0mm|YOffset=0mm|HoleType=Round|Shape=RoundedRectangle|*
%AMROUNDEDRECTD29*
21,1,3.2000,1.8400,0,0,0.0*
21,1,2.7400,2.3000,0,0,0.0*
1,1,0.4600,1.3700,-0.9200*
1,1,0.4600,-1.3700,-0.9200*
1,1,0.4600,-1.3700,0.9200*
1,1,0.4600,1.3700,0.9200*
%
%ADD29ROUNDEDRECTD29*%
G04:AMPARAMS|DCode=30|XSize=3.2mm|YSize=2.3mm|CornerRadius=0.1725mm|HoleSize=0mm|Usage=FLASHONLY|Rotation=0.000|XOffset=0mm|YOffset=0mm|HoleType=Round|Shape=RoundedRectangle|*
%AMROUNDEDRECTD30*
21,1,3.2000,1.9550,0,0,0.0*
21,1,2.8550,2.3000,0,0,0.0*
1,1,0.3450,1.4275,-0.9775*
1,1,0.3450,-1.4275,-0.9775*
1,1,0.3450,-1.4275,0.9775*
1,1,0.3450,1.4275,0.9775*
%
%ADD30ROUNDEDRECTD30*%
G04:AMPARAMS|DCode=31|XSize=1.8mm|YSize=1.35mm|CornerRadius=0.1013mm|HoleSize=0mm|Usage=FLASHONLY|Rotation=0.000|XOffset=0mm|YOffset=0mm|HoleType=Round|Shape=RoundedRectangle|*
%AMROUNDEDRECTD31*
21,1,1.8000,1.1475,0,0,0.0*
21,1,1.5975,1.3500,0,0,0.0*
1,1,0.2025,0.7988,-0.5738*
1,1,0.2025,-0.7988,-0.5738*
1,1,0.2025,-0.7988,0.5738*
1,1,0.2025,0.7988,0.5738*
%
%ADD31ROUNDEDRECTD31*%
%ADD32R,0.9000X1.0000*%
G04:AMPARAMS|DCode=33|XSize=0.9mm|YSize=0.5mm|CornerRadius=0.05mm|HoleSize=0mm|Usage=FLASHONLY|Rotation=180.000|XOffset=0mm|YOffset=0mm|HoleType=Round|Shape=RoundedRectangle|*
%AMROUNDEDRECTD33*
21,1,0.9000,0.4000,0,0,180.0*
21,1,0.8000,0.5000,0,0,180.0*
1,1,0.1000,-0.4000,0.2000*
1,1,0.1000,0.4000,0.2000*
1,1,0.1000,0.4000,-0.2000*
1,1,0.1000,-0.4000,-0.2000*
%
%ADD33ROUNDEDRECTD33*%
%ADD34R,0.8000X0.9500*%
G04:AMPARAMS|DCode=35|XSize=2.5mm|YSize=3.4mm|CornerRadius=0.125mm|HoleSize=0mm|Usage=FLASHONLY|Rotation=90.000|XOffset=0mm|YOffset=0mm|HoleType=Round|Shape=RoundedRectangle|*
%AMROUNDEDRECTD35*
21,1,2.5000,3.1500,0,0,90.0*
21,1,2.2500,3.4000,0,0,90.0*
1,1,0.2500,1.5750,1.1250*
1,1,0.2500,1.5750,-1.1250*
1,1,0.2500,-1.5750,-1.1250*
1,1,0.2500,-1.5750,1.1250*
%
%ADD35ROUNDEDRECTD35*%
G04:AMPARAMS|DCode=36|XSize=1.55mm|YSize=0.6mm|CornerRadius=0.03mm|HoleSize=0mm|Usage=FLASHONLY|Rotation=90.000|XOffset=0mm|YOffset=0mm|HoleType=Round|Shape=RoundedRectangle|*
%AMROUNDEDRECTD36*
21,1,1.5500,0.5400,0,0,90.0*
21,1,1.4900,0.6000,0,0,90.0*
1,1,0.0600,0.2700,0.7450*
1,1,0.0600,0.2700,-0.7450*
1,1,0.0600,-0.2700,-0.7450*
1,1,0.0600,-0.2700,0.7450*
%
%ADD36ROUNDEDRECTD36*%
%ADD37R,1.3000X1.8000*%
G04:AMPARAMS|DCode=38|XSize=1.1mm|YSize=0.5mm|CornerRadius=0.0625mm|HoleSize=0mm|Usage=FLASHONLY|Rotation=0.000|XOffset=0mm|YOffset=0mm|HoleType=Round|Shape=RoundedRectangle|*
%AMROUNDEDRECTD38*
21,1,1.1000,0.3750,0,0,0.0*
21,1,0.9750,0.5000,0,0,0.0*
1,1,0.1250,0.4875,-0.1875*
1,1,0.1250,-0.4875,-0.1875*
1,1,0.1250,-0.4875,0.1875*
1,1,0.1250,0.4875,0.1875*
%
%ADD38ROUNDEDRECTD38*%
%ADD39R,1.0000X0.5900*%
%ADD40R,1.0000X0.2900*%
%ADD75C,2.0000*%
G04:AMPARAMS|DCode=76|XSize=2mm|YSize=2mm|CornerRadius=0.5mm|HoleSize=0mm|Usage=FLASHONLY|Rotation=180.000|XOffset=0mm|YOffset=0mm|HoleType=Round|Shape=RoundedRectangle|*
%AMROUNDEDRECTD76*
21,1,2.0000,1.0000,0,0,180.0*
21,1,1.0000,2.0000,0,0,180.0*
1,1,1.0000,-0.5000,0.5000*
1,1,1.0000,0.5000,0.5000*
1,1,1.0000,0.5000,-0.5000*
1,1,1.0000,-0.5000,-0.5000*
%
%ADD76ROUNDEDRECTD76*%
%ADD85C,0.4000*%
%ADD86C,0.5000*%
%ADD87C,0.2100*%
%ADD88C,0.2210*%
%ADD89C,0.3000*%
%ADD90C,0.6000*%
%ADD91C,0.5500*%
%ADD92C,0.4500*%
%ADD93C,1.4000*%
G04:AMPARAMS|DCode=94|XSize=1.4mm|YSize=1.4mm|CornerRadius=0.14mm|HoleSize=0mm|Usage=FLASHONLY|Rotation=90.000|XOffset=0mm|YOffset=0mm|HoleType=Round|Shape=RoundedRectangle|*
%AMROUNDEDRECTD94*
21,1,1.4000,1.1200,0,0,90.0*
21,1,1.1200,1.4000,0,0,90.0*
1,1,0.2800,0.5600,0.5600*
1,1,0.2800,0.5600,-0.5600*
1,1,0.2800,-0.5600,-0.5600*
1,1,0.2800,-0.5600,0.5600*
%
%ADD94ROUNDEDRECTD94*%
%ADD95C,1.2000*%
%ADD96C,1.7000*%
%ADD97C,3.5000*%
%ADD98O,4.8000X6.0000*%
%ADD99C,1.6000*%
%ADD100C,1.1000*%
%ADD101O,1.9500X1.9000*%
%ADD102C,0.2500*%
%ADD103O,2.1000X1.0000*%
%ADD104O,1.6000X1.0000*%
%ADD105C,3.3000*%
%ADD106C,2.7000*%
%ADD107C,1.8000*%
G04:AMPARAMS|DCode=108|XSize=1.6mm|YSize=1.6mm|CornerRadius=0.4mm|HoleSize=0mm|Usage=FLASHONLY|Rotation=90.000|XOffset=0mm|YOffset=0mm|HoleType=Round|Shape=RoundedRectangle|*
%AMROUNDEDRECTD108*
21,1,1.6000,0.8000,0,0,90.0*
21,1,0.8000,1.6000,0,0,90.0*
1,1,0.8000,0.4000,0.4000*
1,1,0.8000,0.4000,-0.4000*
1,1,0.8000,-0.4000,-0.4000*
1,1,0.8000,-0.4000,0.4000*
%
%ADD108ROUNDEDRECTD108*%
%ADD109C,0.7200*%
%ADD110C,1.0000*%
G36*
X1795000Y1005000D02*
X1403118D01*
X1402805Y1005615D01*
X1402560Y1007100D01*
X1404615Y1008677D01*
X1406474Y1011100D01*
X1407643Y1013922D01*
X1408041Y1016950D01*
X1407643Y1019978D01*
X1406474Y1022800D01*
X1406000Y1023417D01*
X1414271Y1031688D01*
X1414967Y1032730D01*
X1415212Y1033959D01*
Y1062000D01*
X1414967Y1063229D01*
X1414271Y1064271D01*
X1409021Y1069521D01*
X1407979Y1070217D01*
X1406750Y1070462D01*
X1405850D01*
Y1072350D01*
X1382650D01*
Y1070462D01*
X1379897D01*
X1379128Y1071613D01*
X1377242Y1072873D01*
X1375018Y1073315D01*
X1373850Y1073083D01*
X1371750Y1074508D01*
Y1083288D01*
X1410620D01*
X1421679Y1072229D01*
X1422721Y1071533D01*
X1422900Y1071497D01*
Y1069400D01*
X1446100D01*
Y1079600D01*
X1443462D01*
Y1089400D01*
X1446100D01*
Y1099600D01*
X1443462D01*
Y1109400D01*
X1446100D01*
Y1111288D01*
X1576750D01*
X1577979Y1111533D01*
X1579021Y1112229D01*
X1679271Y1212479D01*
X1679967Y1213521D01*
X1680212Y1214750D01*
Y1347000D01*
X1679967Y1348229D01*
X1679271Y1349271D01*
X1675351Y1353191D01*
X1675562Y1354250D01*
X1675119Y1356474D01*
X1673860Y1358360D01*
X1671974Y1359619D01*
X1669750Y1360062D01*
X1667526Y1359619D01*
X1665641Y1358360D01*
X1664381Y1356474D01*
X1663938Y1354250D01*
X1664381Y1352026D01*
X1665641Y1350141D01*
X1667526Y1348881D01*
X1669750Y1348438D01*
X1670809Y1348649D01*
X1673788Y1345670D01*
Y1216080D01*
X1575420Y1117712D01*
X1446100D01*
Y1119600D01*
X1422900D01*
Y1117503D01*
X1422721Y1117467D01*
X1421679Y1116771D01*
X1410620Y1105712D01*
X1355327D01*
X1355120Y1107812D01*
X1356724Y1108131D01*
X1358609Y1109390D01*
X1359869Y1111276D01*
X1360312Y1113500D01*
X1359869Y1115724D01*
X1358609Y1117609D01*
X1356724Y1118869D01*
X1354500Y1119312D01*
X1352276Y1118869D01*
X1352004Y1118688D01*
X1344601Y1126091D01*
X1344812Y1127150D01*
X1344369Y1129374D01*
X1343109Y1131260D01*
X1341224Y1132519D01*
X1339000Y1132962D01*
X1336776Y1132519D01*
X1334890Y1131260D01*
X1334877Y1131239D01*
X1333931Y1131241D01*
X1332073Y1132288D01*
Y1132500D01*
X1305927D01*
Y1132288D01*
X1306217Y1130829D01*
X1307025Y1129620D01*
X1306844Y1128712D01*
Y1124287D01*
X1307065Y1123180D01*
X1307519Y1122500D01*
X1307065Y1121820D01*
X1306844Y1120713D01*
Y1116288D01*
X1307025Y1115380D01*
X1306217Y1114171D01*
X1305927Y1112712D01*
Y1112500D01*
X1319000D01*
Y1108500D01*
X1305927D01*
Y1108288D01*
X1306217Y1106829D01*
X1307025Y1105620D01*
X1306844Y1104713D01*
Y1100287D01*
X1307065Y1099180D01*
X1307519Y1098500D01*
X1307065Y1097820D01*
X1306844Y1096712D01*
Y1092288D01*
X1307065Y1091180D01*
X1307519Y1090500D01*
X1307065Y1089820D01*
X1306844Y1088712D01*
Y1084287D01*
X1306848Y1084271D01*
X1305482Y1082281D01*
X1305287Y1082171D01*
X1297900D01*
X1296495Y1081891D01*
X1295305Y1081096D01*
X1286705Y1072495D01*
X1285909Y1071305D01*
X1285629Y1069900D01*
Y1061491D01*
X1283530Y1060778D01*
X1283420Y1060920D01*
X1281833Y1062139D01*
X1279984Y1062904D01*
X1278000Y1063166D01*
X1276016Y1062904D01*
X1274167Y1062139D01*
X1272580Y1060920D01*
X1271361Y1059333D01*
X1270596Y1057484D01*
X1270334Y1055500D01*
X1270596Y1053516D01*
X1271361Y1051667D01*
X1272580Y1050080D01*
X1274167Y1048861D01*
X1276016Y1048096D01*
X1278000Y1047834D01*
X1279984Y1048096D01*
X1281833Y1048861D01*
X1283420Y1050080D01*
X1283530Y1050222D01*
X1285629Y1049509D01*
Y1024068D01*
X1284912Y1023588D01*
X1284348Y1022745D01*
X1284150Y1021750D01*
Y1016250D01*
X1284348Y1015255D01*
X1284912Y1014412D01*
X1285755Y1013848D01*
X1286750Y1013650D01*
X1291850D01*
X1292845Y1013848D01*
X1292956Y1013922D01*
X1293063Y1013763D01*
X1294204Y1013000D01*
X1295550Y1012732D01*
X1296100D01*
Y1019000D01*
Y1025268D01*
X1295550D01*
X1295071Y1025172D01*
X1293229Y1026344D01*
X1292970Y1026701D01*
Y1050102D01*
X1295070Y1050239D01*
X1295083Y1050146D01*
X1295798Y1048419D01*
X1296936Y1046936D01*
X1298419Y1045798D01*
X1300146Y1045083D01*
X1302000Y1044839D01*
X1303853Y1045083D01*
X1305581Y1045798D01*
X1307064Y1046936D01*
X1308202Y1048419D01*
X1308917Y1050146D01*
X1309161Y1052000D01*
X1308917Y1053854D01*
X1308202Y1055581D01*
X1309406Y1057460D01*
X1309738Y1057394D01*
X1328262D01*
X1329370Y1057615D01*
X1330308Y1058242D01*
X1330360Y1058320D01*
X1334505D01*
X1334912Y1057711D01*
X1335320Y1057439D01*
Y1053561D01*
X1334912Y1053288D01*
X1334348Y1052445D01*
X1334150Y1051450D01*
Y1046350D01*
X1334348Y1045355D01*
X1334422Y1045244D01*
X1334263Y1045137D01*
X1333500Y1043996D01*
X1333232Y1042650D01*
Y1042100D01*
X1339500D01*
X1345768D01*
Y1042650D01*
X1345500Y1043996D01*
X1344737Y1045137D01*
X1344578Y1045244D01*
X1344652Y1045355D01*
X1344850Y1046350D01*
Y1051450D01*
X1344652Y1052445D01*
X1344088Y1053288D01*
X1343680Y1053561D01*
Y1057439D01*
X1344088Y1057711D01*
X1344495Y1058320D01*
X1349268D01*
X1351298Y1056290D01*
X1350494Y1054350D01*
X1348650D01*
Y1037150D01*
X1370850D01*
Y1051087D01*
X1371106Y1051303D01*
X1372950Y1052017D01*
X1374276Y1051131D01*
X1376500Y1050688D01*
X1377559Y1050899D01*
X1377729Y1050729D01*
X1378771Y1050033D01*
X1380000Y1049788D01*
X1382650D01*
Y1047900D01*
X1396788D01*
Y1044830D01*
X1393420Y1041462D01*
X1381250D01*
X1380021Y1041217D01*
X1378979Y1040521D01*
X1365740Y1027282D01*
X1363278Y1028301D01*
X1360250Y1028700D01*
X1359750D01*
X1356722Y1028301D01*
X1353900Y1027133D01*
X1351477Y1025273D01*
X1349617Y1022850D01*
X1348449Y1020028D01*
X1348050Y1017000D01*
X1348449Y1013972D01*
X1349617Y1011150D01*
X1351477Y1008727D01*
X1353597Y1007100D01*
X1353476Y1005964D01*
X1353024Y1005000D01*
X1332594D01*
X1331882Y1007100D01*
X1333165Y1008085D01*
X1335169Y1010696D01*
X1336428Y1013737D01*
X1336595Y1015000D01*
X1311405D01*
X1311572Y1013737D01*
X1312831Y1010696D01*
X1314835Y1008085D01*
X1316118Y1007100D01*
X1315406Y1005000D01*
X1119872D01*
X1118974Y1006898D01*
X1119336Y1007339D01*
X1120868Y1010205D01*
X1121811Y1013315D01*
X1121933Y1014550D01*
X1105550D01*
X1089167D01*
X1089289Y1013315D01*
X1090232Y1010205D01*
X1091764Y1007339D01*
X1092126Y1006898D01*
X1091228Y1005000D01*
X1005000D01*
Y1495000D01*
X1093277D01*
X1093582Y1494493D01*
X1093930Y1492900D01*
X1091826Y1491174D01*
X1089764Y1488661D01*
X1088232Y1485795D01*
X1087289Y1482685D01*
X1087167Y1481450D01*
X1103550D01*
X1119933D01*
X1119811Y1482685D01*
X1118868Y1485795D01*
X1117336Y1488661D01*
X1115274Y1491174D01*
X1113170Y1492900D01*
X1113518Y1494493D01*
X1113823Y1495000D01*
X1336826D01*
X1337756Y1492913D01*
X1336875Y1491850D01*
X1325500D01*
Y1492750D01*
X1320250D01*
Y1485000D01*
Y1477250D01*
X1325500D01*
Y1478150D01*
X1333592D01*
X1334010Y1476050D01*
X1333169Y1475702D01*
X1331686Y1474564D01*
X1330548Y1473081D01*
X1329833Y1471353D01*
X1329589Y1469500D01*
X1329833Y1467646D01*
X1330548Y1465919D01*
X1331686Y1464436D01*
X1333169Y1463298D01*
X1334897Y1462583D01*
X1336750Y1462339D01*
X1338604Y1462583D01*
X1340331Y1463298D01*
X1341814Y1464436D01*
X1342883Y1465829D01*
X1372250D01*
X1373655Y1466109D01*
X1374845Y1466905D01*
X1385596Y1477655D01*
X1386391Y1478845D01*
X1386671Y1480250D01*
Y1483117D01*
X1388064Y1484186D01*
X1389202Y1485669D01*
X1389917Y1487397D01*
X1390161Y1489250D01*
X1389917Y1491104D01*
X1389202Y1492831D01*
X1389149Y1492900D01*
X1390184Y1495000D01*
X1420440D01*
X1421010Y1493866D01*
X1421251Y1492900D01*
X1420131Y1491224D01*
X1419688Y1489000D01*
X1420131Y1486776D01*
X1421391Y1484891D01*
X1423276Y1483631D01*
X1425500Y1483188D01*
X1427724Y1483631D01*
X1429264Y1484660D01*
X1431240D01*
X1433102Y1483275D01*
Y1477025D01*
X1433294Y1476059D01*
X1433841Y1475241D01*
X1434079Y1475081D01*
Y1468100D01*
X1432650D01*
Y1457500D01*
X1431750D01*
Y1452750D01*
X1443750D01*
Y1457500D01*
X1442850D01*
Y1468100D01*
X1441420D01*
Y1475081D01*
X1441659Y1475241D01*
X1442206Y1476059D01*
X1442399Y1477025D01*
Y1483275D01*
X1442206Y1484241D01*
X1441866Y1484750D01*
X1442206Y1485259D01*
X1442399Y1486225D01*
Y1489141D01*
X1442440Y1489350D01*
X1442399Y1489559D01*
Y1492475D01*
X1442314Y1492900D01*
X1443218Y1494504D01*
X1443690Y1495000D01*
X1476680D01*
X1477921Y1493488D01*
Y1489750D01*
X1502079D01*
Y1493488D01*
X1503320Y1495000D01*
X1795000D01*
Y1005000D01*
D02*
G37*
G36*
X1362593Y1483546D02*
X1362428Y1482877D01*
X1361816Y1482081D01*
X1361101Y1480354D01*
X1360857Y1478500D01*
X1361101Y1476647D01*
X1361671Y1475271D01*
X1361188Y1474078D01*
X1360511Y1473170D01*
X1342883D01*
X1341814Y1474564D01*
X1340331Y1475702D01*
X1338604Y1476417D01*
X1338515Y1476429D01*
X1337600Y1478150D01*
Y1480379D01*
X1339045Y1480667D01*
X1340566Y1481684D01*
X1344193Y1485310D01*
X1361469D01*
X1362593Y1483546D01*
D02*
G37*
%LPC*%
G36*
X1316250Y1492750D02*
X1311000D01*
Y1487000D01*
X1316250D01*
Y1492750D01*
D02*
G37*
G36*
Y1483000D02*
X1311000D01*
Y1477250D01*
X1316250D01*
Y1483000D01*
D02*
G37*
G36*
X1666325Y1479572D02*
X1661500D01*
Y1474000D01*
X1670072D01*
Y1475825D01*
X1669787Y1477259D01*
X1668974Y1478474D01*
X1667759Y1479287D01*
X1666325Y1479572D01*
D02*
G37*
G36*
X1657500D02*
X1652675D01*
X1651241Y1479287D01*
X1650025Y1478474D01*
X1649213Y1477259D01*
X1648928Y1475825D01*
Y1474000D01*
X1657500D01*
Y1479572D01*
D02*
G37*
G36*
X1749500Y1478573D02*
Y1470750D01*
X1757323D01*
X1757243Y1471360D01*
X1756235Y1473793D01*
X1754632Y1475882D01*
X1752543Y1477485D01*
X1750110Y1478493D01*
X1749500Y1478573D01*
D02*
G37*
G36*
X1745500Y1478573D02*
X1744890Y1478493D01*
X1742457Y1477485D01*
X1740368Y1475882D01*
X1738765Y1473793D01*
X1737757Y1471360D01*
X1737677Y1470750D01*
X1745500D01*
Y1478573D01*
D02*
G37*
G36*
X1073050Y1477840D02*
X1069404Y1477481D01*
X1065898Y1476417D01*
X1062666Y1474690D01*
X1059834Y1472366D01*
X1057510Y1469534D01*
X1055783Y1466302D01*
X1054719Y1462796D01*
X1054360Y1459150D01*
X1054719Y1455504D01*
X1055783Y1451998D01*
X1057510Y1448766D01*
X1059834Y1445934D01*
X1062666Y1443610D01*
X1065898Y1441883D01*
X1069404Y1440819D01*
X1073050Y1440460D01*
X1076696Y1440819D01*
X1080202Y1441883D01*
X1083434Y1443610D01*
X1086266Y1445934D01*
X1088590Y1448766D01*
X1090317Y1451998D01*
X1091381Y1455504D01*
X1091740Y1459150D01*
X1091381Y1462796D01*
X1090317Y1466302D01*
X1090294Y1466345D01*
X1091826Y1467726D01*
X1094339Y1465664D01*
X1097205Y1464132D01*
X1100315Y1463189D01*
X1101550Y1463067D01*
Y1477450D01*
X1087167D01*
X1087289Y1476216D01*
X1088232Y1473105D01*
X1086368Y1472242D01*
X1086266Y1472366D01*
X1083434Y1474690D01*
X1080202Y1476417D01*
X1076696Y1477481D01*
X1073050Y1477840D01*
D02*
G37*
G36*
X1119933Y1477450D02*
X1105550D01*
Y1463067D01*
X1106785Y1463189D01*
X1109895Y1464132D01*
X1112761Y1465664D01*
X1115274Y1467726D01*
X1117336Y1470239D01*
X1118868Y1473105D01*
X1119811Y1476216D01*
X1119933Y1477450D01*
D02*
G37*
G36*
X1024050Y1479446D02*
X1021152Y1479064D01*
X1018452Y1477946D01*
X1016133Y1476167D01*
X1014354Y1473848D01*
X1013236Y1471148D01*
X1012854Y1468250D01*
X1013236Y1465352D01*
X1014354Y1462652D01*
X1016133Y1460333D01*
X1018452Y1458554D01*
X1021152Y1457436D01*
X1024050Y1457054D01*
X1026948Y1457436D01*
X1029648Y1458554D01*
X1031967Y1460333D01*
X1033746Y1462652D01*
X1034864Y1465352D01*
X1035246Y1468250D01*
X1034864Y1471148D01*
X1033746Y1473848D01*
X1031967Y1476167D01*
X1029648Y1477946D01*
X1026948Y1479064D01*
X1024050Y1479446D01*
D02*
G37*
G36*
X1026050Y1454690D02*
Y1444850D01*
X1035890D01*
X1035741Y1445983D01*
X1034532Y1448902D01*
X1032608Y1451409D01*
X1030102Y1453332D01*
X1027183Y1454541D01*
X1026050Y1454690D01*
D02*
G37*
G36*
X1022050D02*
X1020917Y1454541D01*
X1017998Y1453332D01*
X1015491Y1451409D01*
X1013568Y1448902D01*
X1012359Y1445983D01*
X1012210Y1444850D01*
X1022050D01*
Y1454690D01*
D02*
G37*
G36*
X1467500Y1486062D02*
X1465276Y1485619D01*
X1463391Y1484359D01*
X1462131Y1482474D01*
X1461688Y1480250D01*
X1462131Y1478026D01*
X1462247Y1477853D01*
X1461280Y1475519D01*
X1460526Y1475369D01*
X1458641Y1474109D01*
X1457381Y1472224D01*
X1456938Y1470000D01*
X1457381Y1467776D01*
X1458641Y1465891D01*
X1460526Y1464631D01*
X1462750Y1464188D01*
X1464974Y1464631D01*
X1466089Y1465376D01*
X1466321Y1465333D01*
X1467027Y1463069D01*
X1463979Y1460021D01*
X1463283Y1458979D01*
X1463038Y1457750D01*
Y1446830D01*
X1458170Y1441962D01*
X1443899D01*
X1443750Y1444000D01*
X1443750Y1444062D01*
Y1448750D01*
X1431750D01*
Y1447499D01*
X1429650Y1446401D01*
X1428962Y1446880D01*
Y1458250D01*
X1428717Y1459479D01*
X1428021Y1460521D01*
X1424021Y1464521D01*
X1422979Y1465217D01*
X1421750Y1465462D01*
X1419100D01*
Y1468100D01*
X1412191D01*
X1411069Y1470200D01*
X1411119Y1470276D01*
X1411562Y1472500D01*
X1411119Y1474724D01*
X1409859Y1476609D01*
X1407974Y1477869D01*
X1405750Y1478312D01*
X1403526Y1477869D01*
X1402537Y1477209D01*
X1400797Y1477240D01*
X1399992Y1477841D01*
X1399129Y1479133D01*
X1397243Y1480392D01*
X1395019Y1480835D01*
X1392795Y1480392D01*
X1390910Y1479133D01*
X1389650Y1477247D01*
X1389208Y1475023D01*
X1389650Y1472799D01*
X1390910Y1470914D01*
X1391978Y1470200D01*
X1391900Y1468100D01*
X1391900D01*
Y1456400D01*
Y1444900D01*
X1398499D01*
X1400098Y1442800D01*
X1399938Y1442000D01*
X1400381Y1439776D01*
X1401640Y1437890D01*
X1403526Y1436631D01*
X1404435Y1436450D01*
X1404228Y1434350D01*
X1394400D01*
Y1432462D01*
X1392250D01*
X1391021Y1432217D01*
X1389979Y1431521D01*
X1386420Y1427962D01*
X1378905D01*
X1377869Y1430062D01*
X1377952Y1430169D01*
X1378667Y1431897D01*
X1378911Y1433750D01*
X1378667Y1435603D01*
X1377952Y1437331D01*
X1376814Y1438814D01*
X1375331Y1439952D01*
X1373604Y1440667D01*
X1371750Y1440911D01*
X1369897Y1440667D01*
X1368169Y1439952D01*
X1367961Y1439792D01*
X1366064Y1438814D01*
X1364581Y1439952D01*
X1362854Y1440667D01*
X1361000Y1440911D01*
X1359147Y1440667D01*
X1357419Y1439952D01*
X1355936Y1438814D01*
X1355132Y1437765D01*
X1353100Y1437600D01*
Y1437600D01*
X1340900D01*
Y1423900D01*
X1353100D01*
Y1423900D01*
X1353777Y1424181D01*
X1355479Y1422479D01*
X1356521Y1421783D01*
X1357750Y1421538D01*
X1387750D01*
X1388979Y1421783D01*
X1390021Y1422479D01*
X1392300Y1424758D01*
X1394400Y1424150D01*
Y1424150D01*
X1417600D01*
Y1426038D01*
X1461750D01*
X1462979Y1426283D01*
X1464021Y1426979D01*
X1465191Y1428149D01*
X1466250Y1427938D01*
X1468474Y1428381D01*
X1470359Y1429641D01*
X1471619Y1431526D01*
X1472062Y1433750D01*
X1471619Y1435974D01*
X1470359Y1437859D01*
X1468474Y1439119D01*
X1467563Y1439301D01*
X1466871Y1441579D01*
X1468521Y1443229D01*
X1469217Y1444271D01*
X1469462Y1445500D01*
Y1456420D01*
X1473330Y1460288D01*
X1518900D01*
Y1456171D01*
X1516529D01*
X1515125Y1455891D01*
X1513934Y1455095D01*
X1507405Y1448566D01*
X1506609Y1447375D01*
X1506329Y1445971D01*
Y1436520D01*
X1491905Y1422095D01*
X1491109Y1420905D01*
X1490829Y1419500D01*
Y1408020D01*
X1471730Y1388920D01*
X1369000D01*
X1367595Y1388641D01*
X1366405Y1387845D01*
X1361753Y1383194D01*
X1359653Y1384064D01*
Y1388650D01*
X1359443Y1389704D01*
X1358847Y1390597D01*
X1357953Y1391193D01*
X1356900Y1391403D01*
X1348600D01*
X1347547Y1391193D01*
X1346653Y1390597D01*
X1346382Y1390190D01*
X1342440D01*
Y1400900D01*
X1343600D01*
Y1403060D01*
X1361157D01*
X1362223Y1402347D01*
X1363550Y1402083D01*
X1373950D01*
X1375277Y1402347D01*
X1376401Y1403099D01*
X1377153Y1404223D01*
X1377417Y1405550D01*
Y1415950D01*
X1377153Y1417277D01*
X1376401Y1418401D01*
X1375277Y1419153D01*
X1373950Y1419417D01*
X1363550D01*
X1362223Y1419153D01*
X1361099Y1418401D01*
X1360347Y1417277D01*
X1360083Y1415950D01*
Y1412440D01*
X1343600D01*
Y1414600D01*
X1331400D01*
Y1400900D01*
X1333060D01*
Y1385500D01*
Y1382850D01*
X1332650D01*
Y1370190D01*
X1328943D01*
X1311690Y1387443D01*
Y1406400D01*
X1316100D01*
Y1421800D01*
X1297900D01*
Y1419690D01*
X1288447D01*
Y1422450D01*
X1288261Y1423386D01*
X1287990Y1423792D01*
Y1438950D01*
X1287633Y1440745D01*
X1286616Y1442266D01*
X1270843Y1458040D01*
X1271675Y1459873D01*
X1271806Y1460046D01*
X1273604Y1460283D01*
X1275331Y1460998D01*
X1276636Y1462000D01*
X1279364D01*
X1280669Y1460998D01*
X1282397Y1460283D01*
X1284250Y1460039D01*
X1286104Y1460283D01*
X1287831Y1460998D01*
X1289314Y1462136D01*
X1290452Y1463619D01*
X1291167Y1465347D01*
X1291411Y1467200D01*
X1291167Y1469053D01*
X1290452Y1470781D01*
X1289314Y1472264D01*
X1287831Y1473402D01*
X1286104Y1474117D01*
X1284250Y1474361D01*
X1282397Y1474117D01*
X1280669Y1473402D01*
X1279364Y1472400D01*
X1276636D01*
X1275331Y1473402D01*
X1273604Y1474117D01*
X1271750Y1474361D01*
X1269896Y1474117D01*
X1268169Y1473402D01*
X1266904Y1472431D01*
X1266192Y1472423D01*
X1264565Y1472949D01*
X1263569Y1475352D01*
X1261630Y1477880D01*
X1259102Y1479819D01*
X1256159Y1481039D01*
X1253000Y1481454D01*
X1249841Y1481039D01*
X1246898Y1479819D01*
X1244370Y1477880D01*
X1242431Y1475352D01*
X1242206Y1474809D01*
X1240050Y1475093D01*
X1239917Y1476104D01*
X1239202Y1477831D01*
X1238064Y1479314D01*
X1236581Y1480452D01*
X1234854Y1481167D01*
X1233000Y1481411D01*
X1223000D01*
X1221146Y1481167D01*
X1219419Y1480452D01*
X1217936Y1479314D01*
X1216798Y1477831D01*
X1216083Y1476104D01*
X1215839Y1474250D01*
Y1464250D01*
X1216083Y1462397D01*
X1216798Y1460669D01*
X1217936Y1459186D01*
X1219419Y1458048D01*
X1221146Y1457333D01*
X1223000Y1457089D01*
X1233000D01*
X1234854Y1457333D01*
X1236581Y1458048D01*
X1238064Y1459186D01*
X1239202Y1460669D01*
X1239917Y1462397D01*
X1240050Y1463407D01*
X1242206Y1463691D01*
X1242431Y1463148D01*
X1244370Y1460620D01*
X1246898Y1458681D01*
X1249841Y1457461D01*
X1253000Y1457046D01*
X1256159Y1457461D01*
X1257571Y1458046D01*
X1268271Y1447346D01*
X1267678Y1444970D01*
X1266391Y1444109D01*
X1265131Y1442224D01*
X1265128Y1442210D01*
X1264008Y1441939D01*
X1262943Y1441988D01*
X1261860Y1443609D01*
X1259974Y1444869D01*
X1257750Y1445312D01*
X1255526Y1444869D01*
X1253641Y1443609D01*
X1252442Y1441816D01*
X1251174Y1441607D01*
X1250231Y1441681D01*
X1249109Y1443360D01*
X1247224Y1444619D01*
X1245000Y1445062D01*
X1242776Y1444619D01*
X1240891Y1443360D01*
X1239631Y1441474D01*
X1239188Y1439250D01*
X1239631Y1437026D01*
X1240891Y1435141D01*
X1241788Y1434541D01*
Y1424756D01*
X1241564Y1424711D01*
X1240770Y1424180D01*
X1240239Y1423386D01*
X1240053Y1422450D01*
X1238081Y1421452D01*
X1236354Y1422167D01*
X1234500Y1422411D01*
X1232646Y1422167D01*
X1231700Y1421775D01*
X1229600Y1422876D01*
Y1426100D01*
X1212400D01*
Y1403900D01*
X1225471D01*
X1227339Y1402000D01*
X1227583Y1400147D01*
X1228298Y1398419D01*
X1229436Y1396936D01*
X1230919Y1395798D01*
X1232646Y1395083D01*
X1234500Y1394839D01*
X1236354Y1395083D01*
X1238081Y1395798D01*
X1239564Y1396936D01*
X1240702Y1398419D01*
X1241417Y1400147D01*
X1241661Y1402000D01*
X1241509Y1403159D01*
X1241888Y1403904D01*
X1242547Y1404658D01*
X1243173Y1405103D01*
X1247900D01*
X1248836Y1405289D01*
X1249630Y1405820D01*
X1250161Y1406614D01*
X1250347Y1407550D01*
Y1422450D01*
X1250161Y1423386D01*
X1249630Y1424180D01*
X1248836Y1424711D01*
X1248212Y1424835D01*
Y1434541D01*
X1249109Y1435141D01*
X1250308Y1436934D01*
X1251576Y1437143D01*
X1252519Y1437069D01*
X1253641Y1435391D01*
X1254688Y1434691D01*
Y1424795D01*
X1254264Y1424711D01*
X1253470Y1424180D01*
X1252939Y1423386D01*
X1252753Y1422450D01*
Y1407550D01*
X1252939Y1406614D01*
X1253470Y1405820D01*
X1254264Y1405289D01*
X1255200Y1405103D01*
X1260600D01*
X1261536Y1405289D01*
X1262330Y1405820D01*
X1262861Y1406614D01*
X1263047Y1407550D01*
Y1422450D01*
X1262861Y1423386D01*
X1262330Y1424180D01*
X1261536Y1424711D01*
X1261112Y1424795D01*
Y1434891D01*
X1261860Y1435391D01*
X1263119Y1437276D01*
X1263122Y1437290D01*
X1264242Y1437561D01*
X1265307Y1437512D01*
X1266391Y1435891D01*
X1267388Y1435224D01*
Y1424795D01*
X1266964Y1424711D01*
X1266170Y1424180D01*
X1265639Y1423386D01*
X1265453Y1422450D01*
Y1407550D01*
X1265639Y1406614D01*
X1266170Y1405820D01*
X1266964Y1405289D01*
X1267900Y1405103D01*
X1273300D01*
X1274236Y1405289D01*
X1275030Y1405820D01*
X1275561Y1406614D01*
X1275747Y1407550D01*
Y1422450D01*
X1275561Y1423386D01*
X1275030Y1424180D01*
X1274236Y1424711D01*
X1273812Y1424795D01*
Y1435358D01*
X1274610Y1435891D01*
X1275027Y1436516D01*
X1277397Y1436921D01*
X1278610Y1435922D01*
Y1423792D01*
X1278339Y1423386D01*
X1278153Y1422450D01*
Y1407550D01*
X1278339Y1406614D01*
X1278870Y1405820D01*
X1279664Y1405289D01*
X1280600Y1405103D01*
X1286000D01*
X1286936Y1405289D01*
X1287730Y1405820D01*
X1288261Y1406614D01*
X1288447Y1407550D01*
Y1410310D01*
X1297900D01*
Y1406400D01*
X1302310D01*
Y1385500D01*
X1302667Y1383705D01*
X1303684Y1382184D01*
X1323684Y1362184D01*
X1325205Y1361167D01*
X1326004Y1361008D01*
X1326635Y1358947D01*
X1325358Y1357693D01*
X1323284Y1357777D01*
X1323064Y1358064D01*
X1321581Y1359202D01*
X1319854Y1359917D01*
X1318000Y1360161D01*
X1316147Y1359917D01*
X1314419Y1359202D01*
X1312936Y1358064D01*
X1311798Y1356581D01*
X1311083Y1354854D01*
X1310839Y1353000D01*
X1311083Y1351147D01*
X1311798Y1349419D01*
X1312936Y1347936D01*
X1314419Y1346798D01*
X1316147Y1346083D01*
X1318000Y1345839D01*
X1319854Y1346083D01*
X1321581Y1346798D01*
X1323064Y1347936D01*
X1323351Y1348310D01*
X1325900D01*
X1326186Y1347936D01*
X1327669Y1346798D01*
X1329397Y1346083D01*
X1331250Y1345839D01*
X1333103Y1346083D01*
X1334831Y1346798D01*
X1336314Y1347936D01*
X1336600Y1348310D01*
X1362500D01*
X1364295Y1348667D01*
X1365816Y1349684D01*
X1379066Y1362934D01*
X1380083Y1364455D01*
X1380440Y1366250D01*
Y1369705D01*
X1380954Y1369807D01*
X1381847Y1370403D01*
X1382443Y1371297D01*
X1382599Y1372079D01*
X1389900D01*
Y1370400D01*
X1413100D01*
Y1372288D01*
X1418333D01*
Y1369550D01*
X1418597Y1368223D01*
X1419349Y1367099D01*
X1420473Y1366347D01*
X1421800Y1366083D01*
X1423921D01*
X1424033Y1365521D01*
X1424729Y1364479D01*
X1429479Y1359729D01*
X1430521Y1359033D01*
X1431750Y1358788D01*
X1438253D01*
X1439056Y1356848D01*
X1431309Y1349101D01*
X1430250Y1349312D01*
X1428026Y1348869D01*
X1426140Y1347610D01*
X1424881Y1345724D01*
X1424438Y1343500D01*
X1424881Y1341276D01*
X1426140Y1339391D01*
X1428026Y1338131D01*
X1430250Y1337688D01*
X1432474Y1338131D01*
X1434359Y1339391D01*
X1435619Y1341276D01*
X1436062Y1343500D01*
X1435851Y1344559D01*
X1444830Y1353538D01*
X1519791D01*
X1520390Y1352641D01*
X1522276Y1351381D01*
X1524500Y1350938D01*
X1526724Y1351381D01*
X1528609Y1352641D01*
X1529869Y1354526D01*
X1530312Y1356750D01*
X1529869Y1358974D01*
X1528609Y1360860D01*
X1527743Y1361438D01*
X1528380Y1363538D01*
X1573000D01*
X1574229Y1363783D01*
X1575271Y1364479D01*
X1587941Y1377149D01*
X1589000Y1376938D01*
X1591224Y1377381D01*
X1593109Y1378640D01*
X1594369Y1380526D01*
X1594812Y1382750D01*
X1594685Y1383387D01*
X1596641Y1384317D01*
X1618229Y1362729D01*
X1619271Y1362033D01*
X1620500Y1361788D01*
X1624291D01*
X1624891Y1360891D01*
X1626776Y1359631D01*
X1629000Y1359188D01*
X1631224Y1359631D01*
X1633109Y1360891D01*
X1634369Y1362776D01*
X1634812Y1365000D01*
X1634369Y1367224D01*
X1633109Y1369109D01*
X1631224Y1370369D01*
X1629000Y1370812D01*
X1626776Y1370369D01*
X1624891Y1369109D01*
X1624291Y1368212D01*
X1621830D01*
X1607621Y1382421D01*
X1608656Y1384356D01*
X1609500Y1384188D01*
X1611724Y1384631D01*
X1613609Y1385891D01*
X1614209Y1386788D01*
X1619000D01*
X1620229Y1387033D01*
X1621271Y1387729D01*
X1627271Y1393729D01*
X1627967Y1394771D01*
X1628212Y1396000D01*
Y1413851D01*
X1631350D01*
X1632325Y1414045D01*
X1633152Y1414598D01*
X1633705Y1415425D01*
X1633899Y1416400D01*
Y1419600D01*
X1633705Y1420575D01*
X1633254Y1421250D01*
X1633705Y1421925D01*
X1633899Y1422900D01*
Y1426100D01*
X1633705Y1427076D01*
X1633254Y1427750D01*
X1633705Y1428425D01*
X1633899Y1429400D01*
Y1432600D01*
X1633705Y1433575D01*
X1633254Y1434250D01*
X1633705Y1434925D01*
X1633899Y1435900D01*
Y1439100D01*
X1633705Y1440076D01*
X1633254Y1440750D01*
X1633705Y1441425D01*
X1633899Y1442400D01*
Y1445600D01*
X1635562Y1447288D01*
X1650868D01*
X1650983Y1446995D01*
X1651217Y1445188D01*
X1650674Y1444826D01*
X1650061Y1443908D01*
X1649846Y1442825D01*
Y1435175D01*
X1650061Y1434092D01*
X1650674Y1433174D01*
X1651592Y1432561D01*
X1652675Y1432346D01*
X1656288D01*
Y1417100D01*
X1653900D01*
Y1406900D01*
X1677100D01*
Y1408080D01*
X1685572D01*
X1685865Y1407641D01*
X1687751Y1406381D01*
X1689975Y1405938D01*
X1692199Y1406381D01*
X1694084Y1407641D01*
X1694378Y1408080D01*
X1703483D01*
X1703498Y1408005D01*
X1704062Y1407162D01*
X1704905Y1406598D01*
X1705900Y1406400D01*
X1711000D01*
X1711995Y1406598D01*
X1712106Y1406672D01*
X1712213Y1406513D01*
X1713354Y1405750D01*
X1714700Y1405482D01*
X1715250D01*
Y1411750D01*
Y1418018D01*
X1714700D01*
X1714271Y1417932D01*
X1712406Y1419140D01*
X1712171Y1419485D01*
Y1432346D01*
X1715325D01*
X1716408Y1432561D01*
X1717326Y1433174D01*
X1717939Y1434092D01*
X1718154Y1435175D01*
Y1442825D01*
X1717939Y1443908D01*
X1717326Y1444826D01*
X1716408Y1445439D01*
X1715325Y1445654D01*
X1701675D01*
X1700592Y1445439D01*
X1699674Y1444826D01*
X1699061Y1443908D01*
X1698846Y1442825D01*
Y1435175D01*
X1699061Y1434092D01*
X1699674Y1433174D01*
X1700592Y1432561D01*
X1701675Y1432346D01*
X1704830D01*
Y1416852D01*
X1704062Y1416338D01*
X1703498Y1415495D01*
X1703483Y1415421D01*
X1694378D01*
X1694084Y1415860D01*
X1692199Y1417119D01*
X1689975Y1417562D01*
X1687751Y1417119D01*
X1685865Y1415860D01*
X1685572Y1415421D01*
X1677100D01*
Y1417100D01*
X1662712D01*
Y1432346D01*
X1666325D01*
X1667408Y1432561D01*
X1668326Y1433174D01*
X1668939Y1434092D01*
X1669154Y1435175D01*
Y1442825D01*
X1668939Y1443908D01*
X1668326Y1444826D01*
X1667408Y1445439D01*
X1666325Y1445654D01*
X1662712D01*
Y1446000D01*
X1662467Y1447229D01*
X1661771Y1448271D01*
X1657271Y1452771D01*
X1656229Y1453467D01*
X1655000Y1453712D01*
X1635562D01*
X1633899Y1455400D01*
Y1458600D01*
X1635562Y1460288D01*
X1731420D01*
X1739205Y1452503D01*
X1738634Y1451126D01*
X1738322Y1448750D01*
X1738634Y1446375D01*
X1739551Y1444161D01*
X1741010Y1442260D01*
X1742735Y1440936D01*
X1742736Y1440701D01*
X1741900Y1438836D01*
X1740183Y1438495D01*
X1738728Y1437522D01*
X1737755Y1436067D01*
X1737414Y1434350D01*
Y1430750D01*
X1747500D01*
X1757586D01*
Y1434350D01*
X1757245Y1436067D01*
X1756272Y1437522D01*
X1754817Y1438495D01*
X1753100Y1438836D01*
X1752264Y1440701D01*
X1752265Y1440936D01*
X1753990Y1442260D01*
X1755449Y1444161D01*
X1756366Y1446375D01*
X1756678Y1448750D01*
X1756366Y1451126D01*
X1755449Y1453339D01*
X1753990Y1455240D01*
X1752089Y1456699D01*
X1751057Y1457126D01*
Y1459400D01*
X1752543Y1460015D01*
X1754632Y1461618D01*
X1756235Y1463707D01*
X1757243Y1466140D01*
X1757323Y1466750D01*
X1747500D01*
X1737677D01*
X1737757Y1466140D01*
X1737853Y1465909D01*
X1736073Y1464720D01*
X1735021Y1465771D01*
X1733979Y1466467D01*
X1732750Y1466712D01*
X1720004D01*
X1718154Y1468175D01*
Y1475825D01*
X1717939Y1476908D01*
X1717326Y1477826D01*
X1716408Y1478439D01*
X1715325Y1478654D01*
X1701675D01*
X1700592Y1478439D01*
X1699674Y1477826D01*
X1699061Y1476908D01*
X1698846Y1475825D01*
Y1468175D01*
X1696996Y1466712D01*
X1671922D01*
X1670072Y1468175D01*
Y1470000D01*
X1659500D01*
X1648928D01*
Y1468175D01*
X1647078Y1466712D01*
X1635562D01*
X1633899Y1468400D01*
Y1471600D01*
X1633705Y1472575D01*
X1633254Y1473250D01*
X1633705Y1473925D01*
X1633899Y1474900D01*
Y1478100D01*
X1633705Y1479075D01*
X1633152Y1479902D01*
X1632325Y1480455D01*
X1631350Y1480649D01*
X1618650D01*
X1617675Y1480455D01*
X1617249Y1480170D01*
X1615250D01*
X1613845Y1479891D01*
X1613109Y1480110D01*
X1611224Y1481369D01*
X1609000Y1481812D01*
X1606776Y1481369D01*
X1604890Y1480110D01*
X1603631Y1478224D01*
X1603188Y1476000D01*
X1603631Y1473776D01*
X1604890Y1471891D01*
X1606776Y1470631D01*
X1609000Y1470188D01*
X1611224Y1470631D01*
X1613109Y1471891D01*
X1614129Y1471910D01*
X1616101Y1470014D01*
Y1468400D01*
X1616295Y1467425D01*
X1616746Y1466750D01*
X1616295Y1466075D01*
X1616101Y1465100D01*
Y1461900D01*
X1616295Y1460925D01*
X1616746Y1460250D01*
X1616295Y1459575D01*
X1616101Y1458600D01*
Y1455400D01*
X1616295Y1454425D01*
X1616746Y1453750D01*
X1616295Y1453076D01*
X1616101Y1452100D01*
Y1448900D01*
X1616295Y1447925D01*
X1616746Y1447250D01*
X1616295Y1446575D01*
X1616101Y1445600D01*
Y1442400D01*
X1616295Y1441425D01*
X1616746Y1440750D01*
X1616295Y1440076D01*
X1616101Y1439100D01*
Y1435900D01*
X1616295Y1434925D01*
X1616746Y1434250D01*
X1616295Y1433575D01*
X1616101Y1432600D01*
Y1429400D01*
X1615196Y1428269D01*
X1614477Y1427659D01*
X1614470Y1427656D01*
X1613521Y1427467D01*
X1612479Y1426771D01*
X1609479Y1423771D01*
X1608783Y1422729D01*
X1608538Y1421500D01*
Y1412050D01*
X1608783Y1410821D01*
X1609479Y1409779D01*
X1611445Y1407813D01*
X1611188Y1406525D01*
X1611631Y1404301D01*
X1612891Y1402416D01*
X1614776Y1401156D01*
X1617000Y1400713D01*
X1619224Y1401156D01*
X1619688Y1401466D01*
X1621788Y1400343D01*
Y1397330D01*
X1617670Y1393212D01*
X1614209D01*
X1613609Y1394109D01*
X1611724Y1395369D01*
X1609500Y1395812D01*
X1607276Y1395369D01*
X1605390Y1394109D01*
X1604131Y1392224D01*
X1603812Y1390620D01*
X1601712Y1390827D01*
Y1432500D01*
X1601467Y1433729D01*
X1600771Y1434771D01*
X1582771Y1452771D01*
X1581729Y1453467D01*
X1580500Y1453712D01*
X1578062D01*
X1576399Y1455400D01*
Y1458600D01*
X1576205Y1459575D01*
X1575754Y1460250D01*
X1576205Y1460925D01*
X1576399Y1461900D01*
Y1465100D01*
X1576205Y1466075D01*
X1575754Y1466750D01*
X1576205Y1467425D01*
X1576399Y1468400D01*
Y1471600D01*
X1576205Y1472575D01*
X1575754Y1473250D01*
X1576205Y1473925D01*
X1576399Y1474900D01*
Y1478100D01*
X1576205Y1479075D01*
X1575652Y1479902D01*
X1574825Y1480455D01*
X1573850Y1480649D01*
X1561150D01*
X1560175Y1480455D01*
X1559348Y1479902D01*
X1559220Y1479712D01*
X1503609D01*
X1502039Y1481812D01*
X1502079Y1482012D01*
Y1485750D01*
X1477921D01*
Y1482012D01*
X1477961Y1481812D01*
X1476391Y1479712D01*
X1473753D01*
X1473312Y1480250D01*
X1472869Y1482474D01*
X1471609Y1484359D01*
X1469724Y1485619D01*
X1467500Y1486062D01*
D02*
G37*
G36*
X1140550Y1456669D02*
X1132550D01*
X1130170Y1456196D01*
X1128152Y1454848D01*
X1126804Y1452830D01*
X1126330Y1450450D01*
Y1442450D01*
X1126804Y1440070D01*
X1128152Y1438052D01*
X1130170Y1436704D01*
X1132550Y1436230D01*
X1140550D01*
X1142930Y1436704D01*
X1144948Y1438052D01*
X1146296Y1440070D01*
X1146769Y1442450D01*
Y1450450D01*
X1146296Y1452830D01*
X1144948Y1454848D01*
X1142930Y1456196D01*
X1140550Y1456669D01*
D02*
G37*
G36*
X1317000Y1441500D02*
X1309000D01*
Y1434900D01*
X1317000D01*
Y1441500D01*
D02*
G37*
G36*
X1305000D02*
X1297000D01*
Y1434900D01*
X1305000D01*
Y1441500D01*
D02*
G37*
G36*
X1335000Y1438500D02*
X1330000D01*
Y1432750D01*
X1335000D01*
Y1438500D01*
D02*
G37*
G36*
X1326000D02*
X1321000D01*
Y1432750D01*
X1326000D01*
Y1438500D01*
D02*
G37*
G36*
X1035890Y1440850D02*
X1026050D01*
Y1431010D01*
X1027183Y1431159D01*
X1030102Y1432368D01*
X1032608Y1434292D01*
X1034532Y1436798D01*
X1035741Y1439717D01*
X1035890Y1440850D01*
D02*
G37*
G36*
X1022050D02*
X1012210D01*
X1012359Y1439717D01*
X1013568Y1436798D01*
X1015491Y1434292D01*
X1017998Y1432368D01*
X1020917Y1431159D01*
X1022050Y1431010D01*
Y1440850D01*
D02*
G37*
G36*
X1317000Y1430900D02*
X1309000D01*
Y1424300D01*
X1317000D01*
Y1430900D01*
D02*
G37*
G36*
X1305000D02*
X1297000D01*
Y1424300D01*
X1305000D01*
Y1430900D01*
D02*
G37*
G36*
X1161950Y1443937D02*
X1159313Y1443590D01*
X1156856Y1442572D01*
X1154747Y1440953D01*
X1153128Y1438844D01*
X1152110Y1436387D01*
X1151763Y1433750D01*
X1152110Y1431113D01*
X1153128Y1428656D01*
X1154747Y1426547D01*
X1156856Y1424928D01*
X1159313Y1423910D01*
X1161950Y1423563D01*
X1164587Y1423910D01*
X1167044Y1424928D01*
X1169153Y1426547D01*
X1170772Y1428656D01*
X1171790Y1431113D01*
X1172137Y1433750D01*
X1171790Y1436387D01*
X1170772Y1438844D01*
X1169153Y1440953D01*
X1167044Y1442572D01*
X1164587Y1443590D01*
X1161950Y1443937D01*
D02*
G37*
G36*
X1335000Y1428750D02*
X1330000D01*
Y1423000D01*
X1335000D01*
Y1428750D01*
D02*
G37*
G36*
X1326000D02*
X1321000D01*
Y1423000D01*
X1326000D01*
Y1428750D01*
D02*
G37*
G36*
X1757586Y1426750D02*
X1749500D01*
Y1418664D01*
X1753100D01*
X1754817Y1419005D01*
X1756272Y1419978D01*
X1757245Y1421433D01*
X1757586Y1423150D01*
Y1426750D01*
D02*
G37*
G36*
X1745500D02*
X1737414D01*
Y1423150D01*
X1737755Y1421433D01*
X1738728Y1419978D01*
X1740183Y1419005D01*
X1741900Y1418664D01*
X1745500D01*
Y1426750D01*
D02*
G37*
G36*
X1201500Y1427000D02*
X1194000D01*
Y1417000D01*
X1201500D01*
Y1427000D01*
D02*
G37*
G36*
X1190000D02*
X1182500D01*
Y1417000D01*
X1190000D01*
Y1427000D01*
D02*
G37*
G36*
X1497988Y1455161D02*
X1482012D01*
X1480798Y1454919D01*
X1479769Y1454232D01*
X1479081Y1453202D01*
X1478839Y1451987D01*
Y1440513D01*
X1479081Y1439298D01*
X1479769Y1438268D01*
X1480798Y1437581D01*
X1482012Y1437339D01*
X1485964D01*
X1486447Y1435239D01*
X1465170Y1413962D01*
X1435667D01*
Y1415950D01*
X1435403Y1417277D01*
X1434651Y1418401D01*
X1433527Y1419153D01*
X1432200Y1419417D01*
X1421800D01*
X1420473Y1419153D01*
X1419349Y1418401D01*
X1418597Y1417277D01*
X1418333Y1415950D01*
Y1413962D01*
X1413417D01*
Y1415950D01*
X1413153Y1417277D01*
X1412401Y1418401D01*
X1411277Y1419153D01*
X1409950Y1419417D01*
X1399550D01*
X1398223Y1419153D01*
X1397099Y1418401D01*
X1396347Y1417277D01*
X1396083Y1415950D01*
Y1405550D01*
X1396347Y1404223D01*
X1397099Y1403099D01*
X1398223Y1402347D01*
X1399550Y1402083D01*
X1409950D01*
X1411277Y1402347D01*
X1412401Y1403099D01*
X1413153Y1404223D01*
X1413417Y1405550D01*
Y1407538D01*
X1418333D01*
Y1405550D01*
X1418597Y1404223D01*
X1419349Y1403099D01*
X1420473Y1402347D01*
X1421800Y1402083D01*
X1432200D01*
X1433527Y1402347D01*
X1434651Y1403099D01*
X1435403Y1404223D01*
X1435667Y1405550D01*
Y1407538D01*
X1466500D01*
X1467729Y1407783D01*
X1468771Y1408479D01*
X1492271Y1431979D01*
X1492967Y1433021D01*
X1493212Y1434250D01*
Y1437339D01*
X1497988D01*
X1499202Y1437581D01*
X1500231Y1438268D01*
X1500919Y1439298D01*
X1501161Y1440513D01*
Y1451987D01*
X1500919Y1453202D01*
X1500231Y1454232D01*
X1499202Y1454919D01*
X1497988Y1455161D01*
D02*
G37*
G36*
X1719800Y1418018D02*
X1719250D01*
Y1413750D01*
X1723318D01*
Y1414500D01*
X1723050Y1415846D01*
X1722287Y1416987D01*
X1721146Y1417750D01*
X1719800Y1418018D01*
D02*
G37*
G36*
X1136550Y1431237D02*
X1133913Y1430890D01*
X1131456Y1429872D01*
X1129347Y1428253D01*
X1127728Y1426144D01*
X1126710Y1423687D01*
X1126363Y1421050D01*
X1126710Y1418413D01*
X1127728Y1415957D01*
X1129347Y1413847D01*
X1131456Y1412228D01*
X1133913Y1411210D01*
X1136550Y1410863D01*
X1139187Y1411210D01*
X1141644Y1412228D01*
X1143753Y1413847D01*
X1145372Y1415957D01*
X1146390Y1418413D01*
X1146737Y1421050D01*
X1146390Y1423687D01*
X1145372Y1426144D01*
X1143753Y1428253D01*
X1141644Y1429872D01*
X1139187Y1430890D01*
X1136550Y1431237D01*
D02*
G37*
G36*
X1723318Y1409750D02*
X1719250D01*
Y1405482D01*
X1719800D01*
X1721146Y1405750D01*
X1722287Y1406513D01*
X1723050Y1407654D01*
X1723318Y1409000D01*
Y1409750D01*
D02*
G37*
G36*
X1201500Y1413000D02*
X1194000D01*
Y1403000D01*
X1201500D01*
Y1413000D01*
D02*
G37*
G36*
X1190000D02*
X1182500D01*
Y1403000D01*
X1190000D01*
Y1413000D01*
D02*
G37*
G36*
X1161950Y1418537D02*
X1159313Y1418190D01*
X1156856Y1417172D01*
X1154747Y1415553D01*
X1153128Y1413444D01*
X1152110Y1410987D01*
X1151763Y1408350D01*
X1152110Y1405713D01*
X1153128Y1403257D01*
X1154747Y1401147D01*
X1156856Y1399528D01*
X1159313Y1398510D01*
X1161950Y1398163D01*
X1164587Y1398510D01*
X1167044Y1399528D01*
X1169153Y1401147D01*
X1170772Y1403257D01*
X1171790Y1405713D01*
X1172137Y1408350D01*
X1171790Y1410987D01*
X1170772Y1413444D01*
X1169153Y1415553D01*
X1167044Y1417172D01*
X1164587Y1418190D01*
X1161950Y1418537D01*
D02*
G37*
G36*
X1136550Y1405837D02*
X1133913Y1405490D01*
X1131456Y1404472D01*
X1129347Y1402853D01*
X1127728Y1400744D01*
X1126710Y1398287D01*
X1126363Y1395650D01*
X1126710Y1393013D01*
X1127728Y1390556D01*
X1129347Y1388447D01*
X1131456Y1386828D01*
X1133913Y1385810D01*
X1136550Y1385463D01*
X1139187Y1385810D01*
X1141644Y1386828D01*
X1143753Y1388447D01*
X1145372Y1390556D01*
X1146390Y1393013D01*
X1146737Y1395650D01*
X1146390Y1398287D01*
X1145372Y1400744D01*
X1143753Y1402853D01*
X1141644Y1404472D01*
X1139187Y1405490D01*
X1136550Y1405837D01*
D02*
G37*
G36*
X1204500Y1384750D02*
X1199750D01*
Y1380750D01*
X1204500D01*
Y1384750D01*
D02*
G37*
G36*
X1668450Y1379018D02*
X1667900D01*
Y1374750D01*
X1671968D01*
Y1375500D01*
X1671700Y1376846D01*
X1670937Y1377987D01*
X1669796Y1378750D01*
X1668450Y1379018D01*
D02*
G37*
G36*
X1161950Y1393137D02*
X1159313Y1392790D01*
X1156856Y1391772D01*
X1154747Y1390153D01*
X1153128Y1388044D01*
X1152110Y1385587D01*
X1151763Y1382950D01*
X1152110Y1380313D01*
X1153128Y1377856D01*
X1154747Y1375747D01*
X1156856Y1374128D01*
X1159313Y1373110D01*
X1161950Y1372763D01*
X1164587Y1373110D01*
X1167044Y1374128D01*
X1169153Y1375747D01*
X1170772Y1377856D01*
X1171790Y1380313D01*
X1172137Y1382950D01*
X1171790Y1385587D01*
X1170772Y1388044D01*
X1169153Y1390153D01*
X1167044Y1391772D01*
X1164587Y1392790D01*
X1161950Y1393137D01*
D02*
G37*
G36*
X1204500Y1376750D02*
X1199750D01*
Y1372750D01*
X1204500D01*
Y1376750D01*
D02*
G37*
G36*
X1671968Y1370750D02*
X1667900D01*
Y1366482D01*
X1668450D01*
X1669796Y1366750D01*
X1670937Y1367513D01*
X1671700Y1368654D01*
X1671968Y1370000D01*
Y1370750D01*
D02*
G37*
G36*
X1656750Y1398312D02*
X1654526Y1397869D01*
X1652641Y1396609D01*
X1651381Y1394724D01*
X1650938Y1392500D01*
X1651381Y1390276D01*
X1652641Y1388391D01*
X1653963Y1387507D01*
Y1377983D01*
X1653555Y1377902D01*
X1652712Y1377338D01*
X1652148Y1376495D01*
X1651950Y1375500D01*
Y1375497D01*
X1651451Y1375397D01*
X1650409Y1374701D01*
X1530290Y1254582D01*
X1528190Y1255452D01*
Y1276750D01*
X1527833Y1278545D01*
X1526816Y1280066D01*
X1521540Y1285343D01*
Y1291152D01*
X1523100Y1292982D01*
X1523650D01*
Y1299250D01*
Y1305518D01*
X1523100D01*
X1521754Y1305250D01*
X1520613Y1304487D01*
X1520506Y1304328D01*
X1520395Y1304402D01*
X1519400Y1304600D01*
X1514300D01*
X1513305Y1304402D01*
X1512614Y1303940D01*
X1512101D01*
X1511814Y1304314D01*
X1510331Y1305452D01*
X1508604Y1306167D01*
X1506750Y1306411D01*
X1504897Y1306167D01*
X1503169Y1305452D01*
X1501686Y1304314D01*
X1500548Y1302831D01*
X1499833Y1301104D01*
X1499589Y1299250D01*
X1499833Y1297397D01*
X1500548Y1295669D01*
X1501686Y1294186D01*
X1503169Y1293048D01*
X1504897Y1292333D01*
X1506750Y1292089D01*
X1508604Y1292333D01*
X1510060Y1292936D01*
X1511055Y1292556D01*
X1512160Y1291805D01*
Y1283602D01*
X1511691Y1283215D01*
X1510174Y1282618D01*
X1496851Y1295941D01*
X1497062Y1297000D01*
X1496619Y1299224D01*
X1495359Y1301109D01*
X1493474Y1302369D01*
X1491937Y1302675D01*
X1491129Y1304543D01*
X1491110Y1304818D01*
X1503817Y1317525D01*
X1504250Y1317438D01*
X1506474Y1317881D01*
X1508360Y1319140D01*
X1509619Y1321026D01*
X1510062Y1323250D01*
X1509619Y1325474D01*
X1508360Y1327359D01*
X1506474Y1328619D01*
X1504250Y1329062D01*
X1502026Y1328619D01*
X1500141Y1327359D01*
X1498881Y1325474D01*
X1498438Y1323250D01*
X1498773Y1321566D01*
X1477455Y1300247D01*
X1475520Y1301281D01*
X1475812Y1302750D01*
X1475369Y1304974D01*
X1474109Y1306859D01*
X1473212Y1307459D01*
Y1313920D01*
X1480441Y1321149D01*
X1481500Y1320938D01*
X1483724Y1321381D01*
X1485609Y1322641D01*
X1486869Y1324526D01*
X1487312Y1326750D01*
X1486869Y1328974D01*
X1485609Y1330860D01*
X1483724Y1332119D01*
X1481500Y1332562D01*
X1479276Y1332119D01*
X1477390Y1330860D01*
X1476333Y1329277D01*
X1475846Y1329140D01*
X1475117Y1329093D01*
X1474038Y1329219D01*
X1473109Y1330609D01*
X1471224Y1331869D01*
X1469000Y1332312D01*
X1466776Y1331869D01*
X1464890Y1330609D01*
X1464291Y1329712D01*
X1450209D01*
X1449610Y1330609D01*
X1447724Y1331869D01*
X1446395Y1332134D01*
X1445602Y1334310D01*
X1450330Y1339038D01*
X1465541D01*
X1466141Y1338141D01*
X1468026Y1336881D01*
X1470250Y1336438D01*
X1472474Y1336881D01*
X1474359Y1338141D01*
X1475619Y1340026D01*
X1476062Y1342250D01*
X1475619Y1344474D01*
X1474359Y1346360D01*
X1472474Y1347619D01*
X1470250Y1348062D01*
X1468026Y1347619D01*
X1466141Y1346360D01*
X1465541Y1345462D01*
X1449000D01*
X1447771Y1345217D01*
X1446729Y1344521D01*
X1433729Y1331521D01*
X1433033Y1330479D01*
X1432788Y1329250D01*
Y1325459D01*
X1431891Y1324859D01*
X1430631Y1322974D01*
X1430188Y1320750D01*
X1430631Y1318526D01*
X1431891Y1316640D01*
X1433776Y1315381D01*
X1436000Y1314938D01*
X1438224Y1315381D01*
X1440110Y1316640D01*
X1441369Y1318526D01*
X1441607Y1319720D01*
X1443013Y1320908D01*
X1443843Y1321018D01*
X1445500Y1320688D01*
X1447724Y1321131D01*
X1449610Y1322390D01*
X1450209Y1323288D01*
X1464291D01*
X1464890Y1322390D01*
X1466776Y1321131D01*
X1468105Y1320867D01*
X1468898Y1318690D01*
X1467729Y1317521D01*
X1467033Y1316479D01*
X1466788Y1315250D01*
Y1307459D01*
X1465891Y1306859D01*
X1464631Y1304974D01*
X1464188Y1302750D01*
X1464631Y1300526D01*
X1465891Y1298641D01*
X1467776Y1297381D01*
X1468123Y1297312D01*
X1467916Y1295212D01*
X1452959D01*
X1452359Y1296109D01*
X1450474Y1297369D01*
X1448250Y1297812D01*
X1446026Y1297369D01*
X1444140Y1296109D01*
X1442881Y1294224D01*
X1442438Y1292000D01*
X1442881Y1289776D01*
X1441109Y1288737D01*
X1440359Y1289859D01*
X1438474Y1291119D01*
X1436250Y1291562D01*
X1434433Y1291200D01*
X1434332Y1291246D01*
X1433279Y1292128D01*
X1432775Y1292809D01*
X1433062Y1294250D01*
X1432619Y1296474D01*
X1431430Y1298253D01*
Y1308500D01*
X1431112Y1310100D01*
X1430206Y1311456D01*
X1425324Y1316338D01*
X1423967Y1317245D01*
X1422368Y1317563D01*
X1421100D01*
Y1318600D01*
X1397900D01*
Y1308400D01*
X1400538D01*
Y1291896D01*
X1398438Y1290851D01*
X1397969Y1291205D01*
X1397949Y1291736D01*
X1398151Y1292750D01*
Y1296750D01*
X1397949Y1297764D01*
X1397375Y1298625D01*
X1396514Y1299199D01*
X1395500Y1299401D01*
X1387500D01*
X1386485Y1299199D01*
X1386083Y1298930D01*
X1379000D01*
Y1303800D01*
X1359440D01*
Y1310400D01*
X1363350D01*
Y1332600D01*
X1346150D01*
Y1310400D01*
X1350060D01*
Y1299190D01*
X1340940D01*
Y1302864D01*
X1341402Y1303555D01*
X1341600Y1304550D01*
Y1309650D01*
X1341402Y1310645D01*
X1341328Y1310756D01*
X1341487Y1310863D01*
X1342250Y1312004D01*
X1342518Y1313350D01*
Y1313900D01*
X1329982D01*
Y1313350D01*
X1330250Y1312004D01*
X1331013Y1310863D01*
X1331172Y1310756D01*
X1331098Y1310645D01*
X1330900Y1309650D01*
Y1304550D01*
X1331098Y1303555D01*
X1331560Y1302864D01*
Y1299842D01*
X1329460Y1299325D01*
X1329370Y1299385D01*
X1328262Y1299606D01*
X1309738D01*
X1308630Y1299385D01*
X1308338Y1299190D01*
X1297850D01*
X1297564Y1299564D01*
X1296081Y1300702D01*
X1294353Y1301417D01*
X1292500Y1301661D01*
X1290647Y1301417D01*
X1289279Y1300851D01*
X1288320Y1301475D01*
X1287632Y1302361D01*
X1287840Y1302863D01*
X1288187Y1305500D01*
X1287840Y1308137D01*
X1286822Y1310594D01*
X1285203Y1312703D01*
X1283094Y1314322D01*
X1280637Y1315340D01*
X1278000Y1315687D01*
X1275363Y1315340D01*
X1272906Y1314322D01*
X1270797Y1312703D01*
X1269178Y1310594D01*
X1268160Y1308137D01*
X1267813Y1305500D01*
X1268160Y1302863D01*
X1269178Y1300406D01*
X1270797Y1298297D01*
X1272906Y1296678D01*
X1275363Y1295660D01*
X1278000Y1295313D01*
X1280637Y1295660D01*
X1283094Y1296678D01*
X1283643Y1297099D01*
X1284466Y1296782D01*
X1285522Y1295894D01*
X1285339Y1294500D01*
X1285583Y1292646D01*
X1286298Y1290919D01*
X1287436Y1289436D01*
X1288919Y1288298D01*
X1290647Y1287583D01*
X1292500Y1287339D01*
X1294353Y1287583D01*
X1296081Y1288298D01*
X1297564Y1289436D01*
X1297850Y1289810D01*
X1305026D01*
X1305927Y1288712D01*
Y1288500D01*
X1332073D01*
Y1288712D01*
X1332974Y1289810D01*
X1356800D01*
Y1286600D01*
X1379000D01*
Y1290570D01*
X1382983D01*
X1384165Y1288677D01*
X1384174Y1288470D01*
X1383931Y1287250D01*
Y1287250D01*
X1391500D01*
Y1283250D01*
X1383931D01*
X1384203Y1281884D01*
X1384977Y1280727D01*
X1385051Y1278764D01*
X1384849Y1277750D01*
Y1273750D01*
X1385051Y1272736D01*
X1385625Y1271876D01*
X1386485Y1271301D01*
X1387500Y1271099D01*
X1395500D01*
X1396514Y1271301D01*
X1397375Y1271876D01*
X1397817Y1272538D01*
X1399750D01*
X1400979Y1272783D01*
X1402021Y1273479D01*
X1406021Y1277479D01*
X1406717Y1278521D01*
X1406962Y1279750D01*
Y1279987D01*
X1409062Y1280876D01*
X1409626Y1280330D01*
Y1279624D01*
X1409051Y1278764D01*
X1408849Y1277750D01*
Y1273750D01*
X1409051Y1272736D01*
X1409626Y1271876D01*
X1410486Y1271301D01*
X1411500Y1271099D01*
X1412288D01*
Y1264356D01*
X1410750Y1263000D01*
X1406000D01*
Y1257000D01*
Y1251000D01*
X1410750D01*
Y1251000D01*
X1412694Y1251448D01*
X1412850Y1251420D01*
X1413479Y1250479D01*
X1416479Y1247479D01*
X1417521Y1246783D01*
X1418750Y1246538D01*
X1419003D01*
X1419152Y1246312D01*
X1418020Y1244212D01*
X1377080D01*
X1371521Y1249771D01*
X1370479Y1250467D01*
X1369250Y1250712D01*
X1366100D01*
Y1252600D01*
X1346734D01*
X1346233Y1254078D01*
X1347697Y1255732D01*
X1350850D01*
X1352196Y1256000D01*
X1353337Y1256763D01*
X1353800Y1257455D01*
X1355900Y1257009D01*
Y1256700D01*
X1365900D01*
Y1266200D01*
Y1275700D01*
X1355900D01*
Y1268632D01*
X1353800Y1267722D01*
X1353518Y1267986D01*
X1353450Y1268217D01*
Y1273150D01*
X1353252Y1274145D01*
X1352688Y1274988D01*
X1351845Y1275552D01*
X1350850Y1275750D01*
X1345350D01*
X1344355Y1275552D01*
X1343512Y1274988D01*
X1343099Y1274371D01*
X1341731Y1274188D01*
X1340822Y1274220D01*
X1334371Y1280671D01*
X1333329Y1281367D01*
X1333006Y1281673D01*
X1331975Y1283473D01*
X1331959Y1283712D01*
X1332073Y1284288D01*
Y1284500D01*
X1305927D01*
Y1284288D01*
X1306217Y1282829D01*
X1307025Y1281620D01*
X1306844Y1280712D01*
Y1276288D01*
X1307065Y1275180D01*
X1306587Y1274273D01*
X1305895Y1273252D01*
X1304778Y1272506D01*
X1294529Y1262257D01*
X1293622Y1260900D01*
X1293304Y1259301D01*
Y1244757D01*
X1292421Y1244079D01*
X1291283Y1242596D01*
X1290567Y1240869D01*
X1290323Y1239016D01*
X1290567Y1237162D01*
X1291283Y1235435D01*
X1292421Y1233952D01*
X1293904Y1232814D01*
X1295631Y1232098D01*
X1297484Y1231854D01*
X1299338Y1232098D01*
X1301065Y1232814D01*
X1302548Y1233952D01*
X1303686Y1235435D01*
X1304402Y1237162D01*
X1304646Y1239016D01*
X1304402Y1240869D01*
X1303686Y1242596D01*
X1302548Y1244079D01*
X1301665Y1244757D01*
Y1257569D01*
X1304530Y1260434D01*
X1306582Y1259673D01*
X1307116Y1257897D01*
X1307065Y1257820D01*
X1306844Y1256712D01*
Y1252288D01*
X1307065Y1251180D01*
X1307519Y1250500D01*
X1307065Y1249820D01*
X1306844Y1248712D01*
Y1244287D01*
X1307065Y1243180D01*
X1307519Y1242500D01*
X1307065Y1241820D01*
X1306844Y1240713D01*
Y1236288D01*
X1307065Y1235180D01*
X1307692Y1234242D01*
X1308630Y1233615D01*
X1309738Y1233394D01*
X1315788D01*
Y1231000D01*
X1316033Y1229771D01*
X1316729Y1228729D01*
X1333146Y1212312D01*
X1332276Y1210212D01*
X1261209D01*
X1260610Y1211109D01*
X1258724Y1212369D01*
X1256500Y1212812D01*
X1254276Y1212369D01*
X1252391Y1211109D01*
X1251131Y1209224D01*
X1250688Y1207000D01*
X1250777Y1206556D01*
X1248935Y1205820D01*
X1248308Y1206758D01*
X1247370Y1207385D01*
X1246263Y1207606D01*
X1227738D01*
X1226630Y1207385D01*
X1225692Y1206758D01*
X1225065Y1205820D01*
X1224844Y1204713D01*
Y1200287D01*
X1225065Y1199180D01*
X1225519Y1198500D01*
X1225065Y1197820D01*
X1224844Y1196712D01*
Y1192288D01*
X1225025Y1191380D01*
X1224217Y1190171D01*
X1223927Y1188712D01*
Y1188500D01*
X1250073D01*
Y1188712D01*
X1249783Y1190171D01*
X1248975Y1191380D01*
X1249156Y1192288D01*
Y1196712D01*
X1248935Y1197820D01*
X1248481Y1198500D01*
X1248935Y1199180D01*
X1249156Y1200287D01*
Y1204240D01*
X1251131Y1204776D01*
X1252391Y1202890D01*
X1254276Y1201631D01*
X1256500Y1201188D01*
X1258724Y1201631D01*
X1260610Y1202890D01*
X1261209Y1203788D01*
X1304772D01*
X1305273Y1203227D01*
X1306121Y1201688D01*
X1305927Y1200713D01*
Y1200500D01*
X1332073D01*
Y1200713D01*
X1331879Y1201688D01*
X1332727Y1203227D01*
X1333228Y1203788D01*
X1398150D01*
Y1201900D01*
X1421350D01*
X1421350Y1201900D01*
Y1201900D01*
X1421350Y1201900D01*
X1423306Y1201552D01*
X1423547Y1201391D01*
X1425771Y1200948D01*
X1427995Y1201391D01*
X1429880Y1202651D01*
X1431140Y1204536D01*
X1431582Y1206760D01*
X1431249Y1208438D01*
X1432435Y1210538D01*
X1579500D01*
X1580729Y1210783D01*
X1581771Y1211479D01*
X1592650Y1222357D01*
X1593500Y1222188D01*
X1595724Y1222631D01*
X1597610Y1223891D01*
X1597771Y1224133D01*
X1597796Y1224140D01*
X1600063Y1223782D01*
X1600354Y1222775D01*
X1600000Y1222246D01*
X1599732Y1220900D01*
Y1220350D01*
X1606000D01*
X1612268D01*
Y1220900D01*
X1612000Y1222246D01*
X1611237Y1223387D01*
X1611078Y1223494D01*
X1611152Y1223605D01*
X1611350Y1224600D01*
Y1229700D01*
X1611152Y1230695D01*
X1610588Y1231538D01*
X1609745Y1232102D01*
X1609212Y1232208D01*
Y1234291D01*
X1610110Y1234891D01*
X1611369Y1236776D01*
X1611812Y1239000D01*
X1611369Y1241224D01*
X1610110Y1243110D01*
X1608787Y1243993D01*
X1609424Y1246093D01*
X1619765D01*
X1625799Y1240059D01*
X1625588Y1239000D01*
X1626031Y1236776D01*
X1627290Y1234891D01*
X1628262Y1234241D01*
X1628213Y1232143D01*
X1628005Y1232102D01*
X1627162Y1231538D01*
X1626598Y1230695D01*
X1626400Y1229700D01*
Y1224600D01*
X1626598Y1223605D01*
X1626672Y1223494D01*
X1626513Y1223387D01*
X1625750Y1222246D01*
X1625482Y1220900D01*
Y1220350D01*
X1631750D01*
X1638018D01*
Y1220900D01*
X1637750Y1222246D01*
X1636987Y1223387D01*
X1636828Y1223494D01*
X1636902Y1223605D01*
X1637100Y1224600D01*
Y1229700D01*
X1636902Y1230695D01*
X1636338Y1231538D01*
X1635495Y1232102D01*
X1634962Y1232208D01*
Y1234525D01*
X1635509Y1234891D01*
X1636769Y1236776D01*
X1637212Y1239000D01*
X1636769Y1241224D01*
X1635509Y1243110D01*
X1633624Y1244369D01*
X1631400Y1244812D01*
X1630341Y1244601D01*
X1623367Y1251576D01*
X1622325Y1252272D01*
X1621095Y1252516D01*
X1599445D01*
X1598216Y1252272D01*
X1597175Y1251576D01*
X1568811Y1223212D01*
X1366100D01*
Y1225100D01*
X1342942D01*
X1336730Y1231312D01*
X1336869Y1232369D01*
X1339086Y1233122D01*
X1340979Y1231229D01*
X1342021Y1230533D01*
X1342900Y1230358D01*
Y1228650D01*
X1366100D01*
Y1230538D01*
X1564000D01*
X1565229Y1230783D01*
X1566271Y1231479D01*
X1591580Y1256788D01*
X1634470D01*
X1651199Y1240059D01*
X1650988Y1239000D01*
X1651431Y1236776D01*
X1652690Y1234891D01*
X1653624Y1234267D01*
X1653545Y1232110D01*
X1653505Y1232102D01*
X1652662Y1231538D01*
X1652098Y1230695D01*
X1651900Y1229700D01*
Y1224600D01*
X1652098Y1223605D01*
X1652172Y1223494D01*
X1652013Y1223387D01*
X1651250Y1222246D01*
X1650982Y1220900D01*
Y1220350D01*
X1657250D01*
X1663518D01*
Y1220900D01*
X1663250Y1222246D01*
X1662487Y1223387D01*
X1662328Y1223494D01*
X1662402Y1223605D01*
X1662600Y1224600D01*
Y1229700D01*
X1662402Y1230695D01*
X1661838Y1231538D01*
X1660995Y1232102D01*
X1660462Y1232208D01*
Y1234591D01*
X1660909Y1234891D01*
X1662169Y1236776D01*
X1662612Y1239000D01*
X1662169Y1241224D01*
X1660909Y1243110D01*
X1659024Y1244369D01*
X1656800Y1244812D01*
X1655741Y1244601D01*
X1638071Y1262271D01*
X1637029Y1262967D01*
X1635800Y1263212D01*
X1590250D01*
X1589021Y1262967D01*
X1587979Y1262271D01*
X1562670Y1236962D01*
X1524656D01*
X1524147Y1237755D01*
X1523854Y1239062D01*
X1652857Y1368065D01*
X1653555Y1367598D01*
X1654550Y1367400D01*
X1659650D01*
X1660645Y1367598D01*
X1660756Y1367672D01*
X1660863Y1367513D01*
X1662004Y1366750D01*
X1663350Y1366482D01*
X1663900D01*
Y1372750D01*
Y1379018D01*
X1663350D01*
X1662487Y1378846D01*
X1660948Y1379694D01*
X1660387Y1380195D01*
Y1388075D01*
X1660860Y1388391D01*
X1662119Y1390276D01*
X1662562Y1392500D01*
X1662119Y1394724D01*
X1660860Y1396609D01*
X1658974Y1397869D01*
X1656750Y1398312D01*
D02*
G37*
G36*
X1136550Y1380437D02*
X1133913Y1380090D01*
X1131456Y1379072D01*
X1129347Y1377453D01*
X1127728Y1375344D01*
X1126710Y1372887D01*
X1126363Y1370250D01*
X1126710Y1367613D01*
X1127728Y1365157D01*
X1129347Y1363047D01*
X1131456Y1361428D01*
X1133913Y1360410D01*
X1136550Y1360063D01*
X1139187Y1360410D01*
X1141644Y1361428D01*
X1143753Y1363047D01*
X1145372Y1365157D01*
X1146390Y1367613D01*
X1146737Y1370250D01*
X1146390Y1372887D01*
X1145372Y1375344D01*
X1143753Y1377453D01*
X1141644Y1379072D01*
X1139187Y1380090D01*
X1136550Y1380437D01*
D02*
G37*
G36*
X1163950Y1368382D02*
Y1359550D01*
X1172782D01*
X1172667Y1360422D01*
X1171558Y1363098D01*
X1169795Y1365395D01*
X1167497Y1367159D01*
X1164821Y1368267D01*
X1163950Y1368382D01*
D02*
G37*
G36*
X1159950Y1368382D02*
X1159078Y1368267D01*
X1156403Y1367159D01*
X1154105Y1365395D01*
X1152342Y1363098D01*
X1151233Y1360422D01*
X1151118Y1359550D01*
X1159950D01*
Y1368382D01*
D02*
G37*
G36*
X1210250Y1356750D02*
X1205500D01*
Y1352750D01*
X1210250D01*
Y1356750D01*
D02*
G37*
G36*
X1213250Y1384750D02*
X1208500D01*
Y1378750D01*
Y1372750D01*
X1213250D01*
X1213250Y1372750D01*
X1215170Y1372316D01*
X1215729Y1371479D01*
X1228479Y1358729D01*
X1229521Y1358033D01*
X1230750Y1357788D01*
X1240053D01*
Y1353550D01*
X1240138Y1353124D01*
X1238364Y1351928D01*
X1237271Y1353021D01*
X1236229Y1353717D01*
X1235000Y1353962D01*
X1229600D01*
Y1355850D01*
X1219000D01*
Y1356750D01*
X1214250D01*
Y1350750D01*
Y1344750D01*
X1219000D01*
Y1345650D01*
X1229600D01*
Y1347538D01*
X1233670D01*
X1236729Y1344479D01*
X1237771Y1343783D01*
X1239000Y1343538D01*
X1254750D01*
X1255979Y1343783D01*
X1257021Y1344479D01*
X1260171Y1347629D01*
X1260867Y1348671D01*
X1261112Y1349900D01*
Y1351205D01*
X1261536Y1351289D01*
X1262330Y1351820D01*
X1262861Y1352614D01*
X1263047Y1353550D01*
Y1368450D01*
X1262861Y1369386D01*
X1262330Y1370180D01*
X1261536Y1370711D01*
X1260600Y1370897D01*
X1255200D01*
X1254264Y1370711D01*
X1253470Y1370180D01*
X1252939Y1369386D01*
X1252753Y1368450D01*
Y1353550D01*
X1252939Y1352614D01*
X1253308Y1352062D01*
X1253031Y1351004D01*
X1252562Y1350132D01*
X1250538D01*
X1250069Y1351004D01*
X1249792Y1352062D01*
X1250161Y1352614D01*
X1250347Y1353550D01*
Y1368450D01*
X1250161Y1369386D01*
X1249630Y1370180D01*
X1248836Y1370711D01*
X1247900Y1370897D01*
X1242500D01*
X1241564Y1370711D01*
X1240770Y1370180D01*
X1240239Y1369386D01*
X1240053Y1368450D01*
Y1364212D01*
X1232080D01*
X1223496Y1372796D01*
X1223850Y1373650D01*
X1223850D01*
Y1383850D01*
X1213250D01*
Y1384750D01*
D02*
G37*
G36*
X1024050Y1372346D02*
X1021152Y1371964D01*
X1018452Y1370846D01*
X1016133Y1369067D01*
X1014354Y1366748D01*
X1013236Y1364048D01*
X1012854Y1361150D01*
X1013236Y1358252D01*
X1014354Y1355552D01*
X1016133Y1353233D01*
X1018452Y1351454D01*
X1021152Y1350336D01*
X1024050Y1349954D01*
X1026948Y1350336D01*
X1029648Y1351454D01*
X1031967Y1353233D01*
X1033746Y1355552D01*
X1034864Y1358252D01*
X1035246Y1361150D01*
X1034864Y1364048D01*
X1033746Y1366748D01*
X1031967Y1369067D01*
X1029648Y1370846D01*
X1026948Y1371964D01*
X1024050Y1372346D01*
D02*
G37*
G36*
X1172782Y1355550D02*
X1163950D01*
Y1346718D01*
X1164821Y1346833D01*
X1167497Y1347942D01*
X1169795Y1349705D01*
X1171558Y1352003D01*
X1172667Y1354678D01*
X1172782Y1355550D01*
D02*
G37*
G36*
X1159950D02*
X1151118D01*
X1151233Y1354678D01*
X1152342Y1352003D01*
X1154105Y1349705D01*
X1156403Y1347942D01*
X1159078Y1346833D01*
X1159950Y1346718D01*
Y1355550D01*
D02*
G37*
G36*
X1210250Y1348750D02*
X1205500D01*
Y1344750D01*
X1210250D01*
Y1348750D01*
D02*
G37*
G36*
X1286000Y1370897D02*
X1280600D01*
X1279664Y1370711D01*
X1278870Y1370180D01*
X1278339Y1369386D01*
X1278153Y1368450D01*
Y1353550D01*
X1278339Y1352614D01*
X1278870Y1351820D01*
X1277901Y1349942D01*
X1277048Y1348831D01*
X1276333Y1347103D01*
X1276089Y1345250D01*
X1276333Y1343397D01*
X1277048Y1341669D01*
X1278186Y1340186D01*
X1279669Y1339048D01*
X1281396Y1338333D01*
X1283250Y1338089D01*
X1285103Y1338333D01*
X1286831Y1339048D01*
X1288314Y1340186D01*
X1288445Y1340358D01*
X1290555D01*
X1290686Y1340186D01*
X1292169Y1339048D01*
X1293896Y1338333D01*
X1295750Y1338089D01*
X1297603Y1338333D01*
X1299331Y1339048D01*
X1300814Y1340186D01*
X1301952Y1341669D01*
X1302667Y1343397D01*
X1302911Y1345250D01*
X1302667Y1347103D01*
X1301952Y1348831D01*
X1300814Y1350314D01*
X1299331Y1351452D01*
X1297603Y1352167D01*
X1295750Y1352411D01*
X1293896Y1352167D01*
X1292169Y1351452D01*
X1290686Y1350314D01*
X1290649Y1350265D01*
X1288605Y1350362D01*
X1287824Y1351960D01*
X1288261Y1352614D01*
X1288447Y1353550D01*
Y1368450D01*
X1288261Y1369386D01*
X1287730Y1370180D01*
X1286936Y1370711D01*
X1286000Y1370897D01*
D02*
G37*
G36*
X1105550Y1340933D02*
Y1326550D01*
X1119933D01*
X1119811Y1327785D01*
X1118868Y1330895D01*
X1117336Y1333761D01*
X1115274Y1336274D01*
X1112761Y1338336D01*
X1109895Y1339868D01*
X1106785Y1340811D01*
X1105550Y1340933D01*
D02*
G37*
G36*
X1073050Y1363540D02*
X1069404Y1363181D01*
X1065898Y1362117D01*
X1062666Y1360390D01*
X1059834Y1358066D01*
X1057510Y1355234D01*
X1055783Y1352002D01*
X1054719Y1348496D01*
X1054360Y1344850D01*
X1054719Y1341204D01*
X1055783Y1337698D01*
X1057510Y1334466D01*
X1059834Y1331634D01*
X1062666Y1329310D01*
X1065898Y1327583D01*
X1069404Y1326519D01*
X1073050Y1326160D01*
X1076696Y1326519D01*
X1080202Y1327583D01*
X1083434Y1329310D01*
X1086266Y1331634D01*
X1086368Y1331758D01*
X1088232Y1330895D01*
X1087289Y1327785D01*
X1087167Y1326550D01*
X1101550D01*
Y1340933D01*
X1100315Y1340811D01*
X1097205Y1339868D01*
X1094339Y1338336D01*
X1091826Y1336274D01*
X1090294Y1337655D01*
X1090317Y1337698D01*
X1091381Y1341204D01*
X1091740Y1344850D01*
X1091381Y1348496D01*
X1090317Y1352002D01*
X1088590Y1355234D01*
X1086266Y1358066D01*
X1083434Y1360390D01*
X1080202Y1362117D01*
X1076696Y1363181D01*
X1073050Y1363540D01*
D02*
G37*
G36*
X1024050Y1346946D02*
X1021152Y1346564D01*
X1018452Y1345446D01*
X1016133Y1343667D01*
X1014354Y1341348D01*
X1013236Y1338648D01*
X1012854Y1335750D01*
X1013236Y1332852D01*
X1014354Y1330152D01*
X1016133Y1327833D01*
X1018452Y1326054D01*
X1021152Y1324936D01*
X1024050Y1324554D01*
X1026948Y1324936D01*
X1029648Y1326054D01*
X1031967Y1327833D01*
X1033746Y1330152D01*
X1034864Y1332852D01*
X1035246Y1335750D01*
X1034864Y1338648D01*
X1033746Y1341348D01*
X1031967Y1343667D01*
X1029648Y1345446D01*
X1026948Y1346564D01*
X1024050Y1346946D01*
D02*
G37*
G36*
X1393250Y1333500D02*
X1385750D01*
Y1323500D01*
X1393250D01*
Y1333500D01*
D02*
G37*
G36*
X1381750D02*
X1374250D01*
Y1323500D01*
X1381750D01*
Y1333500D01*
D02*
G37*
G36*
X1339000Y1321968D02*
X1338250D01*
Y1317900D01*
X1342518D01*
Y1318450D01*
X1342250Y1319796D01*
X1341487Y1320937D01*
X1340346Y1321700D01*
X1339000Y1321968D01*
D02*
G37*
G36*
X1334250D02*
X1333500D01*
X1332154Y1321700D01*
X1331013Y1320937D01*
X1330250Y1319796D01*
X1329982Y1318450D01*
Y1317900D01*
X1334250D01*
Y1321968D01*
D02*
G37*
G36*
X1256700Y1340686D02*
X1229300D01*
X1227583Y1340345D01*
X1226128Y1339372D01*
X1225155Y1337917D01*
X1224814Y1336200D01*
Y1317800D01*
X1225155Y1316083D01*
X1226128Y1314628D01*
X1227583Y1313655D01*
X1229300Y1313314D01*
X1256700D01*
X1258417Y1313655D01*
X1259872Y1314628D01*
X1260845Y1316083D01*
X1261186Y1317800D01*
Y1336200D01*
X1260845Y1337917D01*
X1259872Y1339372D01*
X1258417Y1340345D01*
X1256700Y1340686D01*
D02*
G37*
G36*
X1393250Y1319500D02*
X1385750D01*
Y1309500D01*
X1393250D01*
Y1319500D01*
D02*
G37*
G36*
X1381750D02*
X1374250D01*
Y1309500D01*
X1381750D01*
Y1319500D01*
D02*
G37*
G36*
X1119933Y1322550D02*
X1105550D01*
Y1308167D01*
X1106785Y1308289D01*
X1109895Y1309232D01*
X1112761Y1310764D01*
X1115274Y1312826D01*
X1117336Y1315339D01*
X1118868Y1318205D01*
X1119811Y1321315D01*
X1119933Y1322550D01*
D02*
G37*
G36*
X1101550D02*
X1087167D01*
X1087289Y1321315D01*
X1088232Y1318205D01*
X1089764Y1315339D01*
X1091826Y1312826D01*
X1094339Y1310764D01*
X1097205Y1309232D01*
X1100315Y1308289D01*
X1101550Y1308167D01*
Y1322550D01*
D02*
G37*
G36*
X1171750Y1331911D02*
X1169896Y1331667D01*
X1168169Y1330952D01*
X1166686Y1329814D01*
X1165548Y1328331D01*
X1164833Y1326604D01*
X1164589Y1324750D01*
X1164833Y1322897D01*
X1165548Y1321169D01*
X1166686Y1319686D01*
X1167060Y1319400D01*
Y1317350D01*
X1166686Y1317064D01*
X1165548Y1315581D01*
X1164833Y1313853D01*
X1164589Y1312000D01*
X1164650Y1311533D01*
X1154807Y1301690D01*
X1149100D01*
Y1302100D01*
X1125900D01*
Y1301945D01*
X1104500D01*
X1102608Y1301569D01*
X1101003Y1300497D01*
X1096149Y1295642D01*
X1096000Y1295661D01*
X1094147Y1295417D01*
X1092419Y1294702D01*
X1090936Y1293564D01*
X1089798Y1292081D01*
X1089083Y1290354D01*
X1088839Y1288500D01*
X1089083Y1286647D01*
X1089798Y1284919D01*
X1090936Y1283436D01*
X1089806Y1281704D01*
X1089059Y1280945D01*
X1085100D01*
Y1282000D01*
X1077100D01*
Y1286000D01*
X1085100D01*
Y1289950D01*
X1084666D01*
X1083534Y1292050D01*
X1083994Y1293162D01*
X1084006Y1293250D01*
X1070700D01*
X1057394D01*
X1057406Y1293162D01*
X1058212Y1291216D01*
X1059494Y1289544D01*
X1059886Y1289244D01*
X1060000Y1287500D01*
X1060000Y1267712D01*
X1055250D01*
X1054021Y1267467D01*
X1052979Y1266771D01*
X1044979Y1258771D01*
X1044283Y1257729D01*
X1044038Y1256500D01*
Y1228250D01*
Y1194100D01*
X1041400D01*
Y1183900D01*
X1052000D01*
Y1183000D01*
X1056750D01*
Y1189000D01*
Y1195000D01*
X1052000D01*
X1050462Y1196356D01*
Y1225038D01*
X1060000D01*
Y1217500D01*
X1060052Y1217448D01*
X1059823Y1214708D01*
X1059494Y1214456D01*
X1058212Y1212785D01*
X1057406Y1210838D01*
X1057394Y1210750D01*
X1070700D01*
X1084006D01*
X1083994Y1210838D01*
X1083534Y1211950D01*
X1084666Y1214050D01*
X1085100D01*
Y1218000D01*
X1077100D01*
Y1222000D01*
X1085100D01*
Y1223055D01*
X1090845D01*
X1090936Y1222936D01*
X1092419Y1221798D01*
X1094147Y1221083D01*
X1096000Y1220839D01*
X1097853Y1221083D01*
X1099581Y1221798D01*
X1101064Y1222936D01*
X1101155Y1223055D01*
X1106845D01*
X1106936Y1222936D01*
X1108419Y1221798D01*
X1110146Y1221083D01*
X1112000Y1220839D01*
X1113854Y1221083D01*
X1115581Y1221798D01*
X1115747Y1221926D01*
X1117847Y1220890D01*
Y1218325D01*
X1118058Y1217262D01*
X1118660Y1216360D01*
X1119562Y1215758D01*
X1120625Y1215547D01*
X1130375D01*
X1131438Y1215758D01*
X1132340Y1216360D01*
X1132942Y1217262D01*
X1133153Y1218325D01*
Y1222075D01*
X1132942Y1223138D01*
X1132340Y1224040D01*
X1131438Y1224642D01*
X1130375Y1224853D01*
X1121368D01*
X1121066Y1225939D01*
X1122338Y1227329D01*
X1123500D01*
Y1232900D01*
Y1238471D01*
X1120625D01*
X1119211Y1238190D01*
X1118011Y1237389D01*
X1117210Y1236189D01*
X1117108Y1235677D01*
X1116690Y1235273D01*
X1115290Y1234571D01*
X1114829Y1234513D01*
X1113854Y1234917D01*
X1112000Y1235161D01*
X1110146Y1234917D01*
X1109600Y1234691D01*
X1107500Y1236026D01*
Y1240150D01*
X1115100D01*
Y1242038D01*
X1118475D01*
X1118660Y1241760D01*
X1119562Y1241158D01*
X1120625Y1240947D01*
X1130375D01*
X1131438Y1241158D01*
X1132340Y1241760D01*
X1132942Y1242662D01*
X1133153Y1243725D01*
Y1247475D01*
X1132942Y1248538D01*
X1132340Y1249440D01*
X1131438Y1250042D01*
X1130375Y1250253D01*
X1120625D01*
X1119562Y1250042D01*
X1118660Y1249440D01*
X1118058Y1248538D01*
X1118043Y1248462D01*
X1115100D01*
Y1250350D01*
X1097979D01*
X1096859Y1252312D01*
X1097630Y1253400D01*
X1115100D01*
Y1255288D01*
X1118107D01*
X1118660Y1254460D01*
X1119562Y1253858D01*
X1120625Y1253647D01*
X1130375D01*
X1131438Y1253858D01*
X1132340Y1254460D01*
X1132942Y1255362D01*
X1133153Y1256425D01*
Y1260175D01*
X1132942Y1261238D01*
X1132340Y1262140D01*
X1131438Y1262742D01*
X1130375Y1262953D01*
X1120625D01*
X1119562Y1262742D01*
X1118660Y1262140D01*
X1118374Y1261712D01*
X1115100D01*
Y1263600D01*
X1099600D01*
X1099600Y1270063D01*
X1101064Y1271186D01*
X1102202Y1272669D01*
X1102917Y1274397D01*
X1103161Y1276250D01*
X1102917Y1278103D01*
X1102202Y1279831D01*
X1101064Y1281314D01*
X1101011Y1281354D01*
Y1283396D01*
X1101064Y1283436D01*
X1102202Y1284919D01*
X1102917Y1286647D01*
X1103161Y1288500D01*
X1103142Y1288649D01*
X1106548Y1292055D01*
X1125900D01*
Y1291900D01*
X1149100D01*
Y1292310D01*
X1156750D01*
X1158545Y1292667D01*
X1160066Y1293684D01*
X1171283Y1304900D01*
X1171750Y1304839D01*
X1173604Y1305083D01*
X1175331Y1305798D01*
X1176814Y1306936D01*
X1177952Y1308419D01*
X1178667Y1310147D01*
X1178911Y1312000D01*
X1178667Y1313853D01*
X1177952Y1315581D01*
X1176814Y1317064D01*
X1176440Y1317350D01*
Y1319400D01*
X1176814Y1319686D01*
X1177952Y1321169D01*
X1178667Y1322897D01*
X1178911Y1324750D01*
X1178667Y1326604D01*
X1177952Y1328331D01*
X1176814Y1329814D01*
X1175331Y1330952D01*
X1173604Y1331667D01*
X1171750Y1331911D01*
D02*
G37*
G36*
X1528200Y1305518D02*
X1527650D01*
Y1301250D01*
X1531718D01*
Y1302000D01*
X1531450Y1303346D01*
X1530687Y1304487D01*
X1529546Y1305250D01*
X1528200Y1305518D01*
D02*
G37*
G36*
X1076200Y1303319D02*
X1072700D01*
Y1297250D01*
X1084006D01*
X1083994Y1297338D01*
X1083188Y1299285D01*
X1081906Y1300956D01*
X1080235Y1302238D01*
X1078288Y1303044D01*
X1076200Y1303319D01*
D02*
G37*
G36*
X1068700D02*
X1065200D01*
X1063112Y1303044D01*
X1061165Y1302238D01*
X1059494Y1300956D01*
X1058212Y1299285D01*
X1057406Y1297338D01*
X1057394Y1297250D01*
X1068700D01*
Y1303319D01*
D02*
G37*
G36*
X1031900D02*
X1030900D01*
Y1297250D01*
X1039706D01*
X1039694Y1297338D01*
X1038888Y1299285D01*
X1037606Y1300956D01*
X1035935Y1302238D01*
X1033988Y1303044D01*
X1031900Y1303319D01*
D02*
G37*
G36*
X1026900D02*
X1025900D01*
X1023812Y1303044D01*
X1021865Y1302238D01*
X1020194Y1300956D01*
X1018912Y1299285D01*
X1018106Y1297338D01*
X1018094Y1297250D01*
X1026900D01*
Y1303319D01*
D02*
G37*
G36*
X1042750Y1335312D02*
X1040526Y1334869D01*
X1038641Y1333609D01*
X1037381Y1331724D01*
X1036938Y1329500D01*
X1037149Y1328441D01*
X1035479Y1326771D01*
X1034783Y1325729D01*
X1034538Y1324500D01*
Y1317600D01*
X1031900D01*
Y1307400D01*
X1044289D01*
X1044926Y1305300D01*
X1044641Y1305110D01*
X1043381Y1303224D01*
X1042938Y1301000D01*
X1043381Y1298776D01*
X1044641Y1296891D01*
X1046526Y1295631D01*
X1048750Y1295188D01*
X1050974Y1295631D01*
X1052859Y1296891D01*
X1054119Y1298776D01*
X1054562Y1301000D01*
X1054119Y1303224D01*
X1052859Y1305110D01*
X1052574Y1305300D01*
X1053211Y1307400D01*
X1055100D01*
Y1317600D01*
X1040962D01*
Y1322053D01*
X1042750Y1323688D01*
X1044974Y1324131D01*
X1046860Y1325390D01*
X1048119Y1327276D01*
X1048562Y1329500D01*
X1048119Y1331724D01*
X1046860Y1333609D01*
X1044974Y1334869D01*
X1042750Y1335312D01*
D02*
G37*
G36*
X1531718Y1297250D02*
X1527650D01*
Y1292982D01*
X1528200D01*
X1529546Y1293250D01*
X1530687Y1294013D01*
X1531450Y1295154D01*
X1531718Y1296500D01*
Y1297250D01*
D02*
G37*
G36*
X1039706Y1293250D02*
X1030900D01*
Y1287181D01*
X1031900D01*
X1033988Y1287456D01*
X1035935Y1288262D01*
X1037606Y1289544D01*
X1038888Y1291216D01*
X1039694Y1293162D01*
X1039706Y1293250D01*
D02*
G37*
G36*
X1026900D02*
X1018094D01*
X1018106Y1293162D01*
X1018912Y1291216D01*
X1020194Y1289544D01*
X1021865Y1288262D01*
X1023812Y1287456D01*
X1025900Y1287181D01*
X1026900D01*
Y1293250D01*
D02*
G37*
G36*
X1187400Y1281518D02*
X1186850D01*
X1185504Y1281250D01*
X1184363Y1280487D01*
X1184256Y1280328D01*
X1184145Y1280402D01*
X1183150Y1280600D01*
X1178050D01*
X1177055Y1280402D01*
X1176212Y1279838D01*
X1175648Y1278995D01*
X1175450Y1278000D01*
Y1272500D01*
X1175648Y1271505D01*
X1176212Y1270662D01*
X1177055Y1270098D01*
X1177288Y1270052D01*
Y1262953D01*
X1175625D01*
X1174562Y1262742D01*
X1173660Y1262140D01*
X1173058Y1261238D01*
X1172847Y1260175D01*
Y1256425D01*
X1173058Y1255362D01*
X1173660Y1254460D01*
X1174562Y1253858D01*
X1175625Y1253647D01*
X1185375D01*
X1186438Y1253858D01*
X1187340Y1254460D01*
X1187942Y1255362D01*
X1188153Y1256425D01*
Y1260175D01*
X1187942Y1261238D01*
X1187340Y1262140D01*
X1186438Y1262742D01*
X1185375Y1262953D01*
X1183712D01*
Y1267922D01*
X1184922Y1268819D01*
X1185812Y1269189D01*
X1186850Y1268982D01*
X1187400D01*
Y1275250D01*
Y1281518D01*
D02*
G37*
G36*
X1191950D02*
X1191400D01*
Y1277250D01*
X1195468D01*
Y1278000D01*
X1195200Y1279346D01*
X1194437Y1280487D01*
X1193296Y1281250D01*
X1191950Y1281518D01*
D02*
G37*
G36*
X1758000Y1337726D02*
X1752883Y1337222D01*
X1752616Y1337141D01*
X1728500D01*
X1727681Y1336978D01*
X1726986Y1336514D01*
X1726522Y1335819D01*
X1726359Y1335000D01*
Y1276000D01*
X1726522Y1275181D01*
X1726986Y1274486D01*
X1727681Y1274022D01*
X1728500Y1273859D01*
X1752616D01*
X1752883Y1273778D01*
X1758000Y1273274D01*
X1763116Y1273778D01*
X1763384Y1273859D01*
X1787500D01*
X1788319Y1274022D01*
X1789014Y1274486D01*
X1789478Y1275181D01*
X1789641Y1276000D01*
Y1335000D01*
X1789478Y1335819D01*
X1789014Y1336514D01*
X1788319Y1336978D01*
X1787500Y1337141D01*
X1763384D01*
X1763116Y1337222D01*
X1758000Y1337726D01*
D02*
G37*
G36*
X1195468Y1273250D02*
X1191400D01*
Y1268982D01*
X1191950D01*
X1193296Y1269250D01*
X1194437Y1270013D01*
X1195200Y1271154D01*
X1195468Y1272500D01*
Y1273250D01*
D02*
G37*
G36*
X1246263Y1303606D02*
X1227738D01*
X1226630Y1303385D01*
X1225692Y1302758D01*
X1225065Y1301820D01*
X1224844Y1300712D01*
Y1296288D01*
X1225065Y1295180D01*
X1225519Y1294500D01*
X1225065Y1293820D01*
X1224844Y1292713D01*
Y1288288D01*
X1225065Y1287180D01*
X1225519Y1286500D01*
X1225065Y1285820D01*
X1224844Y1284713D01*
Y1280287D01*
X1225065Y1279180D01*
X1225519Y1278500D01*
X1225065Y1277820D01*
X1224844Y1276712D01*
Y1272288D01*
X1225025Y1271380D01*
X1224217Y1270171D01*
X1223927Y1268712D01*
Y1268500D01*
X1250073D01*
Y1268712D01*
X1249783Y1270171D01*
X1248975Y1271380D01*
X1249156Y1272288D01*
Y1276712D01*
X1248935Y1277820D01*
X1248481Y1278500D01*
X1248935Y1279180D01*
X1249156Y1280287D01*
Y1284713D01*
X1248935Y1285820D01*
X1248481Y1286500D01*
X1248935Y1287180D01*
X1249156Y1288288D01*
Y1292713D01*
X1248935Y1293820D01*
X1248481Y1294500D01*
X1248935Y1295180D01*
X1249156Y1296288D01*
Y1300712D01*
X1248935Y1301820D01*
X1248308Y1302758D01*
X1247370Y1303385D01*
X1246263Y1303606D01*
D02*
G37*
G36*
X1379900Y1275700D02*
X1369900D01*
Y1268200D01*
X1379900D01*
Y1275700D01*
D02*
G37*
G36*
X1402000Y1263000D02*
X1397250D01*
Y1259000D01*
X1402000D01*
Y1263000D01*
D02*
G37*
G36*
X1379900Y1264200D02*
X1369900D01*
Y1256700D01*
X1379900D01*
Y1264200D01*
D02*
G37*
G36*
X1402000Y1255000D02*
X1397250D01*
Y1251000D01*
X1402000D01*
Y1255000D01*
D02*
G37*
G36*
X1250073Y1264500D02*
X1223927D01*
Y1264287D01*
X1224217Y1262829D01*
X1225025Y1261620D01*
X1224844Y1260713D01*
Y1256288D01*
X1225065Y1255180D01*
X1225519Y1254500D01*
X1225065Y1253820D01*
X1224844Y1252712D01*
Y1248288D01*
X1225025Y1247380D01*
X1224217Y1246171D01*
X1223927Y1244713D01*
Y1244500D01*
X1250073D01*
Y1244713D01*
X1249783Y1246171D01*
X1248975Y1247380D01*
X1249156Y1248288D01*
Y1252712D01*
X1248935Y1253820D01*
X1248481Y1254500D01*
X1248935Y1255180D01*
X1249156Y1256288D01*
Y1260713D01*
X1248975Y1261620D01*
X1249783Y1262829D01*
X1250073Y1264287D01*
Y1264500D01*
D02*
G37*
G36*
X1265250Y1287312D02*
X1263026Y1286869D01*
X1261141Y1285609D01*
X1259881Y1283724D01*
X1259438Y1281500D01*
X1259881Y1279276D01*
X1261141Y1277391D01*
X1262038Y1276791D01*
Y1269000D01*
X1262283Y1267771D01*
X1262979Y1266729D01*
X1278399Y1251309D01*
X1278188Y1250250D01*
X1278631Y1248026D01*
X1279891Y1246141D01*
X1281776Y1244881D01*
X1284000Y1244438D01*
X1286224Y1244881D01*
X1288109Y1246141D01*
X1289369Y1248026D01*
X1289812Y1250250D01*
X1289369Y1252474D01*
X1288109Y1254360D01*
X1286224Y1255619D01*
X1284000Y1256062D01*
X1282941Y1255851D01*
X1268462Y1270330D01*
Y1276791D01*
X1269360Y1277391D01*
X1270619Y1279276D01*
X1271062Y1281500D01*
X1270619Y1283724D01*
X1269360Y1285609D01*
X1267474Y1286869D01*
X1265250Y1287312D01*
D02*
G37*
G36*
X1185375Y1250253D02*
X1175625D01*
X1174562Y1250042D01*
X1173660Y1249440D01*
X1173241Y1248812D01*
X1169700D01*
X1168471Y1248567D01*
X1167429Y1247871D01*
X1152629Y1233071D01*
X1151933Y1232029D01*
X1151688Y1230800D01*
Y1208200D01*
X1151933Y1206971D01*
X1152629Y1205929D01*
X1164629Y1193929D01*
X1165671Y1193233D01*
X1166900Y1192988D01*
X1190991D01*
X1191590Y1192091D01*
X1193476Y1190831D01*
X1195700Y1190388D01*
X1197924Y1190831D01*
X1199809Y1192091D01*
X1201069Y1193976D01*
X1201512Y1196200D01*
X1201069Y1198424D01*
X1199809Y1200310D01*
X1197924Y1201569D01*
X1195700Y1202012D01*
X1193476Y1201569D01*
X1191590Y1200310D01*
X1190991Y1199412D01*
X1168230D01*
X1158112Y1209530D01*
Y1213864D01*
X1159131Y1214463D01*
X1160212Y1214725D01*
X1161419Y1213798D01*
X1163147Y1213083D01*
X1165000Y1212839D01*
X1166853Y1213083D01*
X1168581Y1213798D01*
X1170064Y1214936D01*
X1170700Y1215765D01*
X1174552D01*
X1174562Y1215758D01*
X1175625Y1215547D01*
X1185375D01*
X1186438Y1215758D01*
X1187340Y1216360D01*
X1187942Y1217262D01*
X1188153Y1218325D01*
Y1222075D01*
X1187942Y1223138D01*
X1187340Y1224040D01*
X1186438Y1224642D01*
X1185375Y1224853D01*
X1175625D01*
X1174562Y1224642D01*
X1174552Y1224635D01*
X1170393D01*
X1170064Y1225064D01*
X1168581Y1226202D01*
X1166853Y1226917D01*
X1165000Y1227161D01*
X1163147Y1226917D01*
X1161419Y1226202D01*
X1160212Y1225275D01*
X1159131Y1225537D01*
X1158112Y1226136D01*
Y1229470D01*
X1171030Y1242388D01*
X1173241D01*
X1173660Y1241760D01*
X1174562Y1241158D01*
X1175625Y1240947D01*
X1185375D01*
X1186438Y1241158D01*
X1187340Y1241760D01*
X1187942Y1242662D01*
X1188153Y1243725D01*
Y1247475D01*
X1187942Y1248538D01*
X1187340Y1249440D01*
X1186438Y1250042D01*
X1185375Y1250253D01*
D02*
G37*
G36*
X1250073Y1240500D02*
X1239000D01*
Y1236477D01*
X1246263D01*
X1247721Y1236767D01*
X1248957Y1237593D01*
X1249783Y1238829D01*
X1250073Y1240287D01*
Y1240500D01*
D02*
G37*
G36*
X1235000D02*
X1223927D01*
Y1240287D01*
X1224217Y1238829D01*
X1224630Y1238212D01*
X1223824Y1236249D01*
X1223699Y1236112D01*
X1187759D01*
X1187340Y1236740D01*
X1186438Y1237342D01*
X1185375Y1237553D01*
X1175625D01*
X1174562Y1237342D01*
X1173660Y1236740D01*
X1173058Y1235838D01*
X1172847Y1234775D01*
Y1231025D01*
X1173058Y1229962D01*
X1173660Y1229060D01*
X1174562Y1228458D01*
X1175625Y1228247D01*
X1185375D01*
X1186438Y1228458D01*
X1187340Y1229060D01*
X1187759Y1229688D01*
X1225170D01*
X1230699Y1224159D01*
X1230488Y1223100D01*
X1230931Y1220876D01*
X1232191Y1218991D01*
X1234076Y1217731D01*
X1236300Y1217288D01*
X1238524Y1217731D01*
X1240409Y1218991D01*
X1241669Y1220876D01*
X1242112Y1223100D01*
X1241669Y1225324D01*
X1240409Y1227209D01*
X1238524Y1228469D01*
X1236300Y1228912D01*
X1235241Y1228701D01*
X1229565Y1234377D01*
X1230435Y1236477D01*
X1235000D01*
Y1240500D01*
D02*
G37*
G36*
X1130375Y1238471D02*
X1127500D01*
Y1234900D01*
X1134046D01*
X1133790Y1236189D01*
X1132989Y1237389D01*
X1131789Y1238190D01*
X1130375Y1238471D01*
D02*
G37*
G36*
X1702000Y1248370D02*
X1699886Y1248092D01*
X1697915Y1247275D01*
X1696223Y1245977D01*
X1694925Y1244285D01*
X1694108Y1242315D01*
X1693830Y1240200D01*
X1694108Y1238085D01*
X1694925Y1236115D01*
X1696223Y1234423D01*
X1697915Y1233125D01*
X1699886Y1232309D01*
X1702000Y1232030D01*
X1704115Y1232309D01*
X1706085Y1233125D01*
X1707777Y1234423D01*
X1709075Y1236115D01*
X1709892Y1238085D01*
X1710170Y1240200D01*
X1709892Y1242315D01*
X1709075Y1244285D01*
X1707777Y1245977D01*
X1706085Y1247275D01*
X1704115Y1248092D01*
X1702000Y1248370D01*
D02*
G37*
G36*
X1134046Y1230900D02*
X1127500D01*
Y1227329D01*
X1130375D01*
X1131789Y1227610D01*
X1132989Y1228411D01*
X1133790Y1229611D01*
X1134046Y1230900D01*
D02*
G37*
G36*
X1663518Y1216350D02*
X1659250D01*
Y1212282D01*
X1660000D01*
X1661346Y1212550D01*
X1662487Y1213313D01*
X1663250Y1214454D01*
X1663518Y1215800D01*
Y1216350D01*
D02*
G37*
G36*
X1655250D02*
X1650982D01*
Y1215800D01*
X1651250Y1214454D01*
X1652013Y1213313D01*
X1653154Y1212550D01*
X1654500Y1212282D01*
X1655250D01*
Y1216350D01*
D02*
G37*
G36*
X1638018D02*
X1633750D01*
Y1212282D01*
X1634500D01*
X1635846Y1212550D01*
X1636987Y1213313D01*
X1637750Y1214454D01*
X1638018Y1215800D01*
Y1216350D01*
D02*
G37*
G36*
X1629750D02*
X1625482D01*
Y1215800D01*
X1625750Y1214454D01*
X1626513Y1213313D01*
X1627654Y1212550D01*
X1629000Y1212282D01*
X1629750D01*
Y1216350D01*
D02*
G37*
G36*
X1612268D02*
X1608000D01*
Y1212282D01*
X1608750D01*
X1610096Y1212550D01*
X1611237Y1213313D01*
X1612000Y1214454D01*
X1612268Y1215800D01*
Y1216350D01*
D02*
G37*
G36*
X1604000D02*
X1599732D01*
Y1215800D01*
X1600000Y1214454D01*
X1600763Y1213313D01*
X1601904Y1212550D01*
X1603250Y1212282D01*
X1604000D01*
Y1216350D01*
D02*
G37*
G36*
X1031900Y1216819D02*
X1030900D01*
Y1210750D01*
X1039706D01*
X1039694Y1210838D01*
X1038888Y1212785D01*
X1037606Y1214456D01*
X1035935Y1215738D01*
X1033988Y1216544D01*
X1031900Y1216819D01*
D02*
G37*
G36*
X1026900D02*
X1025900D01*
X1023812Y1216544D01*
X1021865Y1215738D01*
X1020194Y1214456D01*
X1018912Y1212785D01*
X1018106Y1210838D01*
X1018094Y1210750D01*
X1026900D01*
Y1216819D01*
D02*
G37*
G36*
X1084006Y1206750D02*
X1072700D01*
Y1200681D01*
X1076200D01*
X1078288Y1200956D01*
X1080235Y1201762D01*
X1081906Y1203044D01*
X1083188Y1204715D01*
X1083994Y1206662D01*
X1084006Y1206750D01*
D02*
G37*
G36*
X1068700D02*
X1057394D01*
X1057406Y1206662D01*
X1058212Y1204715D01*
X1059494Y1203044D01*
X1061165Y1201762D01*
X1063112Y1200956D01*
X1065200Y1200681D01*
X1068700D01*
Y1206750D01*
D02*
G37*
G36*
X1039706Y1206750D02*
X1030900D01*
Y1200681D01*
X1031900D01*
X1033988Y1200956D01*
X1035935Y1201762D01*
X1037606Y1203044D01*
X1038888Y1204715D01*
X1039694Y1206662D01*
X1039706Y1206750D01*
D02*
G37*
G36*
X1026900D02*
X1018094D01*
X1018106Y1206662D01*
X1018912Y1204715D01*
X1020194Y1203044D01*
X1021865Y1201762D01*
X1023812Y1200956D01*
X1025900Y1200681D01*
X1026900D01*
Y1206750D01*
D02*
G37*
G36*
X1060750Y1195000D02*
Y1191000D01*
X1065500D01*
Y1195000D01*
X1060750D01*
D02*
G37*
G36*
X1065500Y1187000D02*
X1060750D01*
Y1183000D01*
X1065500D01*
Y1187000D01*
D02*
G37*
G36*
X1107550Y1187833D02*
Y1173450D01*
X1121933D01*
X1121811Y1174685D01*
X1120868Y1177795D01*
X1119336Y1180661D01*
X1117274Y1183174D01*
X1114761Y1185236D01*
X1111895Y1186768D01*
X1108784Y1187711D01*
X1107550Y1187833D01*
D02*
G37*
G36*
X1103550D02*
X1102315Y1187711D01*
X1099205Y1186768D01*
X1096339Y1185236D01*
X1093826Y1183174D01*
X1091764Y1180661D01*
X1090232Y1177795D01*
X1089289Y1174685D01*
X1089167Y1173450D01*
X1103550D01*
Y1187833D01*
D02*
G37*
G36*
X1332073Y1196500D02*
X1305927D01*
Y1196288D01*
X1306217Y1194829D01*
X1307025Y1193620D01*
X1306844Y1192712D01*
Y1188288D01*
X1307065Y1187180D01*
X1307519Y1186500D01*
X1307065Y1185820D01*
X1306844Y1184713D01*
Y1180288D01*
X1305944Y1179190D01*
X1294500D01*
X1292705Y1178833D01*
X1291184Y1177816D01*
X1269184Y1155816D01*
X1268167Y1154295D01*
X1267810Y1152500D01*
Y1123600D01*
X1267436Y1123314D01*
X1266298Y1121831D01*
X1265583Y1120104D01*
X1265395Y1118680D01*
X1251895D01*
X1250073Y1120287D01*
Y1120500D01*
X1237000D01*
Y1124500D01*
X1250073D01*
Y1124713D01*
X1249783Y1126171D01*
X1249563Y1126500D01*
X1249783Y1126829D01*
X1250073Y1128288D01*
Y1128500D01*
X1237000D01*
Y1132500D01*
X1250073D01*
Y1132712D01*
X1249783Y1134171D01*
X1248975Y1135380D01*
X1249156Y1136288D01*
Y1140713D01*
X1248935Y1141820D01*
X1248481Y1142500D01*
X1248935Y1143180D01*
X1249156Y1144287D01*
Y1148712D01*
X1248975Y1149620D01*
X1249783Y1150829D01*
X1250073Y1152288D01*
Y1152500D01*
X1223437D01*
X1221852Y1152245D01*
X1221289Y1153088D01*
X1220445Y1153652D01*
X1219450Y1153850D01*
X1214350D01*
X1213355Y1153652D01*
X1213244Y1153578D01*
X1213137Y1153737D01*
X1211996Y1154500D01*
X1210650Y1154768D01*
X1210100D01*
Y1148500D01*
X1208100D01*
Y1146500D01*
X1202032D01*
Y1145750D01*
X1202300Y1144404D01*
X1203063Y1143263D01*
X1204204Y1142500D01*
X1205107Y1142321D01*
Y1140179D01*
X1204204Y1140000D01*
X1203063Y1139237D01*
X1202300Y1138096D01*
X1202032Y1136750D01*
Y1136000D01*
X1208100D01*
Y1134000D01*
X1210100D01*
Y1127732D01*
X1210650D01*
X1212720Y1126150D01*
Y1118680D01*
X1209350D01*
Y1124350D01*
X1187150D01*
Y1107150D01*
X1200738D01*
X1204344Y1103544D01*
X1205700Y1102638D01*
X1207300Y1102320D01*
X1209173D01*
X1210982Y1100650D01*
Y1098047D01*
X1210250Y1096250D01*
X1208882Y1096250D01*
X1200250D01*
Y1088750D01*
X1210250D01*
Y1091921D01*
X1211076Y1092456D01*
X1212350Y1092837D01*
X1213154Y1092300D01*
X1214500Y1092032D01*
X1215250D01*
Y1098100D01*
X1219250D01*
Y1092032D01*
X1220000D01*
X1221346Y1092300D01*
X1222487Y1093063D01*
X1224448Y1092297D01*
X1224844Y1091992D01*
Y1088288D01*
X1225065Y1087180D01*
X1225519Y1086500D01*
X1225065Y1085820D01*
X1224844Y1084713D01*
Y1080287D01*
X1225065Y1079180D01*
X1225519Y1078500D01*
X1225065Y1077820D01*
X1224844Y1076712D01*
Y1072288D01*
X1225065Y1071180D01*
X1225519Y1070500D01*
X1225065Y1069820D01*
X1224844Y1068712D01*
Y1064287D01*
X1225065Y1063180D01*
X1225692Y1062242D01*
X1226630Y1061615D01*
X1227738Y1061394D01*
X1246263D01*
X1247370Y1061615D01*
X1248308Y1062242D01*
X1248935Y1063180D01*
X1249156Y1064287D01*
Y1068712D01*
X1248935Y1069820D01*
X1248481Y1070500D01*
X1248935Y1071180D01*
X1249156Y1072288D01*
Y1076712D01*
X1248935Y1077820D01*
X1248481Y1078500D01*
X1248935Y1079180D01*
X1249156Y1080287D01*
Y1084713D01*
X1248935Y1085820D01*
X1248481Y1086500D01*
X1248935Y1087180D01*
X1249156Y1088288D01*
Y1092712D01*
X1248975Y1093620D01*
X1249783Y1094829D01*
X1250073Y1096288D01*
Y1096500D01*
X1237000D01*
Y1100500D01*
X1250073D01*
Y1100713D01*
X1251895Y1102320D01*
X1265058D01*
X1265339Y1102000D01*
X1265583Y1100146D01*
X1266298Y1098419D01*
X1267436Y1096936D01*
X1268919Y1095798D01*
X1270647Y1095083D01*
X1272500Y1094839D01*
X1274353Y1095083D01*
X1276081Y1095798D01*
X1277564Y1096936D01*
X1278702Y1098419D01*
X1279417Y1100146D01*
X1279661Y1102000D01*
X1279417Y1103854D01*
X1278702Y1105581D01*
X1277564Y1107064D01*
X1277190Y1107350D01*
Y1112899D01*
X1277564Y1113186D01*
X1278702Y1114669D01*
X1279417Y1116396D01*
X1279661Y1118250D01*
X1279417Y1120104D01*
X1278702Y1121831D01*
X1277564Y1123314D01*
X1277190Y1123600D01*
Y1150557D01*
X1296443Y1169810D01*
X1305026D01*
X1305927Y1168712D01*
Y1168500D01*
X1332073D01*
Y1168712D01*
X1331783Y1170171D01*
X1330975Y1171380D01*
X1331156Y1172288D01*
Y1176712D01*
X1330935Y1177820D01*
X1330481Y1178500D01*
X1330935Y1179180D01*
X1331156Y1180287D01*
Y1184713D01*
X1330935Y1185820D01*
X1330481Y1186500D01*
X1330935Y1187180D01*
X1331156Y1188288D01*
Y1192712D01*
X1330975Y1193620D01*
X1331783Y1194829D01*
X1332073Y1196288D01*
Y1196500D01*
D02*
G37*
G36*
X1250073Y1184500D02*
X1223927D01*
Y1184287D01*
X1224217Y1182829D01*
X1225025Y1181620D01*
X1224844Y1180713D01*
Y1176288D01*
X1225065Y1175180D01*
X1225519Y1174500D01*
X1225065Y1173820D01*
X1224844Y1172712D01*
Y1168288D01*
X1225025Y1167380D01*
X1224217Y1166171D01*
X1223927Y1164713D01*
Y1164500D01*
X1250073D01*
Y1164713D01*
X1249783Y1166171D01*
X1248975Y1167380D01*
X1249156Y1168288D01*
Y1172712D01*
X1248935Y1173820D01*
X1248481Y1174500D01*
X1248935Y1175180D01*
X1249156Y1176288D01*
Y1180713D01*
X1248975Y1181620D01*
X1249783Y1182829D01*
X1250073Y1184287D01*
Y1184500D01*
D02*
G37*
G36*
X1357200Y1164968D02*
X1356650D01*
X1355304Y1164700D01*
X1354163Y1163937D01*
X1354056Y1163778D01*
X1353945Y1163852D01*
X1352950Y1164050D01*
X1347850D01*
X1346855Y1163852D01*
X1346012Y1163288D01*
X1345605Y1162680D01*
X1333895D01*
X1332073Y1164288D01*
Y1164500D01*
X1305927D01*
Y1164287D01*
X1306217Y1162829D01*
X1307025Y1161620D01*
X1306844Y1160713D01*
Y1156288D01*
X1307065Y1155180D01*
X1307519Y1154500D01*
X1307065Y1153820D01*
X1306844Y1152712D01*
Y1148288D01*
X1307065Y1147180D01*
X1307519Y1146500D01*
X1307065Y1145820D01*
X1306844Y1144713D01*
Y1140287D01*
X1307025Y1139380D01*
X1306217Y1138171D01*
X1305927Y1136712D01*
Y1136500D01*
X1332073D01*
Y1136712D01*
X1331783Y1138171D01*
X1330975Y1139380D01*
X1331156Y1140287D01*
Y1144713D01*
X1330935Y1145820D01*
X1330481Y1146500D01*
X1330935Y1147180D01*
X1331156Y1148288D01*
Y1152712D01*
X1332935Y1154320D01*
X1345872D01*
X1346012Y1154112D01*
X1346855Y1153548D01*
X1347850Y1153350D01*
X1352950D01*
X1353945Y1153548D01*
X1354056Y1153622D01*
X1354163Y1153463D01*
X1355304Y1152700D01*
X1356650Y1152432D01*
X1357200D01*
Y1158700D01*
Y1164968D01*
D02*
G37*
G36*
X1361750D02*
X1361200D01*
Y1160700D01*
X1365268D01*
Y1161450D01*
X1365000Y1162796D01*
X1364237Y1163937D01*
X1363096Y1164700D01*
X1361750Y1164968D01*
D02*
G37*
G36*
X1250073Y1160500D02*
X1223927D01*
Y1160287D01*
X1224217Y1158829D01*
X1224437Y1158500D01*
X1224217Y1158171D01*
X1223927Y1156712D01*
Y1156500D01*
X1250073D01*
Y1156712D01*
X1249783Y1158171D01*
X1249563Y1158500D01*
X1249783Y1158829D01*
X1250073Y1160287D01*
Y1160500D01*
D02*
G37*
G36*
X1121933Y1169450D02*
X1107550D01*
Y1155067D01*
X1108784Y1155189D01*
X1111895Y1156132D01*
X1114761Y1157664D01*
X1117274Y1159726D01*
X1119336Y1162239D01*
X1120868Y1165105D01*
X1121811Y1168215D01*
X1121933Y1169450D01*
D02*
G37*
G36*
X1075050Y1169840D02*
X1071404Y1169481D01*
X1067898Y1168417D01*
X1064666Y1166690D01*
X1061834Y1164366D01*
X1059510Y1161534D01*
X1057783Y1158302D01*
X1056719Y1154796D01*
X1056360Y1151150D01*
X1056719Y1147504D01*
X1057783Y1143998D01*
X1059510Y1140766D01*
X1061834Y1137934D01*
X1064666Y1135610D01*
X1067898Y1133883D01*
X1071404Y1132819D01*
X1075050Y1132460D01*
X1078696Y1132819D01*
X1082202Y1133883D01*
X1085434Y1135610D01*
X1088266Y1137934D01*
X1090590Y1140766D01*
X1092317Y1143998D01*
X1093381Y1147504D01*
X1093740Y1151150D01*
X1093381Y1154796D01*
X1092317Y1158302D01*
X1092294Y1158345D01*
X1093826Y1159726D01*
X1096339Y1157664D01*
X1099205Y1156132D01*
X1102315Y1155189D01*
X1103550Y1155067D01*
Y1169450D01*
X1089167D01*
X1089289Y1168215D01*
X1090232Y1165105D01*
X1088368Y1164242D01*
X1088266Y1164366D01*
X1085434Y1166690D01*
X1082202Y1168417D01*
X1078696Y1169481D01*
X1075050Y1169840D01*
D02*
G37*
G36*
X1446100Y1167850D02*
X1422900D01*
Y1165962D01*
X1420750D01*
X1419521Y1165717D01*
X1418479Y1165021D01*
X1409229Y1155771D01*
X1408533Y1154729D01*
X1408288Y1153500D01*
Y1152159D01*
X1407390Y1151560D01*
X1406791Y1150662D01*
X1370959D01*
X1370359Y1151560D01*
X1368474Y1152819D01*
X1366584Y1153195D01*
X1366147Y1153584D01*
X1365733Y1154133D01*
X1365114Y1155177D01*
X1365268Y1155950D01*
Y1156700D01*
X1361200D01*
Y1150558D01*
X1361321Y1150332D01*
X1360881Y1149674D01*
X1360438Y1147450D01*
X1360881Y1145226D01*
X1361473Y1144339D01*
X1361967Y1142800D01*
X1361473Y1141261D01*
X1360881Y1140374D01*
X1360438Y1138150D01*
X1360881Y1135926D01*
X1362141Y1134041D01*
X1364026Y1132781D01*
X1366250Y1132338D01*
X1368474Y1132781D01*
X1370359Y1134041D01*
X1370959Y1134938D01*
X1406791D01*
X1407390Y1134041D01*
X1409276Y1132781D01*
X1411500Y1132338D01*
X1413724Y1132781D01*
X1415609Y1134041D01*
X1416209Y1134938D01*
X1422900D01*
Y1133050D01*
X1446100D01*
Y1143250D01*
X1443462D01*
Y1145541D01*
X1444359Y1146141D01*
X1445619Y1148026D01*
X1446062Y1150250D01*
X1445619Y1152474D01*
X1444359Y1154360D01*
X1443462Y1154959D01*
Y1157650D01*
X1446100D01*
Y1167850D01*
D02*
G37*
G36*
X1206100Y1154768D02*
X1205550D01*
X1204204Y1154500D01*
X1203063Y1153737D01*
X1202300Y1152596D01*
X1202032Y1151250D01*
Y1150500D01*
X1206100D01*
Y1154768D01*
D02*
G37*
G36*
X1026050Y1171446D02*
X1023152Y1171064D01*
X1020452Y1169946D01*
X1018133Y1168167D01*
X1016354Y1165848D01*
X1015236Y1163148D01*
X1014854Y1160250D01*
X1015236Y1157352D01*
X1016354Y1154652D01*
X1018133Y1152333D01*
X1020452Y1150554D01*
X1023152Y1149436D01*
X1026050Y1149054D01*
X1028948Y1149436D01*
X1031648Y1150554D01*
X1033967Y1152333D01*
X1035746Y1154652D01*
X1036864Y1157352D01*
X1037246Y1160250D01*
X1036864Y1163148D01*
X1035746Y1165848D01*
X1033967Y1168167D01*
X1031648Y1169946D01*
X1028948Y1171064D01*
X1026050Y1171446D01*
D02*
G37*
G36*
X1028050Y1146690D02*
Y1136850D01*
X1037890D01*
X1037741Y1137983D01*
X1036532Y1140902D01*
X1034608Y1143409D01*
X1032102Y1145332D01*
X1029183Y1146541D01*
X1028050Y1146690D01*
D02*
G37*
G36*
X1024050Y1146690D02*
X1022917Y1146541D01*
X1019998Y1145332D01*
X1017492Y1143409D01*
X1015568Y1140902D01*
X1014359Y1137983D01*
X1014210Y1136850D01*
X1024050D01*
Y1146690D01*
D02*
G37*
G36*
X1188500Y1163562D02*
X1186276Y1163119D01*
X1184390Y1161860D01*
X1183131Y1159974D01*
X1182688Y1157750D01*
X1183131Y1155526D01*
X1184390Y1153641D01*
X1184651Y1153466D01*
X1184815Y1151157D01*
X1168468Y1134810D01*
X1166587Y1135590D01*
X1163950Y1135937D01*
X1161313Y1135590D01*
X1158856Y1134572D01*
X1156747Y1132953D01*
X1155128Y1130844D01*
X1154110Y1128387D01*
X1153763Y1125750D01*
X1154110Y1123113D01*
X1155128Y1120656D01*
X1156747Y1118547D01*
X1158856Y1116928D01*
X1161313Y1115910D01*
X1163950Y1115563D01*
X1166587Y1115910D01*
X1169044Y1116928D01*
X1171153Y1118547D01*
X1172772Y1120656D01*
X1173790Y1123113D01*
X1174137Y1125750D01*
X1173790Y1128387D01*
X1173010Y1130268D01*
X1190771Y1148029D01*
X1191467Y1149071D01*
X1191712Y1150300D01*
Y1153041D01*
X1192609Y1153641D01*
X1193869Y1155526D01*
X1194312Y1157750D01*
X1193869Y1159974D01*
X1192609Y1161860D01*
X1190724Y1163119D01*
X1188500Y1163562D01*
D02*
G37*
G36*
X1142550Y1148670D02*
X1134550D01*
X1132170Y1148196D01*
X1130152Y1146848D01*
X1128804Y1144830D01*
X1128331Y1142450D01*
Y1134450D01*
X1128804Y1132070D01*
X1130152Y1130052D01*
X1132170Y1128704D01*
X1134550Y1128231D01*
X1142550D01*
X1144930Y1128704D01*
X1146948Y1130052D01*
X1148296Y1132070D01*
X1148770Y1134450D01*
Y1142450D01*
X1148296Y1144830D01*
X1146948Y1146848D01*
X1144930Y1148196D01*
X1142550Y1148670D01*
D02*
G37*
G36*
X1206100Y1132000D02*
X1202032D01*
Y1131250D01*
X1202300Y1129904D01*
X1203063Y1128763D01*
X1204204Y1128000D01*
X1205550Y1127732D01*
X1206100D01*
Y1132000D01*
D02*
G37*
G36*
X1037890Y1132850D02*
X1028050D01*
Y1123010D01*
X1029183Y1123159D01*
X1032102Y1124368D01*
X1034608Y1126292D01*
X1036532Y1128798D01*
X1037741Y1131717D01*
X1037890Y1132850D01*
D02*
G37*
G36*
X1024050D02*
X1014210D01*
X1014359Y1131717D01*
X1015568Y1128798D01*
X1017492Y1126292D01*
X1019998Y1124368D01*
X1022917Y1123159D01*
X1024050Y1123010D01*
Y1132850D01*
D02*
G37*
G36*
X1138550Y1123237D02*
X1135913Y1122890D01*
X1133456Y1121872D01*
X1131347Y1120253D01*
X1129728Y1118144D01*
X1128710Y1115687D01*
X1128363Y1113050D01*
X1128710Y1110413D01*
X1129728Y1107956D01*
X1131347Y1105847D01*
X1133456Y1104228D01*
X1135913Y1103210D01*
X1138550Y1102863D01*
X1141187Y1103210D01*
X1143643Y1104228D01*
X1145753Y1105847D01*
X1147372Y1107956D01*
X1148390Y1110413D01*
X1148737Y1113050D01*
X1148390Y1115687D01*
X1147372Y1118144D01*
X1145753Y1120253D01*
X1143643Y1121872D01*
X1141187Y1122890D01*
X1138550Y1123237D01*
D02*
G37*
G36*
X1042250Y1113312D02*
X1040026Y1112869D01*
X1038140Y1111609D01*
X1036881Y1109724D01*
X1036438Y1107500D01*
X1036881Y1105276D01*
X1038140Y1103391D01*
X1040026Y1102131D01*
X1042250Y1101688D01*
X1044474Y1102131D01*
X1046359Y1103391D01*
X1046959Y1104288D01*
X1061670D01*
X1093429Y1072529D01*
X1094471Y1071833D01*
X1095700Y1071588D01*
X1130679D01*
X1131392Y1069488D01*
X1131347Y1069453D01*
X1129728Y1067344D01*
X1128710Y1064887D01*
X1128363Y1062250D01*
X1128710Y1059613D01*
X1129728Y1057156D01*
X1131347Y1055047D01*
X1133456Y1053428D01*
X1135913Y1052410D01*
X1138550Y1052063D01*
X1141187Y1052410D01*
X1143643Y1053428D01*
X1145753Y1055047D01*
X1147372Y1057156D01*
X1148390Y1059613D01*
X1148737Y1062250D01*
X1148597Y1063313D01*
X1150586Y1064294D01*
X1154351Y1060529D01*
X1155393Y1059833D01*
X1155741Y1059763D01*
X1156302Y1057546D01*
X1156105Y1057395D01*
X1154342Y1055098D01*
X1153233Y1052422D01*
X1153118Y1051550D01*
X1163950D01*
X1174782D01*
X1174667Y1052422D01*
X1173558Y1055098D01*
X1171795Y1057395D01*
X1171674Y1057488D01*
X1172387Y1059588D01*
X1190500D01*
Y1057700D01*
X1204827D01*
X1204883Y1057421D01*
X1205579Y1056379D01*
X1211979Y1049979D01*
X1213021Y1049283D01*
X1214250Y1049038D01*
X1225937D01*
X1226574Y1046938D01*
X1225967Y1046533D01*
X1225122Y1045267D01*
X1224825Y1043775D01*
Y1024225D01*
X1225122Y1022733D01*
X1225967Y1021467D01*
X1227233Y1020622D01*
X1228725Y1020325D01*
X1257275D01*
X1258767Y1020622D01*
X1260033Y1021467D01*
X1260878Y1022733D01*
X1261175Y1024225D01*
Y1043775D01*
X1260878Y1045267D01*
X1260033Y1046533D01*
X1258767Y1047378D01*
X1257275Y1047675D01*
X1253353D01*
X1252716Y1049775D01*
X1253021Y1049979D01*
X1294191Y1091149D01*
X1295250Y1090938D01*
X1297474Y1091381D01*
X1299359Y1092641D01*
X1300619Y1094526D01*
X1301062Y1096750D01*
X1300619Y1098974D01*
X1299359Y1100860D01*
X1297474Y1102119D01*
X1295250Y1102562D01*
X1293026Y1102119D01*
X1291140Y1100860D01*
X1289881Y1098974D01*
X1289438Y1096750D01*
X1289649Y1095691D01*
X1249420Y1055462D01*
X1215580D01*
X1214883Y1056159D01*
X1213700Y1057700D01*
X1213700D01*
X1213700Y1057700D01*
Y1067900D01*
X1190500D01*
Y1066012D01*
X1172342D01*
X1171808Y1066792D01*
X1171433Y1068112D01*
X1172772Y1069856D01*
X1173790Y1072313D01*
X1174137Y1074950D01*
X1173790Y1077587D01*
X1172772Y1080044D01*
X1171153Y1082153D01*
X1169044Y1083772D01*
X1166587Y1084790D01*
X1163950Y1085137D01*
X1161313Y1084790D01*
X1158856Y1083772D01*
X1156747Y1082153D01*
X1155128Y1080044D01*
X1154110Y1077587D01*
X1153763Y1074950D01*
X1154033Y1072902D01*
X1152169Y1071796D01*
X1146893Y1077071D01*
X1145851Y1077767D01*
X1145740Y1077789D01*
X1145217Y1080035D01*
X1145753Y1080447D01*
X1147372Y1082556D01*
X1148390Y1085013D01*
X1148737Y1087650D01*
X1148390Y1090287D01*
X1147372Y1092744D01*
X1145753Y1094853D01*
X1143643Y1096472D01*
X1141187Y1097490D01*
X1138550Y1097837D01*
X1135913Y1097490D01*
X1133456Y1096472D01*
X1131347Y1094853D01*
X1129728Y1092744D01*
X1128710Y1090287D01*
X1128363Y1087650D01*
X1128710Y1085013D01*
X1129728Y1082556D01*
X1131347Y1080447D01*
X1131783Y1080112D01*
X1131070Y1078012D01*
X1097030D01*
X1065271Y1109771D01*
X1064229Y1110467D01*
X1063000Y1110712D01*
X1046959D01*
X1046359Y1111609D01*
X1044474Y1112869D01*
X1042250Y1113312D01*
D02*
G37*
G36*
X1163950Y1110537D02*
X1161313Y1110190D01*
X1158856Y1109172D01*
X1156747Y1107553D01*
X1155128Y1105444D01*
X1154110Y1102987D01*
X1153763Y1100350D01*
X1154110Y1097713D01*
X1155128Y1095256D01*
X1156747Y1093147D01*
X1158856Y1091528D01*
X1161313Y1090510D01*
X1163950Y1090163D01*
X1166587Y1090510D01*
X1169044Y1091528D01*
X1171153Y1093147D01*
X1172772Y1095256D01*
X1173790Y1097713D01*
X1174137Y1100350D01*
X1173790Y1102987D01*
X1172772Y1105444D01*
X1171153Y1107553D01*
X1169044Y1109172D01*
X1166587Y1110190D01*
X1163950Y1110537D01*
D02*
G37*
G36*
X1196250Y1096250D02*
X1186250D01*
Y1088750D01*
X1196250D01*
Y1096250D01*
D02*
G37*
G36*
X1210250Y1084750D02*
X1200250D01*
Y1077250D01*
X1210250D01*
Y1084750D01*
D02*
G37*
G36*
X1196250D02*
X1186250D01*
Y1077250D01*
X1196250D01*
Y1084750D01*
D02*
G37*
G36*
X1075000Y1080812D02*
X1072776Y1080369D01*
X1070891Y1079109D01*
X1069631Y1077224D01*
X1069188Y1075000D01*
X1069631Y1072776D01*
X1070891Y1070891D01*
X1072776Y1069631D01*
X1075000Y1069188D01*
X1077224Y1069631D01*
X1079109Y1070891D01*
X1080369Y1072776D01*
X1080812Y1075000D01*
X1080369Y1077224D01*
X1079109Y1079109D01*
X1077224Y1080369D01*
X1075000Y1080812D01*
D02*
G37*
G36*
X1026050Y1064346D02*
X1023152Y1063964D01*
X1020452Y1062846D01*
X1018133Y1061067D01*
X1016354Y1058748D01*
X1015236Y1056048D01*
X1014854Y1053150D01*
X1015236Y1050252D01*
X1016354Y1047552D01*
X1018133Y1045233D01*
X1020452Y1043454D01*
X1023152Y1042336D01*
X1026050Y1041954D01*
X1028948Y1042336D01*
X1031648Y1043454D01*
X1033967Y1045233D01*
X1035746Y1047552D01*
X1036864Y1050252D01*
X1037246Y1053150D01*
X1036864Y1056048D01*
X1035746Y1058748D01*
X1033967Y1061067D01*
X1031648Y1062846D01*
X1028948Y1063964D01*
X1026050Y1064346D01*
D02*
G37*
G36*
X1540450Y1044768D02*
X1539900D01*
Y1040500D01*
X1543968D01*
Y1041250D01*
X1543700Y1042596D01*
X1542937Y1043737D01*
X1541796Y1044500D01*
X1540450Y1044768D01*
D02*
G37*
G36*
X1498100D02*
X1497550D01*
X1496204Y1044500D01*
X1495063Y1043737D01*
X1494300Y1042596D01*
X1494032Y1041250D01*
Y1040500D01*
X1498100D01*
Y1044768D01*
D02*
G37*
G36*
X1161950Y1047550D02*
X1153118D01*
X1153233Y1046678D01*
X1154342Y1044003D01*
X1156105Y1041705D01*
X1158402Y1039941D01*
X1161078Y1038833D01*
X1161950Y1038718D01*
Y1047550D01*
D02*
G37*
G36*
X1174782D02*
X1165950D01*
Y1038718D01*
X1166822Y1038833D01*
X1169497Y1039941D01*
X1171795Y1041705D01*
X1173558Y1044003D01*
X1174667Y1046678D01*
X1174782Y1047550D01*
D02*
G37*
G36*
X1345768Y1038100D02*
X1341500D01*
Y1034033D01*
X1342250D01*
X1343596Y1034300D01*
X1344737Y1035063D01*
X1345500Y1036204D01*
X1345768Y1037550D01*
Y1038100D01*
D02*
G37*
G36*
X1337500D02*
X1333232D01*
Y1037550D01*
X1333500Y1036204D01*
X1334263Y1035063D01*
X1335404Y1034300D01*
X1336750Y1034033D01*
X1337500D01*
Y1038100D01*
D02*
G37*
G36*
X1562250Y1037218D02*
X1561500D01*
Y1033150D01*
X1565768D01*
Y1033700D01*
X1565500Y1035046D01*
X1564737Y1036187D01*
X1563596Y1036950D01*
X1562250Y1037218D01*
D02*
G37*
G36*
X1557500D02*
X1556750D01*
X1555404Y1036950D01*
X1554263Y1036187D01*
X1553500Y1035046D01*
X1553232Y1033700D01*
Y1033150D01*
X1557500D01*
Y1037218D01*
D02*
G37*
G36*
X1543968Y1036500D02*
X1539900D01*
Y1032232D01*
X1540450D01*
X1541796Y1032500D01*
X1542937Y1033263D01*
X1543700Y1034404D01*
X1543968Y1035750D01*
Y1036500D01*
D02*
G37*
G36*
X1758000Y1091726D02*
X1752883Y1091222D01*
X1752616Y1091141D01*
X1728500D01*
X1727681Y1090978D01*
X1726986Y1090514D01*
X1726522Y1089820D01*
X1726359Y1089000D01*
Y1030000D01*
X1726522Y1029181D01*
X1726986Y1028486D01*
X1727681Y1028022D01*
X1728500Y1027859D01*
X1752615D01*
X1752883Y1027778D01*
X1758000Y1027274D01*
X1763116Y1027778D01*
X1763385Y1027859D01*
X1787500D01*
X1788319Y1028022D01*
X1789014Y1028486D01*
X1789478Y1029181D01*
X1789641Y1030000D01*
Y1089000D01*
X1789478Y1089820D01*
X1789014Y1090514D01*
X1788319Y1090978D01*
X1787500Y1091141D01*
X1763384D01*
X1763116Y1091222D01*
X1758000Y1091726D01*
D02*
G37*
G36*
X1300650Y1025268D02*
X1300100D01*
Y1021000D01*
X1304168D01*
Y1021750D01*
X1303900Y1023096D01*
X1303137Y1024237D01*
X1301996Y1025000D01*
X1300650Y1025268D01*
D02*
G37*
G36*
X1326000Y1029378D02*
Y1019000D01*
X1336595D01*
X1336428Y1020263D01*
X1335169Y1023304D01*
X1333165Y1025915D01*
X1330554Y1027919D01*
X1327513Y1029178D01*
X1326000Y1029378D01*
D02*
G37*
G36*
X1322000D02*
X1320487Y1029178D01*
X1317446Y1027919D01*
X1314835Y1025915D01*
X1312831Y1023304D01*
X1311572Y1020263D01*
X1311405Y1019000D01*
X1322000D01*
Y1029378D01*
D02*
G37*
G36*
X1498100Y1023000D02*
X1494032D01*
Y1022250D01*
X1494300Y1020904D01*
X1495063Y1019763D01*
X1496204Y1019000D01*
X1497550Y1018732D01*
X1498100D01*
Y1023000D01*
D02*
G37*
G36*
X1107550Y1032933D02*
Y1018550D01*
X1121933D01*
X1121811Y1019784D01*
X1120868Y1022895D01*
X1119336Y1025761D01*
X1117274Y1028274D01*
X1114761Y1030336D01*
X1111895Y1031868D01*
X1108784Y1032811D01*
X1107550Y1032933D01*
D02*
G37*
G36*
X1075050Y1055540D02*
X1071404Y1055181D01*
X1067898Y1054117D01*
X1064666Y1052390D01*
X1061834Y1050066D01*
X1059510Y1047234D01*
X1057783Y1044002D01*
X1056719Y1040496D01*
X1056360Y1036850D01*
X1056719Y1033204D01*
X1057783Y1029698D01*
X1059510Y1026466D01*
X1061834Y1023634D01*
X1064666Y1021310D01*
X1067898Y1019583D01*
X1071404Y1018519D01*
X1075050Y1018160D01*
X1078696Y1018519D01*
X1082202Y1019583D01*
X1085434Y1021310D01*
X1088266Y1023634D01*
X1088368Y1023758D01*
X1090232Y1022895D01*
X1089289Y1019784D01*
X1089167Y1018550D01*
X1103550D01*
Y1032933D01*
X1102315Y1032811D01*
X1099205Y1031868D01*
X1096339Y1030336D01*
X1093826Y1028274D01*
X1092294Y1029655D01*
X1092317Y1029698D01*
X1093381Y1033204D01*
X1093740Y1036850D01*
X1093381Y1040496D01*
X1092317Y1044002D01*
X1090590Y1047234D01*
X1088266Y1050066D01*
X1085434Y1052390D01*
X1082202Y1054117D01*
X1078696Y1055181D01*
X1075050Y1055540D01*
D02*
G37*
G36*
X1026050Y1038946D02*
X1023152Y1038564D01*
X1020452Y1037446D01*
X1018133Y1035667D01*
X1016354Y1033348D01*
X1015236Y1030648D01*
X1014854Y1027750D01*
X1015236Y1024852D01*
X1016354Y1022152D01*
X1018133Y1019833D01*
X1020452Y1018054D01*
X1023152Y1016936D01*
X1026050Y1016554D01*
X1028948Y1016936D01*
X1031648Y1018054D01*
X1033967Y1019833D01*
X1035746Y1022152D01*
X1036864Y1024852D01*
X1037246Y1027750D01*
X1036864Y1030648D01*
X1035746Y1033348D01*
X1033967Y1035667D01*
X1031648Y1037446D01*
X1028948Y1038564D01*
X1026050Y1038946D01*
D02*
G37*
G36*
X1528750Y1074641D02*
X1508750Y1074641D01*
X1507931Y1074478D01*
X1507236Y1074014D01*
X1503736Y1070514D01*
X1503272Y1069819D01*
X1503109Y1069000D01*
Y1046817D01*
X1502819Y1045523D01*
X1502100Y1045158D01*
Y1038500D01*
X1500100D01*
Y1036500D01*
X1494032D01*
Y1035750D01*
X1494300Y1034404D01*
X1495063Y1033263D01*
X1495580Y1032917D01*
X1495653Y1032694D01*
Y1030806D01*
X1495580Y1030583D01*
X1495063Y1030237D01*
X1494300Y1029096D01*
X1494032Y1027750D01*
Y1027000D01*
X1500100D01*
Y1025000D01*
X1502100D01*
Y1018613D01*
X1503137Y1017754D01*
X1503219Y1017659D01*
X1503677Y1016796D01*
X1503658Y1016701D01*
X1503685Y1016565D01*
X1503676Y1016428D01*
X1503766Y1016159D01*
X1503821Y1015882D01*
X1503898Y1015767D01*
X1503942Y1015636D01*
X1504128Y1015422D01*
X1504285Y1015187D01*
X1505986Y1013486D01*
X1506680Y1013022D01*
X1507500Y1012859D01*
X1517223Y1012859D01*
X1517430Y1012900D01*
X1517641D01*
X1517836Y1012981D01*
X1518043Y1013022D01*
X1518218Y1013139D01*
X1518413Y1013220D01*
X1518611Y1013352D01*
X1520418Y1013712D01*
X1520516Y1013752D01*
X1520621Y1013763D01*
X1520899Y1013911D01*
X1521190Y1014031D01*
X1521265Y1014107D01*
X1521358Y1014156D01*
X1522108Y1014772D01*
X1522176Y1014854D01*
X1522244Y1014900D01*
X1533050D01*
X1534850Y1014900D01*
X1536950Y1014900D01*
X1548350D01*
Y1017310D01*
X1556198D01*
X1556750Y1017200D01*
X1562250D01*
X1563245Y1017398D01*
X1563637Y1017660D01*
X1567573D01*
X1567936Y1017186D01*
X1569419Y1016048D01*
X1571147Y1015333D01*
X1573000Y1015089D01*
X1574854Y1015333D01*
X1576581Y1016048D01*
X1578064Y1017186D01*
X1578351Y1017560D01*
X1582150D01*
X1582436Y1017186D01*
X1583919Y1016048D01*
X1585647Y1015333D01*
X1587500Y1015089D01*
X1589353Y1015333D01*
X1591081Y1016048D01*
X1592564Y1017186D01*
X1592850Y1017560D01*
X1595900D01*
X1596186Y1017186D01*
X1597669Y1016048D01*
X1599397Y1015333D01*
X1601250Y1015089D01*
X1603103Y1015333D01*
X1604831Y1016048D01*
X1606314Y1017186D01*
X1607452Y1018669D01*
X1608167Y1020396D01*
X1608411Y1022250D01*
X1608167Y1024103D01*
X1607452Y1025831D01*
X1606314Y1027314D01*
X1604831Y1028452D01*
X1603103Y1029167D01*
X1601250Y1029411D01*
X1599397Y1029167D01*
X1597669Y1028452D01*
X1596186Y1027314D01*
X1595900Y1026940D01*
X1592850D01*
X1592564Y1027314D01*
X1591081Y1028452D01*
X1589353Y1029167D01*
X1587500Y1029411D01*
X1585647Y1029167D01*
X1583919Y1028452D01*
X1582436Y1027314D01*
X1582150Y1026940D01*
X1578351D01*
X1578064Y1027314D01*
X1576581Y1028452D01*
X1574854Y1029167D01*
X1573000Y1029411D01*
X1571147Y1029167D01*
X1569419Y1028452D01*
X1567936Y1027314D01*
X1566075Y1028338D01*
X1565768Y1028600D01*
Y1029150D01*
X1553232D01*
Y1028600D01*
X1551543Y1026690D01*
X1548350D01*
Y1029100D01*
X1536769D01*
X1534915Y1030852D01*
X1535350Y1032232D01*
X1535900D01*
Y1038500D01*
Y1044987D01*
X1535690Y1045146D01*
X1535258Y1045625D01*
X1534824Y1046251D01*
X1534641Y1046768D01*
X1534641Y1068750D01*
X1534478Y1069569D01*
X1534014Y1070264D01*
X1530264Y1074014D01*
X1529569Y1074478D01*
X1528750Y1074641D01*
D02*
G37*
G36*
X1304168Y1017000D02*
X1300100D01*
Y1012732D01*
X1300650D01*
X1301996Y1013000D01*
X1303137Y1013763D01*
X1303900Y1014904D01*
X1304168Y1016250D01*
Y1017000D01*
D02*
G37*
G36*
X1202000Y1049695D02*
X1198158Y1049316D01*
X1194463Y1048196D01*
X1191058Y1046376D01*
X1188074Y1043926D01*
X1185624Y1040942D01*
X1183804Y1037537D01*
X1182684Y1033842D01*
X1182305Y1030000D01*
X1182684Y1026158D01*
X1183804Y1022463D01*
X1185624Y1019058D01*
X1188074Y1016074D01*
X1191058Y1013624D01*
X1194463Y1011804D01*
X1198158Y1010684D01*
X1202000Y1010305D01*
X1205842Y1010684D01*
X1209537Y1011804D01*
X1212942Y1013624D01*
X1215926Y1016074D01*
X1218376Y1019058D01*
X1220196Y1022463D01*
X1221316Y1026158D01*
X1221695Y1030000D01*
X1221316Y1033842D01*
X1220196Y1037537D01*
X1218376Y1040942D01*
X1215926Y1043926D01*
X1212942Y1046376D01*
X1209537Y1048196D01*
X1205842Y1049316D01*
X1202000Y1049695D01*
D02*
G37*
%LPD*%
G36*
X1558601Y1458600D02*
Y1455400D01*
X1558795Y1454425D01*
X1559246Y1453750D01*
X1558795Y1453076D01*
X1558601Y1452100D01*
Y1448900D01*
X1556938Y1447212D01*
X1545773D01*
X1544000Y1448000D01*
Y1452750D01*
X1538000D01*
Y1456750D01*
X1544000D01*
Y1460288D01*
X1556938D01*
X1558601Y1458600D01*
D02*
G37*
G36*
X1518900Y1446710D02*
Y1437400D01*
X1529100D01*
Y1440788D01*
X1532900D01*
Y1437400D01*
X1543100D01*
Y1440788D01*
X1555878D01*
X1557256Y1439500D01*
X1567500D01*
X1577237D01*
X1577053Y1440427D01*
X1576301Y1441551D01*
X1576239Y1441593D01*
X1576399Y1442400D01*
Y1445600D01*
X1577363Y1446579D01*
X1579871Y1446587D01*
X1595288Y1431170D01*
Y1387379D01*
X1594379Y1386849D01*
X1593243Y1386660D01*
X1593109Y1386859D01*
X1591224Y1388119D01*
X1590033Y1388356D01*
X1589510Y1390601D01*
X1589560Y1390640D01*
X1591259Y1392854D01*
X1592327Y1395433D01*
X1592691Y1398200D01*
X1592327Y1400967D01*
X1591259Y1403546D01*
X1589560Y1405760D01*
X1587346Y1407459D01*
X1584767Y1408527D01*
X1582000Y1408891D01*
X1579233Y1408527D01*
X1576654Y1407459D01*
X1574440Y1405760D01*
X1572741Y1403546D01*
X1571673Y1400967D01*
X1571309Y1398200D01*
X1571673Y1395433D01*
X1572741Y1392854D01*
X1574440Y1390640D01*
X1576654Y1388941D01*
X1579233Y1387873D01*
X1582000Y1387509D01*
X1582876Y1387624D01*
X1584093Y1385666D01*
X1583631Y1384974D01*
X1583188Y1382750D01*
X1583399Y1381691D01*
X1571670Y1369962D01*
X1481500D01*
X1480271Y1369717D01*
X1479229Y1369021D01*
X1478765Y1368557D01*
X1477073Y1369374D01*
X1476799Y1369561D01*
X1476369Y1371724D01*
X1475110Y1373609D01*
X1473224Y1374869D01*
X1471000Y1375312D01*
X1468776Y1374869D01*
X1466891Y1373609D01*
X1465631Y1371724D01*
X1465188Y1369500D01*
X1465631Y1367276D01*
X1464484Y1365212D01*
X1435607D01*
X1435038Y1366335D01*
X1434794Y1367312D01*
X1435403Y1368223D01*
X1435667Y1369550D01*
Y1379950D01*
X1437484Y1381579D01*
X1473250D01*
X1474655Y1381859D01*
X1475845Y1382655D01*
X1497095Y1403905D01*
X1497891Y1405095D01*
X1498170Y1406500D01*
Y1412094D01*
X1500271Y1412512D01*
X1500548Y1411841D01*
X1501686Y1410358D01*
X1503169Y1409220D01*
X1504897Y1408505D01*
X1506750Y1408261D01*
X1508604Y1408505D01*
X1510331Y1409220D01*
X1511814Y1410358D01*
X1512952Y1411841D01*
X1513667Y1413568D01*
X1513685Y1413700D01*
X1514650Y1415400D01*
X1536850D01*
Y1419710D01*
X1539902D01*
X1541732Y1418150D01*
Y1417600D01*
X1554268D01*
Y1418150D01*
X1554152Y1418730D01*
X1554927Y1419990D01*
X1556840Y1420418D01*
X1558601Y1419106D01*
Y1416400D01*
X1558795Y1415425D01*
X1559348Y1414598D01*
X1560175Y1414045D01*
X1561150Y1413851D01*
X1573850D01*
X1574825Y1414045D01*
X1575652Y1414598D01*
X1576205Y1415425D01*
X1576399Y1416400D01*
Y1419600D01*
X1576205Y1420575D01*
X1575754Y1421250D01*
X1576205Y1421925D01*
X1576399Y1422900D01*
Y1426100D01*
X1576205Y1427076D01*
X1575754Y1427750D01*
X1576205Y1428425D01*
X1576399Y1429400D01*
Y1432600D01*
X1576239Y1433407D01*
X1576301Y1433449D01*
X1577053Y1434573D01*
X1577237Y1435500D01*
X1567500D01*
X1557763D01*
X1557947Y1434573D01*
X1558699Y1433449D01*
X1558761Y1433407D01*
X1558601Y1432600D01*
Y1429400D01*
X1556704Y1428170D01*
X1553001D01*
X1552588Y1428788D01*
X1551745Y1429352D01*
X1550750Y1429550D01*
X1545250D01*
X1544255Y1429352D01*
X1543863Y1429090D01*
X1536850D01*
Y1432600D01*
X1515171D01*
X1514934Y1432733D01*
X1513517Y1434231D01*
X1513671Y1435000D01*
Y1444450D01*
X1516800Y1447580D01*
X1518900Y1446710D01*
D02*
G37*
%LPC*%
G36*
X1554268Y1413600D02*
X1550000D01*
Y1409532D01*
X1550750D01*
X1552096Y1409800D01*
X1553237Y1410563D01*
X1554000Y1411704D01*
X1554268Y1413050D01*
Y1413600D01*
D02*
G37*
G36*
X1546000D02*
X1541732D01*
Y1413050D01*
X1542000Y1411704D01*
X1542763Y1410563D01*
X1543904Y1409800D01*
X1545250Y1409532D01*
X1546000D01*
Y1413600D01*
D02*
G37*
G36*
X1537750Y1404500D02*
X1527750D01*
Y1397000D01*
X1537750D01*
Y1404500D01*
D02*
G37*
G36*
X1523750D02*
X1513750D01*
Y1397000D01*
X1523750D01*
Y1404500D01*
D02*
G37*
G36*
X1537750Y1393000D02*
X1527750D01*
Y1385500D01*
X1537750D01*
Y1393000D01*
D02*
G37*
G36*
X1523750D02*
X1513750D01*
Y1385500D01*
X1523750D01*
Y1393000D01*
D02*
G37*
%LPD*%
G36*
X1422900Y1157650D02*
Y1157650D01*
X1437038D01*
Y1154959D01*
X1436140Y1154360D01*
X1434881Y1152474D01*
X1434438Y1150250D01*
X1434881Y1148026D01*
X1436140Y1146141D01*
X1437038Y1145541D01*
Y1143250D01*
X1422900D01*
Y1141362D01*
X1417346D01*
X1415929Y1143255D01*
X1416277Y1144339D01*
X1416869Y1145226D01*
X1417312Y1147450D01*
X1416869Y1149674D01*
X1415609Y1151560D01*
X1416219Y1153678D01*
X1420800Y1158258D01*
X1422900Y1157650D01*
D02*
G37*
G36*
X1532500Y1068750D02*
X1532500Y1046516D01*
X1531100Y1045350D01*
Y1038500D01*
Y1030238D01*
X1531177Y1030132D01*
X1531133Y1030000D01*
X1530250D01*
Y1022000D01*
X1528250D01*
Y1020000D01*
X1520750D01*
Y1016427D01*
X1520000Y1015812D01*
X1517776Y1015369D01*
X1517223Y1015000D01*
X1507500Y1015000D01*
X1505799Y1016701D01*
X1506098Y1017804D01*
X1506738Y1018732D01*
X1506900D01*
Y1025000D01*
X1508900D01*
Y1027000D01*
X1514968D01*
Y1027750D01*
X1514700Y1029096D01*
X1513937Y1030237D01*
X1513419Y1030583D01*
X1513347Y1030806D01*
Y1032694D01*
X1513419Y1032917D01*
X1513937Y1033263D01*
X1514700Y1034404D01*
X1514968Y1035750D01*
Y1036500D01*
X1508900D01*
Y1038500D01*
X1506900D01*
Y1044768D01*
X1506350D01*
X1505250Y1045670D01*
Y1069000D01*
X1508750Y1072500D01*
X1528750Y1072500D01*
X1532500Y1068750D01*
D02*
G37*
%LPC*%
G36*
X1511450Y1044768D02*
X1510900D01*
Y1040500D01*
X1514968D01*
Y1041250D01*
X1514700Y1042596D01*
X1513937Y1043737D01*
X1512796Y1044500D01*
X1511450Y1044768D01*
D02*
G37*
G36*
X1527100D02*
X1526550D01*
X1525204Y1044500D01*
X1524063Y1043737D01*
X1523300Y1042596D01*
X1523032Y1041250D01*
Y1040500D01*
X1527100D01*
Y1044768D01*
D02*
G37*
G36*
Y1036500D02*
X1523032D01*
Y1035750D01*
X1523300Y1034404D01*
X1524063Y1033263D01*
X1525204Y1032500D01*
X1526550Y1032232D01*
X1527100D01*
Y1036500D01*
D02*
G37*
G36*
X1526250Y1030000D02*
X1520750D01*
Y1024000D01*
X1526250D01*
Y1030000D01*
D02*
G37*
G36*
X1514968Y1023000D02*
X1510900D01*
Y1018732D01*
X1511450D01*
X1512796Y1019000D01*
X1513937Y1019763D01*
X1514700Y1020904D01*
X1514968Y1022250D01*
Y1023000D01*
D02*
G37*
%LPD*%
G54D10*
X1940325Y1500142D02*
X2174005D01*
Y1524272D01*
X1940325D02*
X2174005D01*
X1940325Y1500142D02*
Y1524272D01*
X1940325Y1115338D02*
X2174005D01*
X1940325Y1091208D02*
Y1115338D01*
Y1091208D02*
X2174005D01*
Y1115338D01*
G54D13*
X2009751Y1517158D02*
Y1507000D01*
X2006365Y1517158D02*
X2013137D01*
X2017249D02*
X2016281Y1516674D01*
X2015314Y1515707D01*
X2014830Y1514739D01*
X2014346Y1513288D01*
Y1510870D01*
X2014830Y1509418D01*
X2015314Y1508451D01*
X2016281Y1507484D01*
X2017249Y1507000D01*
X2019184D01*
X2020151Y1507484D01*
X2021118Y1508451D01*
X2021602Y1509418D01*
X2022086Y1510870D01*
Y1513288D01*
X2021602Y1514739D01*
X2021118Y1515707D01*
X2020151Y1516674D01*
X2019184Y1517158D01*
X2017249D01*
X2024456Y1511837D02*
X2028809D01*
X2030260Y1512321D01*
X2030744Y1512805D01*
X2031228Y1513772D01*
Y1515223D01*
X2030744Y1516190D01*
X2030260Y1516674D01*
X2028809Y1517158D01*
X2024456D01*
Y1507000D01*
X2041482Y1517158D02*
Y1507000D01*
X2047287D01*
X2056139D02*
X2052269Y1517158D01*
X2048399Y1507000D01*
X2049850Y1510386D02*
X2054688D01*
X2058509Y1517158D02*
X2062379Y1512321D01*
Y1507000D01*
X2066248Y1517158D02*
X2062379Y1512321D01*
X2073842Y1517158D02*
X2067554D01*
Y1507000D01*
X2073842D01*
X2067554Y1512321D02*
X2071424D01*
X2075535Y1517158D02*
Y1507000D01*
Y1517158D02*
X2079889D01*
X2081340Y1516674D01*
X2081823Y1516190D01*
X2082307Y1515223D01*
Y1514256D01*
X2081823Y1513288D01*
X2081340Y1512805D01*
X2079889Y1512321D01*
X2075535D01*
X2078921D02*
X2082307Y1507000D01*
X2006365Y1108224D02*
Y1098066D01*
Y1108224D02*
X2010235Y1098066D01*
X2014105Y1108224D02*
X2010235Y1098066D01*
X2014105Y1108224D02*
Y1098066D01*
X2017007Y1108224D02*
Y1100968D01*
X2017491Y1099517D01*
X2018458Y1098550D01*
X2019909Y1098066D01*
X2020876D01*
X2022328Y1098550D01*
X2023295Y1099517D01*
X2023779Y1100968D01*
Y1108224D01*
X2026584D02*
Y1098066D01*
X2032389D01*
X2036887Y1108224D02*
Y1098066D01*
X2033501Y1108224D02*
X2040273D01*
X2041482D02*
Y1098066D01*
X2043611Y1108224D02*
Y1098066D01*
X2049415D01*
X2058267D02*
X2054397Y1108224D01*
X2050528Y1098066D01*
X2051979Y1101452D02*
X2056816D01*
X2060637Y1108224D02*
X2064507Y1103387D01*
Y1098066D01*
X2068376Y1108224D02*
X2064507Y1103387D01*
X2075971Y1108224D02*
X2069682D01*
Y1098066D01*
X2075971D01*
X2069682Y1103387D02*
X2073552D01*
X2077664Y1108224D02*
Y1098066D01*
Y1108224D02*
X2082017D01*
X2083468Y1107740D01*
X2083952Y1107256D01*
X2084435Y1106289D01*
Y1105322D01*
X2083952Y1104354D01*
X2083468Y1103870D01*
X2082017Y1103387D01*
X2077664D01*
X2081049D02*
X2084435Y1098066D01*
G54D14*
X1964455Y1512207D02*
D03*
Y1103273D02*
D03*
G54D15*
X1407250Y1375500D02*
D03*
X1395750D02*
D03*
X1400250Y1429250D02*
D03*
X1411750D02*
D03*
X1440250Y1138150D02*
D03*
X1428750D02*
D03*
X1440250Y1162750D02*
D03*
X1428750D02*
D03*
X1659750Y1412000D02*
D03*
X1671250D02*
D03*
X1196350Y1062800D02*
D03*
X1207850D02*
D03*
X1037750Y1312500D02*
D03*
X1049250D02*
D03*
X1404000Y1257000D02*
D03*
X1415500D02*
D03*
X1440250Y1114500D02*
D03*
X1428750D02*
D03*
X1440250Y1094500D02*
D03*
X1428750D02*
D03*
X1440250Y1074500D02*
D03*
X1428750D02*
D03*
X1388500Y1053000D02*
D03*
X1400000D02*
D03*
X1388500Y1067250D02*
D03*
X1400000D02*
D03*
X1360250Y1247500D02*
D03*
X1348750D02*
D03*
X1360250Y1233750D02*
D03*
X1348750D02*
D03*
X1360250Y1220000D02*
D03*
X1348750D02*
D03*
X1404000Y1207000D02*
D03*
X1415500D02*
D03*
X1218000Y1378750D02*
D03*
X1206500D02*
D03*
X1223750Y1350750D02*
D03*
X1212250D02*
D03*
X1143250Y1297000D02*
D03*
X1131750D02*
D03*
X1097750Y1258500D02*
D03*
X1109250D02*
D03*
X1097750Y1245250D02*
D03*
X1109250D02*
D03*
X1047250Y1189000D02*
D03*
X1058750D02*
D03*
X1403750Y1313500D02*
D03*
X1415250D02*
D03*
G54D16*
X1525750Y1395000D02*
D03*
Y1424000D02*
D03*
X1359750Y1074750D02*
D03*
Y1045750D02*
D03*
X1367900Y1266200D02*
D03*
Y1295200D02*
D03*
X1198250Y1086750D02*
D03*
Y1115750D02*
D03*
G54D17*
X1548000Y1424400D02*
D03*
Y1415600D02*
D03*
X1559500Y1022350D02*
D03*
Y1031150D02*
D03*
X1339500Y1048900D02*
D03*
Y1040100D02*
D03*
X1339500Y1062100D02*
D03*
Y1070900D02*
D03*
X1348100Y1261800D02*
D03*
Y1270600D02*
D03*
X1336250Y1307100D02*
D03*
Y1315900D02*
D03*
X1217250Y1098100D02*
D03*
Y1106900D02*
D03*
X1657250Y1227150D02*
D03*
Y1218350D02*
D03*
X1606000Y1227150D02*
D03*
Y1218350D02*
D03*
X1631750Y1227150D02*
D03*
Y1218350D02*
D03*
G54D18*
X1625000Y1476500D02*
D03*
Y1470000D02*
D03*
Y1463500D02*
D03*
Y1457000D02*
D03*
Y1450500D02*
D03*
Y1444000D02*
D03*
Y1437500D02*
D03*
Y1431000D02*
D03*
Y1424500D02*
D03*
Y1418000D02*
D03*
X1567500D02*
D03*
Y1424500D02*
D03*
Y1431000D02*
D03*
Y1437500D02*
D03*
Y1444000D02*
D03*
Y1450500D02*
D03*
Y1457000D02*
D03*
Y1463500D02*
D03*
Y1470000D02*
D03*
Y1476500D02*
D03*
G54D19*
X1708500Y1439000D02*
D03*
X1659500D02*
D03*
X1708500Y1472000D02*
D03*
X1659500D02*
D03*
G54D20*
X1717250Y1411750D02*
D03*
X1708450D02*
D03*
X1529100Y1038500D02*
D03*
X1537900D02*
D03*
X1508900Y1025000D02*
D03*
X1500100D02*
D03*
X1508900Y1038500D02*
D03*
X1500100D02*
D03*
X1350400Y1158700D02*
D03*
X1359200D02*
D03*
X1298100Y1019000D02*
D03*
X1289300D02*
D03*
X1216900Y1148500D02*
D03*
X1208100D02*
D03*
X1216900Y1134000D02*
D03*
X1208100D02*
D03*
X1189400Y1275250D02*
D03*
X1180600D02*
D03*
X1657100Y1372750D02*
D03*
X1665900D02*
D03*
X1525650Y1299250D02*
D03*
X1516850D02*
D03*
G54D21*
X1538000Y1454750D02*
D03*
Y1443250D02*
D03*
X1524000D02*
D03*
Y1454750D02*
D03*
X1448000Y1260000D02*
D03*
Y1248500D02*
D03*
X1500000Y1260000D02*
D03*
Y1248500D02*
D03*
X1513000Y1260000D02*
D03*
Y1248500D02*
D03*
X1474000Y1260000D02*
D03*
Y1248500D02*
D03*
X1487000Y1260000D02*
D03*
Y1248500D02*
D03*
X1461000Y1260000D02*
D03*
Y1248500D02*
D03*
X1437750Y1450750D02*
D03*
Y1462250D02*
D03*
X1337750Y1365500D02*
D03*
Y1377000D02*
D03*
X1414000Y1462250D02*
D03*
Y1450750D02*
D03*
X1397000Y1462250D02*
D03*
Y1450750D02*
D03*
G54D22*
X1427000Y1374750D02*
D03*
Y1410750D02*
D03*
G54D23*
X1368750Y1410750D02*
D03*
X1404750D02*
D03*
G54D24*
X1375750Y1375750D02*
D03*
X1352750Y1366250D02*
D03*
Y1385250D02*
D03*
G54D25*
X1331250Y1485000D02*
D03*
X1318250D02*
D03*
G54D26*
X1307000Y1414100D02*
D03*
Y1432900D02*
D03*
G54D27*
X1437750Y1489350D02*
D03*
Y1480150D02*
D03*
G54D28*
X1237000Y1298500D02*
D03*
X1319000Y1294500D02*
D03*
X1237000Y1290500D02*
D03*
X1319000Y1286500D02*
D03*
X1237000Y1282500D02*
D03*
X1319000Y1278500D02*
D03*
X1237000Y1274500D02*
D03*
X1319000Y1270500D02*
D03*
X1237000Y1266500D02*
D03*
X1319000Y1262500D02*
D03*
X1237000Y1258500D02*
D03*
X1319000Y1254500D02*
D03*
X1237000Y1250500D02*
D03*
X1319000Y1246500D02*
D03*
X1237000Y1242500D02*
D03*
X1319000Y1238500D02*
D03*
X1237000Y1202500D02*
D03*
X1319000Y1198500D02*
D03*
X1237000Y1194500D02*
D03*
X1319000Y1190500D02*
D03*
X1237000Y1186500D02*
D03*
X1319000Y1182500D02*
D03*
X1237000Y1178500D02*
D03*
X1319000Y1174500D02*
D03*
X1237000Y1170500D02*
D03*
X1319000Y1166500D02*
D03*
X1237000Y1162500D02*
D03*
X1319000Y1158500D02*
D03*
X1237000Y1154500D02*
D03*
X1319000Y1150500D02*
D03*
X1237000Y1146500D02*
D03*
X1319000Y1142500D02*
D03*
X1237000Y1138500D02*
D03*
X1319000Y1134500D02*
D03*
X1237000Y1130500D02*
D03*
X1319000Y1126500D02*
D03*
X1237000Y1122500D02*
D03*
X1319000Y1118500D02*
D03*
X1237000Y1114500D02*
D03*
X1319000Y1110500D02*
D03*
X1237000Y1106500D02*
D03*
X1319000Y1102500D02*
D03*
X1237000Y1098500D02*
D03*
X1319000Y1094500D02*
D03*
X1237000Y1090500D02*
D03*
X1319000Y1086500D02*
D03*
X1237000Y1082500D02*
D03*
X1319000Y1078500D02*
D03*
X1237000Y1074500D02*
D03*
X1319000Y1070500D02*
D03*
X1237000Y1066500D02*
D03*
X1319000Y1062500D02*
D03*
G54D29*
X1243000Y1327000D02*
D03*
G54D30*
Y1034000D02*
D03*
G54D31*
X1490000Y1487750D02*
D03*
Y1446250D02*
D03*
G54D32*
X1541750Y1022000D02*
D03*
X1528250D02*
D03*
G54D33*
X1391500Y1285250D02*
D03*
Y1275750D02*
D03*
Y1294750D02*
D03*
X1415500Y1285250D02*
D03*
Y1275750D02*
D03*
Y1294750D02*
D03*
G54D34*
X1347000Y1430750D02*
D03*
X1328000D02*
D03*
X1337500Y1407750D02*
D03*
G54D35*
X1264250Y1388000D02*
D03*
G54D36*
X1245200Y1361000D02*
D03*
X1257900D02*
D03*
X1270600D02*
D03*
X1283300D02*
D03*
Y1415000D02*
D03*
X1270600D02*
D03*
X1257900D02*
D03*
X1245200D02*
D03*
G54D37*
X1192000D02*
D03*
X1221000D02*
D03*
X1383750Y1321500D02*
D03*
X1354750D02*
D03*
G54D38*
X1125500Y1258300D02*
D03*
Y1245600D02*
D03*
Y1232900D02*
D03*
Y1220200D02*
D03*
X1180500D02*
D03*
Y1232900D02*
D03*
Y1245600D02*
D03*
Y1258300D02*
D03*
G54D39*
X1077100Y1284000D02*
D03*
Y1276000D02*
D03*
Y1228000D02*
D03*
Y1220000D02*
D03*
G54D40*
Y1269500D02*
D03*
Y1264500D02*
D03*
Y1259500D02*
D03*
Y1254500D02*
D03*
Y1249500D02*
D03*
Y1244500D02*
D03*
Y1239500D02*
D03*
Y1234500D02*
D03*
G54D75*
X1253000Y1469250D02*
D03*
G54D76*
X1228000D02*
D03*
G54D85*
X1359071Y1045750D02*
Y1054429D01*
X1319000Y1062500D02*
X1351000D01*
X1207300Y1106500D02*
X1217250D01*
X1415250Y1313500D02*
X1415368Y1313382D01*
X1422368D01*
X1427250Y1308500D01*
Y1294250D02*
Y1308500D01*
Y1288500D02*
Y1294250D01*
X1415500Y1285250D02*
X1424000D01*
X1427250Y1288500D01*
X1329731Y1039481D02*
X1329800Y1039550D01*
X1199500Y1114500D02*
X1216900D01*
X1199300D02*
X1199500D01*
X1199300D02*
X1207300Y1106500D01*
X1292500Y1294500D02*
X1292500Y1294500D01*
X1368350Y1294750D02*
X1391500D01*
X1367900Y1295200D02*
X1368350Y1294750D01*
X1319000Y1158500D02*
X1350200D01*
X1350400Y1158700D01*
X1218250Y1114500D02*
X1237000D01*
X1216900Y1115850D02*
X1218250Y1114500D01*
X1237000Y1106500D02*
X1267157D01*
X1237000Y1114500D02*
X1267157D01*
X1339500Y1048900D02*
Y1062100D01*
Y1048900D02*
X1339500Y1048900D01*
X1351000Y1062500D02*
X1359071Y1054429D01*
Y1045750D02*
X1359750D01*
X1302000Y1058750D02*
X1305750Y1062500D01*
X1319000D01*
X1302000Y1052000D02*
Y1058750D01*
X1267157Y1106500D02*
X1271657Y1102000D01*
X1267157Y1114500D02*
X1270907Y1118250D01*
X1336250Y1325250D02*
X1336500Y1325500D01*
X1216900Y1134000D02*
Y1148500D01*
Y1115850D02*
Y1134000D01*
X1198250Y1115750D02*
X1199500Y1114500D01*
X1217250Y1106900D02*
X1217650Y1106500D01*
X1237000D01*
X1297484Y1259301D02*
X1307734Y1269550D01*
X1297484Y1239016D02*
Y1259301D01*
X1318050Y1269550D02*
X1319000Y1270500D01*
X1307734Y1269550D02*
X1318050D01*
X1283250Y1345356D02*
X1283300Y1345406D01*
X1283250Y1345250D02*
Y1345356D01*
X1283300Y1345406D02*
Y1361000D01*
X1245000Y1439250D02*
Y1439750D01*
X1245200Y1439950D01*
X1234500Y1415250D02*
X1244950D01*
G54D86*
X1271657Y1102000D02*
X1272500Y1102843D01*
X1294500Y1174500D02*
X1319000D01*
X1272500Y1152500D02*
X1294500Y1174500D01*
X1337750Y1365500D02*
X1352000D01*
X1352750Y1366250D01*
X1327000Y1365500D02*
X1337750D01*
X1307000Y1385500D02*
X1327000Y1365500D01*
X1307000Y1385500D02*
Y1414100D01*
X1283300Y1415000D02*
X1306100D01*
X1307000Y1414100D01*
X1337750Y1385500D02*
Y1407500D01*
Y1377000D02*
Y1385500D01*
X1352500D02*
X1352750Y1385250D01*
X1337750Y1385500D02*
X1352500D01*
X1337500Y1407750D02*
X1365750D01*
X1368750Y1410750D01*
X1337500Y1407750D02*
X1337750Y1407500D01*
X1283300Y1415000D02*
Y1438950D01*
X1253000Y1469250D02*
X1283300Y1438950D01*
X1516850Y1283400D02*
X1523500Y1276750D01*
X1516850Y1283400D02*
Y1299250D01*
X1523500Y1253250D02*
Y1276750D01*
X1513000Y1248500D02*
X1518750D01*
X1523500Y1253250D01*
X1513000Y1248500D02*
X1513000Y1248500D01*
X1500000Y1248500D02*
X1513000D01*
X1487000D02*
X1500000D01*
X1474000D02*
X1487000D01*
X1461000D02*
X1474000D01*
X1448000D02*
X1461000D01*
X1506750Y1415422D02*
Y1415750D01*
X1515000Y1424000D02*
X1525750D01*
X1506750Y1415750D02*
X1515000Y1424000D01*
X1375750Y1366250D02*
Y1375750D01*
X1362500Y1353000D02*
X1375750Y1366250D01*
X1331250Y1353000D02*
X1362500D01*
X1526150Y1424400D02*
X1548000D01*
X1368000Y1478291D02*
Y1490000D01*
X1342250D02*
X1368000D01*
X1337250Y1485000D02*
X1342250Y1490000D01*
X1331250Y1485000D02*
X1337250D01*
X1425850Y1489350D02*
X1437750D01*
X1425500Y1489000D02*
X1425850Y1489350D01*
X1361000Y1433750D02*
X1371750D01*
X1318000Y1353000D02*
X1331250D01*
X1143250Y1297000D02*
X1156750D01*
X1171750Y1312000D01*
X1354550Y1261800D02*
X1357137Y1264387D01*
X1348100Y1261800D02*
X1354550D01*
X1357137Y1264387D02*
X1366087D01*
X1367900Y1266200D01*
X1339500Y1070900D02*
X1355900D01*
X1359750Y1074750D01*
X1319000Y1070500D02*
X1339100D01*
X1339500Y1070900D01*
X1301857Y1070500D02*
X1319000D01*
X1299110Y1067753D02*
X1301857Y1070500D01*
X1298515Y1067753D02*
X1299110D01*
X1336750Y1294500D02*
X1354500D01*
X1319000D02*
X1336750D01*
X1336250Y1295000D02*
Y1307100D01*
Y1295000D02*
X1336750Y1294500D01*
X1354500D02*
X1367200D01*
X1354750Y1294750D02*
Y1321500D01*
X1354500Y1294500D02*
X1354750Y1294750D01*
X1367200Y1294500D02*
X1367900Y1295200D01*
X1292500Y1294500D02*
X1319000D01*
X1383825Y1305474D02*
X1383899Y1305399D01*
X1272500Y1102843D02*
Y1118250D01*
Y1152500D01*
X1587500Y1022250D02*
X1601250D01*
X1573000D02*
X1587500D01*
X1559500Y1022350D02*
X1572900D01*
X1573000Y1022250D01*
X1541750Y1022000D02*
X1559150D01*
X1525650Y1299250D02*
X1525900Y1299000D01*
X1506750Y1299250D02*
X1516850D01*
X1171750Y1312000D02*
Y1324750D01*
X1234500Y1402000D02*
Y1414500D01*
X1283250Y1345250D02*
X1295750D01*
X1221000Y1415000D02*
X1234000D01*
G54D87*
X1230750Y1361000D02*
X1245200D01*
X1218000Y1373750D02*
X1230750Y1361000D01*
X1218000Y1373750D02*
Y1378750D01*
X1270600Y1415000D02*
Y1440150D01*
X1620500Y1365000D02*
X1629000D01*
X1598500Y1387000D02*
X1620500Y1365000D01*
X1652680Y1372430D02*
X1657100D01*
X1375750Y1241000D02*
X1521250D01*
X1369250Y1247500D02*
X1375750Y1241000D01*
X1360250Y1247500D02*
X1369250D01*
X1418750Y1249750D02*
X1425750D01*
X1415750Y1252750D02*
X1418750Y1249750D01*
X1415750Y1252750D02*
Y1256750D01*
X1468500Y1326500D02*
X1468750Y1326250D01*
X1214250Y1052250D02*
X1250750D01*
X1207850Y1058650D02*
X1214250Y1052250D01*
X1207850Y1058650D02*
Y1062800D01*
X1250750Y1052250D02*
X1295250Y1096750D01*
X1440250Y1114500D02*
X1576750D01*
X1677000Y1214750D02*
Y1347000D01*
X1576750Y1114500D02*
X1677000Y1214750D01*
X1580500Y1450500D02*
X1598500Y1432500D01*
Y1387000D02*
Y1432500D01*
X1411750Y1429250D02*
X1461750D01*
X1466250Y1433750D01*
X1471250Y1476500D02*
X1567500D01*
X1467500Y1480250D02*
X1471250Y1476500D01*
X1414000Y1462250D02*
X1421750D01*
X1425750Y1444250D02*
Y1458250D01*
X1421750Y1462250D02*
X1425750Y1458250D01*
Y1444250D02*
X1431250Y1438750D01*
X1459500D02*
X1466250Y1445500D01*
X1431250Y1438750D02*
X1459500D01*
X1466250Y1457750D02*
X1472000Y1463500D01*
X1466250Y1445500D02*
Y1457750D01*
X1397000Y1462250D02*
Y1471662D01*
X1395019Y1473643D02*
X1397000Y1471662D01*
X1395019Y1473643D02*
Y1475023D01*
X1472000Y1463500D02*
X1567500D01*
X1462750Y1470000D02*
X1567500D01*
X1392250Y1429250D02*
X1400250D01*
X1387750Y1424750D02*
X1392250Y1429250D01*
X1357750Y1424750D02*
X1387750D01*
X1351750Y1430750D02*
X1357750Y1424750D01*
X1347000Y1430750D02*
X1351750D01*
X1539000Y1444000D02*
X1567500D01*
X1524000D02*
X1539000D01*
X1442500Y1272250D02*
X1456250D01*
X1436250Y1278500D02*
X1442500Y1272250D01*
X1436250Y1278500D02*
Y1285750D01*
X1487000Y1260000D02*
Y1268500D01*
X1475000Y1280500D02*
X1487000Y1268500D01*
X1470000Y1280500D02*
X1475000D01*
X1513000Y1260000D02*
Y1275250D01*
X1491250Y1297000D02*
X1513000Y1275250D01*
X1500000Y1260000D02*
Y1273000D01*
X1484000Y1289000D02*
X1500000Y1273000D01*
X1466000Y1272000D02*
X1469250D01*
X1456000Y1282000D02*
X1466000Y1272000D01*
X1474000Y1260000D02*
Y1267250D01*
X1469250Y1272000D02*
X1474000Y1267250D01*
X1456250Y1272250D02*
X1461000Y1267500D01*
Y1260000D02*
Y1267500D01*
X1403750Y1279750D02*
Y1294750D01*
X1399750Y1275750D02*
X1403750Y1279750D01*
Y1294750D02*
Y1313500D01*
Y1294750D02*
X1415500D01*
X1441250Y1260000D02*
X1448000D01*
X1435750Y1254500D02*
X1441250Y1260000D01*
X1435750Y1249500D02*
Y1254500D01*
X1427000Y1410750D02*
X1466500D01*
X1490000Y1434250D02*
Y1446250D01*
X1466500Y1410750D02*
X1490000Y1434250D01*
X1404750Y1410750D02*
X1427000D01*
X1608000Y1476500D02*
X1615250D01*
X1426250Y1375500D02*
X1427000Y1374750D01*
X1407250Y1375500D02*
X1426250D01*
X1431750Y1362000D02*
X1476750D01*
X1427000Y1366750D02*
X1431750Y1362000D01*
X1427000Y1366750D02*
Y1374750D01*
X1608500Y1476000D02*
X1609000D01*
X1608000Y1476500D02*
X1608500Y1476000D01*
X1481500Y1366750D02*
X1573000D01*
X1476750Y1362000D02*
X1481500Y1366750D01*
X1573000D02*
X1589000Y1382750D01*
X1567500Y1450500D02*
X1580500D01*
X1669750Y1354250D02*
X1677000Y1347000D01*
X1440250Y1094500D02*
Y1114500D01*
Y1074500D02*
Y1094500D01*
X1319000Y1094500D02*
X1428750D01*
X1428750Y1094500D01*
X1423950Y1114500D02*
X1428750D01*
X1411950Y1102500D02*
X1423950Y1114500D01*
X1319000Y1102500D02*
X1411950D01*
X1423950Y1074500D02*
X1428750D01*
X1411950Y1086500D02*
X1423950Y1074500D01*
X1319000Y1086500D02*
X1411950D01*
X1440250Y1150250D02*
Y1162750D01*
Y1138150D02*
Y1150250D01*
X1420750Y1162750D02*
X1428750D01*
X1411500Y1153500D02*
X1420750Y1162750D01*
X1411500Y1147450D02*
Y1153500D01*
Y1138150D02*
X1428750D01*
X1625000Y1396000D02*
Y1418000D01*
X1619000Y1390000D02*
X1625000Y1396000D01*
X1617000Y1406525D02*
Y1406800D01*
X1611750Y1412050D02*
X1617000Y1406800D01*
X1609500Y1390000D02*
X1619000D01*
X1611750Y1412050D02*
Y1421500D01*
X1614750Y1424500D02*
X1625000D01*
X1611750Y1421500D02*
X1614750Y1424500D01*
X1366250Y1138150D02*
X1411500D01*
X1366250Y1147450D02*
X1411500D01*
X1338350Y1118500D02*
X1339000Y1117850D01*
X1659500Y1439000D02*
Y1446000D01*
X1655000Y1450500D02*
X1659500Y1446000D01*
X1625000Y1450500D02*
X1655000D01*
X1659500Y1412250D02*
Y1439000D01*
Y1412250D02*
X1659750Y1412000D01*
X1625000Y1463500D02*
X1732750D01*
X1747500Y1448750D01*
X1521250Y1241000D02*
X1652680Y1372430D01*
X1657100Y1373779D02*
X1657175Y1373854D01*
X1657100Y1372750D02*
Y1373779D01*
X1657175Y1373854D02*
Y1392075D01*
X1656750Y1392500D02*
X1657175Y1392075D01*
X1156622Y1062800D02*
X1196350D01*
X1144622Y1074800D02*
X1156622Y1062800D01*
X1095700Y1074800D02*
X1144622D01*
X1063000Y1107500D02*
X1095700Y1074800D01*
X1042250Y1107500D02*
X1063000D01*
X1180500Y1232900D02*
X1226500D01*
X1236300Y1223100D01*
X1169700Y1245600D02*
X1180500D01*
X1154900Y1230800D02*
X1169700Y1245600D01*
X1154900Y1208200D02*
Y1230800D01*
X1166900Y1196200D02*
X1195700D01*
X1154900Y1208200D02*
X1166900Y1196200D01*
X1244950Y1415250D02*
X1245000Y1415300D01*
X1405750Y1455250D02*
Y1472500D01*
X1401250Y1450750D02*
X1405750Y1455250D01*
X1397000Y1450750D02*
X1401250D01*
X1409750D02*
X1414000D01*
X1405750Y1446750D02*
X1409750Y1450750D01*
X1405750Y1442000D02*
Y1446750D01*
X1257900Y1415000D02*
Y1439350D01*
X1257750Y1439500D02*
X1257900Y1439350D01*
X1270500Y1440250D02*
X1270600Y1440150D01*
X1245000Y1415300D02*
Y1439250D01*
X1180500Y1258300D02*
Y1275150D01*
X1180600Y1275250D01*
X1037750Y1312500D02*
Y1324500D01*
X1042750Y1329500D01*
X1048750Y1312000D02*
X1049250Y1312500D01*
X1048750Y1301000D02*
Y1312000D01*
X1339900Y1270600D02*
X1348100D01*
X1332100Y1278400D02*
X1339900Y1270600D01*
X1319100Y1278400D02*
X1332100D01*
X1319000Y1278500D02*
X1319100Y1278400D01*
X1361000Y1018000D02*
X1381250Y1038250D01*
X1394750D01*
X1400000Y1043500D02*
Y1053000D01*
X1394750Y1038250D02*
X1400000Y1043500D01*
X1396091Y1018050D02*
X1412000Y1033959D01*
Y1062000D01*
X1400000Y1067250D02*
X1406750D01*
X1412000Y1062000D01*
X1375272Y1067250D02*
X1388500D01*
X1375018Y1067503D02*
X1375272Y1067250D01*
X1380000Y1053000D02*
X1388500D01*
X1376500Y1056500D02*
X1380000Y1053000D01*
X1265250Y1269000D02*
X1284000Y1250250D01*
X1265250Y1269000D02*
Y1281500D01*
X1256500Y1207000D02*
X1404000D01*
X1352650Y1113500D02*
X1354500D01*
X1339000Y1127150D02*
X1352650Y1113500D01*
X1338350Y1126500D02*
X1339000Y1127150D01*
X1319000Y1126500D02*
X1338350D01*
X1319000Y1118500D02*
X1338350D01*
X1415500Y1257000D02*
X1415750Y1256750D01*
X1415500Y1207000D02*
X1425531D01*
X1425771Y1206760D01*
X1579500Y1213750D02*
X1593500Y1227750D01*
X1336250Y1213750D02*
X1579500D01*
X1319000Y1231000D02*
X1336250Y1213750D01*
X1391500Y1275750D02*
X1399750D01*
X1415500Y1257000D02*
Y1275750D01*
X1593500Y1227750D02*
Y1228000D01*
X1319000Y1231000D02*
Y1238500D01*
X1635800Y1260000D02*
X1656800Y1239000D01*
X1590250Y1260000D02*
X1635800D01*
X1564000Y1233750D02*
X1590250Y1260000D01*
X1360250Y1233750D02*
X1564000D01*
X1656800Y1239000D02*
X1657250Y1238550D01*
Y1227150D02*
Y1238550D01*
X1631400Y1239000D02*
X1631750Y1238650D01*
Y1227150D02*
Y1238650D01*
X1621095Y1249305D02*
X1631400Y1239000D01*
X1599445Y1249305D02*
X1621095D01*
X1570141Y1220000D02*
X1599445Y1249305D01*
X1360250Y1220000D02*
X1570141D01*
X1329500Y1246500D02*
X1333000Y1243000D01*
Y1230500D02*
Y1243000D01*
Y1230500D02*
X1343500Y1220000D01*
X1332000Y1254500D02*
X1337750Y1248750D01*
Y1239000D02*
Y1248750D01*
Y1239000D02*
X1343250Y1233500D01*
X1334000Y1262500D02*
X1342250Y1254250D01*
Y1249250D02*
Y1254250D01*
Y1249250D02*
X1344000Y1247500D01*
X1319000Y1262500D02*
X1334000D01*
X1319000Y1254500D02*
X1332000D01*
X1343500Y1220000D02*
X1348750D01*
X1348500Y1233500D02*
X1348750Y1233750D01*
X1343250Y1233500D02*
X1348500D01*
X1344000Y1247500D02*
X1348750D01*
X1348750Y1247500D01*
X1319000Y1246500D02*
X1329500D01*
X1606000Y1227150D02*
Y1239000D01*
X1504250Y1322500D02*
Y1323250D01*
X1473750Y1292000D02*
X1504250Y1322500D01*
X1430250Y1343500D02*
X1443500Y1356750D01*
X1524500D01*
X1448250Y1292000D02*
X1473750D01*
X1449000Y1342250D02*
X1470250D01*
X1436000Y1329250D02*
X1449000Y1342250D01*
X1436000Y1320750D02*
Y1329250D01*
X1470000Y1315250D02*
X1481500Y1326750D01*
X1470000Y1302750D02*
Y1315250D01*
X1445500Y1326500D02*
X1468500D01*
X1468750Y1326250D02*
X1469000Y1326500D01*
X1235000Y1350750D02*
X1239000Y1346750D01*
X1223750Y1350750D02*
X1235000D01*
X1257900Y1349900D02*
Y1361000D01*
X1254750Y1346750D02*
X1257900Y1349900D01*
X1239000Y1346750D02*
X1254750D01*
X1047250Y1228250D02*
Y1256500D01*
Y1189000D02*
Y1228250D01*
X1062250D01*
X1055250Y1264500D02*
X1077100D01*
X1047250Y1256500D02*
X1055250Y1264500D01*
X1071000Y1244500D02*
X1077100D01*
X1062011Y1235511D02*
X1071000Y1244500D01*
X1058003Y1235511D02*
X1062011D01*
X1068500Y1234500D02*
X1077100D01*
X1062250Y1228250D02*
X1068500Y1234500D01*
X1069250Y1249500D02*
X1077100D01*
X1063250Y1243500D02*
X1069250Y1249500D01*
X1055500Y1243500D02*
X1063250D01*
X1052750Y1246250D02*
X1055500Y1243500D01*
X1052750Y1246250D02*
Y1255000D01*
X1057250Y1259500D01*
X1077100D01*
X1064000Y1254500D02*
X1077100D01*
X1060250Y1250750D02*
X1064000Y1254500D01*
X1188500Y1150300D02*
Y1157750D01*
X1163950Y1125750D02*
X1188500Y1150300D01*
X1136900Y1232900D02*
X1137000Y1233000D01*
X1109250Y1245250D02*
X1125150D01*
X1125500Y1245600D01*
X1109250Y1258500D02*
X1125300D01*
X1125500Y1258300D01*
X1093750Y1254500D02*
X1097750Y1258500D01*
X1077100Y1254500D02*
X1093750D01*
X1093500Y1249500D02*
X1097750Y1245250D01*
X1077100Y1249500D02*
X1093500D01*
G54D88*
X1202250Y1368750D02*
X1202855Y1369355D01*
G54D89*
X1510000Y1445971D02*
X1516529Y1452500D01*
X1522500D01*
X1524000Y1454000D01*
Y1454750D01*
X1510000Y1435000D02*
Y1445971D01*
X1494500Y1419500D02*
X1510000Y1435000D01*
X1494500Y1406500D02*
Y1419500D01*
X1473250Y1385250D02*
X1494500Y1406500D01*
X1615250Y1476500D02*
X1625000D01*
X1375750Y1375750D02*
X1395500D01*
X1395750Y1375500D01*
X1363500Y1379750D02*
X1369000Y1385250D01*
X1363500Y1370500D02*
Y1379750D01*
X1359250Y1366250D02*
X1363500Y1370500D01*
X1352750Y1366250D02*
X1359250D01*
X1369000Y1385250D02*
X1473250D01*
X1525750Y1424000D02*
X1526150Y1424400D01*
X1548100Y1424500D02*
X1567500D01*
X1548000Y1424400D02*
X1548100Y1424500D01*
X1671500Y1411750D02*
X1689975D01*
X1708450D02*
X1708500Y1411800D01*
X1689975Y1411750D02*
X1708450D01*
X1671250Y1412000D02*
X1671500Y1411750D01*
X1708500Y1411800D02*
Y1439000D01*
X1437750Y1462250D02*
Y1480150D01*
X1383000Y1480250D02*
Y1489250D01*
X1372250Y1469500D02*
X1383000Y1480250D01*
X1336750Y1469500D02*
X1372250D01*
X1297900Y1078500D02*
X1319000D01*
X1289300Y1069900D02*
X1297900Y1078500D01*
X1289300Y1019000D02*
Y1069900D01*
X1559150Y1022000D02*
X1559500Y1022350D01*
X1211250Y1362000D02*
X1211750Y1361500D01*
Y1351250D02*
X1212250Y1350750D01*
G54D90*
X1271750Y1467200D02*
X1284250D01*
G54D91*
X1104500Y1297000D02*
X1131750D01*
X1096000Y1288500D02*
X1104500Y1297000D01*
X1077100Y1228000D02*
X1100000D01*
X1096000Y1276250D02*
Y1288500D01*
X1077100Y1276000D02*
X1095750D01*
X1096000Y1276250D01*
X1100000Y1228000D02*
X1112000D01*
G54D92*
X1165200Y1220200D02*
X1180500D01*
X1165000Y1220000D02*
X1165200Y1220200D01*
G54D93*
X1747500Y1468750D02*
D03*
Y1448750D02*
D03*
G54D94*
Y1428750D02*
D03*
G54D95*
X1702000Y1240200D02*
D03*
G54D96*
X1582000Y1398200D02*
D03*
G54D97*
X1202000Y1030000D02*
D03*
G54D98*
X1758000Y1059500D02*
D03*
Y1305500D02*
D03*
G54D99*
X1278000D02*
D03*
X1161950Y1357550D02*
D03*
X1136550Y1370250D02*
D03*
X1161950Y1382950D02*
D03*
X1136550Y1395650D02*
D03*
X1161950Y1408350D02*
D03*
X1136550Y1421050D02*
D03*
X1161950Y1433750D02*
D03*
X1163950Y1049550D02*
D03*
X1138550Y1062250D02*
D03*
X1163950Y1074950D02*
D03*
X1138550Y1087650D02*
D03*
X1163950Y1100350D02*
D03*
X1138550Y1113050D02*
D03*
X1163950Y1125750D02*
D03*
G54D100*
X1278000Y1055500D02*
D03*
G54D101*
X1396091Y1016950D02*
D03*
X1360000Y1017000D02*
D03*
X1324000D02*
D03*
G54D102*
X1065700Y1280900D02*
D03*
Y1223100D02*
D03*
G54D103*
X1070700Y1208750D02*
D03*
Y1295250D02*
D03*
G54D104*
X1028900Y1208750D02*
D03*
Y1295250D02*
D03*
G54D105*
X1073050Y1344850D02*
D03*
Y1459150D02*
D03*
X1075050Y1036850D02*
D03*
Y1151150D02*
D03*
G54D106*
X1103550Y1324550D02*
D03*
Y1479450D02*
D03*
X1105550Y1016550D02*
D03*
Y1171450D02*
D03*
G54D107*
X1024050Y1335750D02*
D03*
Y1361150D02*
D03*
Y1442850D02*
D03*
Y1468250D02*
D03*
X1026050Y1027750D02*
D03*
Y1053150D02*
D03*
Y1134850D02*
D03*
Y1160250D02*
D03*
G54D108*
X1136550Y1446450D02*
D03*
X1138550Y1138450D02*
D03*
G54D109*
X1629000Y1365000D02*
D03*
X1378750Y1251000D02*
D03*
X1392000D02*
D03*
X1292500Y1435500D02*
D03*
X1306750Y1358250D02*
D03*
X1327000Y1406000D02*
D03*
X1317250Y1396750D02*
D03*
X1326750Y1383250D02*
D03*
X1575750Y1356750D02*
D03*
X1557750Y1356500D02*
D03*
X1606250Y1401000D02*
D03*
X1565000Y1405000D02*
D03*
X1555000Y1385000D02*
D03*
Y1395000D02*
D03*
X1545000D02*
D03*
X1525750Y1377750D02*
D03*
X1545000Y1385000D02*
D03*
X1466250Y1433750D02*
D03*
X1467500Y1480250D02*
D03*
X1462750Y1470000D02*
D03*
X1395019Y1475023D02*
D03*
X1549500Y1455500D02*
D03*
X1491250Y1297000D02*
D03*
X1484000Y1289000D02*
D03*
X1456000Y1282000D02*
D03*
X1470000Y1280500D02*
D03*
X1436250Y1285750D02*
D03*
X1427250Y1294250D02*
D03*
X1435750Y1249500D02*
D03*
X1437021Y1422021D02*
D03*
X1457772Y1394019D02*
D03*
X1458272Y1419521D02*
D03*
X1475773Y1402770D02*
D03*
X1609000Y1476000D02*
D03*
X1589000Y1382750D02*
D03*
X1669750Y1354250D02*
D03*
X1492750Y1339000D02*
D03*
X1372000Y1158750D02*
D03*
X1440250Y1150250D02*
D03*
X1617000Y1406525D02*
D03*
X1411500Y1138150D02*
D03*
X1366250D02*
D03*
X1411500Y1147450D02*
D03*
X1366250D02*
D03*
X1609500Y1390000D02*
D03*
X1689975Y1411750D02*
D03*
X1343000Y1478750D02*
D03*
X1181250Y1076800D02*
D03*
X1236300Y1223100D02*
D03*
X1195700Y1196200D02*
D03*
X1010000Y1010000D02*
D03*
X1477500Y1432750D02*
D03*
X1324000Y1445000D02*
D03*
X1540000Y1490000D02*
D03*
X1515000D02*
D03*
X1565000D02*
D03*
X1450000Y1450000D02*
D03*
Y1470000D02*
D03*
X1470000Y1490000D02*
D03*
X1450000D02*
D03*
X1220000D02*
D03*
X1425500Y1489000D02*
D03*
X1405750Y1442000D02*
D03*
Y1472500D02*
D03*
X1387000Y1439000D02*
D03*
X1199250Y1281000D02*
D03*
X1042750Y1329500D02*
D03*
X1048750Y1301000D02*
D03*
X1042250Y1107500D02*
D03*
X1575000Y1150000D02*
D03*
Y1125000D02*
D03*
Y1175000D02*
D03*
X1550000Y1125000D02*
D03*
Y1150000D02*
D03*
Y1175000D02*
D03*
X1525000Y1125000D02*
D03*
Y1150000D02*
D03*
X1135000Y1175000D02*
D03*
Y1200000D02*
D03*
X1050000Y1050000D02*
D03*
Y1075000D02*
D03*
X1100000Y1100000D02*
D03*
Y1125000D02*
D03*
X1075000Y1075000D02*
D03*
Y1125000D02*
D03*
X1100000Y1400000D02*
D03*
Y1375000D02*
D03*
X1075000D02*
D03*
Y1400000D02*
D03*
X1100000Y1425000D02*
D03*
X1075000D02*
D03*
X1720000Y1285000D02*
D03*
X1450000Y1175000D02*
D03*
X1475000D02*
D03*
X1425000Y1150000D02*
D03*
X1451000D02*
D03*
X1475000D02*
D03*
X1425000Y1125000D02*
D03*
X1450000D02*
D03*
X1625000Y1150000D02*
D03*
X1650000D02*
D03*
X1675000D02*
D03*
X1625000Y1125000D02*
D03*
X1650000D02*
D03*
X1675000D02*
D03*
X1700000Y1200000D02*
D03*
X1725000D02*
D03*
X1750000D02*
D03*
X1700000Y1175000D02*
D03*
X1725000D02*
D03*
X1750000D02*
D03*
X1700000Y1150000D02*
D03*
X1725000D02*
D03*
X1750000D02*
D03*
X1640000Y1340000D02*
D03*
X1665000D02*
D03*
X1690000D02*
D03*
X1640000Y1315000D02*
D03*
X1665000D02*
D03*
X1690000D02*
D03*
X1640000Y1290000D02*
D03*
X1665000D02*
D03*
X1690000D02*
D03*
X1677250Y1399750D02*
D03*
X1725000Y1400000D02*
D03*
X1700000D02*
D03*
X1677250Y1424750D02*
D03*
X1725000Y1425000D02*
D03*
X1700000D02*
D03*
X1677250Y1452000D02*
D03*
X1725000D02*
D03*
X1700000D02*
D03*
X1520000Y1010000D02*
D03*
X1545000D02*
D03*
X1570000D02*
D03*
X1595000D02*
D03*
X1250000D02*
D03*
X1275000D02*
D03*
X1085000D02*
D03*
X1060000D02*
D03*
X1010000Y1060000D02*
D03*
Y1035000D02*
D03*
Y1145000D02*
D03*
Y1120000D02*
D03*
Y1100000D02*
D03*
Y1220000D02*
D03*
Y1195000D02*
D03*
Y1170000D02*
D03*
Y1300000D02*
D03*
Y1275000D02*
D03*
Y1250000D02*
D03*
Y1375000D02*
D03*
Y1350000D02*
D03*
Y1325000D02*
D03*
X1030000Y1490000D02*
D03*
X1010000D02*
D03*
X1050000D02*
D03*
X1720000Y1025000D02*
D03*
Y1050000D02*
D03*
X1790000Y1010000D02*
D03*
X1765000D02*
D03*
X1495000D02*
D03*
X1415000D02*
D03*
X1305000D02*
D03*
X1175000D02*
D03*
X1150000D02*
D03*
X1125000D02*
D03*
X1035000D02*
D03*
X1010000Y1077500D02*
D03*
Y1395000D02*
D03*
Y1412500D02*
D03*
X1025000Y1225000D02*
D03*
Y1250000D02*
D03*
Y1275000D02*
D03*
X1010000Y1430000D02*
D03*
Y1455000D02*
D03*
Y1475000D02*
D03*
X1075000Y1490000D02*
D03*
X1125000D02*
D03*
X1150000D02*
D03*
X1175000D02*
D03*
X1200000D02*
D03*
X1790000D02*
D03*
X1765000D02*
D03*
X1740000D02*
D03*
X1715000D02*
D03*
X1590000D02*
D03*
X1615000D02*
D03*
X1640000D02*
D03*
X1665000D02*
D03*
X1690000D02*
D03*
Y1010000D02*
D03*
X1740000D02*
D03*
X1715000D02*
D03*
X1670000D02*
D03*
X1720000Y1075000D02*
D03*
Y1100000D02*
D03*
X1745000D02*
D03*
X1770000D02*
D03*
X1790000D02*
D03*
Y1125000D02*
D03*
Y1150000D02*
D03*
X1775000Y1345000D02*
D03*
X1750000D02*
D03*
X1720000D02*
D03*
Y1270000D02*
D03*
X1740000D02*
D03*
X1765000D02*
D03*
X1790000D02*
D03*
Y1175000D02*
D03*
Y1200000D02*
D03*
Y1225000D02*
D03*
Y1250000D02*
D03*
Y1350000D02*
D03*
Y1375000D02*
D03*
Y1400000D02*
D03*
Y1425000D02*
D03*
Y1450000D02*
D03*
Y1475000D02*
D03*
X1329731Y1039481D02*
D03*
X1375018Y1067503D02*
D03*
X1265250Y1281500D02*
D03*
X1069500Y1189000D02*
D03*
X1298515Y1067753D02*
D03*
X1376500Y1056500D02*
D03*
X1253262Y1066503D02*
D03*
X1295250Y1096750D02*
D03*
X1336500Y1325500D02*
D03*
X1198250Y1148500D02*
D03*
Y1134000D02*
D03*
X1256500Y1207000D02*
D03*
X1525000Y1175000D02*
D03*
X1354500Y1113500D02*
D03*
X1339000Y1127150D02*
D03*
X1338500Y1117850D02*
D03*
X1425750Y1249750D02*
D03*
X1425771Y1206760D02*
D03*
X1372000Y1193000D02*
D03*
Y1179000D02*
D03*
X1593500Y1228000D02*
D03*
X1656750Y1392500D02*
D03*
X1656800Y1239000D02*
D03*
X1631400D02*
D03*
X1401250Y1395500D02*
D03*
X1644500Y1218500D02*
D03*
X1618500D02*
D03*
X1606000Y1239000D02*
D03*
X1284000Y1250250D02*
D03*
X1504250Y1323250D02*
D03*
X1377518Y1394769D02*
D03*
X1471000Y1369500D02*
D03*
X1524500Y1356750D02*
D03*
X1430250Y1343500D02*
D03*
X1448250Y1292000D02*
D03*
X1470250Y1342250D02*
D03*
X1436000Y1320750D02*
D03*
X1470000Y1302750D02*
D03*
X1481500Y1326750D02*
D03*
X1445500Y1326500D02*
D03*
X1469000D02*
D03*
X1540000Y1280250D02*
D03*
X1538750Y1347250D02*
D03*
X1570500Y1316500D02*
D03*
X1292750Y1358250D02*
D03*
X1270500Y1440000D02*
D03*
X1224000Y1436500D02*
D03*
X1211250Y1362000D02*
D03*
X1245000Y1439250D02*
D03*
X1257750Y1439500D02*
D03*
X1202250Y1368750D02*
D03*
X1455000Y1010000D02*
D03*
X1301500Y1198500D02*
D03*
X1301500Y1166000D02*
D03*
X1301750Y1133000D02*
D03*
X1301250Y1110500D02*
D03*
X1219250Y1082000D02*
D03*
X1255750Y1098750D02*
D03*
X1255500Y1130500D02*
D03*
Y1122500D02*
D03*
X1255250Y1162500D02*
D03*
Y1154500D02*
D03*
Y1186500D02*
D03*
X1256250Y1238750D02*
D03*
X1216261Y1273263D02*
D03*
X1415000Y1331000D02*
D03*
X1058003Y1235511D02*
D03*
X1060250Y1250750D02*
D03*
X1188500Y1157750D02*
D03*
X1089250Y1216500D02*
D03*
X1137000Y1233000D02*
D03*
G54D110*
X1506750Y1415422D02*
D03*
X1383000Y1489250D02*
D03*
X1336750Y1469500D02*
D03*
X1368000Y1490000D02*
D03*
X1368018Y1478500D02*
D03*
X1350250Y1448000D02*
D03*
X1369250Y1452750D02*
D03*
X1293000Y1479500D02*
D03*
X1284250Y1467200D02*
D03*
X1271750D02*
D03*
X1293000Y1490000D02*
D03*
X1318000Y1353000D02*
D03*
X1174500Y1296250D02*
D03*
X1185000Y1310250D02*
D03*
X1157250Y1285000D02*
D03*
X1133500Y1285250D02*
D03*
X1109750Y1285000D02*
D03*
X1153250Y1327000D02*
D03*
X1126500Y1308250D02*
D03*
X1153250Y1308500D02*
D03*
X1346300Y1283700D02*
D03*
X1383899Y1305399D02*
D03*
X1272500Y1102000D02*
D03*
X1601250Y1022250D02*
D03*
X1587500D02*
D03*
X1573000D02*
D03*
X1540000Y1050250D02*
D03*
X1526000D02*
D03*
X1498000D02*
D03*
X1512000D02*
D03*
X1526000Y1064250D02*
D03*
X1498000D02*
D03*
X1512000D02*
D03*
X1540000D02*
D03*
X1302000Y1052000D02*
D03*
X1272500Y1118250D02*
D03*
X1292500Y1294500D02*
D03*
X1198200Y1101600D02*
D03*
X1297484Y1239016D02*
D03*
X1331250Y1353000D02*
D03*
X1536000Y1299000D02*
D03*
X1506750Y1299250D02*
D03*
X1371750Y1433750D02*
D03*
X1361000D02*
D03*
X1231761Y1374518D02*
D03*
X1270263Y1344267D02*
D03*
X1171750Y1324750D02*
D03*
Y1312000D02*
D03*
X1205250Y1429500D02*
D03*
Y1414750D02*
D03*
X1234500Y1402000D02*
D03*
X1295750Y1345250D02*
D03*
X1283250D02*
D03*
X1234500Y1415250D02*
D03*
X1165000Y1220000D02*
D03*
X1096000Y1276250D02*
D03*
Y1288500D02*
D03*
Y1228000D02*
D03*
X1112000D02*
D03*
M02*
