G04*
G04 #@! TF.GenerationSoftware,Altium Limited,Altium Designer,20.0.2 (26)*
G04*
G04 Layer_Color=8388736*
%FSLAX44Y44*%
%MOMM*%
G71*
G01*
G75*
%ADD10C,0.2000*%
%ADD13C,0.1270*%
%ADD14R,4.8260X2.4130*%
%ADD41R,0.8000X0.6500*%
%ADD42R,1.8500X1.3500*%
G04:AMPARAMS|DCode=43|XSize=0.69mm|YSize=0.65mm|CornerRadius=0.07mm|HoleSize=0mm|Usage=FLASHONLY|Rotation=0.000|XOffset=0mm|YOffset=0mm|HoleType=Round|Shape=RoundedRectangle|*
%AMROUNDEDRECTD43*
21,1,0.6900,0.5100,0,0,0.0*
21,1,0.5500,0.6500,0,0,0.0*
1,1,0.1400,0.2750,-0.2550*
1,1,0.1400,-0.2750,-0.2550*
1,1,0.1400,-0.2750,0.2550*
1,1,0.1400,0.2750,0.2550*
%
%ADD43ROUNDEDRECTD43*%
G04:AMPARAMS|DCode=44|XSize=0.5mm|YSize=1.45mm|CornerRadius=0.09mm|HoleSize=0mm|Usage=FLASHONLY|Rotation=270.000|XOffset=0mm|YOffset=0mm|HoleType=Round|Shape=RoundedRectangle|*
%AMROUNDEDRECTD44*
21,1,0.5000,1.2700,0,0,270.0*
21,1,0.3200,1.4500,0,0,270.0*
1,1,0.1800,-0.6350,-0.1600*
1,1,0.1800,-0.6350,0.1600*
1,1,0.1800,0.6350,0.1600*
1,1,0.1800,0.6350,-0.1600*
%
%ADD44ROUNDEDRECTD44*%
G04:AMPARAMS|DCode=45|XSize=1.55mm|YSize=0.95mm|CornerRadius=0.0925mm|HoleSize=0mm|Usage=FLASHONLY|Rotation=180.000|XOffset=0mm|YOffset=0mm|HoleType=Round|Shape=RoundedRectangle|*
%AMROUNDEDRECTD45*
21,1,1.5500,0.7650,0,0,180.0*
21,1,1.3650,0.9500,0,0,180.0*
1,1,0.1850,-0.6825,0.3825*
1,1,0.1850,0.6825,0.3825*
1,1,0.1850,0.6825,-0.3825*
1,1,0.1850,-0.6825,-0.3825*
%
%ADD45ROUNDEDRECTD45*%
G04:AMPARAMS|DCode=46|XSize=0.69mm|YSize=0.65mm|CornerRadius=0.07mm|HoleSize=0mm|Usage=FLASHONLY|Rotation=270.000|XOffset=0mm|YOffset=0mm|HoleType=Round|Shape=RoundedRectangle|*
%AMROUNDEDRECTD46*
21,1,0.6900,0.5100,0,0,270.0*
21,1,0.5500,0.6500,0,0,270.0*
1,1,0.1400,-0.2550,-0.2750*
1,1,0.1400,-0.2550,0.2750*
1,1,0.1400,0.2550,0.2750*
1,1,0.1400,0.2550,-0.2750*
%
%ADD46ROUNDEDRECTD46*%
%ADD47R,0.6500X0.8000*%
G04:AMPARAMS|DCode=48|XSize=1.35mm|YSize=1.35mm|CornerRadius=0.155mm|HoleSize=0mm|Usage=FLASHONLY|Rotation=270.000|XOffset=0mm|YOffset=0mm|HoleType=Round|Shape=RoundedRectangle|*
%AMROUNDEDRECTD48*
21,1,1.3500,1.0400,0,0,270.0*
21,1,1.0400,1.3500,0,0,270.0*
1,1,0.3100,-0.5200,-0.5200*
1,1,0.3100,-0.5200,0.5200*
1,1,0.3100,0.5200,0.5200*
1,1,0.3100,0.5200,-0.5200*
%
%ADD48ROUNDEDRECTD48*%
G04:AMPARAMS|DCode=49|XSize=1.35mm|YSize=1.35mm|CornerRadius=0.155mm|HoleSize=0mm|Usage=FLASHONLY|Rotation=180.000|XOffset=0mm|YOffset=0mm|HoleType=Round|Shape=RoundedRectangle|*
%AMROUNDEDRECTD49*
21,1,1.3500,1.0400,0,0,180.0*
21,1,1.0400,1.3500,0,0,180.0*
1,1,0.3100,-0.5200,0.5200*
1,1,0.3100,0.5200,0.5200*
1,1,0.3100,0.5200,-0.5200*
1,1,0.3100,-0.5200,-0.5200*
%
%ADD49ROUNDEDRECTD49*%
G04:AMPARAMS|DCode=50|XSize=0.85mm|YSize=1mm|CornerRadius=0.085mm|HoleSize=0mm|Usage=FLASHONLY|Rotation=90.000|XOffset=0mm|YOffset=0mm|HoleType=Round|Shape=RoundedRectangle|*
%AMROUNDEDRECTD50*
21,1,0.8500,0.8300,0,0,90.0*
21,1,0.6800,1.0000,0,0,90.0*
1,1,0.1700,0.4150,0.3400*
1,1,0.1700,0.4150,-0.3400*
1,1,0.1700,-0.4150,-0.3400*
1,1,0.1700,-0.4150,0.3400*
%
%ADD50ROUNDEDRECTD50*%
%ADD51R,0.9000X1.0000*%
%ADD52R,1.4500X1.1700*%
G04:AMPARAMS|DCode=53|XSize=0.75mm|YSize=0.55mm|CornerRadius=0.0625mm|HoleSize=0mm|Usage=FLASHONLY|Rotation=90.000|XOffset=0mm|YOffset=0mm|HoleType=Round|Shape=RoundedRectangle|*
%AMROUNDEDRECTD53*
21,1,0.7500,0.4250,0,0,90.0*
21,1,0.6250,0.5500,0,0,90.0*
1,1,0.1250,0.2125,0.3125*
1,1,0.1250,0.2125,-0.3125*
1,1,0.1250,-0.2125,-0.3125*
1,1,0.1250,-0.2125,0.3125*
%
%ADD53ROUNDEDRECTD53*%
G04:AMPARAMS|DCode=54|XSize=2.05mm|YSize=0.64mm|CornerRadius=0.0988mm|HoleSize=0mm|Usage=FLASHONLY|Rotation=0.000|XOffset=0mm|YOffset=0mm|HoleType=Round|Shape=RoundedRectangle|*
%AMROUNDEDRECTD54*
21,1,2.0500,0.4425,0,0,0.0*
21,1,1.8525,0.6400,0,0,0.0*
1,1,0.1975,0.9262,-0.2213*
1,1,0.1975,-0.9262,-0.2213*
1,1,0.1975,-0.9262,0.2213*
1,1,0.1975,0.9262,0.2213*
%
%ADD54ROUNDEDRECTD54*%
G04:AMPARAMS|DCode=55|XSize=3.25mm|YSize=2.35mm|CornerRadius=0.255mm|HoleSize=0mm|Usage=FLASHONLY|Rotation=0.000|XOffset=0mm|YOffset=0mm|HoleType=Round|Shape=RoundedRectangle|*
%AMROUNDEDRECTD55*
21,1,3.2500,1.8400,0,0,0.0*
21,1,2.7400,2.3500,0,0,0.0*
1,1,0.5100,1.3700,-0.9200*
1,1,0.5100,-1.3700,-0.9200*
1,1,0.5100,-1.3700,0.9200*
1,1,0.5100,1.3700,0.9200*
%
%ADD55ROUNDEDRECTD55*%
G04:AMPARAMS|DCode=56|XSize=3.25mm|YSize=2.35mm|CornerRadius=0.1975mm|HoleSize=0mm|Usage=FLASHONLY|Rotation=0.000|XOffset=0mm|YOffset=0mm|HoleType=Round|Shape=RoundedRectangle|*
%AMROUNDEDRECTD56*
21,1,3.2500,1.9550,0,0,0.0*
21,1,2.8550,2.3500,0,0,0.0*
1,1,0.3950,1.4275,-0.9775*
1,1,0.3950,-1.4275,-0.9775*
1,1,0.3950,-1.4275,0.9775*
1,1,0.3950,1.4275,0.9775*
%
%ADD56ROUNDEDRECTD56*%
G04:AMPARAMS|DCode=57|XSize=1.85mm|YSize=1.4mm|CornerRadius=0.1263mm|HoleSize=0mm|Usage=FLASHONLY|Rotation=0.000|XOffset=0mm|YOffset=0mm|HoleType=Round|Shape=RoundedRectangle|*
%AMROUNDEDRECTD57*
21,1,1.8500,1.1475,0,0,0.0*
21,1,1.5975,1.4000,0,0,0.0*
1,1,0.2525,0.7988,-0.5738*
1,1,0.2525,-0.7988,-0.5738*
1,1,0.2525,-0.7988,0.5738*
1,1,0.2525,0.7988,0.5738*
%
%ADD57ROUNDEDRECTD57*%
%ADD58R,0.9500X1.0500*%
G04:AMPARAMS|DCode=59|XSize=0.95mm|YSize=0.55mm|CornerRadius=0.075mm|HoleSize=0mm|Usage=FLASHONLY|Rotation=180.000|XOffset=0mm|YOffset=0mm|HoleType=Round|Shape=RoundedRectangle|*
%AMROUNDEDRECTD59*
21,1,0.9500,0.4000,0,0,180.0*
21,1,0.8000,0.5500,0,0,180.0*
1,1,0.1500,-0.4000,0.2000*
1,1,0.1500,0.4000,0.2000*
1,1,0.1500,0.4000,-0.2000*
1,1,0.1500,-0.4000,-0.2000*
%
%ADD59ROUNDEDRECTD59*%
%ADD60R,0.8500X1.0000*%
G04:AMPARAMS|DCode=61|XSize=2.55mm|YSize=3.45mm|CornerRadius=0.15mm|HoleSize=0mm|Usage=FLASHONLY|Rotation=90.000|XOffset=0mm|YOffset=0mm|HoleType=Round|Shape=RoundedRectangle|*
%AMROUNDEDRECTD61*
21,1,2.5500,3.1500,0,0,90.0*
21,1,2.2500,3.4500,0,0,90.0*
1,1,0.3000,1.5750,1.1250*
1,1,0.3000,1.5750,-1.1250*
1,1,0.3000,-1.5750,-1.1250*
1,1,0.3000,-1.5750,1.1250*
%
%ADD61ROUNDEDRECTD61*%
G04:AMPARAMS|DCode=62|XSize=1.6mm|YSize=0.65mm|CornerRadius=0.055mm|HoleSize=0mm|Usage=FLASHONLY|Rotation=90.000|XOffset=0mm|YOffset=0mm|HoleType=Round|Shape=RoundedRectangle|*
%AMROUNDEDRECTD62*
21,1,1.6000,0.5400,0,0,90.0*
21,1,1.4900,0.6500,0,0,90.0*
1,1,0.1100,0.2700,0.7450*
1,1,0.1100,0.2700,-0.7450*
1,1,0.1100,-0.2700,-0.7450*
1,1,0.1100,-0.2700,0.7450*
%
%ADD62ROUNDEDRECTD62*%
%ADD63R,1.3500X1.8500*%
G04:AMPARAMS|DCode=64|XSize=1.15mm|YSize=0.55mm|CornerRadius=0.0875mm|HoleSize=0mm|Usage=FLASHONLY|Rotation=0.000|XOffset=0mm|YOffset=0mm|HoleType=Round|Shape=RoundedRectangle|*
%AMROUNDEDRECTD64*
21,1,1.1500,0.3750,0,0,0.0*
21,1,0.9750,0.5500,0,0,0.0*
1,1,0.1750,0.4875,-0.1875*
1,1,0.1750,-0.4875,-0.1875*
1,1,0.1750,-0.4875,0.1875*
1,1,0.1750,0.4875,0.1875*
%
%ADD64ROUNDEDRECTD64*%
%ADD65R,1.0500X0.6400*%
%ADD66R,1.0500X0.3400*%
%ADD67C,1.4500*%
G04:AMPARAMS|DCode=68|XSize=1.45mm|YSize=1.45mm|CornerRadius=0.165mm|HoleSize=0mm|Usage=FLASHONLY|Rotation=90.000|XOffset=0mm|YOffset=0mm|HoleType=Round|Shape=RoundedRectangle|*
%AMROUNDEDRECTD68*
21,1,1.4500,1.1200,0,0,90.0*
21,1,1.1200,1.4500,0,0,90.0*
1,1,0.3300,0.5600,0.5600*
1,1,0.3300,0.5600,-0.5600*
1,1,0.3300,-0.5600,-0.5600*
1,1,0.3300,-0.5600,0.5600*
%
%ADD68ROUNDEDRECTD68*%
%ADD69C,1.2500*%
%ADD70C,1.7500*%
%ADD71C,3.5500*%
%ADD72O,4.8500X6.0500*%
%ADD73C,1.6500*%
%ADD74C,1.1500*%
%ADD75C,2.0000*%
G04:AMPARAMS|DCode=76|XSize=2mm|YSize=2mm|CornerRadius=0.5mm|HoleSize=0mm|Usage=FLASHONLY|Rotation=180.000|XOffset=0mm|YOffset=0mm|HoleType=Round|Shape=RoundedRectangle|*
%AMROUNDEDRECTD76*
21,1,2.0000,1.0000,0,0,180.0*
21,1,1.0000,2.0000,0,0,180.0*
1,1,1.0000,-0.5000,0.5000*
1,1,1.0000,0.5000,0.5000*
1,1,1.0000,0.5000,-0.5000*
1,1,1.0000,-0.5000,-0.5000*
%
%ADD76ROUNDEDRECTD76*%
%ADD77O,2.0000X1.9500*%
%ADD78C,0.3000*%
%ADD79O,2.1500X1.0500*%
%ADD80O,1.6500X1.0500*%
%ADD81C,3.3500*%
%ADD82C,2.7500*%
%ADD83C,1.8500*%
G04:AMPARAMS|DCode=84|XSize=1.65mm|YSize=1.65mm|CornerRadius=0.425mm|HoleSize=0mm|Usage=FLASHONLY|Rotation=90.000|XOffset=0mm|YOffset=0mm|HoleType=Round|Shape=RoundedRectangle|*
%AMROUNDEDRECTD84*
21,1,1.6500,0.8000,0,0,90.0*
21,1,0.8000,1.6500,0,0,90.0*
1,1,0.8500,0.4000,0.4000*
1,1,0.8500,0.4000,-0.4000*
1,1,0.8500,-0.4000,-0.4000*
1,1,0.8500,-0.4000,0.4000*
%
%ADD84ROUNDEDRECTD84*%
G54D10*
X1940325Y1532614D02*
X2174005D01*
X1940325D02*
Y1556744D01*
X2174005Y1532614D02*
Y1556744D01*
X1940325D02*
X2174005D01*
G54D13*
X2009751Y1549630D02*
Y1539472D01*
X2006365Y1549630D02*
X2013137D01*
X2017249D02*
X2016281Y1549146D01*
X2015314Y1548179D01*
X2014830Y1547211D01*
X2014346Y1545760D01*
Y1543342D01*
X2014830Y1541891D01*
X2015314Y1540923D01*
X2016281Y1539956D01*
X2017249Y1539472D01*
X2019184D01*
X2020151Y1539956D01*
X2021118Y1540923D01*
X2021602Y1541891D01*
X2022086Y1543342D01*
Y1545760D01*
X2021602Y1547211D01*
X2021118Y1548179D01*
X2020151Y1549146D01*
X2019184Y1549630D01*
X2017249D01*
X2024456Y1544309D02*
X2028809D01*
X2030260Y1544793D01*
X2030744Y1545276D01*
X2031228Y1546244D01*
Y1547695D01*
X2030744Y1548662D01*
X2030260Y1549146D01*
X2028809Y1549630D01*
X2024456D01*
Y1539472D01*
X2048254Y1548179D02*
X2047287Y1549146D01*
X2045836Y1549630D01*
X2043901D01*
X2042450Y1549146D01*
X2041482Y1548179D01*
Y1547211D01*
X2041966Y1546244D01*
X2042450Y1545760D01*
X2043417Y1545276D01*
X2046319Y1544309D01*
X2047287Y1543825D01*
X2047771Y1543342D01*
X2048254Y1542374D01*
Y1540923D01*
X2047287Y1539956D01*
X2045836Y1539472D01*
X2043901D01*
X2042450Y1539956D01*
X2041482Y1540923D01*
X2053430Y1549630D02*
X2052462Y1549146D01*
X2051495Y1548179D01*
X2051011Y1547211D01*
X2050528Y1545760D01*
Y1543342D01*
X2051011Y1541891D01*
X2051495Y1540923D01*
X2052462Y1539956D01*
X2053430Y1539472D01*
X2055365D01*
X2056332Y1539956D01*
X2057300Y1540923D01*
X2057783Y1541891D01*
X2058267Y1543342D01*
Y1545760D01*
X2057783Y1547211D01*
X2057300Y1548179D01*
X2056332Y1549146D01*
X2055365Y1549630D01*
X2053430D01*
X2060637D02*
Y1539472D01*
X2066442D01*
X2067554Y1549630D02*
Y1539472D01*
Y1549630D02*
X2070940D01*
X2072391Y1549146D01*
X2073359Y1548179D01*
X2073842Y1547211D01*
X2074326Y1545760D01*
Y1543342D01*
X2073842Y1541891D01*
X2073359Y1540923D01*
X2072391Y1539956D01*
X2070940Y1539472D01*
X2067554D01*
X2082888Y1549630D02*
X2076599D01*
Y1539472D01*
X2082888D01*
X2076599Y1544793D02*
X2080469D01*
X2084581Y1549630D02*
Y1539472D01*
Y1549630D02*
X2088934D01*
X2090385Y1549146D01*
X2090869Y1548662D01*
X2091353Y1547695D01*
Y1546728D01*
X2090869Y1545760D01*
X2090385Y1545276D01*
X2088934Y1544793D01*
X2084581D01*
X2087966D02*
X2091353Y1539472D01*
X2101607Y1549630D02*
Y1539472D01*
Y1549630D02*
X2105477Y1539472D01*
X2109346Y1549630D02*
X2105477Y1539472D01*
X2109346Y1549630D02*
Y1539472D01*
X2119988D02*
X2116118Y1549630D01*
X2112249Y1539472D01*
X2113700Y1542858D02*
X2118537D01*
X2129130Y1548179D02*
X2128162Y1549146D01*
X2126711Y1549630D01*
X2124776D01*
X2123325Y1549146D01*
X2122358Y1548179D01*
Y1547211D01*
X2122842Y1546244D01*
X2123325Y1545760D01*
X2124293Y1545276D01*
X2127195Y1544309D01*
X2128162Y1543825D01*
X2128646Y1543342D01*
X2129130Y1542374D01*
Y1540923D01*
X2128162Y1539956D01*
X2126711Y1539472D01*
X2124776D01*
X2123325Y1539956D01*
X2122358Y1540923D01*
X2131403Y1549630D02*
Y1539472D01*
X2138175Y1549630D02*
X2131403Y1542858D01*
X2133822Y1545276D02*
X2138175Y1539472D01*
G54D14*
X1964455Y1544679D02*
D03*
G54D41*
X1407250Y1375500D02*
D03*
X1395750D02*
D03*
X1400250Y1429250D02*
D03*
X1411750D02*
D03*
X1440250Y1138150D02*
D03*
X1428750D02*
D03*
X1440250Y1162750D02*
D03*
X1428750D02*
D03*
X1659750Y1412000D02*
D03*
X1671250D02*
D03*
X1196350Y1062800D02*
D03*
X1207850D02*
D03*
X1037750Y1312500D02*
D03*
X1049250D02*
D03*
X1404000Y1257000D02*
D03*
X1415500D02*
D03*
X1440250Y1114500D02*
D03*
X1428750D02*
D03*
X1440250Y1094500D02*
D03*
X1428750D02*
D03*
X1440250Y1074500D02*
D03*
X1428750D02*
D03*
X1388500Y1053000D02*
D03*
X1400000D02*
D03*
X1388500Y1067250D02*
D03*
X1400000D02*
D03*
X1360250Y1247500D02*
D03*
X1348750D02*
D03*
X1360250Y1233750D02*
D03*
X1348750D02*
D03*
X1360250Y1220000D02*
D03*
X1348750D02*
D03*
X1404000Y1207000D02*
D03*
X1415500D02*
D03*
X1218000Y1378750D02*
D03*
X1206500D02*
D03*
X1223750Y1350750D02*
D03*
X1212250D02*
D03*
X1143250Y1297000D02*
D03*
X1131750D02*
D03*
X1097750Y1258500D02*
D03*
X1109250D02*
D03*
X1097750Y1245250D02*
D03*
X1109250D02*
D03*
X1047250Y1189000D02*
D03*
X1058750D02*
D03*
X1403750Y1313500D02*
D03*
X1415250D02*
D03*
G54D42*
X1525750Y1395000D02*
D03*
Y1424000D02*
D03*
X1359750Y1074750D02*
D03*
Y1045750D02*
D03*
X1367900Y1266200D02*
D03*
Y1295200D02*
D03*
X1198250Y1086750D02*
D03*
Y1115750D02*
D03*
G54D43*
X1548000Y1424400D02*
D03*
Y1415600D02*
D03*
X1559500Y1022350D02*
D03*
Y1031150D02*
D03*
X1339500Y1048900D02*
D03*
Y1040100D02*
D03*
X1339500Y1062100D02*
D03*
Y1070900D02*
D03*
X1348100Y1261800D02*
D03*
Y1270600D02*
D03*
X1336250Y1307100D02*
D03*
Y1315900D02*
D03*
X1217250Y1098100D02*
D03*
Y1106900D02*
D03*
X1657250Y1227150D02*
D03*
Y1218350D02*
D03*
X1606000Y1227150D02*
D03*
Y1218350D02*
D03*
X1631750Y1227150D02*
D03*
Y1218350D02*
D03*
G54D44*
X1625000Y1476500D02*
D03*
Y1470000D02*
D03*
Y1463500D02*
D03*
Y1457000D02*
D03*
Y1450500D02*
D03*
Y1444000D02*
D03*
Y1437500D02*
D03*
Y1431000D02*
D03*
Y1424500D02*
D03*
Y1418000D02*
D03*
X1567500D02*
D03*
Y1424500D02*
D03*
Y1431000D02*
D03*
Y1437500D02*
D03*
Y1444000D02*
D03*
Y1450500D02*
D03*
Y1457000D02*
D03*
Y1463500D02*
D03*
Y1470000D02*
D03*
Y1476500D02*
D03*
G54D45*
X1708500Y1439000D02*
D03*
X1659500D02*
D03*
X1708500Y1472000D02*
D03*
X1659500D02*
D03*
G54D46*
X1717250Y1411750D02*
D03*
X1708450D02*
D03*
X1529100Y1038500D02*
D03*
X1537900D02*
D03*
X1508900Y1025000D02*
D03*
X1500100D02*
D03*
X1508900Y1038500D02*
D03*
X1500100D02*
D03*
X1350400Y1158700D02*
D03*
X1359200D02*
D03*
X1298100Y1019000D02*
D03*
X1289300D02*
D03*
X1216900Y1148500D02*
D03*
X1208100D02*
D03*
X1216900Y1134000D02*
D03*
X1208100D02*
D03*
X1189400Y1275250D02*
D03*
X1180600D02*
D03*
X1657100Y1372750D02*
D03*
X1665900D02*
D03*
X1525650Y1299250D02*
D03*
X1516850D02*
D03*
G54D47*
X1538000Y1454750D02*
D03*
Y1443250D02*
D03*
X1524000D02*
D03*
Y1454750D02*
D03*
X1448000Y1260000D02*
D03*
Y1248500D02*
D03*
X1500000Y1260000D02*
D03*
Y1248500D02*
D03*
X1513000Y1260000D02*
D03*
Y1248500D02*
D03*
X1474000Y1260000D02*
D03*
Y1248500D02*
D03*
X1487000Y1260000D02*
D03*
Y1248500D02*
D03*
X1461000Y1260000D02*
D03*
Y1248500D02*
D03*
X1437750Y1450750D02*
D03*
Y1462250D02*
D03*
X1337750Y1365500D02*
D03*
Y1377000D02*
D03*
X1414000Y1462250D02*
D03*
Y1450750D02*
D03*
X1397000Y1462250D02*
D03*
Y1450750D02*
D03*
G54D48*
X1427000Y1374750D02*
D03*
Y1410750D02*
D03*
G54D49*
X1368750Y1410750D02*
D03*
X1404750D02*
D03*
G54D50*
X1375750Y1375750D02*
D03*
X1352750Y1366250D02*
D03*
Y1385250D02*
D03*
G54D51*
X1331250Y1485000D02*
D03*
X1318250D02*
D03*
G54D52*
X1307000Y1414100D02*
D03*
Y1432900D02*
D03*
G54D53*
X1437750Y1489350D02*
D03*
Y1480150D02*
D03*
G54D54*
X1237000Y1298500D02*
D03*
X1319000Y1294500D02*
D03*
X1237000Y1290500D02*
D03*
X1319000Y1286500D02*
D03*
X1237000Y1282500D02*
D03*
X1319000Y1278500D02*
D03*
X1237000Y1274500D02*
D03*
X1319000Y1270500D02*
D03*
X1237000Y1266500D02*
D03*
X1319000Y1262500D02*
D03*
X1237000Y1258500D02*
D03*
X1319000Y1254500D02*
D03*
X1237000Y1250500D02*
D03*
X1319000Y1246500D02*
D03*
X1237000Y1242500D02*
D03*
X1319000Y1238500D02*
D03*
X1237000Y1202500D02*
D03*
X1319000Y1198500D02*
D03*
X1237000Y1194500D02*
D03*
X1319000Y1190500D02*
D03*
X1237000Y1186500D02*
D03*
X1319000Y1182500D02*
D03*
X1237000Y1178500D02*
D03*
X1319000Y1174500D02*
D03*
X1237000Y1170500D02*
D03*
X1319000Y1166500D02*
D03*
X1237000Y1162500D02*
D03*
X1319000Y1158500D02*
D03*
X1237000Y1154500D02*
D03*
X1319000Y1150500D02*
D03*
X1237000Y1146500D02*
D03*
X1319000Y1142500D02*
D03*
X1237000Y1138500D02*
D03*
X1319000Y1134500D02*
D03*
X1237000Y1130500D02*
D03*
X1319000Y1126500D02*
D03*
X1237000Y1122500D02*
D03*
X1319000Y1118500D02*
D03*
X1237000Y1114500D02*
D03*
X1319000Y1110500D02*
D03*
X1237000Y1106500D02*
D03*
X1319000Y1102500D02*
D03*
X1237000Y1098500D02*
D03*
X1319000Y1094500D02*
D03*
X1237000Y1090500D02*
D03*
X1319000Y1086500D02*
D03*
X1237000Y1082500D02*
D03*
X1319000Y1078500D02*
D03*
X1237000Y1074500D02*
D03*
X1319000Y1070500D02*
D03*
X1237000Y1066500D02*
D03*
X1319000Y1062500D02*
D03*
G54D55*
X1243000Y1327000D02*
D03*
G54D56*
Y1034000D02*
D03*
G54D57*
X1490000Y1487750D02*
D03*
Y1446250D02*
D03*
G54D58*
X1541750Y1022000D02*
D03*
X1528250D02*
D03*
G54D59*
X1391500Y1285250D02*
D03*
Y1275750D02*
D03*
Y1294750D02*
D03*
X1415500Y1285250D02*
D03*
Y1275750D02*
D03*
Y1294750D02*
D03*
G54D60*
X1347000Y1430750D02*
D03*
X1328000D02*
D03*
X1337500Y1407750D02*
D03*
G54D61*
X1264250Y1388000D02*
D03*
G54D62*
X1245200Y1361000D02*
D03*
X1257900D02*
D03*
X1270600D02*
D03*
X1283300D02*
D03*
Y1415000D02*
D03*
X1270600D02*
D03*
X1257900D02*
D03*
X1245200D02*
D03*
G54D63*
X1192000D02*
D03*
X1221000D02*
D03*
X1383750Y1321500D02*
D03*
X1354750D02*
D03*
G54D64*
X1125500Y1258300D02*
D03*
Y1245600D02*
D03*
Y1232900D02*
D03*
Y1220200D02*
D03*
X1180500D02*
D03*
Y1232900D02*
D03*
Y1245600D02*
D03*
Y1258300D02*
D03*
G54D65*
X1077100Y1284000D02*
D03*
Y1276000D02*
D03*
Y1228000D02*
D03*
Y1220000D02*
D03*
G54D66*
Y1269500D02*
D03*
Y1264500D02*
D03*
Y1259500D02*
D03*
Y1254500D02*
D03*
Y1249500D02*
D03*
Y1244500D02*
D03*
Y1239500D02*
D03*
Y1234500D02*
D03*
G54D67*
X1747500Y1468750D02*
D03*
Y1448750D02*
D03*
G54D68*
Y1428750D02*
D03*
G54D69*
X1702000Y1240200D02*
D03*
G54D70*
X1582000Y1398200D02*
D03*
G54D71*
X1202000Y1030000D02*
D03*
G54D72*
X1758000Y1059500D02*
D03*
Y1305500D02*
D03*
G54D73*
X1278000D02*
D03*
X1161950Y1357550D02*
D03*
X1136550Y1370250D02*
D03*
X1161950Y1382950D02*
D03*
X1136550Y1395650D02*
D03*
X1161950Y1408350D02*
D03*
X1136550Y1421050D02*
D03*
X1161950Y1433750D02*
D03*
X1163950Y1049550D02*
D03*
X1138550Y1062250D02*
D03*
X1163950Y1074950D02*
D03*
X1138550Y1087650D02*
D03*
X1163950Y1100350D02*
D03*
X1138550Y1113050D02*
D03*
X1163950Y1125750D02*
D03*
G54D74*
X1278000Y1055500D02*
D03*
G54D75*
X1253000Y1469250D02*
D03*
G54D76*
X1228000D02*
D03*
G54D77*
X1396091Y1016950D02*
D03*
X1360000Y1017000D02*
D03*
X1324000D02*
D03*
G54D78*
X1065700Y1280900D02*
D03*
Y1223100D02*
D03*
G54D79*
X1070700Y1208750D02*
D03*
Y1295250D02*
D03*
G54D80*
X1028900Y1208750D02*
D03*
Y1295250D02*
D03*
G54D81*
X1073050Y1344850D02*
D03*
Y1459150D02*
D03*
X1075050Y1036850D02*
D03*
Y1151150D02*
D03*
G54D82*
X1103550Y1324550D02*
D03*
Y1479450D02*
D03*
X1105550Y1016550D02*
D03*
Y1171450D02*
D03*
G54D83*
X1024050Y1335750D02*
D03*
Y1361150D02*
D03*
Y1442850D02*
D03*
Y1468250D02*
D03*
X1026050Y1027750D02*
D03*
Y1053150D02*
D03*
Y1134850D02*
D03*
Y1160250D02*
D03*
G54D84*
X1136550Y1446450D02*
D03*
X1138550Y1138450D02*
D03*
M02*
