G04*
G04 #@! TF.GenerationSoftware,Altium Limited,Altium Designer,20.0.2 (26)*
G04*
G04 Layer_Color=8388736*
%FSLAX44Y44*%
%MOMM*%
G71*
G01*
G75*
%ADD10C,0.2000*%
%ADD13C,0.1270*%
%ADD14R,4.8260X2.4130*%
G54D10*
X1940325Y1235310D02*
X2174005D01*
Y1211180D02*
Y1235310D01*
X1940325Y1211180D02*
Y1235310D01*
Y1211180D02*
X2174005D01*
X1800000Y1500000D02*
X1800000Y1000000D01*
X1000000D02*
X1800000D01*
X1000000D02*
Y1500000D01*
X1800000D01*
G54D13*
X2006365Y1228196D02*
Y1218038D01*
Y1228196D02*
X2010719D01*
X2012170Y1227712D01*
X2012654Y1227228D01*
X2013137Y1226261D01*
Y1225294D01*
X2012654Y1224326D01*
X2012170Y1223842D01*
X2010719Y1223359D01*
X2006365D02*
X2010719D01*
X2012170Y1222875D01*
X2012654Y1222391D01*
X2013137Y1221424D01*
Y1219973D01*
X2012654Y1219005D01*
X2012170Y1218522D01*
X2010719Y1218038D01*
X2006365D01*
X2018313Y1228196D02*
X2017345Y1227712D01*
X2016378Y1226745D01*
X2015894Y1225777D01*
X2015411Y1224326D01*
Y1221908D01*
X2015894Y1220457D01*
X2016378Y1219489D01*
X2017345Y1218522D01*
X2018313Y1218038D01*
X2020248D01*
X2021215Y1218522D01*
X2022182Y1219489D01*
X2022666Y1220457D01*
X2023150Y1221908D01*
Y1224326D01*
X2022666Y1225777D01*
X2022182Y1226745D01*
X2021215Y1227712D01*
X2020248Y1228196D01*
X2018313D01*
X2033259Y1218038D02*
X2029390Y1228196D01*
X2025520Y1218038D01*
X2026971Y1221424D02*
X2031808D01*
X2035630Y1228196D02*
Y1218038D01*
Y1228196D02*
X2039983D01*
X2041434Y1227712D01*
X2041918Y1227228D01*
X2042401Y1226261D01*
Y1225294D01*
X2041918Y1224326D01*
X2041434Y1223842D01*
X2039983Y1223359D01*
X2035630D01*
X2039016D02*
X2042401Y1218038D01*
X2044675Y1228196D02*
Y1218038D01*
Y1228196D02*
X2048061D01*
X2049512Y1227712D01*
X2050479Y1226745D01*
X2050963Y1225777D01*
X2051447Y1224326D01*
Y1221908D01*
X2050963Y1220457D01*
X2050479Y1219489D01*
X2049512Y1218522D01*
X2048061Y1218038D01*
X2044675D01*
X2064603Y1228196D02*
X2063636Y1227712D01*
X2062669Y1226745D01*
X2062185Y1225777D01*
X2061701Y1224326D01*
Y1221908D01*
X2062185Y1220457D01*
X2062669Y1219489D01*
X2063636Y1218522D01*
X2064603Y1218038D01*
X2066538D01*
X2067506Y1218522D01*
X2068473Y1219489D01*
X2068957Y1220457D01*
X2069441Y1221908D01*
Y1224326D01*
X2068957Y1225777D01*
X2068473Y1226745D01*
X2067506Y1227712D01*
X2066538Y1228196D01*
X2064603D01*
X2071811D02*
Y1220940D01*
X2072294Y1219489D01*
X2073262Y1218522D01*
X2074713Y1218038D01*
X2075680D01*
X2077132Y1218522D01*
X2078099Y1219489D01*
X2078583Y1220940D01*
Y1228196D01*
X2084774D02*
Y1218038D01*
X2081388Y1228196D02*
X2088160D01*
X2089369D02*
Y1218038D01*
X2095174D01*
X2096286Y1228196D02*
Y1218038D01*
X2098415Y1228196D02*
Y1218038D01*
Y1228196D02*
X2105186Y1218038D01*
Y1228196D02*
Y1218038D01*
X2114280Y1228196D02*
X2107992D01*
Y1218038D01*
X2114280D01*
X2107992Y1223359D02*
X2111862D01*
G54D14*
X1964455Y1223245D02*
D03*
M02*
