G04*
G04 #@! TF.GenerationSoftware,Altium Limited,Altium Designer,20.0.2 (26)*
G04*
G04 Layer_Color=32896*
%FSLAX44Y44*%
%MOMM*%
G71*
G01*
G75*
%ADD10C,0.2000*%
%ADD11C,0.1600*%
%ADD12C,0.2540*%
%ADD13C,0.1270*%
%ADD14R,4.8260X2.4130*%
G54D10*
X1595000Y1205000D02*
G03*
X1591000Y1200000I500J-4500D01*
G01*
X1692000D02*
G03*
X1688000Y1205000I-4500J500D01*
G01*
X1587650Y1173500D02*
G03*
X1587650Y1176500I0J1500D01*
G01*
D02*
G03*
X1587650Y1173500I0J-1500D01*
G01*
X1555250Y1073000D02*
G03*
X1555250Y1073000I-3500J0D01*
G01*
X1612000Y1205000D02*
X1619000D01*
X1638000D02*
X1645000D01*
X1591000Y1181000D02*
Y1200000D01*
X1663000Y1205000D02*
X1688000D01*
X1553400Y1181000D02*
X1591000D01*
X1553400D02*
Y1481000D01*
X1597000D01*
Y1456000D02*
Y1481000D01*
Y1456000D02*
X1687000D01*
Y1481000D01*
X1729400D01*
Y1181000D02*
Y1481000D01*
X1692000Y1181000D02*
X1729400D01*
X1692000D02*
Y1200000D01*
X1308460Y1430950D02*
X1338940D01*
X1307670Y1469050D02*
X1337670Y1469050D01*
Y1469050D02*
Y1469050D01*
Y1469050D02*
X1340210Y1466510D01*
X1269500Y1472000D02*
Y1496000D01*
X1317500Y1472000D02*
Y1496000D01*
X1269500D02*
X1317500D01*
X1269500Y1472000D02*
X1317500D01*
X1353510Y1488050D02*
X1383990D01*
X1354780Y1449950D02*
X1384780Y1449950D01*
X1354780Y1449950D02*
Y1449950D01*
X1352240Y1452490D02*
X1354780Y1449950D01*
X1292720Y1417300D02*
X1295260Y1414760D01*
X1292720Y1417300D02*
Y1417300D01*
X1262720Y1417300D02*
X1292720Y1417300D01*
X1263510Y1379200D02*
X1293990D01*
X1237250Y1395750D02*
X1237250Y1367250D01*
X1253250D01*
X1237250Y1395750D02*
X1253250D01*
X1253250Y1367250D01*
X1349250Y1426750D02*
X1349250Y1398250D01*
X1365250D01*
X1349250Y1426750D02*
X1365250D01*
X1365250Y1398250D01*
X1369750Y1426750D02*
X1369750Y1398250D01*
X1385750D01*
X1369750Y1426750D02*
X1385750D01*
X1385750Y1398250D01*
X1217250Y1270500D02*
X1224000D01*
X1217250Y1245000D02*
X1217250Y1270500D01*
X1217250Y1103000D02*
X1217250Y1079750D01*
X1224000D01*
X1548000Y1270500D02*
X1553310D01*
X1548000Y1079750D02*
X1553310D01*
Y1270500D01*
X1540000Y1312000D02*
Y1316500D01*
X1400000Y1312000D02*
Y1316500D01*
Y1312000D02*
X1540000D01*
Y1344500D02*
Y1397000D01*
X1400000Y1344500D02*
Y1397000D01*
Y1427500D02*
Y1452000D01*
X1540000D01*
Y1427500D02*
Y1452000D01*
X1302750Y1362750D02*
X1345750D01*
X1302750D02*
Y1427750D01*
X1345750D01*
Y1362750D02*
Y1427750D01*
X1940495Y1295198D02*
X2174175D01*
X1940495Y1271068D02*
X2174175D01*
X1940495D02*
Y1295198D01*
X2174175Y1271068D02*
Y1295198D01*
G54D11*
X1288650Y1464300D02*
X1299850D01*
Y1444700D02*
Y1464300D01*
X1288650Y1444700D02*
X1299850D01*
X1288650D02*
Y1464300D01*
X1286250Y1444600D02*
Y1455400D01*
X1262250Y1444600D02*
X1286250D01*
X1262250D02*
Y1455400D01*
X1286250D01*
X1320600Y1496000D02*
X1331400D01*
Y1472000D02*
Y1496000D01*
X1320600Y1472000D02*
X1331400D01*
X1320600D02*
Y1496000D01*
X1272950Y1420400D02*
X1292550D01*
Y1431600D01*
X1272950D02*
X1292550D01*
X1272950Y1420400D02*
Y1431600D01*
X1245250Y1420800D02*
X1269250D01*
Y1431600D01*
X1245250D02*
X1269250D01*
X1245250Y1420800D02*
Y1431600D01*
X1217500Y1420800D02*
X1241500D01*
Y1431600D01*
X1217500D02*
X1241500D01*
X1217500Y1420800D02*
Y1431600D01*
X1271150Y1350000D02*
Y1374000D01*
X1260350D02*
X1271150D01*
X1260350Y1350000D02*
Y1374000D01*
Y1350000D02*
X1271150D01*
X1273500Y1373900D02*
X1297500D01*
X1273500Y1363100D02*
Y1373900D01*
Y1363100D02*
X1297500D01*
Y1373900D01*
G54D12*
X1255500Y1489382D02*
X1265657D01*
X1260578Y1484304D02*
Y1494461D01*
G54D13*
X2108134Y1288084D02*
Y1277926D01*
Y1288084D02*
X2103781D01*
X2102330Y1287600D01*
X2101846Y1287116D01*
X2101363Y1286149D01*
Y1285182D01*
X2101846Y1284214D01*
X2102330Y1283730D01*
X2103781Y1283247D01*
X2108134D02*
X2103781D01*
X2102330Y1282763D01*
X2101846Y1282279D01*
X2101363Y1281312D01*
Y1279861D01*
X2101846Y1278893D01*
X2102330Y1278410D01*
X2103781Y1277926D01*
X2108134D01*
X2096187Y1288084D02*
X2097154Y1287600D01*
X2098122Y1286633D01*
X2098605Y1285665D01*
X2099089Y1284214D01*
Y1281796D01*
X2098605Y1280345D01*
X2098122Y1279377D01*
X2097154Y1278410D01*
X2096187Y1277926D01*
X2094252D01*
X2093285Y1278410D01*
X2092317Y1279377D01*
X2091834Y1280345D01*
X2091350Y1281796D01*
Y1284214D01*
X2091834Y1285665D01*
X2092317Y1286633D01*
X2093285Y1287600D01*
X2094252Y1288084D01*
X2096187D01*
X2085594D02*
Y1277926D01*
X2088980Y1288084D02*
X2082208D01*
X2077613D02*
Y1277926D01*
X2080999Y1288084D02*
X2074227D01*
X2070115D02*
X2071083Y1287600D01*
X2072050Y1286633D01*
X2072534Y1285665D01*
X2073017Y1284214D01*
Y1281796D01*
X2072534Y1280345D01*
X2072050Y1279377D01*
X2071083Y1278410D01*
X2070115Y1277926D01*
X2068181D01*
X2067213Y1278410D01*
X2066246Y1279377D01*
X2065762Y1280345D01*
X2065278Y1281796D01*
Y1284214D01*
X2065762Y1285665D01*
X2066246Y1286633D01*
X2067213Y1287600D01*
X2068181Y1288084D01*
X2070115D01*
X2062908D02*
Y1277926D01*
Y1288084D02*
X2059038Y1277926D01*
X2055169Y1288084D02*
X2059038Y1277926D01*
X2055169Y1288084D02*
Y1277926D01*
X2041383Y1288084D02*
X2042351Y1287600D01*
X2043318Y1286633D01*
X2043802Y1285665D01*
X2044285Y1284214D01*
Y1281796D01*
X2043802Y1280345D01*
X2043318Y1279377D01*
X2042351Y1278410D01*
X2041383Y1277926D01*
X2039448D01*
X2038481Y1278410D01*
X2037513Y1279377D01*
X2037030Y1280345D01*
X2036546Y1281796D01*
Y1284214D01*
X2037030Y1285665D01*
X2037513Y1286633D01*
X2038481Y1287600D01*
X2039448Y1288084D01*
X2041383D01*
X2034176D02*
X2030306Y1277926D01*
X2026437Y1288084D02*
X2030306Y1277926D01*
X2018842Y1288084D02*
X2025131D01*
Y1277926D01*
X2018842D01*
X2025131Y1283247D02*
X2021261D01*
X2017150Y1288084D02*
Y1277926D01*
Y1288084D02*
X2012796D01*
X2011345Y1287600D01*
X2010861Y1287116D01*
X2010378Y1286149D01*
Y1285182D01*
X2010861Y1284214D01*
X2011345Y1283730D01*
X2012796Y1283247D01*
X2017150D01*
X2013764D02*
X2010378Y1277926D01*
X2008104Y1288084D02*
Y1277926D01*
X2002300D01*
X1993448D02*
X1997318Y1288084D01*
X2001187Y1277926D01*
X1999736Y1281312D02*
X1994899D01*
X1991078Y1288084D02*
X1987208Y1283247D01*
Y1277926D01*
X1983338Y1288084D02*
X1987208Y1283247D01*
G54D14*
X2150045Y1283133D02*
D03*
M02*
