G04*
G04 #@! TF.GenerationSoftware,Altium Limited,Altium Designer,20.0.2 (26)*
G04*
G04 Layer_Physical_Order=3*
G04 Layer_Color=36540*
%FSLAX44Y44*%
%MOMM*%
G71*
G01*
G75*
%ADD10C,0.2000*%
%ADD13C,0.1270*%
%ADD14R,4.8260X2.4130*%
G04:AMPARAMS|DCode=76|XSize=2mm|YSize=2mm|CornerRadius=0.5mm|HoleSize=0mm|Usage=FLASHONLY|Rotation=180.000|XOffset=0mm|YOffset=0mm|HoleType=Round|Shape=RoundedRectangle|*
%AMROUNDEDRECTD76*
21,1,2.0000,1.0000,0,0,180.0*
21,1,1.0000,2.0000,0,0,180.0*
1,1,1.0000,-0.5000,0.5000*
1,1,1.0000,0.5000,0.5000*
1,1,1.0000,0.5000,-0.5000*
1,1,1.0000,-0.5000,-0.5000*
%
%ADD76ROUNDEDRECTD76*%
%ADD85C,0.2100*%
%ADD86C,0.4000*%
%ADD87C,0.5000*%
%ADD91C,0.5500*%
%ADD107C,1.8000*%
%ADD109C,0.7200*%
%ADD110C,1.0000*%
%ADD111C,1.0000*%
G36*
X1796941Y1005000D02*
X1401123D01*
X1400870Y1006270D01*
X1402191Y1006817D01*
X1404615Y1008677D01*
X1406474Y1011100D01*
X1407643Y1013922D01*
X1408041Y1016950D01*
X1407643Y1019978D01*
X1406474Y1022800D01*
X1404615Y1025223D01*
X1402191Y1027082D01*
X1399370Y1028251D01*
X1396341Y1028650D01*
X1395841D01*
X1392813Y1028251D01*
X1389991Y1027082D01*
X1387568Y1025223D01*
X1385709Y1022800D01*
X1384540Y1019978D01*
X1384141Y1016950D01*
X1384540Y1013922D01*
X1385709Y1011100D01*
X1387568Y1008677D01*
X1389991Y1006817D01*
X1391312Y1006270D01*
X1391060Y1005000D01*
X1364910D01*
X1364658Y1006270D01*
X1366100Y1006867D01*
X1368523Y1008727D01*
X1370383Y1011150D01*
X1371551Y1013972D01*
X1371950Y1017000D01*
X1371551Y1020028D01*
X1370383Y1022850D01*
X1368523Y1025273D01*
X1366100Y1027133D01*
X1363278Y1028301D01*
X1360250Y1028700D01*
X1359750D01*
X1356722Y1028301D01*
X1353900Y1027133D01*
X1351477Y1025273D01*
X1349617Y1022850D01*
X1348449Y1020028D01*
X1348050Y1017000D01*
X1348449Y1013972D01*
X1349617Y1011150D01*
X1351477Y1008727D01*
X1353900Y1006867D01*
X1355342Y1006270D01*
X1355090Y1005000D01*
X1328910D01*
X1328658Y1006270D01*
X1330100Y1006867D01*
X1332523Y1008727D01*
X1334383Y1011150D01*
X1335551Y1013972D01*
X1335950Y1017000D01*
X1335551Y1020028D01*
X1334383Y1022850D01*
X1332523Y1025273D01*
X1330100Y1027133D01*
X1327278Y1028301D01*
X1324250Y1028700D01*
X1323750D01*
X1320722Y1028301D01*
X1317900Y1027133D01*
X1315477Y1025273D01*
X1313617Y1022850D01*
X1312449Y1020028D01*
X1312050Y1017000D01*
X1312449Y1013972D01*
X1313617Y1011150D01*
X1315477Y1008727D01*
X1317900Y1006867D01*
X1319342Y1006270D01*
X1319090Y1005000D01*
X1117895D01*
X1117294Y1006270D01*
X1118584Y1007841D01*
X1120001Y1010492D01*
X1120032Y1010551D01*
X1120195Y1010807D01*
X1121386Y1010330D01*
X1121389Y1010299D01*
X1121329Y1010000D01*
X1121609Y1008595D01*
X1122405Y1007405D01*
X1123595Y1006609D01*
X1125000Y1006329D01*
X1126405Y1006609D01*
X1127596Y1007405D01*
X1128391Y1008595D01*
X1128671Y1010000D01*
X1128391Y1011405D01*
X1127596Y1012596D01*
X1126405Y1013391D01*
X1125000Y1013671D01*
X1123595Y1013391D01*
X1122405Y1012596D01*
X1122243Y1012354D01*
X1120742Y1012394D01*
X1120642Y1012562D01*
X1120924Y1013492D01*
X1121225Y1016550D01*
X1120924Y1019608D01*
X1120032Y1022549D01*
X1118584Y1025259D01*
X1116634Y1027634D01*
X1114259Y1029584D01*
X1111549Y1031032D01*
X1108608Y1031924D01*
X1105550Y1032225D01*
X1102492Y1031924D01*
X1099551Y1031032D01*
X1096841Y1029584D01*
X1094466Y1027634D01*
X1092516Y1025259D01*
X1091068Y1022549D01*
X1090176Y1019608D01*
X1089874Y1016550D01*
X1090176Y1013492D01*
X1091068Y1010551D01*
X1092516Y1007841D01*
X1093806Y1006270D01*
X1093205Y1005000D01*
X1003059D01*
Y1200000D01*
X1090000D01*
Y1212979D01*
X1090655Y1213109D01*
X1091845Y1213905D01*
X1092641Y1215095D01*
X1092921Y1216500D01*
X1092641Y1217905D01*
X1091845Y1219096D01*
X1090655Y1219891D01*
X1090000Y1220021D01*
Y1222211D01*
X1091270Y1222680D01*
X1092419Y1221798D01*
X1094147Y1221083D01*
X1096000Y1220839D01*
X1097853Y1221083D01*
X1099581Y1221798D01*
X1101064Y1222936D01*
X1101155Y1223055D01*
X1106845D01*
X1106936Y1222936D01*
X1108419Y1221798D01*
X1110146Y1221083D01*
X1112000Y1220839D01*
X1112148Y1220858D01*
X1116503Y1216503D01*
X1118108Y1215431D01*
X1120000Y1215055D01*
X1159845D01*
X1159936Y1214936D01*
X1161419Y1213798D01*
X1163147Y1213083D01*
X1165000Y1212839D01*
X1166853Y1213083D01*
X1168581Y1213798D01*
X1170064Y1214936D01*
X1171202Y1216419D01*
X1171917Y1218147D01*
X1172161Y1220000D01*
X1171917Y1221853D01*
X1171202Y1223581D01*
X1170064Y1225064D01*
X1168581Y1226202D01*
X1166853Y1226917D01*
X1165000Y1227161D01*
X1163147Y1226917D01*
X1161419Y1226202D01*
X1159936Y1225064D01*
X1159845Y1224945D01*
X1122048D01*
X1119142Y1227852D01*
X1119161Y1228000D01*
X1118917Y1229854D01*
X1118202Y1231581D01*
X1117064Y1233064D01*
X1115581Y1234202D01*
X1113854Y1234917D01*
X1112000Y1235161D01*
X1110146Y1234917D01*
X1108419Y1234202D01*
X1106936Y1233064D01*
X1106845Y1232945D01*
X1101155D01*
X1101064Y1233064D01*
X1100945Y1233155D01*
Y1271095D01*
X1101064Y1271186D01*
X1102202Y1272669D01*
X1102917Y1274397D01*
X1103161Y1276250D01*
X1102917Y1278103D01*
X1102202Y1279831D01*
X1101064Y1281314D01*
X1100945Y1281405D01*
Y1283345D01*
X1101064Y1283436D01*
X1102202Y1284919D01*
X1102917Y1286647D01*
X1103161Y1288500D01*
X1102917Y1290354D01*
X1102202Y1292081D01*
X1101064Y1293564D01*
X1099581Y1294702D01*
X1097853Y1295417D01*
X1096000Y1295661D01*
X1094147Y1295417D01*
X1092419Y1294702D01*
X1091270Y1293820D01*
X1090000Y1294289D01*
Y1310000D01*
X1003059D01*
Y1496941D01*
X1230947D01*
X1231199Y1495671D01*
X1230669Y1495452D01*
X1229186Y1494314D01*
X1225636Y1490764D01*
X1225201Y1490196D01*
X1224890Y1489885D01*
X1224657Y1489907D01*
X1223594Y1490385D01*
X1223391Y1491405D01*
X1222595Y1492596D01*
X1221405Y1493391D01*
X1220000Y1493671D01*
X1218595Y1493391D01*
X1217405Y1492596D01*
X1216609Y1491405D01*
X1216329Y1490000D01*
X1216609Y1488595D01*
X1217405Y1487405D01*
X1218595Y1486609D01*
X1220000Y1486329D01*
X1220408Y1486411D01*
X1221321Y1485297D01*
X1221083Y1484721D01*
X1220839Y1482868D01*
Y1481040D01*
X1219419Y1480452D01*
X1217936Y1479314D01*
X1216798Y1477831D01*
X1216083Y1476104D01*
X1215839Y1474250D01*
Y1464250D01*
X1216083Y1462397D01*
X1216798Y1460669D01*
X1217936Y1459186D01*
X1219419Y1458048D01*
X1221146Y1457333D01*
X1223000Y1457089D01*
X1233000D01*
X1234854Y1457333D01*
X1236581Y1458048D01*
X1238064Y1459186D01*
X1239202Y1460669D01*
X1239917Y1462397D01*
X1240161Y1464250D01*
Y1465308D01*
X1241431Y1465560D01*
X1242431Y1463148D01*
X1244370Y1460620D01*
X1246898Y1458681D01*
X1249841Y1457461D01*
X1253000Y1457046D01*
X1256159Y1457461D01*
X1259102Y1458681D01*
X1261630Y1460620D01*
X1263569Y1463148D01*
X1263969Y1464113D01*
X1265344D01*
X1265548Y1463619D01*
X1266686Y1462136D01*
X1268169Y1460998D01*
X1269896Y1460283D01*
X1271750Y1460039D01*
X1272087D01*
X1272573Y1458865D01*
X1258809Y1445101D01*
X1257750Y1445312D01*
X1255526Y1444869D01*
X1253641Y1443609D01*
X1252381Y1441724D01*
X1251938Y1439500D01*
X1252381Y1437276D01*
X1253641Y1435391D01*
X1255526Y1434131D01*
X1257750Y1433688D01*
X1259974Y1434131D01*
X1261860Y1435391D01*
X1263119Y1437276D01*
X1263562Y1439500D01*
X1264773Y1439575D01*
X1265131Y1437776D01*
X1266391Y1435891D01*
X1268276Y1434631D01*
X1270500Y1434188D01*
X1272724Y1434631D01*
X1274610Y1435891D01*
X1275869Y1437776D01*
X1276312Y1440000D01*
X1276101Y1441059D01*
X1283955Y1448913D01*
X1341375D01*
X1342604Y1449158D01*
X1343646Y1449854D01*
X1353080Y1459288D01*
X1383920D01*
X1400149Y1443059D01*
X1399938Y1442000D01*
X1400381Y1439776D01*
X1401640Y1437890D01*
X1403526Y1436631D01*
X1405750Y1436188D01*
X1407974Y1436631D01*
X1409859Y1437890D01*
X1411119Y1439776D01*
X1411562Y1442000D01*
X1411119Y1444224D01*
X1409859Y1446109D01*
X1407974Y1447369D01*
X1405750Y1447812D01*
X1404691Y1447601D01*
X1388524Y1463768D01*
X1389050Y1465038D01*
X1401500D01*
X1402729Y1465283D01*
X1403771Y1465979D01*
X1404691Y1466899D01*
X1405750Y1466688D01*
X1407974Y1467131D01*
X1409859Y1468391D01*
X1411119Y1470276D01*
X1411562Y1472500D01*
X1411119Y1474724D01*
X1409859Y1476609D01*
X1407974Y1477869D01*
X1405750Y1478312D01*
X1403526Y1477869D01*
X1401640Y1476609D01*
X1400381Y1474724D01*
X1399958Y1472599D01*
X1398873Y1471843D01*
X1398664Y1471886D01*
X1398138Y1473211D01*
X1398410Y1473618D01*
X1398690Y1475023D01*
X1398410Y1476428D01*
X1397615Y1477619D01*
X1396424Y1478414D01*
X1395019Y1478694D01*
X1393615Y1478414D01*
X1392424Y1477619D01*
X1391628Y1476428D01*
X1391349Y1475023D01*
X1391628Y1473618D01*
X1392221Y1472732D01*
X1391842Y1471694D01*
X1391658Y1471462D01*
X1372849D01*
X1372418Y1472732D01*
X1373064Y1473228D01*
X1374202Y1474711D01*
X1374917Y1476438D01*
X1375161Y1478291D01*
Y1478364D01*
X1375179Y1478500D01*
X1375161Y1478636D01*
Y1490000D01*
X1374917Y1491853D01*
X1374202Y1493581D01*
X1373064Y1495064D01*
X1372456Y1495671D01*
X1372870Y1496941D01*
X1796941D01*
X1796941Y1005000D01*
D02*
G37*
%LPC*%
G36*
X1790000Y1493671D02*
X1788595Y1493391D01*
X1787405Y1492596D01*
X1786609Y1491405D01*
X1786329Y1490000D01*
X1786609Y1488595D01*
X1787405Y1487405D01*
X1788595Y1486609D01*
X1790000Y1486329D01*
X1791405Y1486609D01*
X1792595Y1487405D01*
X1793391Y1488595D01*
X1793671Y1490000D01*
X1793391Y1491405D01*
X1792595Y1492596D01*
X1791405Y1493391D01*
X1790000Y1493671D01*
D02*
G37*
G36*
X1765000D02*
X1763595Y1493391D01*
X1762405Y1492596D01*
X1761609Y1491405D01*
X1761329Y1490000D01*
X1761609Y1488595D01*
X1762405Y1487405D01*
X1763595Y1486609D01*
X1765000Y1486329D01*
X1766405Y1486609D01*
X1767595Y1487405D01*
X1768391Y1488595D01*
X1768671Y1490000D01*
X1768391Y1491405D01*
X1767595Y1492596D01*
X1766405Y1493391D01*
X1765000Y1493671D01*
D02*
G37*
G36*
X1740000D02*
X1738595Y1493391D01*
X1737405Y1492596D01*
X1736609Y1491405D01*
X1736329Y1490000D01*
X1736609Y1488595D01*
X1737405Y1487405D01*
X1738595Y1486609D01*
X1740000Y1486329D01*
X1741405Y1486609D01*
X1742595Y1487405D01*
X1743391Y1488595D01*
X1743671Y1490000D01*
X1743391Y1491405D01*
X1742595Y1492596D01*
X1741405Y1493391D01*
X1740000Y1493671D01*
D02*
G37*
G36*
X1715000D02*
X1713595Y1493391D01*
X1712405Y1492596D01*
X1711609Y1491405D01*
X1711329Y1490000D01*
X1711609Y1488595D01*
X1712405Y1487405D01*
X1713595Y1486609D01*
X1715000Y1486329D01*
X1716405Y1486609D01*
X1717595Y1487405D01*
X1718391Y1488595D01*
X1718671Y1490000D01*
X1718391Y1491405D01*
X1717595Y1492596D01*
X1716405Y1493391D01*
X1715000Y1493671D01*
D02*
G37*
G36*
X1690000D02*
X1688595Y1493391D01*
X1687404Y1492596D01*
X1686609Y1491405D01*
X1686329Y1490000D01*
X1686609Y1488595D01*
X1687404Y1487405D01*
X1688595Y1486609D01*
X1690000Y1486329D01*
X1691405Y1486609D01*
X1692595Y1487405D01*
X1693391Y1488595D01*
X1693671Y1490000D01*
X1693391Y1491405D01*
X1692595Y1492596D01*
X1691405Y1493391D01*
X1690000Y1493671D01*
D02*
G37*
G36*
X1665000D02*
X1663595Y1493391D01*
X1662404Y1492596D01*
X1661609Y1491405D01*
X1661329Y1490000D01*
X1661609Y1488595D01*
X1662404Y1487405D01*
X1663595Y1486609D01*
X1665000Y1486329D01*
X1666405Y1486609D01*
X1667595Y1487405D01*
X1668391Y1488595D01*
X1668671Y1490000D01*
X1668391Y1491405D01*
X1667595Y1492596D01*
X1666405Y1493391D01*
X1665000Y1493671D01*
D02*
G37*
G36*
X1640000D02*
X1638595Y1493391D01*
X1637404Y1492596D01*
X1636609Y1491405D01*
X1636329Y1490000D01*
X1636609Y1488595D01*
X1637404Y1487405D01*
X1638595Y1486609D01*
X1640000Y1486329D01*
X1641405Y1486609D01*
X1642595Y1487405D01*
X1643391Y1488595D01*
X1643671Y1490000D01*
X1643391Y1491405D01*
X1642595Y1492596D01*
X1641405Y1493391D01*
X1640000Y1493671D01*
D02*
G37*
G36*
X1615000D02*
X1613595Y1493391D01*
X1612404Y1492596D01*
X1611609Y1491405D01*
X1611329Y1490000D01*
X1611609Y1488595D01*
X1612404Y1487405D01*
X1613595Y1486609D01*
X1615000Y1486329D01*
X1616405Y1486609D01*
X1617595Y1487405D01*
X1618391Y1488595D01*
X1618671Y1490000D01*
X1618391Y1491405D01*
X1617595Y1492596D01*
X1616405Y1493391D01*
X1615000Y1493671D01*
D02*
G37*
G36*
X1590000D02*
X1588595Y1493391D01*
X1587404Y1492596D01*
X1586609Y1491405D01*
X1586329Y1490000D01*
X1586609Y1488595D01*
X1587404Y1487405D01*
X1588595Y1486609D01*
X1590000Y1486329D01*
X1591405Y1486609D01*
X1592595Y1487405D01*
X1593391Y1488595D01*
X1593671Y1490000D01*
X1593391Y1491405D01*
X1592595Y1492596D01*
X1591405Y1493391D01*
X1590000Y1493671D01*
D02*
G37*
G36*
X1565000D02*
X1563595Y1493391D01*
X1562404Y1492596D01*
X1561609Y1491405D01*
X1561329Y1490000D01*
X1561609Y1488595D01*
X1562404Y1487405D01*
X1563595Y1486609D01*
X1565000Y1486329D01*
X1566405Y1486609D01*
X1567595Y1487405D01*
X1568391Y1488595D01*
X1568671Y1490000D01*
X1568391Y1491405D01*
X1567595Y1492596D01*
X1566405Y1493391D01*
X1565000Y1493671D01*
D02*
G37*
G36*
X1540000D02*
X1538595Y1493391D01*
X1537405Y1492596D01*
X1536609Y1491405D01*
X1536329Y1490000D01*
X1536609Y1488595D01*
X1537405Y1487405D01*
X1538595Y1486609D01*
X1540000Y1486329D01*
X1541405Y1486609D01*
X1542596Y1487405D01*
X1543391Y1488595D01*
X1543671Y1490000D01*
X1543391Y1491405D01*
X1542596Y1492596D01*
X1541405Y1493391D01*
X1540000Y1493671D01*
D02*
G37*
G36*
X1515000D02*
X1513595Y1493391D01*
X1512405Y1492596D01*
X1511609Y1491405D01*
X1511329Y1490000D01*
X1511609Y1488595D01*
X1512405Y1487405D01*
X1513595Y1486609D01*
X1515000Y1486329D01*
X1516405Y1486609D01*
X1517596Y1487405D01*
X1518391Y1488595D01*
X1518671Y1490000D01*
X1518391Y1491405D01*
X1517596Y1492596D01*
X1516405Y1493391D01*
X1515000Y1493671D01*
D02*
G37*
G36*
X1470000D02*
X1468595Y1493391D01*
X1467405Y1492596D01*
X1466609Y1491405D01*
X1466329Y1490000D01*
X1466609Y1488595D01*
X1467405Y1487405D01*
X1468595Y1486609D01*
X1470000Y1486329D01*
X1471405Y1486609D01*
X1472596Y1487405D01*
X1473391Y1488595D01*
X1473671Y1490000D01*
X1473391Y1491405D01*
X1472596Y1492596D01*
X1471405Y1493391D01*
X1470000Y1493671D01*
D02*
G37*
G36*
X1450000D02*
X1448595Y1493391D01*
X1447404Y1492596D01*
X1446609Y1491405D01*
X1446329Y1490000D01*
X1446609Y1488595D01*
X1447404Y1487405D01*
X1448595Y1486609D01*
X1450000Y1486329D01*
X1451405Y1486609D01*
X1452595Y1487405D01*
X1453391Y1488595D01*
X1453671Y1490000D01*
X1453391Y1491405D01*
X1452595Y1492596D01*
X1451405Y1493391D01*
X1450000Y1493671D01*
D02*
G37*
G36*
X1422750D02*
X1421345Y1493391D01*
X1420155Y1492596D01*
X1419359Y1491405D01*
X1419079Y1490000D01*
X1419359Y1488595D01*
X1420155Y1487405D01*
X1421345Y1486609D01*
X1422750Y1486329D01*
X1424155Y1486609D01*
X1425345Y1487405D01*
X1426141Y1488595D01*
X1426420Y1490000D01*
X1426141Y1491405D01*
X1425345Y1492596D01*
X1424155Y1493391D01*
X1422750Y1493671D01*
D02*
G37*
G36*
X1396250D02*
X1394845Y1493391D01*
X1393655Y1492596D01*
X1392859Y1491405D01*
X1392579Y1490000D01*
X1392859Y1488595D01*
X1393655Y1487405D01*
X1394845Y1486609D01*
X1396250Y1486329D01*
X1397655Y1486609D01*
X1398846Y1487405D01*
X1399641Y1488595D01*
X1399921Y1490000D01*
X1399641Y1491405D01*
X1398846Y1492596D01*
X1397655Y1493391D01*
X1396250Y1493671D01*
D02*
G37*
G36*
X1200000D02*
X1198595Y1493391D01*
X1197405Y1492596D01*
X1196609Y1491405D01*
X1196329Y1490000D01*
X1196609Y1488595D01*
X1197405Y1487405D01*
X1198595Y1486609D01*
X1200000Y1486329D01*
X1201405Y1486609D01*
X1202596Y1487405D01*
X1203391Y1488595D01*
X1203671Y1490000D01*
X1203391Y1491405D01*
X1202596Y1492596D01*
X1201405Y1493391D01*
X1200000Y1493671D01*
D02*
G37*
G36*
X1175000D02*
X1173595Y1493391D01*
X1172405Y1492596D01*
X1171609Y1491405D01*
X1171329Y1490000D01*
X1171609Y1488595D01*
X1172405Y1487405D01*
X1173595Y1486609D01*
X1175000Y1486329D01*
X1176405Y1486609D01*
X1177596Y1487405D01*
X1178391Y1488595D01*
X1178671Y1490000D01*
X1178391Y1491405D01*
X1177596Y1492596D01*
X1176405Y1493391D01*
X1175000Y1493671D01*
D02*
G37*
G36*
X1150000D02*
X1148595Y1493391D01*
X1147405Y1492596D01*
X1146609Y1491405D01*
X1146329Y1490000D01*
X1146609Y1488595D01*
X1147405Y1487405D01*
X1148595Y1486609D01*
X1150000Y1486329D01*
X1151405Y1486609D01*
X1152596Y1487405D01*
X1153391Y1488595D01*
X1153671Y1490000D01*
X1153391Y1491405D01*
X1152596Y1492596D01*
X1151405Y1493391D01*
X1150000Y1493671D01*
D02*
G37*
G36*
X1125000D02*
X1123595Y1493391D01*
X1122405Y1492596D01*
X1121609Y1491405D01*
X1121329Y1490000D01*
X1121609Y1488595D01*
X1122405Y1487405D01*
X1123595Y1486609D01*
X1125000Y1486329D01*
X1126405Y1486609D01*
X1127596Y1487405D01*
X1128391Y1488595D01*
X1128671Y1490000D01*
X1128391Y1491405D01*
X1127596Y1492596D01*
X1126405Y1493391D01*
X1125000Y1493671D01*
D02*
G37*
G36*
X1075000D02*
X1073595Y1493391D01*
X1072405Y1492596D01*
X1071609Y1491405D01*
X1071329Y1490000D01*
X1071609Y1488595D01*
X1072405Y1487405D01*
X1073595Y1486609D01*
X1075000Y1486329D01*
X1076405Y1486609D01*
X1077596Y1487405D01*
X1078391Y1488595D01*
X1078671Y1490000D01*
X1078391Y1491405D01*
X1077596Y1492596D01*
X1076405Y1493391D01*
X1075000Y1493671D01*
D02*
G37*
G36*
X1050000D02*
X1048595Y1493391D01*
X1047405Y1492596D01*
X1046609Y1491405D01*
X1046329Y1490000D01*
X1046609Y1488595D01*
X1047405Y1487405D01*
X1048595Y1486609D01*
X1050000Y1486329D01*
X1051405Y1486609D01*
X1052596Y1487405D01*
X1053391Y1488595D01*
X1053671Y1490000D01*
X1053391Y1491405D01*
X1052596Y1492596D01*
X1051405Y1493391D01*
X1050000Y1493671D01*
D02*
G37*
G36*
X1030000D02*
X1028595Y1493391D01*
X1027404Y1492596D01*
X1026609Y1491405D01*
X1026329Y1490000D01*
X1026609Y1488595D01*
X1027404Y1487405D01*
X1028595Y1486609D01*
X1030000Y1486329D01*
X1031405Y1486609D01*
X1032595Y1487405D01*
X1033391Y1488595D01*
X1033671Y1490000D01*
X1033391Y1491405D01*
X1032595Y1492596D01*
X1031405Y1493391D01*
X1030000Y1493671D01*
D02*
G37*
G36*
X1010000D02*
X1008595Y1493391D01*
X1007405Y1492596D01*
X1006609Y1491405D01*
X1006329Y1490000D01*
X1006609Y1488595D01*
X1007405Y1487405D01*
X1008595Y1486609D01*
X1010000Y1486329D01*
X1011405Y1486609D01*
X1012596Y1487405D01*
X1013391Y1488595D01*
X1013671Y1490000D01*
X1013391Y1491405D01*
X1012596Y1492596D01*
X1011405Y1493391D01*
X1010000Y1493671D01*
D02*
G37*
G36*
X1383000Y1493940D02*
X1381205Y1493583D01*
X1379684Y1492566D01*
X1378667Y1491045D01*
X1378310Y1489250D01*
X1378667Y1487455D01*
X1379684Y1485934D01*
X1381205Y1484917D01*
X1383000Y1484560D01*
X1384795Y1484917D01*
X1386316Y1485934D01*
X1387333Y1487455D01*
X1387690Y1489250D01*
X1387333Y1491045D01*
X1386316Y1492566D01*
X1384795Y1493583D01*
X1383000Y1493940D01*
D02*
G37*
G36*
X1467500Y1483920D02*
X1466095Y1483641D01*
X1464905Y1482845D01*
X1464109Y1481655D01*
X1463829Y1480250D01*
X1464109Y1478845D01*
X1464905Y1477655D01*
X1466095Y1476859D01*
X1467500Y1476579D01*
X1468905Y1476859D01*
X1470096Y1477655D01*
X1470891Y1478845D01*
X1471171Y1480250D01*
X1470891Y1481655D01*
X1470096Y1482845D01*
X1468905Y1483641D01*
X1467500Y1483920D01*
D02*
G37*
G36*
X1024050Y1479446D02*
X1021152Y1479064D01*
X1018452Y1477946D01*
X1016133Y1476167D01*
X1014870Y1474520D01*
X1013795Y1474950D01*
X1013664Y1475034D01*
X1013391Y1476405D01*
X1012596Y1477595D01*
X1011405Y1478391D01*
X1010000Y1478671D01*
X1008595Y1478391D01*
X1007405Y1477595D01*
X1006609Y1476405D01*
X1006329Y1475000D01*
X1006609Y1473595D01*
X1007405Y1472404D01*
X1008595Y1471609D01*
X1010000Y1471329D01*
X1011405Y1471609D01*
X1012300Y1472207D01*
X1013348Y1471419D01*
X1013236Y1471148D01*
X1012854Y1468250D01*
X1013236Y1465352D01*
X1014354Y1462652D01*
X1016133Y1460333D01*
X1018452Y1458554D01*
X1021152Y1457436D01*
X1024050Y1457054D01*
X1026948Y1457436D01*
X1029648Y1458554D01*
X1031967Y1460333D01*
X1033746Y1462652D01*
X1034864Y1465352D01*
X1035246Y1468250D01*
X1034864Y1471148D01*
X1033746Y1473848D01*
X1031967Y1476167D01*
X1029648Y1477946D01*
X1026948Y1479064D01*
X1024050Y1479446D01*
D02*
G37*
G36*
X1609000Y1479671D02*
X1607595Y1479391D01*
X1606405Y1478595D01*
X1605609Y1477405D01*
X1605329Y1476000D01*
X1605609Y1474595D01*
X1606405Y1473405D01*
X1607595Y1472609D01*
X1609000Y1472330D01*
X1610405Y1472609D01*
X1611595Y1473405D01*
X1612391Y1474595D01*
X1612670Y1476000D01*
X1612391Y1477405D01*
X1611595Y1478595D01*
X1610405Y1479391D01*
X1609000Y1479671D01*
D02*
G37*
G36*
X1790000Y1478671D02*
X1788595Y1478391D01*
X1787405Y1477595D01*
X1786609Y1476405D01*
X1786329Y1475000D01*
X1786609Y1473595D01*
X1787405Y1472404D01*
X1788595Y1471609D01*
X1790000Y1471329D01*
X1791405Y1471609D01*
X1792595Y1472404D01*
X1793391Y1473595D01*
X1793671Y1475000D01*
X1793391Y1476405D01*
X1792595Y1477595D01*
X1791405Y1478391D01*
X1790000Y1478671D01*
D02*
G37*
G36*
X1462750Y1473671D02*
X1461345Y1473391D01*
X1460155Y1472596D01*
X1459359Y1471405D01*
X1459079Y1470000D01*
X1459359Y1468595D01*
X1460155Y1467405D01*
X1461345Y1466609D01*
X1462750Y1466329D01*
X1464155Y1466609D01*
X1465345Y1467405D01*
X1466141Y1468595D01*
X1466421Y1470000D01*
X1466141Y1471405D01*
X1465345Y1472596D01*
X1464155Y1473391D01*
X1462750Y1473671D01*
D02*
G37*
G36*
X1450000D02*
X1448595Y1473391D01*
X1447404Y1472596D01*
X1446609Y1471405D01*
X1446329Y1470000D01*
X1446609Y1468595D01*
X1447404Y1467405D01*
X1448595Y1466609D01*
X1450000Y1466329D01*
X1451405Y1466609D01*
X1452595Y1467405D01*
X1453391Y1468595D01*
X1453671Y1470000D01*
X1453391Y1471405D01*
X1452595Y1472596D01*
X1451405Y1473391D01*
X1450000Y1473671D01*
D02*
G37*
G36*
X1103550Y1495125D02*
X1100492Y1494824D01*
X1097551Y1493932D01*
X1094841Y1492484D01*
X1092466Y1490534D01*
X1090516Y1488159D01*
X1089068Y1485449D01*
X1088176Y1482508D01*
X1087875Y1479450D01*
X1088176Y1476392D01*
X1089068Y1473451D01*
X1090516Y1470741D01*
X1092466Y1468366D01*
X1094841Y1466416D01*
X1097551Y1464968D01*
X1100492Y1464076D01*
X1103550Y1463775D01*
X1106608Y1464076D01*
X1109549Y1464968D01*
X1112259Y1466416D01*
X1114634Y1468366D01*
X1116584Y1470741D01*
X1118032Y1473451D01*
X1118924Y1476392D01*
X1119225Y1479450D01*
X1118924Y1482508D01*
X1118032Y1485449D01*
X1116584Y1488159D01*
X1114634Y1490534D01*
X1112259Y1492484D01*
X1109549Y1493932D01*
X1106608Y1494824D01*
X1103550Y1495125D01*
D02*
G37*
G36*
X1747500Y1477928D02*
X1745124Y1477616D01*
X1742911Y1476699D01*
X1741010Y1475240D01*
X1739551Y1473339D01*
X1738634Y1471126D01*
X1738322Y1468750D01*
X1738634Y1466375D01*
X1739551Y1464161D01*
X1741010Y1462260D01*
X1742911Y1460801D01*
X1745124Y1459884D01*
X1747500Y1459572D01*
X1749876Y1459884D01*
X1752089Y1460801D01*
X1753990Y1462260D01*
X1755449Y1464161D01*
X1756366Y1466375D01*
X1756678Y1468750D01*
X1756366Y1471126D01*
X1755449Y1473339D01*
X1753990Y1475240D01*
X1752089Y1476699D01*
X1749876Y1477616D01*
X1747500Y1477928D01*
D02*
G37*
G36*
X1549500Y1459171D02*
X1548095Y1458891D01*
X1546905Y1458096D01*
X1546109Y1456905D01*
X1545829Y1455500D01*
X1546109Y1454095D01*
X1546905Y1452905D01*
X1548095Y1452109D01*
X1549500Y1451830D01*
X1550905Y1452109D01*
X1552095Y1452905D01*
X1552891Y1454095D01*
X1553170Y1455500D01*
X1552891Y1456905D01*
X1552095Y1458096D01*
X1550905Y1458891D01*
X1549500Y1459171D01*
D02*
G37*
G36*
X1010000Y1458671D02*
X1008595Y1458391D01*
X1007405Y1457596D01*
X1006609Y1456405D01*
X1006329Y1455000D01*
X1006609Y1453595D01*
X1007405Y1452405D01*
X1008595Y1451609D01*
X1010000Y1451329D01*
X1011405Y1451609D01*
X1012596Y1452405D01*
X1013391Y1453595D01*
X1013671Y1455000D01*
X1013391Y1456405D01*
X1012596Y1457596D01*
X1011405Y1458391D01*
X1010000Y1458671D01*
D02*
G37*
G36*
X1725000Y1455670D02*
X1723595Y1455391D01*
X1722405Y1454595D01*
X1721609Y1453405D01*
X1721329Y1452000D01*
X1721609Y1450595D01*
X1722405Y1449405D01*
X1723595Y1448609D01*
X1725000Y1448329D01*
X1726405Y1448609D01*
X1727596Y1449405D01*
X1728391Y1450595D01*
X1728671Y1452000D01*
X1728391Y1453405D01*
X1727596Y1454595D01*
X1726405Y1455391D01*
X1725000Y1455670D01*
D02*
G37*
G36*
X1700000D02*
X1698595Y1455391D01*
X1697405Y1454595D01*
X1696609Y1453405D01*
X1696329Y1452000D01*
X1696609Y1450595D01*
X1697405Y1449405D01*
X1698595Y1448609D01*
X1700000Y1448329D01*
X1701405Y1448609D01*
X1702596Y1449405D01*
X1703391Y1450595D01*
X1703671Y1452000D01*
X1703391Y1453405D01*
X1702596Y1454595D01*
X1701405Y1455391D01*
X1700000Y1455670D01*
D02*
G37*
G36*
X1677250D02*
X1675845Y1455391D01*
X1674655Y1454595D01*
X1673859Y1453405D01*
X1673580Y1452000D01*
X1673859Y1450595D01*
X1674655Y1449405D01*
X1675845Y1448609D01*
X1677250Y1448329D01*
X1678655Y1448609D01*
X1679845Y1449405D01*
X1680641Y1450595D01*
X1680921Y1452000D01*
X1680641Y1453405D01*
X1679845Y1454595D01*
X1678655Y1455391D01*
X1677250Y1455670D01*
D02*
G37*
G36*
X1369250Y1457440D02*
X1367455Y1457083D01*
X1365934Y1456066D01*
X1364917Y1454545D01*
X1364560Y1452750D01*
X1364917Y1450955D01*
X1365934Y1449434D01*
X1367455Y1448417D01*
X1369250Y1448060D01*
X1371045Y1448417D01*
X1372566Y1449434D01*
X1373583Y1450955D01*
X1373940Y1452750D01*
X1373583Y1454545D01*
X1372566Y1456066D01*
X1371045Y1457083D01*
X1369250Y1457440D01*
D02*
G37*
G36*
X1790000Y1453671D02*
X1788595Y1453391D01*
X1787405Y1452595D01*
X1786609Y1451405D01*
X1786329Y1450000D01*
X1786609Y1448595D01*
X1787405Y1447404D01*
X1788595Y1446609D01*
X1790000Y1446329D01*
X1791405Y1446609D01*
X1792595Y1447404D01*
X1793391Y1448595D01*
X1793671Y1450000D01*
X1793391Y1451405D01*
X1792595Y1452595D01*
X1791405Y1453391D01*
X1790000Y1453671D01*
D02*
G37*
G36*
X1450000D02*
X1448595Y1453391D01*
X1447404Y1452595D01*
X1446609Y1451405D01*
X1446329Y1450000D01*
X1446609Y1448595D01*
X1447404Y1447404D01*
X1448595Y1446609D01*
X1450000Y1446329D01*
X1451405Y1446609D01*
X1452595Y1447404D01*
X1453391Y1448595D01*
X1453671Y1450000D01*
X1453391Y1451405D01*
X1452595Y1452595D01*
X1451405Y1453391D01*
X1450000Y1453671D01*
D02*
G37*
G36*
X1026050Y1454690D02*
Y1444850D01*
X1035890D01*
X1035741Y1445983D01*
X1034532Y1448902D01*
X1032608Y1451409D01*
X1030102Y1453332D01*
X1027183Y1454541D01*
X1026050Y1454690D01*
D02*
G37*
G36*
X1022050D02*
X1020917Y1454541D01*
X1017998Y1453332D01*
X1015491Y1451409D01*
X1013568Y1448902D01*
X1012359Y1445983D01*
X1012210Y1444850D01*
X1022050D01*
Y1454690D01*
D02*
G37*
G36*
X1350250Y1452690D02*
X1348455Y1452333D01*
X1346934Y1451316D01*
X1345917Y1449795D01*
X1345560Y1448000D01*
X1345917Y1446205D01*
X1346934Y1444684D01*
X1348455Y1443667D01*
X1350250Y1443310D01*
X1352045Y1443667D01*
X1353566Y1444684D01*
X1354583Y1446205D01*
X1354940Y1448000D01*
X1354583Y1449795D01*
X1353566Y1451316D01*
X1352045Y1452333D01*
X1350250Y1452690D01*
D02*
G37*
G36*
X1073050Y1477840D02*
X1069404Y1477481D01*
X1065898Y1476417D01*
X1062666Y1474690D01*
X1059834Y1472366D01*
X1057510Y1469534D01*
X1055783Y1466302D01*
X1054719Y1462796D01*
X1054360Y1459150D01*
X1054719Y1455504D01*
X1055783Y1451998D01*
X1057510Y1448766D01*
X1059834Y1445934D01*
X1062666Y1443610D01*
X1065898Y1441883D01*
X1069404Y1440819D01*
X1073050Y1440460D01*
X1076696Y1440819D01*
X1080202Y1441883D01*
X1083434Y1443610D01*
X1086266Y1445934D01*
X1088590Y1448766D01*
X1090317Y1451998D01*
X1091381Y1455504D01*
X1091740Y1459150D01*
X1091381Y1462796D01*
X1090317Y1466302D01*
X1088590Y1469534D01*
X1086266Y1472366D01*
X1083434Y1474690D01*
X1080202Y1476417D01*
X1076696Y1477481D01*
X1073050Y1477840D01*
D02*
G37*
G36*
X1747500Y1457928D02*
X1745124Y1457616D01*
X1742911Y1456699D01*
X1741010Y1455240D01*
X1739551Y1453339D01*
X1738634Y1451126D01*
X1738322Y1448750D01*
X1738634Y1446375D01*
X1739551Y1444161D01*
X1741010Y1442260D01*
X1742911Y1440801D01*
X1745124Y1439884D01*
X1747500Y1439572D01*
X1749876Y1439884D01*
X1752089Y1440801D01*
X1753990Y1442260D01*
X1755449Y1444161D01*
X1756366Y1446375D01*
X1756678Y1448750D01*
X1756366Y1451126D01*
X1755449Y1453339D01*
X1753990Y1455240D01*
X1752089Y1456699D01*
X1749876Y1457616D01*
X1747500Y1457928D01*
D02*
G37*
G36*
X1324250Y1446671D02*
X1322845Y1446391D01*
X1321655Y1445596D01*
X1320859Y1444405D01*
X1320580Y1443000D01*
X1320859Y1441595D01*
X1321655Y1440405D01*
X1322845Y1439609D01*
X1324250Y1439330D01*
X1325655Y1439609D01*
X1326846Y1440405D01*
X1327641Y1441595D01*
X1327921Y1443000D01*
X1327641Y1444405D01*
X1326846Y1445596D01*
X1325655Y1446391D01*
X1324250Y1446671D01*
D02*
G37*
G36*
X1140550Y1456669D02*
X1132550D01*
X1130170Y1456196D01*
X1128152Y1454848D01*
X1126804Y1452830D01*
X1126330Y1450450D01*
Y1442450D01*
X1126804Y1440070D01*
X1128152Y1438052D01*
X1130170Y1436704D01*
X1132550Y1436230D01*
X1140550D01*
X1142930Y1436704D01*
X1144948Y1438052D01*
X1146296Y1440070D01*
X1146769Y1442450D01*
Y1450450D01*
X1146296Y1452830D01*
X1144948Y1454848D01*
X1142930Y1456196D01*
X1140550Y1456669D01*
D02*
G37*
G36*
X1245000Y1442921D02*
X1243595Y1442641D01*
X1242405Y1441846D01*
X1241609Y1440655D01*
X1241329Y1439250D01*
X1241609Y1437845D01*
X1242405Y1436655D01*
X1243595Y1435859D01*
X1245000Y1435580D01*
X1246405Y1435859D01*
X1247595Y1436655D01*
X1248391Y1437845D01*
X1248671Y1439250D01*
X1248391Y1440655D01*
X1247595Y1441846D01*
X1246405Y1442641D01*
X1245000Y1442921D01*
D02*
G37*
G36*
X1387000Y1442670D02*
X1385595Y1442391D01*
X1384404Y1441595D01*
X1383609Y1440405D01*
X1383329Y1439000D01*
X1383609Y1437595D01*
X1384404Y1436405D01*
X1385595Y1435609D01*
X1387000Y1435329D01*
X1388405Y1435609D01*
X1389595Y1436405D01*
X1390391Y1437595D01*
X1390670Y1439000D01*
X1390391Y1440405D01*
X1389595Y1441595D01*
X1388405Y1442391D01*
X1387000Y1442670D01*
D02*
G37*
G36*
X1224000Y1440170D02*
X1222595Y1439891D01*
X1221405Y1439095D01*
X1220609Y1437905D01*
X1220330Y1436500D01*
X1220609Y1435095D01*
X1221405Y1433905D01*
X1222595Y1433109D01*
X1224000Y1432829D01*
X1225405Y1433109D01*
X1226596Y1433905D01*
X1227391Y1435095D01*
X1227671Y1436500D01*
X1227391Y1437905D01*
X1226596Y1439095D01*
X1225405Y1439891D01*
X1224000Y1440170D01*
D02*
G37*
G36*
X1292500Y1439171D02*
X1291095Y1438891D01*
X1289905Y1438095D01*
X1289109Y1436905D01*
X1288829Y1435500D01*
X1289109Y1434095D01*
X1289905Y1432905D01*
X1291095Y1432109D01*
X1292500Y1431830D01*
X1293905Y1432109D01*
X1295096Y1432905D01*
X1295891Y1434095D01*
X1296171Y1435500D01*
X1295891Y1436905D01*
X1295096Y1438095D01*
X1293905Y1438891D01*
X1292500Y1439171D01*
D02*
G37*
G36*
X1035890Y1440850D02*
X1026050D01*
Y1431010D01*
X1027183Y1431159D01*
X1030102Y1432368D01*
X1032608Y1434292D01*
X1034532Y1436798D01*
X1035741Y1439717D01*
X1035890Y1440850D01*
D02*
G37*
G36*
X1022050D02*
X1012210D01*
X1012359Y1439717D01*
X1013568Y1436798D01*
X1015491Y1434292D01*
X1017998Y1432368D01*
X1020917Y1431159D01*
X1022050Y1431010D01*
Y1440850D01*
D02*
G37*
G36*
X1466250Y1437421D02*
X1464845Y1437141D01*
X1463655Y1436346D01*
X1462859Y1435155D01*
X1462579Y1433750D01*
X1462859Y1432345D01*
X1463655Y1431155D01*
X1464845Y1430359D01*
X1466250Y1430079D01*
X1467655Y1430359D01*
X1468845Y1431155D01*
X1469641Y1432345D01*
X1469921Y1433750D01*
X1469641Y1435155D01*
X1468845Y1436346D01*
X1467655Y1437141D01*
X1466250Y1437421D01*
D02*
G37*
G36*
X1477500Y1436420D02*
X1476095Y1436141D01*
X1474905Y1435345D01*
X1474109Y1434155D01*
X1473829Y1432750D01*
X1474109Y1431345D01*
X1474905Y1430155D01*
X1476095Y1429359D01*
X1477500Y1429079D01*
X1478905Y1429359D01*
X1480096Y1430155D01*
X1480891Y1431345D01*
X1481171Y1432750D01*
X1480891Y1434155D01*
X1480096Y1435345D01*
X1478905Y1436141D01*
X1477500Y1436420D01*
D02*
G37*
G36*
X1010000Y1433671D02*
X1008595Y1433391D01*
X1007405Y1432596D01*
X1006609Y1431405D01*
X1006329Y1430000D01*
X1006609Y1428595D01*
X1007405Y1427405D01*
X1008595Y1426609D01*
X1010000Y1426329D01*
X1011405Y1426609D01*
X1012596Y1427405D01*
X1013391Y1428595D01*
X1013671Y1430000D01*
X1013391Y1431405D01*
X1012596Y1432596D01*
X1011405Y1433391D01*
X1010000Y1433671D01*
D02*
G37*
G36*
X1205250Y1434190D02*
X1203455Y1433833D01*
X1201934Y1432816D01*
X1200917Y1431295D01*
X1200560Y1429500D01*
X1200917Y1427705D01*
X1201934Y1426184D01*
X1203455Y1425167D01*
X1205250Y1424810D01*
X1207045Y1425167D01*
X1208566Y1426184D01*
X1209583Y1427705D01*
X1209940Y1429500D01*
X1209583Y1431295D01*
X1208566Y1432816D01*
X1207045Y1433833D01*
X1205250Y1434190D01*
D02*
G37*
G36*
X1161950Y1443937D02*
X1159313Y1443590D01*
X1156856Y1442572D01*
X1154747Y1440953D01*
X1153128Y1438844D01*
X1152110Y1436387D01*
X1151763Y1433750D01*
X1152110Y1431113D01*
X1153128Y1428656D01*
X1154747Y1426547D01*
X1156856Y1424928D01*
X1159313Y1423910D01*
X1161950Y1423563D01*
X1164587Y1423910D01*
X1167044Y1424928D01*
X1169153Y1426547D01*
X1170772Y1428656D01*
X1171790Y1431113D01*
X1172137Y1433750D01*
X1171790Y1436387D01*
X1170772Y1438844D01*
X1169153Y1440953D01*
X1167044Y1442572D01*
X1164587Y1443590D01*
X1161950Y1443937D01*
D02*
G37*
G36*
X1790000Y1428671D02*
X1788595Y1428391D01*
X1787405Y1427595D01*
X1786609Y1426405D01*
X1786329Y1425000D01*
X1786609Y1423595D01*
X1787405Y1422404D01*
X1788595Y1421609D01*
X1790000Y1421329D01*
X1791405Y1421609D01*
X1792595Y1422404D01*
X1793391Y1423595D01*
X1793671Y1425000D01*
X1793391Y1426405D01*
X1792595Y1427595D01*
X1791405Y1428391D01*
X1790000Y1428671D01*
D02*
G37*
G36*
X1725000D02*
X1723595Y1428391D01*
X1722405Y1427595D01*
X1721609Y1426405D01*
X1721329Y1425000D01*
X1721609Y1423595D01*
X1722405Y1422404D01*
X1723595Y1421609D01*
X1725000Y1421329D01*
X1726405Y1421609D01*
X1727596Y1422404D01*
X1728391Y1423595D01*
X1728671Y1425000D01*
X1728391Y1426405D01*
X1727596Y1427595D01*
X1726405Y1428391D01*
X1725000Y1428671D01*
D02*
G37*
G36*
X1700000D02*
X1698595Y1428391D01*
X1697405Y1427595D01*
X1696609Y1426405D01*
X1696329Y1425000D01*
X1696609Y1423595D01*
X1697405Y1422404D01*
X1698595Y1421609D01*
X1700000Y1421329D01*
X1701405Y1421609D01*
X1702596Y1422404D01*
X1703391Y1423595D01*
X1703671Y1425000D01*
X1703391Y1426405D01*
X1702596Y1427595D01*
X1701405Y1428391D01*
X1700000Y1428671D01*
D02*
G37*
G36*
X1100000D02*
X1098595Y1428391D01*
X1097405Y1427595D01*
X1096609Y1426405D01*
X1096329Y1425000D01*
X1096609Y1423595D01*
X1097405Y1422404D01*
X1098595Y1421609D01*
X1100000Y1421329D01*
X1101405Y1421609D01*
X1102596Y1422404D01*
X1103391Y1423595D01*
X1103671Y1425000D01*
X1103391Y1426405D01*
X1102596Y1427595D01*
X1101405Y1428391D01*
X1100000Y1428671D01*
D02*
G37*
G36*
X1075000D02*
X1073595Y1428391D01*
X1072405Y1427595D01*
X1071609Y1426405D01*
X1071329Y1425000D01*
X1071609Y1423595D01*
X1072405Y1422404D01*
X1073595Y1421609D01*
X1075000Y1421329D01*
X1076405Y1421609D01*
X1077596Y1422404D01*
X1078391Y1423595D01*
X1078671Y1425000D01*
X1078391Y1426405D01*
X1077596Y1427595D01*
X1076405Y1428391D01*
X1075000Y1428671D01*
D02*
G37*
G36*
X1677250Y1428421D02*
X1675845Y1428141D01*
X1674655Y1427345D01*
X1673859Y1426155D01*
X1673580Y1424750D01*
X1673859Y1423345D01*
X1674655Y1422155D01*
X1675845Y1421359D01*
X1677250Y1421080D01*
X1678655Y1421359D01*
X1679845Y1422155D01*
X1680641Y1423345D01*
X1680921Y1424750D01*
X1680641Y1426155D01*
X1679845Y1427345D01*
X1678655Y1428141D01*
X1677250Y1428421D01*
D02*
G37*
G36*
X1753100Y1437919D02*
X1741900D01*
X1740534Y1437647D01*
X1739377Y1436873D01*
X1738603Y1435716D01*
X1738331Y1434350D01*
Y1423150D01*
X1738603Y1421784D01*
X1739377Y1420627D01*
X1740534Y1419853D01*
X1741900Y1419581D01*
X1753100D01*
X1754466Y1419853D01*
X1755623Y1420627D01*
X1756397Y1421784D01*
X1756669Y1423150D01*
Y1434350D01*
X1756397Y1435716D01*
X1755623Y1436873D01*
X1754466Y1437647D01*
X1753100Y1437919D01*
D02*
G37*
G36*
X1437021Y1425691D02*
X1435617Y1425412D01*
X1434426Y1424616D01*
X1433630Y1423425D01*
X1433351Y1422021D01*
X1433630Y1420616D01*
X1434426Y1419425D01*
X1435617Y1418629D01*
X1437021Y1418350D01*
X1438426Y1418629D01*
X1439617Y1419425D01*
X1440412Y1420616D01*
X1440692Y1422021D01*
X1440412Y1423425D01*
X1439617Y1424616D01*
X1438426Y1425412D01*
X1437021Y1425691D01*
D02*
G37*
G36*
X1458272Y1423191D02*
X1456868Y1422912D01*
X1455677Y1422116D01*
X1454881Y1420925D01*
X1454602Y1419521D01*
X1454881Y1418116D01*
X1455677Y1416925D01*
X1456868Y1416129D01*
X1458272Y1415850D01*
X1459677Y1416129D01*
X1460868Y1416925D01*
X1461664Y1418116D01*
X1461943Y1419521D01*
X1461664Y1420925D01*
X1460868Y1422116D01*
X1459677Y1422912D01*
X1458272Y1423191D01*
D02*
G37*
G36*
X1136550Y1431237D02*
X1133913Y1430890D01*
X1131456Y1429872D01*
X1129347Y1428253D01*
X1127728Y1426144D01*
X1126710Y1423687D01*
X1126363Y1421050D01*
X1126710Y1418413D01*
X1127728Y1415957D01*
X1129347Y1413847D01*
X1131456Y1412228D01*
X1133913Y1411210D01*
X1136550Y1410863D01*
X1139187Y1411210D01*
X1141644Y1412228D01*
X1143753Y1413847D01*
X1145372Y1415957D01*
X1146390Y1418413D01*
X1146737Y1421050D01*
X1146390Y1423687D01*
X1145372Y1426144D01*
X1143753Y1428253D01*
X1141644Y1429872D01*
X1139187Y1430890D01*
X1136550Y1431237D01*
D02*
G37*
G36*
X1205250Y1419440D02*
X1203455Y1419083D01*
X1201934Y1418066D01*
X1200917Y1416545D01*
X1200560Y1414750D01*
X1200917Y1412955D01*
X1201934Y1411434D01*
X1203455Y1410417D01*
X1205250Y1410060D01*
X1207045Y1410417D01*
X1208566Y1411434D01*
X1209583Y1412955D01*
X1209940Y1414750D01*
X1209583Y1416545D01*
X1208566Y1418066D01*
X1207045Y1419083D01*
X1205250Y1419440D01*
D02*
G37*
G36*
X1010000Y1416171D02*
X1008595Y1415891D01*
X1007405Y1415095D01*
X1006609Y1413905D01*
X1006329Y1412500D01*
X1006609Y1411095D01*
X1007405Y1409904D01*
X1008595Y1409109D01*
X1010000Y1408829D01*
X1011405Y1409109D01*
X1012596Y1409904D01*
X1013391Y1411095D01*
X1013671Y1412500D01*
X1013391Y1413905D01*
X1012596Y1415095D01*
X1011405Y1415891D01*
X1010000Y1416171D01*
D02*
G37*
G36*
X1617000Y1410196D02*
X1615595Y1409916D01*
X1614405Y1409120D01*
X1613609Y1407930D01*
X1613329Y1406525D01*
X1613609Y1405120D01*
X1614405Y1403930D01*
X1615595Y1403134D01*
X1617000Y1402854D01*
X1618405Y1403134D01*
X1619595Y1403930D01*
X1620391Y1405120D01*
X1620670Y1406525D01*
X1620391Y1407930D01*
X1619595Y1409120D01*
X1618405Y1409916D01*
X1617000Y1410196D01*
D02*
G37*
G36*
X1327000Y1409671D02*
X1325595Y1409391D01*
X1324405Y1408595D01*
X1323609Y1407405D01*
X1323329Y1406000D01*
X1323609Y1404595D01*
X1324405Y1403405D01*
X1325595Y1402609D01*
X1327000Y1402330D01*
X1328405Y1402609D01*
X1329595Y1403405D01*
X1330391Y1404595D01*
X1330670Y1406000D01*
X1330391Y1407405D01*
X1329595Y1408595D01*
X1328405Y1409391D01*
X1327000Y1409671D01*
D02*
G37*
G36*
X1565000Y1408671D02*
X1563595Y1408391D01*
X1562404Y1407596D01*
X1561609Y1406405D01*
X1561329Y1405000D01*
X1561609Y1403595D01*
X1562404Y1402405D01*
X1563595Y1401609D01*
X1565000Y1401329D01*
X1566405Y1401609D01*
X1567595Y1402405D01*
X1568391Y1403595D01*
X1568671Y1405000D01*
X1568391Y1406405D01*
X1567595Y1407596D01*
X1566405Y1408391D01*
X1565000Y1408671D01*
D02*
G37*
G36*
X1475773Y1406440D02*
X1474369Y1406161D01*
X1473178Y1405365D01*
X1472382Y1404174D01*
X1472103Y1402770D01*
X1472382Y1401365D01*
X1473178Y1400174D01*
X1474369Y1399379D01*
X1475773Y1399099D01*
X1477178Y1399379D01*
X1478369Y1400174D01*
X1479164Y1401365D01*
X1479444Y1402770D01*
X1479164Y1404174D01*
X1478369Y1405365D01*
X1477178Y1406161D01*
X1475773Y1406440D01*
D02*
G37*
G36*
X1161950Y1418537D02*
X1159313Y1418190D01*
X1156856Y1417172D01*
X1154747Y1415553D01*
X1153128Y1413444D01*
X1152110Y1410987D01*
X1151763Y1408350D01*
X1152110Y1405713D01*
X1153128Y1403257D01*
X1154747Y1401147D01*
X1156856Y1399528D01*
X1159313Y1398510D01*
X1161950Y1398163D01*
X1164587Y1398510D01*
X1167044Y1399528D01*
X1169153Y1401147D01*
X1170772Y1403257D01*
X1171790Y1405713D01*
X1172137Y1408350D01*
X1171790Y1410987D01*
X1170772Y1413444D01*
X1169153Y1415553D01*
X1167044Y1417172D01*
X1164587Y1418190D01*
X1161950Y1418537D01*
D02*
G37*
G36*
X1606250Y1404671D02*
X1604845Y1404391D01*
X1603655Y1403595D01*
X1602859Y1402405D01*
X1602579Y1401000D01*
X1602859Y1399595D01*
X1603655Y1398405D01*
X1604845Y1397609D01*
X1606250Y1397330D01*
X1607655Y1397609D01*
X1608845Y1398405D01*
X1609641Y1399595D01*
X1609921Y1401000D01*
X1609641Y1402405D01*
X1608845Y1403595D01*
X1607655Y1404391D01*
X1606250Y1404671D01*
D02*
G37*
G36*
X1790000Y1403671D02*
X1788595Y1403391D01*
X1787405Y1402595D01*
X1786609Y1401405D01*
X1786329Y1400000D01*
X1786609Y1398595D01*
X1787405Y1397404D01*
X1788595Y1396609D01*
X1790000Y1396329D01*
X1791405Y1396609D01*
X1792595Y1397404D01*
X1793391Y1398595D01*
X1793671Y1400000D01*
X1793391Y1401405D01*
X1792595Y1402595D01*
X1791405Y1403391D01*
X1790000Y1403671D01*
D02*
G37*
G36*
X1725000D02*
X1723595Y1403391D01*
X1722405Y1402595D01*
X1721609Y1401405D01*
X1721329Y1400000D01*
X1721609Y1398595D01*
X1722405Y1397404D01*
X1723595Y1396609D01*
X1725000Y1396329D01*
X1726405Y1396609D01*
X1727596Y1397404D01*
X1728391Y1398595D01*
X1728671Y1400000D01*
X1728391Y1401405D01*
X1727596Y1402595D01*
X1726405Y1403391D01*
X1725000Y1403671D01*
D02*
G37*
G36*
X1700000D02*
X1698595Y1403391D01*
X1697405Y1402595D01*
X1696609Y1401405D01*
X1696329Y1400000D01*
X1696609Y1398595D01*
X1697405Y1397404D01*
X1698595Y1396609D01*
X1700000Y1396329D01*
X1701405Y1396609D01*
X1702596Y1397404D01*
X1703391Y1398595D01*
X1703671Y1400000D01*
X1703391Y1401405D01*
X1702596Y1402595D01*
X1701405Y1403391D01*
X1700000Y1403671D01*
D02*
G37*
G36*
X1100000D02*
X1098595Y1403391D01*
X1097405Y1402595D01*
X1096609Y1401405D01*
X1096329Y1400000D01*
X1096609Y1398595D01*
X1097405Y1397404D01*
X1098595Y1396609D01*
X1100000Y1396329D01*
X1101405Y1396609D01*
X1102596Y1397404D01*
X1103391Y1398595D01*
X1103671Y1400000D01*
X1103391Y1401405D01*
X1102596Y1402595D01*
X1101405Y1403391D01*
X1100000Y1403671D01*
D02*
G37*
G36*
X1075000D02*
X1073595Y1403391D01*
X1072405Y1402595D01*
X1071609Y1401405D01*
X1071329Y1400000D01*
X1071609Y1398595D01*
X1072405Y1397404D01*
X1073595Y1396609D01*
X1075000Y1396329D01*
X1076405Y1396609D01*
X1077596Y1397404D01*
X1078391Y1398595D01*
X1078671Y1400000D01*
X1078391Y1401405D01*
X1077596Y1402595D01*
X1076405Y1403391D01*
X1075000Y1403671D01*
D02*
G37*
G36*
X1677250Y1403421D02*
X1675845Y1403141D01*
X1674655Y1402345D01*
X1673859Y1401155D01*
X1673580Y1399750D01*
X1673859Y1398345D01*
X1674655Y1397155D01*
X1675845Y1396359D01*
X1677250Y1396080D01*
X1678655Y1396359D01*
X1679845Y1397155D01*
X1680641Y1398345D01*
X1680921Y1399750D01*
X1680641Y1401155D01*
X1679845Y1402345D01*
X1678655Y1403141D01*
X1677250Y1403421D01*
D02*
G37*
G36*
X1317250Y1400421D02*
X1315845Y1400141D01*
X1314655Y1399346D01*
X1313859Y1398155D01*
X1313580Y1396750D01*
X1313859Y1395345D01*
X1314655Y1394155D01*
X1315845Y1393359D01*
X1317250Y1393080D01*
X1318655Y1393359D01*
X1319845Y1394155D01*
X1320641Y1395345D01*
X1320921Y1396750D01*
X1320641Y1398155D01*
X1319845Y1399346D01*
X1318655Y1400141D01*
X1317250Y1400421D01*
D02*
G37*
G36*
X1391000Y1400170D02*
X1389595Y1399891D01*
X1388405Y1399095D01*
X1387609Y1397905D01*
X1387330Y1396500D01*
X1387609Y1395095D01*
X1388405Y1393905D01*
X1389595Y1393109D01*
X1391000Y1392829D01*
X1392405Y1393109D01*
X1393595Y1393905D01*
X1394391Y1395095D01*
X1394671Y1396500D01*
X1394391Y1397905D01*
X1393595Y1399095D01*
X1392405Y1399891D01*
X1391000Y1400170D01*
D02*
G37*
G36*
X1555000Y1398671D02*
X1553595Y1398391D01*
X1552405Y1397596D01*
X1551609Y1396405D01*
X1551329Y1395000D01*
X1551609Y1393595D01*
X1552405Y1392405D01*
X1553595Y1391609D01*
X1555000Y1391329D01*
X1556405Y1391609D01*
X1557596Y1392405D01*
X1558391Y1393595D01*
X1558671Y1395000D01*
X1558391Y1396405D01*
X1557596Y1397596D01*
X1556405Y1398391D01*
X1555000Y1398671D01*
D02*
G37*
G36*
X1545000D02*
X1543595Y1398391D01*
X1542405Y1397596D01*
X1541609Y1396405D01*
X1541329Y1395000D01*
X1541609Y1393595D01*
X1542405Y1392405D01*
X1543595Y1391609D01*
X1545000Y1391329D01*
X1546405Y1391609D01*
X1547596Y1392405D01*
X1548391Y1393595D01*
X1548671Y1395000D01*
X1548391Y1396405D01*
X1547596Y1397596D01*
X1546405Y1398391D01*
X1545000Y1398671D01*
D02*
G37*
G36*
X1010000D02*
X1008595Y1398391D01*
X1007405Y1397596D01*
X1006609Y1396405D01*
X1006329Y1395000D01*
X1006609Y1393595D01*
X1007405Y1392405D01*
X1008595Y1391609D01*
X1010000Y1391329D01*
X1011405Y1391609D01*
X1012596Y1392405D01*
X1013391Y1393595D01*
X1013671Y1395000D01*
X1013391Y1396405D01*
X1012596Y1397596D01*
X1011405Y1398391D01*
X1010000Y1398671D01*
D02*
G37*
G36*
X1377518Y1398440D02*
X1376114Y1398160D01*
X1374923Y1397365D01*
X1374127Y1396174D01*
X1373848Y1394769D01*
X1374127Y1393365D01*
X1374923Y1392174D01*
X1376114Y1391378D01*
X1377518Y1391099D01*
X1378923Y1391378D01*
X1380114Y1392174D01*
X1380910Y1393365D01*
X1381189Y1394769D01*
X1380910Y1396174D01*
X1380114Y1397365D01*
X1378923Y1398160D01*
X1377518Y1398440D01*
D02*
G37*
G36*
X1465000Y1397690D02*
X1463595Y1397410D01*
X1462405Y1396615D01*
X1461609Y1395424D01*
X1461329Y1394019D01*
X1461609Y1392615D01*
X1462405Y1391424D01*
X1463595Y1390628D01*
X1465000Y1390349D01*
X1466405Y1390628D01*
X1467596Y1391424D01*
X1468391Y1392615D01*
X1468671Y1394019D01*
X1468391Y1395424D01*
X1467596Y1396615D01*
X1466405Y1397410D01*
X1465000Y1397690D01*
D02*
G37*
G36*
X1656750Y1396171D02*
X1655345Y1395891D01*
X1654155Y1395096D01*
X1653359Y1393905D01*
X1653080Y1392500D01*
X1653359Y1391095D01*
X1654155Y1389905D01*
X1655345Y1389109D01*
X1656750Y1388829D01*
X1658155Y1389109D01*
X1659345Y1389905D01*
X1660141Y1391095D01*
X1660421Y1392500D01*
X1660141Y1393905D01*
X1659345Y1395096D01*
X1658155Y1395891D01*
X1656750Y1396171D01*
D02*
G37*
G36*
X1582000Y1408891D02*
X1579233Y1408527D01*
X1576654Y1407459D01*
X1574440Y1405760D01*
X1572741Y1403546D01*
X1571673Y1400967D01*
X1571309Y1398200D01*
X1571673Y1395433D01*
X1572741Y1392854D01*
X1574440Y1390640D01*
X1576654Y1388941D01*
X1579233Y1387873D01*
X1582000Y1387509D01*
X1584767Y1387873D01*
X1587346Y1388941D01*
X1589560Y1390640D01*
X1591259Y1392854D01*
X1592327Y1395433D01*
X1592691Y1398200D01*
X1592327Y1400967D01*
X1591259Y1403546D01*
X1589560Y1405760D01*
X1587346Y1407459D01*
X1584767Y1408527D01*
X1582000Y1408891D01*
D02*
G37*
G36*
X1609500Y1393671D02*
X1608095Y1393391D01*
X1606905Y1392596D01*
X1606109Y1391405D01*
X1605829Y1390000D01*
X1606109Y1388595D01*
X1606905Y1387405D01*
X1608095Y1386609D01*
X1609500Y1386329D01*
X1610905Y1386609D01*
X1612095Y1387405D01*
X1612891Y1388595D01*
X1613170Y1390000D01*
X1612891Y1391405D01*
X1612095Y1392596D01*
X1610905Y1393391D01*
X1609500Y1393671D01*
D02*
G37*
G36*
X1136550Y1405837D02*
X1133913Y1405490D01*
X1131456Y1404472D01*
X1129347Y1402853D01*
X1127728Y1400744D01*
X1126710Y1398287D01*
X1126363Y1395650D01*
X1126710Y1393013D01*
X1127728Y1390556D01*
X1129347Y1388447D01*
X1131456Y1386828D01*
X1133913Y1385810D01*
X1136550Y1385463D01*
X1139187Y1385810D01*
X1141644Y1386828D01*
X1143753Y1388447D01*
X1145372Y1390556D01*
X1146390Y1393013D01*
X1146737Y1395650D01*
X1146390Y1398287D01*
X1145372Y1400744D01*
X1143753Y1402853D01*
X1141644Y1404472D01*
X1139187Y1405490D01*
X1136550Y1405837D01*
D02*
G37*
G36*
X1555000Y1388671D02*
X1553595Y1388391D01*
X1552405Y1387596D01*
X1551609Y1386405D01*
X1551329Y1385000D01*
X1551609Y1383595D01*
X1552405Y1382405D01*
X1553595Y1381609D01*
X1555000Y1381329D01*
X1556405Y1381609D01*
X1557596Y1382405D01*
X1558391Y1383595D01*
X1558671Y1385000D01*
X1558391Y1386405D01*
X1557596Y1387596D01*
X1556405Y1388391D01*
X1555000Y1388671D01*
D02*
G37*
G36*
X1545000D02*
X1543595Y1388391D01*
X1542405Y1387596D01*
X1541609Y1386405D01*
X1541329Y1385000D01*
X1541609Y1383595D01*
X1542405Y1382405D01*
X1543595Y1381609D01*
X1545000Y1381329D01*
X1546405Y1381609D01*
X1547596Y1382405D01*
X1548391Y1383595D01*
X1548671Y1385000D01*
X1548391Y1386405D01*
X1547596Y1387596D01*
X1546405Y1388391D01*
X1545000Y1388671D01*
D02*
G37*
G36*
X1326750Y1386920D02*
X1325345Y1386641D01*
X1324155Y1385845D01*
X1323359Y1384655D01*
X1323080Y1383250D01*
X1323359Y1381845D01*
X1324155Y1380655D01*
X1325345Y1379859D01*
X1326750Y1379579D01*
X1328155Y1379859D01*
X1329345Y1380655D01*
X1330141Y1381845D01*
X1330421Y1383250D01*
X1330141Y1384655D01*
X1329345Y1385845D01*
X1328155Y1386641D01*
X1326750Y1386920D01*
D02*
G37*
G36*
X1589000Y1386420D02*
X1587595Y1386141D01*
X1586405Y1385345D01*
X1585609Y1384155D01*
X1585329Y1382750D01*
X1585609Y1381345D01*
X1586405Y1380155D01*
X1587595Y1379359D01*
X1589000Y1379079D01*
X1590405Y1379359D01*
X1591595Y1380155D01*
X1592391Y1381345D01*
X1592670Y1382750D01*
X1592391Y1384155D01*
X1591595Y1385345D01*
X1590405Y1386141D01*
X1589000Y1386420D01*
D02*
G37*
G36*
X1525750Y1381420D02*
X1524345Y1381141D01*
X1523155Y1380345D01*
X1522359Y1379155D01*
X1522079Y1377750D01*
X1522359Y1376345D01*
X1523155Y1375155D01*
X1524345Y1374359D01*
X1525750Y1374079D01*
X1527155Y1374359D01*
X1528345Y1375155D01*
X1529141Y1376345D01*
X1529420Y1377750D01*
X1529141Y1379155D01*
X1528345Y1380345D01*
X1527155Y1381141D01*
X1525750Y1381420D01*
D02*
G37*
G36*
X1161950Y1393137D02*
X1159313Y1392790D01*
X1156856Y1391772D01*
X1154747Y1390153D01*
X1153128Y1388044D01*
X1152110Y1385587D01*
X1151763Y1382950D01*
X1152110Y1380313D01*
X1153128Y1377856D01*
X1154747Y1375747D01*
X1156856Y1374128D01*
X1159313Y1373110D01*
X1161950Y1372763D01*
X1164587Y1373110D01*
X1167044Y1374128D01*
X1169153Y1375747D01*
X1170772Y1377856D01*
X1171790Y1380313D01*
X1172137Y1382950D01*
X1171790Y1385587D01*
X1170772Y1388044D01*
X1169153Y1390153D01*
X1167044Y1391772D01*
X1164587Y1392790D01*
X1161950Y1393137D01*
D02*
G37*
G36*
X1790000Y1378671D02*
X1788595Y1378391D01*
X1787405Y1377596D01*
X1786609Y1376405D01*
X1786329Y1375000D01*
X1786609Y1373595D01*
X1787405Y1372405D01*
X1788595Y1371609D01*
X1790000Y1371329D01*
X1791405Y1371609D01*
X1792595Y1372405D01*
X1793391Y1373595D01*
X1793671Y1375000D01*
X1793391Y1376405D01*
X1792595Y1377596D01*
X1791405Y1378391D01*
X1790000Y1378671D01*
D02*
G37*
G36*
X1100000D02*
X1098595Y1378391D01*
X1097405Y1377596D01*
X1096609Y1376405D01*
X1096329Y1375000D01*
X1096609Y1373595D01*
X1097405Y1372405D01*
X1098595Y1371609D01*
X1100000Y1371329D01*
X1101405Y1371609D01*
X1102596Y1372405D01*
X1103391Y1373595D01*
X1103671Y1375000D01*
X1103391Y1376405D01*
X1102596Y1377596D01*
X1101405Y1378391D01*
X1100000Y1378671D01*
D02*
G37*
G36*
X1075000D02*
X1073595Y1378391D01*
X1072405Y1377596D01*
X1071609Y1376405D01*
X1071329Y1375000D01*
X1071609Y1373595D01*
X1072405Y1372405D01*
X1073595Y1371609D01*
X1075000Y1371329D01*
X1076405Y1371609D01*
X1077596Y1372405D01*
X1078391Y1373595D01*
X1078671Y1375000D01*
X1078391Y1376405D01*
X1077596Y1377596D01*
X1076405Y1378391D01*
X1075000Y1378671D01*
D02*
G37*
G36*
X1010000D02*
X1008595Y1378391D01*
X1007405Y1377596D01*
X1006609Y1376405D01*
X1006329Y1375000D01*
X1006609Y1373595D01*
X1007405Y1372405D01*
X1008595Y1371609D01*
X1010000Y1371329D01*
X1011405Y1371609D01*
X1012596Y1372405D01*
X1013391Y1373595D01*
X1013671Y1375000D01*
X1013391Y1376405D01*
X1012596Y1377596D01*
X1011405Y1378391D01*
X1010000Y1378671D01*
D02*
G37*
G36*
X1231761Y1379208D02*
X1229967Y1378851D01*
X1228445Y1377835D01*
X1227428Y1376313D01*
X1227071Y1374518D01*
X1227428Y1372724D01*
X1228445Y1371202D01*
X1229967Y1370185D01*
X1231761Y1369828D01*
X1233556Y1370185D01*
X1235078Y1371202D01*
X1236094Y1372724D01*
X1236451Y1374518D01*
X1236094Y1376313D01*
X1235078Y1377835D01*
X1233556Y1378851D01*
X1231761Y1379208D01*
D02*
G37*
G36*
X1202250Y1372421D02*
X1200845Y1372141D01*
X1199654Y1371346D01*
X1198859Y1370155D01*
X1198579Y1368750D01*
X1198859Y1367345D01*
X1199654Y1366155D01*
X1200845Y1365359D01*
X1202250Y1365079D01*
X1203655Y1365359D01*
X1204845Y1366155D01*
X1205641Y1367345D01*
X1205920Y1368750D01*
X1205641Y1370155D01*
X1204845Y1371346D01*
X1203655Y1372141D01*
X1202250Y1372421D01*
D02*
G37*
G36*
X1629000Y1368671D02*
X1627595Y1368391D01*
X1626405Y1367596D01*
X1625609Y1366405D01*
X1625329Y1365000D01*
X1625609Y1363595D01*
X1626405Y1362405D01*
X1627595Y1361609D01*
X1629000Y1361329D01*
X1630405Y1361609D01*
X1631595Y1362405D01*
X1632391Y1363595D01*
X1632670Y1365000D01*
X1632391Y1366405D01*
X1631595Y1367596D01*
X1630405Y1368391D01*
X1629000Y1368671D01*
D02*
G37*
G36*
X1136550Y1380437D02*
X1133913Y1380090D01*
X1131456Y1379072D01*
X1129347Y1377453D01*
X1127728Y1375344D01*
X1126710Y1372887D01*
X1126363Y1370250D01*
X1126710Y1367613D01*
X1127728Y1365157D01*
X1129347Y1363047D01*
X1131456Y1361428D01*
X1133913Y1360410D01*
X1136550Y1360063D01*
X1139187Y1360410D01*
X1141644Y1361428D01*
X1143753Y1363047D01*
X1145372Y1365157D01*
X1146390Y1367613D01*
X1146737Y1370250D01*
X1146390Y1372887D01*
X1145372Y1375344D01*
X1143753Y1377453D01*
X1141644Y1379072D01*
X1139187Y1380090D01*
X1136550Y1380437D01*
D02*
G37*
G36*
X1211250Y1365670D02*
X1209845Y1365391D01*
X1208655Y1364595D01*
X1207859Y1363405D01*
X1207579Y1362000D01*
X1207859Y1360595D01*
X1208655Y1359405D01*
X1209845Y1358609D01*
X1211250Y1358329D01*
X1212655Y1358609D01*
X1213846Y1359405D01*
X1214641Y1360595D01*
X1214921Y1362000D01*
X1214641Y1363405D01*
X1213846Y1364595D01*
X1212655Y1365391D01*
X1211250Y1365670D01*
D02*
G37*
G36*
X1306750Y1361920D02*
X1305345Y1361641D01*
X1304155Y1360845D01*
X1303359Y1359655D01*
X1303080Y1358250D01*
X1303359Y1356845D01*
X1304155Y1355655D01*
X1305345Y1354859D01*
X1306750Y1354579D01*
X1308155Y1354859D01*
X1309346Y1355655D01*
X1310141Y1356845D01*
X1310421Y1358250D01*
X1310141Y1359655D01*
X1309346Y1360845D01*
X1308155Y1361641D01*
X1306750Y1361920D01*
D02*
G37*
G36*
X1234500Y1422411D02*
X1232646Y1422167D01*
X1230919Y1421452D01*
X1229436Y1420314D01*
X1229341Y1420190D01*
X1224250D01*
X1222455Y1419833D01*
X1220934Y1418816D01*
X1181684Y1379566D01*
X1180667Y1378045D01*
X1180310Y1376250D01*
Y1339943D01*
X1172217Y1331850D01*
X1171750Y1331911D01*
X1169896Y1331667D01*
X1168169Y1330952D01*
X1166686Y1329814D01*
X1165548Y1328331D01*
X1164833Y1326604D01*
X1164589Y1324750D01*
X1164833Y1322897D01*
X1165548Y1321169D01*
X1166686Y1319686D01*
X1167060Y1319400D01*
Y1317350D01*
X1166686Y1317064D01*
X1165548Y1315581D01*
X1164833Y1313853D01*
X1164589Y1312000D01*
X1164833Y1310147D01*
X1165548Y1308419D01*
X1166686Y1306936D01*
X1168169Y1305798D01*
X1169896Y1305083D01*
X1171750Y1304839D01*
X1173604Y1305083D01*
X1175331Y1305798D01*
X1176814Y1306936D01*
X1177952Y1308419D01*
X1178667Y1310147D01*
X1178911Y1312000D01*
X1178667Y1313853D01*
X1177952Y1315581D01*
X1176814Y1317064D01*
X1176440Y1317350D01*
Y1319400D01*
X1176814Y1319686D01*
X1177952Y1321169D01*
X1178667Y1322897D01*
X1178911Y1324750D01*
X1178850Y1325217D01*
X1188316Y1334684D01*
X1189333Y1336205D01*
X1189690Y1338000D01*
Y1374307D01*
X1226193Y1410810D01*
X1228958D01*
X1229436Y1410186D01*
X1229810Y1409899D01*
Y1407350D01*
X1229436Y1407064D01*
X1228298Y1405581D01*
X1227583Y1403853D01*
X1227339Y1402000D01*
X1227583Y1400147D01*
X1228298Y1398419D01*
X1229436Y1396936D01*
X1230919Y1395798D01*
X1232646Y1395083D01*
X1234500Y1394839D01*
X1236354Y1395083D01*
X1238081Y1395798D01*
X1239564Y1396936D01*
X1239850Y1397310D01*
X1246807D01*
X1278560Y1365557D01*
Y1350600D01*
X1278186Y1350314D01*
X1277048Y1348831D01*
X1276333Y1347103D01*
X1276146Y1345689D01*
X1276089Y1345250D01*
X1276059Y1345215D01*
X1274697Y1345556D01*
X1274596Y1346062D01*
X1273580Y1347583D01*
X1272058Y1348600D01*
X1270263Y1348957D01*
X1268468Y1348600D01*
X1266947Y1347583D01*
X1265930Y1346062D01*
X1265573Y1344267D01*
X1265930Y1342472D01*
X1266947Y1340950D01*
X1268468Y1339934D01*
X1270263Y1339577D01*
X1272058Y1339934D01*
X1273580Y1340950D01*
X1274596Y1342472D01*
X1274732Y1343155D01*
X1276135Y1343698D01*
X1276310Y1343568D01*
X1276333Y1343397D01*
X1277048Y1341669D01*
X1278186Y1340186D01*
X1279669Y1339048D01*
X1281396Y1338333D01*
X1283250Y1338089D01*
X1285103Y1338333D01*
X1286831Y1339048D01*
X1288314Y1340186D01*
X1288600Y1340560D01*
X1290399D01*
X1290686Y1340186D01*
X1292169Y1339048D01*
X1293896Y1338333D01*
X1295750Y1338089D01*
X1297603Y1338333D01*
X1299331Y1339048D01*
X1300814Y1340186D01*
X1301952Y1341669D01*
X1302667Y1343397D01*
X1302911Y1345250D01*
X1302667Y1347103D01*
X1301952Y1348831D01*
X1300814Y1350314D01*
X1299331Y1351452D01*
X1297603Y1352167D01*
X1295750Y1352411D01*
X1293896Y1352167D01*
X1292169Y1351452D01*
X1290686Y1350314D01*
X1290399Y1349940D01*
X1288600D01*
X1288314Y1350314D01*
X1287940Y1350600D01*
Y1357468D01*
X1289210Y1357593D01*
X1289359Y1356845D01*
X1290155Y1355655D01*
X1291345Y1354859D01*
X1292750Y1354579D01*
X1294155Y1354859D01*
X1295345Y1355655D01*
X1296141Y1356845D01*
X1296420Y1358250D01*
X1296141Y1359655D01*
X1295345Y1360845D01*
X1294155Y1361641D01*
X1292750Y1361920D01*
X1291345Y1361641D01*
X1290155Y1360845D01*
X1289359Y1359655D01*
X1289210Y1358907D01*
X1287940Y1359032D01*
Y1367500D01*
X1287583Y1369295D01*
X1286566Y1370816D01*
X1252066Y1405316D01*
X1250545Y1406333D01*
X1248750Y1406690D01*
X1239850D01*
X1239564Y1407064D01*
X1239190Y1407350D01*
Y1409899D01*
X1239564Y1410186D01*
X1240702Y1411669D01*
X1241417Y1413396D01*
X1241661Y1415250D01*
X1241417Y1417103D01*
X1240702Y1418831D01*
X1239564Y1420314D01*
X1238081Y1421452D01*
X1236354Y1422167D01*
X1234500Y1422411D01*
D02*
G37*
G36*
X1575750Y1360421D02*
X1574345Y1360141D01*
X1573155Y1359346D01*
X1572359Y1358155D01*
X1572079Y1356750D01*
X1572359Y1355345D01*
X1573155Y1354155D01*
X1574345Y1353359D01*
X1575750Y1353080D01*
X1577155Y1353359D01*
X1578345Y1354155D01*
X1579141Y1355345D01*
X1579420Y1356750D01*
X1579141Y1358155D01*
X1578345Y1359346D01*
X1577155Y1360141D01*
X1575750Y1360421D01*
D02*
G37*
G36*
X1524500D02*
X1523095Y1360141D01*
X1521905Y1359346D01*
X1521109Y1358155D01*
X1520829Y1356750D01*
X1521109Y1355345D01*
X1521905Y1354155D01*
X1523095Y1353359D01*
X1524500Y1353080D01*
X1525905Y1353359D01*
X1527095Y1354155D01*
X1527891Y1355345D01*
X1528170Y1356750D01*
X1527891Y1358155D01*
X1527095Y1359346D01*
X1525905Y1360141D01*
X1524500Y1360421D01*
D02*
G37*
G36*
X1557750Y1360170D02*
X1556345Y1359891D01*
X1555155Y1359095D01*
X1554359Y1357905D01*
X1554079Y1356500D01*
X1554359Y1355095D01*
X1555155Y1353905D01*
X1556345Y1353109D01*
X1557750Y1352829D01*
X1559155Y1353109D01*
X1560345Y1353905D01*
X1561141Y1355095D01*
X1561420Y1356500D01*
X1561141Y1357905D01*
X1560345Y1359095D01*
X1559155Y1359891D01*
X1557750Y1360170D01*
D02*
G37*
G36*
X1669750Y1357921D02*
X1668345Y1357641D01*
X1667155Y1356845D01*
X1666359Y1355655D01*
X1666080Y1354250D01*
X1666359Y1352845D01*
X1667155Y1351655D01*
X1668345Y1350859D01*
X1669750Y1350580D01*
X1671155Y1350859D01*
X1672345Y1351655D01*
X1673141Y1352845D01*
X1673421Y1354250D01*
X1673141Y1355655D01*
X1672345Y1356845D01*
X1671155Y1357641D01*
X1669750Y1357921D01*
D02*
G37*
G36*
X1024050Y1372346D02*
X1021152Y1371964D01*
X1018452Y1370846D01*
X1016133Y1369067D01*
X1014354Y1366748D01*
X1013236Y1364048D01*
X1012854Y1361150D01*
X1013236Y1358252D01*
X1014354Y1355552D01*
X1016133Y1353233D01*
X1018452Y1351454D01*
X1021152Y1350336D01*
X1024050Y1349954D01*
X1026948Y1350336D01*
X1029648Y1351454D01*
X1031967Y1353233D01*
X1033746Y1355552D01*
X1034864Y1358252D01*
X1035246Y1361150D01*
X1034864Y1364048D01*
X1033746Y1366748D01*
X1031967Y1369067D01*
X1029648Y1370846D01*
X1026948Y1371964D01*
X1024050Y1372346D01*
D02*
G37*
G36*
X1331250Y1357690D02*
X1329455Y1357333D01*
X1327934Y1356316D01*
X1326917Y1354795D01*
X1326560Y1353000D01*
X1326917Y1351205D01*
X1327934Y1349684D01*
X1329455Y1348667D01*
X1331250Y1348310D01*
X1333045Y1348667D01*
X1334566Y1349684D01*
X1335583Y1351205D01*
X1335940Y1353000D01*
X1335583Y1354795D01*
X1334566Y1356316D01*
X1333045Y1357333D01*
X1331250Y1357690D01*
D02*
G37*
G36*
X1318000D02*
X1316205Y1357333D01*
X1314684Y1356316D01*
X1313667Y1354795D01*
X1313310Y1353000D01*
X1313667Y1351205D01*
X1314684Y1349684D01*
X1316205Y1348667D01*
X1318000Y1348310D01*
X1319795Y1348667D01*
X1321316Y1349684D01*
X1322333Y1351205D01*
X1322690Y1353000D01*
X1322333Y1354795D01*
X1321316Y1356316D01*
X1319795Y1357333D01*
X1318000Y1357690D01*
D02*
G37*
G36*
X1161950Y1367737D02*
X1159313Y1367390D01*
X1156856Y1366372D01*
X1154747Y1364753D01*
X1153128Y1362644D01*
X1152110Y1360187D01*
X1151763Y1357550D01*
X1152110Y1354913D01*
X1153128Y1352457D01*
X1154747Y1350347D01*
X1156856Y1348728D01*
X1159313Y1347710D01*
X1161950Y1347363D01*
X1164587Y1347710D01*
X1167044Y1348728D01*
X1169153Y1350347D01*
X1170772Y1352457D01*
X1171790Y1354913D01*
X1172137Y1357550D01*
X1171790Y1360187D01*
X1170772Y1362644D01*
X1169153Y1364753D01*
X1167044Y1366372D01*
X1164587Y1367390D01*
X1161950Y1367737D01*
D02*
G37*
G36*
X1790000Y1353671D02*
X1788595Y1353391D01*
X1787405Y1352596D01*
X1786609Y1351405D01*
X1786329Y1350000D01*
X1786609Y1348595D01*
X1787405Y1347405D01*
X1788595Y1346609D01*
X1790000Y1346329D01*
X1791405Y1346609D01*
X1792595Y1347405D01*
X1793391Y1348595D01*
X1793671Y1350000D01*
X1793391Y1351405D01*
X1792595Y1352596D01*
X1791405Y1353391D01*
X1790000Y1353671D01*
D02*
G37*
G36*
X1010000D02*
X1008595Y1353391D01*
X1007405Y1352596D01*
X1006609Y1351405D01*
X1006329Y1350000D01*
X1006609Y1348595D01*
X1007405Y1347405D01*
X1008595Y1346609D01*
X1010000Y1346329D01*
X1011405Y1346609D01*
X1012596Y1347405D01*
X1013391Y1348595D01*
X1013671Y1350000D01*
X1013391Y1351405D01*
X1012596Y1352596D01*
X1011405Y1353391D01*
X1010000Y1353671D01*
D02*
G37*
G36*
X1538750Y1350921D02*
X1537345Y1350641D01*
X1536154Y1349845D01*
X1535359Y1348655D01*
X1535079Y1347250D01*
X1535359Y1345845D01*
X1536154Y1344655D01*
X1537345Y1343859D01*
X1538750Y1343580D01*
X1540155Y1343859D01*
X1541345Y1344655D01*
X1542141Y1345845D01*
X1542421Y1347250D01*
X1542141Y1348655D01*
X1541345Y1349845D01*
X1540155Y1350641D01*
X1538750Y1350921D01*
D02*
G37*
G36*
X1775000Y1348671D02*
X1773595Y1348391D01*
X1772405Y1347596D01*
X1771609Y1346405D01*
X1771329Y1345000D01*
X1771609Y1343595D01*
X1772405Y1342405D01*
X1773595Y1341609D01*
X1775000Y1341329D01*
X1776405Y1341609D01*
X1777596Y1342405D01*
X1778391Y1343595D01*
X1778671Y1345000D01*
X1778391Y1346405D01*
X1777596Y1347596D01*
X1776405Y1348391D01*
X1775000Y1348671D01*
D02*
G37*
G36*
X1750000D02*
X1748595Y1348391D01*
X1747405Y1347596D01*
X1746609Y1346405D01*
X1746329Y1345000D01*
X1746609Y1343595D01*
X1747405Y1342405D01*
X1748595Y1341609D01*
X1750000Y1341329D01*
X1751405Y1341609D01*
X1752596Y1342405D01*
X1753391Y1343595D01*
X1753671Y1345000D01*
X1753391Y1346405D01*
X1752596Y1347596D01*
X1751405Y1348391D01*
X1750000Y1348671D01*
D02*
G37*
G36*
X1720000D02*
X1718595Y1348391D01*
X1717405Y1347596D01*
X1716609Y1346405D01*
X1716329Y1345000D01*
X1716609Y1343595D01*
X1717405Y1342405D01*
X1718595Y1341609D01*
X1720000Y1341329D01*
X1721405Y1341609D01*
X1722596Y1342405D01*
X1723391Y1343595D01*
X1723671Y1345000D01*
X1723391Y1346405D01*
X1722596Y1347596D01*
X1721405Y1348391D01*
X1720000Y1348671D01*
D02*
G37*
G36*
X1470250Y1345921D02*
X1468845Y1345641D01*
X1467655Y1344845D01*
X1466859Y1343655D01*
X1466579Y1342250D01*
X1466859Y1340845D01*
X1467655Y1339655D01*
X1468845Y1338859D01*
X1470250Y1338580D01*
X1471655Y1338859D01*
X1472845Y1339655D01*
X1473641Y1340845D01*
X1473920Y1342250D01*
X1473641Y1343655D01*
X1472845Y1344845D01*
X1471655Y1345641D01*
X1470250Y1345921D01*
D02*
G37*
G36*
X1690000Y1343671D02*
X1688595Y1343391D01*
X1687404Y1342596D01*
X1686609Y1341405D01*
X1686329Y1340000D01*
X1686609Y1338595D01*
X1687404Y1337405D01*
X1688595Y1336609D01*
X1690000Y1336329D01*
X1691405Y1336609D01*
X1692595Y1337405D01*
X1693391Y1338595D01*
X1693671Y1340000D01*
X1693391Y1341405D01*
X1692595Y1342596D01*
X1691405Y1343391D01*
X1690000Y1343671D01*
D02*
G37*
G36*
X1665000D02*
X1663595Y1343391D01*
X1662404Y1342596D01*
X1661609Y1341405D01*
X1661329Y1340000D01*
X1661609Y1338595D01*
X1662404Y1337405D01*
X1663595Y1336609D01*
X1665000Y1336329D01*
X1666405Y1336609D01*
X1667595Y1337405D01*
X1668391Y1338595D01*
X1668671Y1340000D01*
X1668391Y1341405D01*
X1667595Y1342596D01*
X1666405Y1343391D01*
X1665000Y1343671D01*
D02*
G37*
G36*
X1640000D02*
X1638595Y1343391D01*
X1637404Y1342596D01*
X1636609Y1341405D01*
X1636329Y1340000D01*
X1636609Y1338595D01*
X1637404Y1337405D01*
X1638595Y1336609D01*
X1640000Y1336329D01*
X1641405Y1336609D01*
X1642595Y1337405D01*
X1643391Y1338595D01*
X1643671Y1340000D01*
X1643391Y1341405D01*
X1642595Y1342596D01*
X1641405Y1343391D01*
X1640000Y1343671D01*
D02*
G37*
G36*
X1492750Y1342670D02*
X1491345Y1342391D01*
X1490155Y1341595D01*
X1489359Y1340405D01*
X1489079Y1339000D01*
X1489359Y1337595D01*
X1490155Y1336405D01*
X1491345Y1335609D01*
X1492750Y1335329D01*
X1494155Y1335609D01*
X1495345Y1336405D01*
X1496141Y1337595D01*
X1496420Y1339000D01*
X1496141Y1340405D01*
X1495345Y1341595D01*
X1494155Y1342391D01*
X1492750Y1342670D01*
D02*
G37*
G36*
X1387000Y1341920D02*
X1385595Y1341641D01*
X1384404Y1340845D01*
X1383609Y1339655D01*
X1383329Y1338250D01*
X1383609Y1336845D01*
X1384404Y1335655D01*
X1385595Y1334859D01*
X1387000Y1334579D01*
X1388405Y1334859D01*
X1389595Y1335655D01*
X1390391Y1336845D01*
X1390670Y1338250D01*
X1390391Y1339655D01*
X1389595Y1340845D01*
X1388405Y1341641D01*
X1387000Y1341920D01*
D02*
G37*
G36*
X1073050Y1363540D02*
X1069404Y1363181D01*
X1065898Y1362117D01*
X1062666Y1360390D01*
X1059834Y1358066D01*
X1057510Y1355234D01*
X1055783Y1352002D01*
X1054719Y1348496D01*
X1054360Y1344850D01*
X1054719Y1341204D01*
X1055783Y1337698D01*
X1057510Y1334466D01*
X1059834Y1331634D01*
X1062666Y1329310D01*
X1065898Y1327583D01*
X1069404Y1326519D01*
X1073050Y1326160D01*
X1076696Y1326519D01*
X1080202Y1327583D01*
X1083434Y1329310D01*
X1086266Y1331634D01*
X1088590Y1334466D01*
X1090317Y1337698D01*
X1091381Y1341204D01*
X1091740Y1344850D01*
X1091381Y1348496D01*
X1090317Y1352002D01*
X1088590Y1355234D01*
X1086266Y1358066D01*
X1083434Y1360390D01*
X1080202Y1362117D01*
X1076696Y1363181D01*
X1073050Y1363540D01*
D02*
G37*
G36*
X1042750Y1333170D02*
X1041345Y1332891D01*
X1040155Y1332095D01*
X1039359Y1330905D01*
X1039080Y1329500D01*
X1039359Y1328095D01*
X1040155Y1326905D01*
X1041345Y1326109D01*
X1042750Y1325829D01*
X1044155Y1326109D01*
X1045346Y1326905D01*
X1046141Y1328095D01*
X1046421Y1329500D01*
X1046141Y1330905D01*
X1045346Y1332095D01*
X1044155Y1332891D01*
X1042750Y1333170D01*
D02*
G37*
G36*
X1024050Y1346946D02*
X1021152Y1346564D01*
X1018452Y1345446D01*
X1016133Y1343667D01*
X1014354Y1341348D01*
X1013236Y1338648D01*
X1012854Y1335750D01*
X1013236Y1332852D01*
X1014354Y1330152D01*
X1016133Y1327833D01*
X1018452Y1326054D01*
X1021152Y1324936D01*
X1024050Y1324554D01*
X1026948Y1324936D01*
X1029648Y1326054D01*
X1031967Y1327833D01*
X1033746Y1330152D01*
X1034864Y1332852D01*
X1035246Y1335750D01*
X1034864Y1338648D01*
X1033746Y1341348D01*
X1031967Y1343667D01*
X1029648Y1345446D01*
X1026948Y1346564D01*
X1024050Y1346946D01*
D02*
G37*
G36*
X1481500Y1330421D02*
X1480095Y1330141D01*
X1478905Y1329345D01*
X1478109Y1328155D01*
X1477829Y1326750D01*
X1478109Y1325345D01*
X1478905Y1324155D01*
X1480095Y1323359D01*
X1481500Y1323080D01*
X1482905Y1323359D01*
X1484095Y1324155D01*
X1484891Y1325345D01*
X1485170Y1326750D01*
X1484891Y1328155D01*
X1484095Y1329345D01*
X1482905Y1330141D01*
X1481500Y1330421D01*
D02*
G37*
G36*
X1469000Y1330170D02*
X1467595Y1329891D01*
X1466405Y1329095D01*
X1465609Y1327905D01*
X1465329Y1326500D01*
X1465609Y1325095D01*
X1466405Y1323905D01*
X1467595Y1323109D01*
X1469000Y1322829D01*
X1470405Y1323109D01*
X1471595Y1323905D01*
X1472391Y1325095D01*
X1472670Y1326500D01*
X1472391Y1327905D01*
X1471595Y1329095D01*
X1470405Y1329891D01*
X1469000Y1330170D01*
D02*
G37*
G36*
X1445500D02*
X1444095Y1329891D01*
X1442905Y1329095D01*
X1442109Y1327905D01*
X1441830Y1326500D01*
X1442109Y1325095D01*
X1442905Y1323905D01*
X1444095Y1323109D01*
X1445500Y1322829D01*
X1446905Y1323109D01*
X1448096Y1323905D01*
X1448891Y1325095D01*
X1449171Y1326500D01*
X1448891Y1327905D01*
X1448096Y1329095D01*
X1446905Y1329891D01*
X1445500Y1330170D01*
D02*
G37*
G36*
X1153250Y1331690D02*
X1151455Y1331333D01*
X1149934Y1330316D01*
X1148917Y1328795D01*
X1148560Y1327000D01*
X1148917Y1325205D01*
X1149934Y1323684D01*
X1151455Y1322667D01*
X1153250Y1322310D01*
X1155045Y1322667D01*
X1156566Y1323684D01*
X1157583Y1325205D01*
X1157940Y1327000D01*
X1157583Y1328795D01*
X1156566Y1330316D01*
X1155045Y1331333D01*
X1153250Y1331690D01*
D02*
G37*
G36*
X1336500Y1329171D02*
X1335095Y1328891D01*
X1333905Y1328096D01*
X1333109Y1326905D01*
X1332829Y1325500D01*
X1333109Y1324095D01*
X1333905Y1322905D01*
X1335095Y1322109D01*
X1336500Y1321830D01*
X1337905Y1322109D01*
X1339095Y1322905D01*
X1339891Y1324095D01*
X1340170Y1325500D01*
X1339891Y1326905D01*
X1339095Y1328096D01*
X1337905Y1328891D01*
X1336500Y1329171D01*
D02*
G37*
G36*
X1010000Y1328671D02*
X1008595Y1328391D01*
X1007405Y1327596D01*
X1006609Y1326405D01*
X1006329Y1325000D01*
X1006609Y1323595D01*
X1007405Y1322405D01*
X1008595Y1321609D01*
X1010000Y1321329D01*
X1011405Y1321609D01*
X1012596Y1322405D01*
X1013391Y1323595D01*
X1013671Y1325000D01*
X1013391Y1326405D01*
X1012596Y1327596D01*
X1011405Y1328391D01*
X1010000Y1328671D01*
D02*
G37*
G36*
X1504250Y1326920D02*
X1502845Y1326641D01*
X1501655Y1325845D01*
X1500859Y1324655D01*
X1500580Y1323250D01*
X1500859Y1321845D01*
X1501655Y1320655D01*
X1502845Y1319859D01*
X1504250Y1319579D01*
X1505655Y1319859D01*
X1506845Y1320655D01*
X1507641Y1321845D01*
X1507921Y1323250D01*
X1507641Y1324655D01*
X1506845Y1325845D01*
X1505655Y1326641D01*
X1504250Y1326920D01*
D02*
G37*
G36*
X1570500Y1320170D02*
X1569095Y1319891D01*
X1567905Y1319095D01*
X1567109Y1317905D01*
X1566830Y1316500D01*
X1567109Y1315095D01*
X1567905Y1313905D01*
X1569095Y1313109D01*
X1570500Y1312829D01*
X1571905Y1313109D01*
X1573096Y1313905D01*
X1573891Y1315095D01*
X1574171Y1316500D01*
X1573891Y1317905D01*
X1573096Y1319095D01*
X1571905Y1319891D01*
X1570500Y1320170D01*
D02*
G37*
G36*
X1690000Y1318671D02*
X1688595Y1318391D01*
X1687404Y1317596D01*
X1686609Y1316405D01*
X1686329Y1315000D01*
X1686609Y1313595D01*
X1687404Y1312405D01*
X1688595Y1311609D01*
X1690000Y1311329D01*
X1691405Y1311609D01*
X1692595Y1312405D01*
X1693391Y1313595D01*
X1693671Y1315000D01*
X1693391Y1316405D01*
X1692595Y1317596D01*
X1691405Y1318391D01*
X1690000Y1318671D01*
D02*
G37*
G36*
X1665000D02*
X1663595Y1318391D01*
X1662404Y1317596D01*
X1661609Y1316405D01*
X1661329Y1315000D01*
X1661609Y1313595D01*
X1662404Y1312405D01*
X1663595Y1311609D01*
X1665000Y1311329D01*
X1666405Y1311609D01*
X1667595Y1312405D01*
X1668391Y1313595D01*
X1668671Y1315000D01*
X1668391Y1316405D01*
X1667595Y1317596D01*
X1666405Y1318391D01*
X1665000Y1318671D01*
D02*
G37*
G36*
X1640000D02*
X1638595Y1318391D01*
X1637404Y1317596D01*
X1636609Y1316405D01*
X1636329Y1315000D01*
X1636609Y1313595D01*
X1637404Y1312405D01*
X1638595Y1311609D01*
X1640000Y1311329D01*
X1641405Y1311609D01*
X1642595Y1312405D01*
X1643391Y1313595D01*
X1643671Y1315000D01*
X1643391Y1316405D01*
X1642595Y1317596D01*
X1641405Y1318391D01*
X1640000Y1318671D01*
D02*
G37*
G36*
X1103550Y1340226D02*
X1100492Y1339924D01*
X1097551Y1339032D01*
X1094841Y1337584D01*
X1092466Y1335634D01*
X1090516Y1333259D01*
X1089068Y1330549D01*
X1088176Y1327608D01*
X1087875Y1324550D01*
X1088176Y1321492D01*
X1089068Y1318551D01*
X1090516Y1315841D01*
X1092466Y1313466D01*
X1094841Y1311516D01*
X1097551Y1310068D01*
X1100492Y1309176D01*
X1103550Y1308875D01*
X1106608Y1309176D01*
X1109549Y1310068D01*
X1112259Y1311516D01*
X1114634Y1313466D01*
X1116584Y1315841D01*
X1118032Y1318551D01*
X1118924Y1321492D01*
X1119225Y1324550D01*
X1118924Y1327608D01*
X1118032Y1330549D01*
X1116584Y1333259D01*
X1114634Y1335634D01*
X1112259Y1337584D01*
X1109549Y1339032D01*
X1106608Y1339924D01*
X1103550Y1340226D01*
D02*
G37*
G36*
X1185000Y1314940D02*
X1183205Y1314583D01*
X1181684Y1313566D01*
X1180667Y1312045D01*
X1180310Y1310250D01*
X1180667Y1308455D01*
X1181684Y1306934D01*
X1183205Y1305917D01*
X1185000Y1305560D01*
X1186795Y1305917D01*
X1188316Y1306934D01*
X1189333Y1308455D01*
X1189690Y1310250D01*
X1189333Y1312045D01*
X1188316Y1313566D01*
X1186795Y1314583D01*
X1185000Y1314940D01*
D02*
G37*
G36*
X1153250Y1313190D02*
X1151455Y1312833D01*
X1149934Y1311816D01*
X1148917Y1310295D01*
X1148560Y1308500D01*
X1148917Y1306705D01*
X1149934Y1305184D01*
X1151455Y1304167D01*
X1153250Y1303810D01*
X1155045Y1304167D01*
X1156566Y1305184D01*
X1157583Y1306705D01*
X1157940Y1308500D01*
X1157583Y1310295D01*
X1156566Y1311816D01*
X1155045Y1312833D01*
X1153250Y1313190D01*
D02*
G37*
G36*
X1126500Y1312940D02*
X1124705Y1312583D01*
X1123184Y1311566D01*
X1122167Y1310045D01*
X1121810Y1308250D01*
X1122167Y1306455D01*
X1123184Y1304934D01*
X1124705Y1303917D01*
X1126500Y1303560D01*
X1128295Y1303917D01*
X1129816Y1304934D01*
X1130833Y1306455D01*
X1131190Y1308250D01*
X1130833Y1310045D01*
X1129816Y1311566D01*
X1128295Y1312583D01*
X1126500Y1312940D01*
D02*
G37*
G36*
X1449000Y1310670D02*
X1447595Y1310391D01*
X1446405Y1309595D01*
X1445609Y1308405D01*
X1445329Y1307000D01*
X1445609Y1305595D01*
X1446405Y1304405D01*
X1447595Y1303609D01*
X1449000Y1303329D01*
X1450405Y1303609D01*
X1451595Y1304405D01*
X1452391Y1305595D01*
X1452670Y1307000D01*
X1452391Y1308405D01*
X1451595Y1309595D01*
X1450405Y1310391D01*
X1449000Y1310670D01*
D02*
G37*
G36*
X1383899Y1310090D02*
X1382104Y1309733D01*
X1380583Y1308716D01*
X1379566Y1307194D01*
X1379209Y1305399D01*
X1379566Y1303605D01*
X1380583Y1302083D01*
X1382104Y1301066D01*
X1383899Y1300709D01*
X1385694Y1301066D01*
X1387216Y1302083D01*
X1388232Y1303605D01*
X1388589Y1305399D01*
X1388232Y1307194D01*
X1387216Y1308716D01*
X1385694Y1309733D01*
X1383899Y1310090D01*
D02*
G37*
G36*
X1470000Y1306421D02*
X1468595Y1306141D01*
X1467405Y1305345D01*
X1466609Y1304155D01*
X1466329Y1302750D01*
X1466609Y1301345D01*
X1467405Y1300155D01*
X1468595Y1299359D01*
X1470000Y1299079D01*
X1471405Y1299359D01*
X1472596Y1300155D01*
X1473391Y1301345D01*
X1473671Y1302750D01*
X1473391Y1304155D01*
X1472596Y1305345D01*
X1471405Y1306141D01*
X1470000Y1306421D01*
D02*
G37*
G36*
X1536000Y1303690D02*
X1534205Y1303333D01*
X1532684Y1302316D01*
X1531667Y1300795D01*
X1531310Y1299000D01*
X1531667Y1297205D01*
X1532684Y1295684D01*
X1534205Y1294667D01*
X1536000Y1294310D01*
X1537795Y1294667D01*
X1539316Y1295684D01*
X1540333Y1297205D01*
X1540690Y1299000D01*
X1540333Y1300795D01*
X1539316Y1302316D01*
X1537795Y1303333D01*
X1536000Y1303690D01*
D02*
G37*
G36*
X1491250Y1300670D02*
X1489845Y1300391D01*
X1488655Y1299595D01*
X1487859Y1298405D01*
X1487579Y1297000D01*
X1487859Y1295595D01*
X1488655Y1294404D01*
X1489845Y1293609D01*
X1491250Y1293329D01*
X1492655Y1293609D01*
X1493846Y1294404D01*
X1494641Y1295595D01*
X1494921Y1297000D01*
X1494641Y1298405D01*
X1493846Y1299595D01*
X1492655Y1300391D01*
X1491250Y1300670D01*
D02*
G37*
G36*
X1174500Y1300940D02*
X1172705Y1300583D01*
X1171184Y1299566D01*
X1170167Y1298045D01*
X1169810Y1296250D01*
X1170167Y1294455D01*
X1171184Y1292934D01*
X1172705Y1291917D01*
X1174500Y1291560D01*
X1176295Y1291917D01*
X1177816Y1292934D01*
X1178833Y1294455D01*
X1179190Y1296250D01*
X1178833Y1298045D01*
X1177816Y1299566D01*
X1176295Y1300583D01*
X1174500Y1300940D01*
D02*
G37*
G36*
X1427250Y1297921D02*
X1425845Y1297641D01*
X1424655Y1296846D01*
X1423859Y1295655D01*
X1423580Y1294250D01*
X1423859Y1292845D01*
X1424655Y1291655D01*
X1425845Y1290859D01*
X1427250Y1290580D01*
X1428655Y1290859D01*
X1429845Y1291655D01*
X1430641Y1292845D01*
X1430921Y1294250D01*
X1430641Y1295655D01*
X1429845Y1296846D01*
X1428655Y1297641D01*
X1427250Y1297921D01*
D02*
G37*
G36*
X1448250Y1295670D02*
X1446845Y1295391D01*
X1445655Y1294595D01*
X1444859Y1293405D01*
X1444579Y1292000D01*
X1444859Y1290595D01*
X1445655Y1289405D01*
X1446845Y1288609D01*
X1448250Y1288329D01*
X1449655Y1288609D01*
X1450845Y1289405D01*
X1451641Y1290595D01*
X1451920Y1292000D01*
X1451641Y1293405D01*
X1450845Y1294595D01*
X1449655Y1295391D01*
X1448250Y1295670D01*
D02*
G37*
G36*
X1278000Y1315687D02*
X1275363Y1315340D01*
X1272906Y1314322D01*
X1270797Y1312703D01*
X1269178Y1310594D01*
X1268160Y1308137D01*
X1267813Y1305500D01*
X1268160Y1302863D01*
X1269178Y1300406D01*
X1270797Y1298297D01*
X1272906Y1296678D01*
X1275363Y1295660D01*
X1278000Y1295313D01*
X1280637Y1295660D01*
X1283094Y1296678D01*
X1284924Y1298082D01*
X1285967Y1297282D01*
X1285583Y1296353D01*
X1285339Y1294500D01*
X1285400Y1294033D01*
X1269184Y1277816D01*
X1268167Y1276295D01*
X1267810Y1274500D01*
Y1123600D01*
X1267436Y1123314D01*
X1266298Y1121831D01*
X1265583Y1120104D01*
X1265339Y1118250D01*
X1265583Y1116396D01*
X1266298Y1114669D01*
X1267436Y1113186D01*
X1267810Y1112899D01*
Y1107350D01*
X1267436Y1107064D01*
X1266298Y1105581D01*
X1265583Y1103854D01*
X1265339Y1102000D01*
X1265583Y1100146D01*
X1266298Y1098419D01*
X1267436Y1096936D01*
X1267810Y1096649D01*
Y1081500D01*
X1268167Y1079705D01*
X1269184Y1078184D01*
X1294900Y1052467D01*
X1294839Y1052000D01*
X1295083Y1050146D01*
X1295798Y1048419D01*
X1296936Y1046936D01*
X1298419Y1045798D01*
X1300146Y1045083D01*
X1302000Y1044839D01*
X1303853Y1045083D01*
X1305581Y1045798D01*
X1307064Y1046936D01*
X1308202Y1048419D01*
X1308917Y1050146D01*
X1309161Y1052000D01*
X1308917Y1053854D01*
X1308202Y1055581D01*
X1307064Y1057064D01*
X1305581Y1058202D01*
X1303853Y1058917D01*
X1302000Y1059161D01*
X1301533Y1059100D01*
X1297679Y1062954D01*
X1298304Y1064125D01*
X1298515Y1064083D01*
X1299919Y1064362D01*
X1301110Y1065158D01*
X1301906Y1066349D01*
X1302185Y1067753D01*
X1301906Y1069158D01*
X1301110Y1070349D01*
X1299919Y1071144D01*
X1298515Y1071424D01*
X1297110Y1071144D01*
X1295919Y1070349D01*
X1295123Y1069158D01*
X1294844Y1067753D01*
X1294886Y1067543D01*
X1293715Y1066917D01*
X1277190Y1083443D01*
Y1096649D01*
X1277564Y1096936D01*
X1278702Y1098419D01*
X1279417Y1100146D01*
X1279661Y1102000D01*
X1279417Y1103854D01*
X1278702Y1105581D01*
X1277564Y1107064D01*
X1277190Y1107350D01*
Y1112899D01*
X1277564Y1113186D01*
X1278702Y1114669D01*
X1279417Y1116396D01*
X1279661Y1118250D01*
X1279417Y1120104D01*
X1278702Y1121831D01*
X1277564Y1123314D01*
X1277190Y1123600D01*
Y1272557D01*
X1292033Y1287400D01*
X1292500Y1287339D01*
X1294353Y1287583D01*
X1296081Y1288298D01*
X1297564Y1289436D01*
X1298702Y1290919D01*
X1299417Y1292646D01*
X1299661Y1294500D01*
X1299417Y1296353D01*
X1298702Y1298081D01*
X1297564Y1299564D01*
X1296081Y1300702D01*
X1294353Y1301417D01*
X1292500Y1301661D01*
X1290647Y1301417D01*
X1288919Y1300702D01*
X1288040Y1300027D01*
X1286997Y1300827D01*
X1287840Y1302863D01*
X1288187Y1305500D01*
X1287840Y1308137D01*
X1286822Y1310594D01*
X1285203Y1312703D01*
X1283094Y1314322D01*
X1280637Y1315340D01*
X1278000Y1315687D01*
D02*
G37*
G36*
X1690000Y1293671D02*
X1688595Y1293391D01*
X1687404Y1292596D01*
X1686609Y1291405D01*
X1686329Y1290000D01*
X1686609Y1288595D01*
X1687404Y1287405D01*
X1688595Y1286609D01*
X1690000Y1286329D01*
X1691405Y1286609D01*
X1692595Y1287405D01*
X1693391Y1288595D01*
X1693671Y1290000D01*
X1693391Y1291405D01*
X1692595Y1292596D01*
X1691405Y1293391D01*
X1690000Y1293671D01*
D02*
G37*
G36*
X1665000D02*
X1663595Y1293391D01*
X1662404Y1292596D01*
X1661609Y1291405D01*
X1661329Y1290000D01*
X1661609Y1288595D01*
X1662404Y1287405D01*
X1663595Y1286609D01*
X1665000Y1286329D01*
X1666405Y1286609D01*
X1667595Y1287405D01*
X1668391Y1288595D01*
X1668671Y1290000D01*
X1668391Y1291405D01*
X1667595Y1292596D01*
X1666405Y1293391D01*
X1665000Y1293671D01*
D02*
G37*
G36*
X1640000D02*
X1638595Y1293391D01*
X1637404Y1292596D01*
X1636609Y1291405D01*
X1636329Y1290000D01*
X1636609Y1288595D01*
X1637404Y1287405D01*
X1638595Y1286609D01*
X1640000Y1286329D01*
X1641405Y1286609D01*
X1642595Y1287405D01*
X1643391Y1288595D01*
X1643671Y1290000D01*
X1643391Y1291405D01*
X1642595Y1292596D01*
X1641405Y1293391D01*
X1640000Y1293671D01*
D02*
G37*
G36*
X1484000Y1292670D02*
X1482595Y1292391D01*
X1481405Y1291595D01*
X1480609Y1290405D01*
X1480329Y1289000D01*
X1480609Y1287595D01*
X1481405Y1286405D01*
X1482595Y1285609D01*
X1484000Y1285329D01*
X1485405Y1285609D01*
X1486595Y1286405D01*
X1487391Y1287595D01*
X1487670Y1289000D01*
X1487391Y1290405D01*
X1486595Y1291595D01*
X1485405Y1292391D01*
X1484000Y1292670D01*
D02*
G37*
G36*
X1436250Y1289420D02*
X1434845Y1289141D01*
X1433655Y1288345D01*
X1432859Y1287155D01*
X1432579Y1285750D01*
X1432859Y1284345D01*
X1433655Y1283155D01*
X1434845Y1282359D01*
X1436250Y1282079D01*
X1437655Y1282359D01*
X1438846Y1283155D01*
X1439641Y1284345D01*
X1439921Y1285750D01*
X1439641Y1287155D01*
X1438846Y1288345D01*
X1437655Y1289141D01*
X1436250Y1289420D01*
D02*
G37*
G36*
X1720000Y1288671D02*
X1718595Y1288391D01*
X1717405Y1287595D01*
X1716609Y1286405D01*
X1716329Y1285000D01*
X1716609Y1283595D01*
X1717405Y1282404D01*
X1718595Y1281609D01*
X1720000Y1281329D01*
X1721405Y1281609D01*
X1722596Y1282404D01*
X1723391Y1283595D01*
X1723671Y1285000D01*
X1723391Y1286405D01*
X1722596Y1287595D01*
X1721405Y1288391D01*
X1720000Y1288671D01*
D02*
G37*
G36*
X1133500Y1289940D02*
X1131705Y1289583D01*
X1130184Y1288566D01*
X1129167Y1287045D01*
X1128810Y1285250D01*
X1129167Y1283455D01*
X1130184Y1281934D01*
X1131705Y1280917D01*
X1133500Y1280560D01*
X1135295Y1280917D01*
X1136816Y1281934D01*
X1137833Y1283455D01*
X1138190Y1285250D01*
X1137833Y1287045D01*
X1136816Y1288566D01*
X1135295Y1289583D01*
X1133500Y1289940D01*
D02*
G37*
G36*
X1157250Y1289690D02*
X1155455Y1289333D01*
X1153934Y1288316D01*
X1152917Y1286795D01*
X1152560Y1285000D01*
X1152917Y1283205D01*
X1153934Y1281684D01*
X1155455Y1280667D01*
X1157250Y1280310D01*
X1159045Y1280667D01*
X1160566Y1281684D01*
X1161583Y1283205D01*
X1161940Y1285000D01*
X1161583Y1286795D01*
X1160566Y1288316D01*
X1159045Y1289333D01*
X1157250Y1289690D01*
D02*
G37*
G36*
X1109750D02*
X1107955Y1289333D01*
X1106434Y1288316D01*
X1105417Y1286795D01*
X1105060Y1285000D01*
X1105417Y1283205D01*
X1106434Y1281684D01*
X1107955Y1280667D01*
X1109750Y1280310D01*
X1111545Y1280667D01*
X1113066Y1281684D01*
X1114083Y1283205D01*
X1114440Y1285000D01*
X1114083Y1286795D01*
X1113066Y1288316D01*
X1111545Y1289333D01*
X1109750Y1289690D01*
D02*
G37*
G36*
X1346300Y1288390D02*
X1344505Y1288033D01*
X1342984Y1287016D01*
X1341967Y1285495D01*
X1341610Y1283700D01*
X1341967Y1281905D01*
X1342984Y1280384D01*
X1344505Y1279367D01*
X1346300Y1279010D01*
X1348095Y1279367D01*
X1349616Y1280384D01*
X1350633Y1281905D01*
X1350990Y1283700D01*
X1350633Y1285495D01*
X1349616Y1287016D01*
X1348095Y1288033D01*
X1346300Y1288390D01*
D02*
G37*
G36*
X1456000Y1285670D02*
X1454595Y1285391D01*
X1453405Y1284595D01*
X1452609Y1283405D01*
X1452330Y1282000D01*
X1452609Y1280595D01*
X1453405Y1279405D01*
X1454595Y1278609D01*
X1456000Y1278329D01*
X1457405Y1278609D01*
X1458595Y1279405D01*
X1459391Y1280595D01*
X1459671Y1282000D01*
X1459391Y1283405D01*
X1458595Y1284595D01*
X1457405Y1285391D01*
X1456000Y1285670D01*
D02*
G37*
G36*
X1265250Y1285170D02*
X1263845Y1284891D01*
X1262654Y1284095D01*
X1261859Y1282905D01*
X1261580Y1281500D01*
X1261859Y1280095D01*
X1262654Y1278905D01*
X1263845Y1278109D01*
X1265250Y1277830D01*
X1266655Y1278109D01*
X1267845Y1278905D01*
X1268641Y1280095D01*
X1268921Y1281500D01*
X1268641Y1282905D01*
X1267845Y1284095D01*
X1266655Y1284891D01*
X1265250Y1285170D01*
D02*
G37*
G36*
X1199250Y1284671D02*
X1197845Y1284391D01*
X1196655Y1283595D01*
X1195859Y1282405D01*
X1195580Y1281000D01*
X1195859Y1279595D01*
X1196655Y1278405D01*
X1197845Y1277609D01*
X1199250Y1277329D01*
X1200655Y1277609D01*
X1201845Y1278405D01*
X1202641Y1279595D01*
X1202921Y1281000D01*
X1202641Y1282405D01*
X1201845Y1283595D01*
X1200655Y1284391D01*
X1199250Y1284671D01*
D02*
G37*
G36*
X1470000Y1284171D02*
X1468595Y1283891D01*
X1467405Y1283096D01*
X1466609Y1281905D01*
X1466329Y1280500D01*
X1466609Y1279095D01*
X1467405Y1277905D01*
X1468595Y1277109D01*
X1470000Y1276830D01*
X1471405Y1277109D01*
X1472596Y1277905D01*
X1473391Y1279095D01*
X1473671Y1280500D01*
X1473391Y1281905D01*
X1472596Y1283096D01*
X1471405Y1283891D01*
X1470000Y1284171D01*
D02*
G37*
G36*
X1540000Y1283920D02*
X1538595Y1283641D01*
X1537405Y1282845D01*
X1536609Y1281655D01*
X1536329Y1280250D01*
X1536609Y1278845D01*
X1537405Y1277655D01*
X1538595Y1276859D01*
X1540000Y1276580D01*
X1541405Y1276859D01*
X1542596Y1277655D01*
X1543391Y1278845D01*
X1543671Y1280250D01*
X1543391Y1281655D01*
X1542596Y1282845D01*
X1541405Y1283641D01*
X1540000Y1283920D01*
D02*
G37*
G36*
X1216261Y1276934D02*
X1214856Y1276655D01*
X1213665Y1275859D01*
X1212869Y1274668D01*
X1212590Y1273263D01*
X1212869Y1271859D01*
X1213665Y1270668D01*
X1214856Y1269872D01*
X1216261Y1269593D01*
X1217665Y1269872D01*
X1218856Y1270668D01*
X1219652Y1271859D01*
X1219931Y1273263D01*
X1219652Y1274668D01*
X1218856Y1275859D01*
X1217665Y1276655D01*
X1216261Y1276934D01*
D02*
G37*
G36*
X1790000Y1273671D02*
X1788595Y1273391D01*
X1787405Y1272595D01*
X1786609Y1271405D01*
X1786329Y1270000D01*
X1786609Y1268595D01*
X1787405Y1267405D01*
X1788595Y1266609D01*
X1790000Y1266329D01*
X1791405Y1266609D01*
X1792595Y1267405D01*
X1793391Y1268595D01*
X1793671Y1270000D01*
X1793391Y1271405D01*
X1792595Y1272595D01*
X1791405Y1273391D01*
X1790000Y1273671D01*
D02*
G37*
G36*
X1758000Y1337726D02*
X1752883Y1337222D01*
X1747964Y1335730D01*
X1743430Y1333306D01*
X1739455Y1330045D01*
X1736194Y1326071D01*
X1733770Y1321536D01*
X1732278Y1316617D01*
X1731774Y1311500D01*
Y1299500D01*
X1732278Y1294384D01*
X1733770Y1289464D01*
X1736194Y1284930D01*
X1739455Y1280955D01*
X1743430Y1277694D01*
X1747964Y1275270D01*
X1752883Y1273778D01*
X1758000Y1273274D01*
X1761689Y1273637D01*
X1762067Y1273087D01*
X1762287Y1272420D01*
X1761609Y1271405D01*
X1761329Y1270000D01*
X1761609Y1268595D01*
X1762405Y1267405D01*
X1763595Y1266609D01*
X1765000Y1266329D01*
X1766405Y1266609D01*
X1767595Y1267405D01*
X1768391Y1268595D01*
X1768671Y1270000D01*
X1768391Y1271405D01*
X1767595Y1272595D01*
X1766405Y1273391D01*
X1766292Y1273414D01*
X1766227Y1274721D01*
X1768036Y1275270D01*
X1772570Y1277694D01*
X1776545Y1280955D01*
X1779806Y1284930D01*
X1782230Y1289464D01*
X1783722Y1294384D01*
X1784226Y1299500D01*
Y1311500D01*
X1783722Y1316617D01*
X1782230Y1321536D01*
X1779806Y1326071D01*
X1776545Y1330045D01*
X1772570Y1333306D01*
X1768036Y1335730D01*
X1763116Y1337222D01*
X1758000Y1337726D01*
D02*
G37*
G36*
X1740000Y1273671D02*
X1738595Y1273391D01*
X1737405Y1272595D01*
X1736609Y1271405D01*
X1736329Y1270000D01*
X1736609Y1268595D01*
X1737405Y1267405D01*
X1738595Y1266609D01*
X1740000Y1266329D01*
X1741405Y1266609D01*
X1742595Y1267405D01*
X1743391Y1268595D01*
X1743671Y1270000D01*
X1743391Y1271405D01*
X1742595Y1272595D01*
X1741405Y1273391D01*
X1740000Y1273671D01*
D02*
G37*
G36*
X1720000D02*
X1718595Y1273391D01*
X1717405Y1272595D01*
X1716609Y1271405D01*
X1716329Y1270000D01*
X1716609Y1268595D01*
X1717405Y1267405D01*
X1718595Y1266609D01*
X1720000Y1266329D01*
X1721405Y1266609D01*
X1722596Y1267405D01*
X1723391Y1268595D01*
X1723671Y1270000D01*
X1723391Y1271405D01*
X1722596Y1272595D01*
X1721405Y1273391D01*
X1720000Y1273671D01*
D02*
G37*
G36*
X1392000Y1254670D02*
X1390595Y1254391D01*
X1389405Y1253596D01*
X1388609Y1252405D01*
X1388329Y1251000D01*
X1388609Y1249595D01*
X1389405Y1248405D01*
X1390595Y1247609D01*
X1392000Y1247329D01*
X1393405Y1247609D01*
X1394595Y1248405D01*
X1395391Y1249595D01*
X1395670Y1251000D01*
X1395391Y1252405D01*
X1394595Y1253596D01*
X1393405Y1254391D01*
X1392000Y1254670D01*
D02*
G37*
G36*
X1378750D02*
X1377345Y1254391D01*
X1376155Y1253596D01*
X1375359Y1252405D01*
X1375079Y1251000D01*
X1375359Y1249595D01*
X1376155Y1248405D01*
X1377345Y1247609D01*
X1378750Y1247329D01*
X1380155Y1247609D01*
X1381345Y1248405D01*
X1382141Y1249595D01*
X1382421Y1251000D01*
X1382141Y1252405D01*
X1381345Y1253596D01*
X1380155Y1254391D01*
X1378750Y1254670D01*
D02*
G37*
G36*
X1284000Y1253921D02*
X1282595Y1253641D01*
X1281405Y1252845D01*
X1280609Y1251655D01*
X1280329Y1250250D01*
X1280609Y1248845D01*
X1281405Y1247655D01*
X1282595Y1246859D01*
X1284000Y1246580D01*
X1285405Y1246859D01*
X1286595Y1247655D01*
X1287391Y1248845D01*
X1287670Y1250250D01*
X1287391Y1251655D01*
X1286595Y1252845D01*
X1285405Y1253641D01*
X1284000Y1253921D01*
D02*
G37*
G36*
X1790000Y1253671D02*
X1788595Y1253391D01*
X1787405Y1252596D01*
X1786609Y1251405D01*
X1786329Y1250000D01*
X1786609Y1248595D01*
X1787405Y1247405D01*
X1788595Y1246609D01*
X1790000Y1246329D01*
X1791405Y1246609D01*
X1792595Y1247405D01*
X1793391Y1248595D01*
X1793671Y1250000D01*
X1793391Y1251405D01*
X1792595Y1252596D01*
X1791405Y1253391D01*
X1790000Y1253671D01*
D02*
G37*
G36*
X1425750Y1253420D02*
X1424345Y1253141D01*
X1423155Y1252346D01*
X1422359Y1251155D01*
X1422079Y1249750D01*
X1422359Y1248345D01*
X1423155Y1247155D01*
X1424345Y1246359D01*
X1425750Y1246079D01*
X1427155Y1246359D01*
X1428345Y1247155D01*
X1429141Y1248345D01*
X1429420Y1249750D01*
X1429141Y1251155D01*
X1428345Y1252346D01*
X1427155Y1253141D01*
X1425750Y1253420D01*
D02*
G37*
G36*
X1435750Y1253170D02*
X1434345Y1252891D01*
X1433155Y1252095D01*
X1432359Y1250905D01*
X1432079Y1249500D01*
X1432359Y1248095D01*
X1433155Y1246905D01*
X1434345Y1246109D01*
X1435750Y1245829D01*
X1437155Y1246109D01*
X1438345Y1246905D01*
X1439141Y1248095D01*
X1439420Y1249500D01*
X1439141Y1250905D01*
X1438345Y1252095D01*
X1437155Y1252891D01*
X1435750Y1253170D01*
D02*
G37*
G36*
X1656800Y1242671D02*
X1655395Y1242391D01*
X1654205Y1241596D01*
X1653409Y1240405D01*
X1653129Y1239000D01*
X1653409Y1237595D01*
X1654205Y1236405D01*
X1655395Y1235609D01*
X1656800Y1235330D01*
X1658205Y1235609D01*
X1659395Y1236405D01*
X1660191Y1237595D01*
X1660470Y1239000D01*
X1660191Y1240405D01*
X1659395Y1241596D01*
X1658205Y1242391D01*
X1656800Y1242671D01*
D02*
G37*
G36*
X1631400D02*
X1629995Y1242391D01*
X1628805Y1241596D01*
X1628009Y1240405D01*
X1627729Y1239000D01*
X1628009Y1237595D01*
X1628805Y1236405D01*
X1629995Y1235609D01*
X1631400Y1235330D01*
X1632805Y1235609D01*
X1633996Y1236405D01*
X1634791Y1237595D01*
X1635070Y1239000D01*
X1634791Y1240405D01*
X1633996Y1241596D01*
X1632805Y1242391D01*
X1631400Y1242671D01*
D02*
G37*
G36*
X1256250Y1242421D02*
X1254845Y1242141D01*
X1253655Y1241345D01*
X1252859Y1240155D01*
X1252579Y1238750D01*
X1252859Y1237345D01*
X1253655Y1236155D01*
X1254845Y1235359D01*
X1256250Y1235079D01*
X1257655Y1235359D01*
X1258846Y1236155D01*
X1259641Y1237345D01*
X1259921Y1238750D01*
X1259641Y1240155D01*
X1258846Y1241345D01*
X1257655Y1242141D01*
X1256250Y1242421D01*
D02*
G37*
G36*
X1297484Y1246177D02*
X1295631Y1245933D01*
X1293904Y1245218D01*
X1292421Y1244079D01*
X1291283Y1242596D01*
X1290567Y1240869D01*
X1290323Y1239016D01*
X1290567Y1237162D01*
X1291283Y1235435D01*
X1292421Y1233952D01*
X1293904Y1232814D01*
X1295631Y1232098D01*
X1297484Y1231854D01*
X1299338Y1232098D01*
X1301065Y1232814D01*
X1302548Y1233952D01*
X1302823Y1234310D01*
X1602760D01*
X1603776Y1233631D01*
X1606000Y1233188D01*
X1608224Y1233631D01*
X1610110Y1234891D01*
X1611369Y1236776D01*
X1611812Y1239000D01*
X1611369Y1241224D01*
X1610110Y1243110D01*
X1608224Y1244369D01*
X1606000Y1244812D01*
X1603776Y1244369D01*
X1602760Y1243690D01*
X1302847D01*
X1302548Y1244079D01*
X1301065Y1245218D01*
X1299338Y1245933D01*
X1297484Y1246177D01*
D02*
G37*
G36*
X1702000Y1248370D02*
X1699886Y1248092D01*
X1697915Y1247275D01*
X1696223Y1245977D01*
X1694925Y1244285D01*
X1694108Y1242315D01*
X1693830Y1240200D01*
X1694108Y1238085D01*
X1694925Y1236115D01*
X1696223Y1234423D01*
X1697915Y1233125D01*
X1699886Y1232309D01*
X1702000Y1232030D01*
X1704115Y1232309D01*
X1706085Y1233125D01*
X1707777Y1234423D01*
X1709075Y1236115D01*
X1709892Y1238085D01*
X1710170Y1240200D01*
X1709892Y1242315D01*
X1709075Y1244285D01*
X1707777Y1245977D01*
X1706085Y1247275D01*
X1704115Y1248092D01*
X1702000Y1248370D01*
D02*
G37*
G36*
X1137000Y1236671D02*
X1135595Y1236391D01*
X1134405Y1235595D01*
X1133609Y1234405D01*
X1133329Y1233000D01*
X1133609Y1231595D01*
X1134405Y1230405D01*
X1135595Y1229609D01*
X1137000Y1229330D01*
X1138405Y1229609D01*
X1139595Y1230405D01*
X1140391Y1231595D01*
X1140670Y1233000D01*
X1140391Y1234405D01*
X1139595Y1235595D01*
X1138405Y1236391D01*
X1137000Y1236671D01*
D02*
G37*
G36*
X1593500Y1231671D02*
X1592095Y1231391D01*
X1590905Y1230595D01*
X1590109Y1229405D01*
X1589830Y1228000D01*
X1590109Y1226595D01*
X1590905Y1225405D01*
X1592095Y1224609D01*
X1593500Y1224330D01*
X1594905Y1224609D01*
X1596095Y1225405D01*
X1596891Y1226595D01*
X1597171Y1228000D01*
X1596891Y1229405D01*
X1596095Y1230595D01*
X1594905Y1231391D01*
X1593500Y1231671D01*
D02*
G37*
G36*
X1790000Y1228671D02*
X1788595Y1228391D01*
X1787405Y1227596D01*
X1786609Y1226405D01*
X1786329Y1225000D01*
X1786609Y1223595D01*
X1787405Y1222405D01*
X1788595Y1221609D01*
X1790000Y1221329D01*
X1791405Y1221609D01*
X1792595Y1222405D01*
X1793391Y1223595D01*
X1793671Y1225000D01*
X1793391Y1226405D01*
X1792595Y1227596D01*
X1791405Y1228391D01*
X1790000Y1228671D01*
D02*
G37*
G36*
X1236300Y1226770D02*
X1234895Y1226491D01*
X1233705Y1225695D01*
X1232909Y1224505D01*
X1232629Y1223100D01*
X1232909Y1221695D01*
X1233705Y1220505D01*
X1234895Y1219709D01*
X1236300Y1219429D01*
X1237705Y1219709D01*
X1238895Y1220505D01*
X1239691Y1221695D01*
X1239970Y1223100D01*
X1239691Y1224505D01*
X1238895Y1225695D01*
X1237705Y1226491D01*
X1236300Y1226770D01*
D02*
G37*
G36*
X1644500Y1222170D02*
X1643095Y1221891D01*
X1641905Y1221095D01*
X1641109Y1219905D01*
X1640829Y1218500D01*
X1641109Y1217095D01*
X1641905Y1215905D01*
X1643095Y1215109D01*
X1644500Y1214829D01*
X1645905Y1215109D01*
X1647095Y1215905D01*
X1647891Y1217095D01*
X1648170Y1218500D01*
X1647891Y1219905D01*
X1647095Y1221095D01*
X1645905Y1221891D01*
X1644500Y1222170D01*
D02*
G37*
G36*
X1618500Y1224312D02*
X1616276Y1223869D01*
X1614391Y1222609D01*
X1613131Y1220724D01*
X1612688Y1218500D01*
X1613131Y1216276D01*
X1614391Y1214390D01*
X1616276Y1213131D01*
X1618500Y1212688D01*
X1620724Y1213131D01*
X1622610Y1214390D01*
X1623869Y1216276D01*
X1624312Y1218500D01*
X1623869Y1220724D01*
X1622610Y1222609D01*
X1620724Y1223869D01*
X1618500Y1224312D01*
D02*
G37*
G36*
X1256500Y1210670D02*
X1255095Y1210391D01*
X1253905Y1209595D01*
X1253109Y1208405D01*
X1252830Y1207000D01*
X1253109Y1205595D01*
X1253905Y1204405D01*
X1255095Y1203609D01*
X1256500Y1203329D01*
X1257905Y1203609D01*
X1259096Y1204405D01*
X1259891Y1205595D01*
X1260171Y1207000D01*
X1259891Y1208405D01*
X1259096Y1209595D01*
X1257905Y1210391D01*
X1256500Y1210670D01*
D02*
G37*
G36*
X1425771Y1210431D02*
X1424366Y1210151D01*
X1423175Y1209355D01*
X1422380Y1208165D01*
X1422100Y1206760D01*
X1422380Y1205356D01*
X1423175Y1204165D01*
X1424366Y1203369D01*
X1425771Y1203090D01*
X1427175Y1203369D01*
X1428366Y1204165D01*
X1429162Y1205356D01*
X1429441Y1206760D01*
X1429162Y1208165D01*
X1428366Y1209355D01*
X1427175Y1210151D01*
X1425771Y1210431D01*
D02*
G37*
G36*
X1790000Y1203671D02*
X1788595Y1203391D01*
X1787405Y1202596D01*
X1786609Y1201405D01*
X1786329Y1200000D01*
X1786609Y1198595D01*
X1787405Y1197405D01*
X1788595Y1196609D01*
X1790000Y1196329D01*
X1791405Y1196609D01*
X1792595Y1197405D01*
X1793391Y1198595D01*
X1793671Y1200000D01*
X1793391Y1201405D01*
X1792595Y1202596D01*
X1791405Y1203391D01*
X1790000Y1203671D01*
D02*
G37*
G36*
X1750000D02*
X1748595Y1203391D01*
X1747405Y1202596D01*
X1746609Y1201405D01*
X1746329Y1200000D01*
X1746609Y1198595D01*
X1747405Y1197405D01*
X1748595Y1196609D01*
X1750000Y1196329D01*
X1751405Y1196609D01*
X1752596Y1197405D01*
X1753391Y1198595D01*
X1753671Y1200000D01*
X1753391Y1201405D01*
X1752596Y1202596D01*
X1751405Y1203391D01*
X1750000Y1203671D01*
D02*
G37*
G36*
X1725000D02*
X1723595Y1203391D01*
X1722405Y1202596D01*
X1721609Y1201405D01*
X1721329Y1200000D01*
X1721609Y1198595D01*
X1722405Y1197405D01*
X1723595Y1196609D01*
X1725000Y1196329D01*
X1726405Y1196609D01*
X1727596Y1197405D01*
X1728391Y1198595D01*
X1728671Y1200000D01*
X1728391Y1201405D01*
X1727596Y1202596D01*
X1726405Y1203391D01*
X1725000Y1203671D01*
D02*
G37*
G36*
X1700000D02*
X1698595Y1203391D01*
X1697405Y1202596D01*
X1696609Y1201405D01*
X1696329Y1200000D01*
X1696609Y1198595D01*
X1697405Y1197405D01*
X1698595Y1196609D01*
X1700000Y1196329D01*
X1701405Y1196609D01*
X1702596Y1197405D01*
X1703391Y1198595D01*
X1703671Y1200000D01*
X1703391Y1201405D01*
X1702596Y1202596D01*
X1701405Y1203391D01*
X1700000Y1203671D01*
D02*
G37*
G36*
X1135000D02*
X1133595Y1203391D01*
X1132405Y1202596D01*
X1131609Y1201405D01*
X1131329Y1200000D01*
X1131609Y1198595D01*
X1132405Y1197405D01*
X1133595Y1196609D01*
X1135000Y1196329D01*
X1136405Y1196609D01*
X1137596Y1197405D01*
X1138391Y1198595D01*
X1138671Y1200000D01*
X1138391Y1201405D01*
X1137596Y1202596D01*
X1136405Y1203391D01*
X1135000Y1203671D01*
D02*
G37*
G36*
X1301500Y1202170D02*
X1300095Y1201891D01*
X1298905Y1201096D01*
X1298109Y1199905D01*
X1297829Y1198500D01*
X1298109Y1197095D01*
X1298905Y1195905D01*
X1300095Y1195109D01*
X1301500Y1194829D01*
X1302905Y1195109D01*
X1304095Y1195905D01*
X1304891Y1197095D01*
X1305170Y1198500D01*
X1304891Y1199905D01*
X1304095Y1201096D01*
X1302905Y1201891D01*
X1301500Y1202170D01*
D02*
G37*
G36*
X1195700Y1199871D02*
X1194295Y1199591D01*
X1193104Y1198795D01*
X1192309Y1197605D01*
X1192029Y1196200D01*
X1192309Y1194795D01*
X1193104Y1193605D01*
X1194295Y1192809D01*
X1195700Y1192530D01*
X1197105Y1192809D01*
X1198295Y1193605D01*
X1199091Y1194795D01*
X1199370Y1196200D01*
X1199091Y1197605D01*
X1198295Y1198795D01*
X1197105Y1199591D01*
X1195700Y1199871D01*
D02*
G37*
G36*
X1010000Y1198671D02*
X1008595Y1198391D01*
X1007405Y1197595D01*
X1006609Y1196405D01*
X1006329Y1195000D01*
X1006609Y1193595D01*
X1007405Y1192404D01*
X1008595Y1191609D01*
X1010000Y1191329D01*
X1011405Y1191609D01*
X1012596Y1192404D01*
X1013391Y1193595D01*
X1013671Y1195000D01*
X1013391Y1196405D01*
X1012596Y1197595D01*
X1011405Y1198391D01*
X1010000Y1198671D01*
D02*
G37*
G36*
X1372000Y1196671D02*
X1370595Y1196391D01*
X1369405Y1195595D01*
X1368609Y1194405D01*
X1368329Y1193000D01*
X1368609Y1191595D01*
X1369405Y1190405D01*
X1370595Y1189609D01*
X1372000Y1189330D01*
X1373405Y1189609D01*
X1374595Y1190405D01*
X1375391Y1191595D01*
X1375670Y1193000D01*
X1375391Y1194405D01*
X1374595Y1195595D01*
X1373405Y1196391D01*
X1372000Y1196671D01*
D02*
G37*
G36*
X1077000Y1192671D02*
X1075595Y1192391D01*
X1074405Y1191596D01*
X1073609Y1190405D01*
X1073329Y1189000D01*
X1073609Y1187595D01*
X1074405Y1186405D01*
X1075595Y1185609D01*
X1077000Y1185330D01*
X1078405Y1185609D01*
X1079595Y1186405D01*
X1080391Y1187595D01*
X1080670Y1189000D01*
X1080391Y1190405D01*
X1079595Y1191596D01*
X1078405Y1192391D01*
X1077000Y1192671D01*
D02*
G37*
G36*
X1017250Y1192421D02*
X1015845Y1192141D01*
X1014655Y1191345D01*
X1013859Y1190155D01*
X1013579Y1188750D01*
X1013859Y1187345D01*
X1014655Y1186154D01*
X1015845Y1185359D01*
X1017250Y1185079D01*
X1018655Y1185359D01*
X1019846Y1186154D01*
X1020641Y1187345D01*
X1020920Y1188750D01*
X1020641Y1190155D01*
X1019846Y1191345D01*
X1018655Y1192141D01*
X1017250Y1192421D01*
D02*
G37*
G36*
X1255250Y1190171D02*
X1253845Y1189891D01*
X1252655Y1189096D01*
X1251859Y1187905D01*
X1251580Y1186500D01*
X1251859Y1185095D01*
X1252655Y1183905D01*
X1253845Y1183109D01*
X1255250Y1182830D01*
X1256655Y1183109D01*
X1257846Y1183905D01*
X1258641Y1185095D01*
X1258921Y1186500D01*
X1258641Y1187905D01*
X1257846Y1189096D01*
X1256655Y1189891D01*
X1255250Y1190171D01*
D02*
G37*
G36*
X1372000Y1182671D02*
X1370595Y1182391D01*
X1369405Y1181595D01*
X1368609Y1180405D01*
X1368329Y1179000D01*
X1368609Y1177595D01*
X1369405Y1176404D01*
X1370595Y1175609D01*
X1372000Y1175330D01*
X1373405Y1175609D01*
X1374595Y1176404D01*
X1375391Y1177595D01*
X1375670Y1179000D01*
X1375391Y1180405D01*
X1374595Y1181595D01*
X1373405Y1182391D01*
X1372000Y1182671D01*
D02*
G37*
G36*
X1790000Y1178671D02*
X1788595Y1178391D01*
X1787405Y1177596D01*
X1786609Y1176405D01*
X1786329Y1175000D01*
X1786609Y1173595D01*
X1787405Y1172405D01*
X1788595Y1171609D01*
X1790000Y1171329D01*
X1791405Y1171609D01*
X1792595Y1172405D01*
X1793391Y1173595D01*
X1793671Y1175000D01*
X1793391Y1176405D01*
X1792595Y1177596D01*
X1791405Y1178391D01*
X1790000Y1178671D01*
D02*
G37*
G36*
X1750000D02*
X1748595Y1178391D01*
X1747405Y1177596D01*
X1746609Y1176405D01*
X1746329Y1175000D01*
X1746609Y1173595D01*
X1747405Y1172405D01*
X1748595Y1171609D01*
X1750000Y1171329D01*
X1751405Y1171609D01*
X1752596Y1172405D01*
X1753391Y1173595D01*
X1753671Y1175000D01*
X1753391Y1176405D01*
X1752596Y1177596D01*
X1751405Y1178391D01*
X1750000Y1178671D01*
D02*
G37*
G36*
X1725000D02*
X1723595Y1178391D01*
X1722405Y1177596D01*
X1721609Y1176405D01*
X1721329Y1175000D01*
X1721609Y1173595D01*
X1722405Y1172405D01*
X1723595Y1171609D01*
X1725000Y1171329D01*
X1726405Y1171609D01*
X1727596Y1172405D01*
X1728391Y1173595D01*
X1728671Y1175000D01*
X1728391Y1176405D01*
X1727596Y1177596D01*
X1726405Y1178391D01*
X1725000Y1178671D01*
D02*
G37*
G36*
X1700000D02*
X1698595Y1178391D01*
X1697405Y1177596D01*
X1696609Y1176405D01*
X1696329Y1175000D01*
X1696609Y1173595D01*
X1697405Y1172405D01*
X1698595Y1171609D01*
X1700000Y1171329D01*
X1701405Y1171609D01*
X1702596Y1172405D01*
X1703391Y1173595D01*
X1703671Y1175000D01*
X1703391Y1176405D01*
X1702596Y1177596D01*
X1701405Y1178391D01*
X1700000Y1178671D01*
D02*
G37*
G36*
X1575000D02*
X1573595Y1178391D01*
X1572405Y1177596D01*
X1571609Y1176405D01*
X1571329Y1175000D01*
X1571609Y1173595D01*
X1572405Y1172405D01*
X1573595Y1171609D01*
X1575000Y1171329D01*
X1576405Y1171609D01*
X1577595Y1172405D01*
X1578391Y1173595D01*
X1578671Y1175000D01*
X1578391Y1176405D01*
X1577595Y1177596D01*
X1576405Y1178391D01*
X1575000Y1178671D01*
D02*
G37*
G36*
X1550000D02*
X1548595Y1178391D01*
X1547405Y1177596D01*
X1546609Y1176405D01*
X1546329Y1175000D01*
X1546609Y1173595D01*
X1547405Y1172405D01*
X1548595Y1171609D01*
X1550000Y1171329D01*
X1551405Y1171609D01*
X1552595Y1172405D01*
X1553391Y1173595D01*
X1553671Y1175000D01*
X1553391Y1176405D01*
X1552595Y1177596D01*
X1551405Y1178391D01*
X1550000Y1178671D01*
D02*
G37*
G36*
X1525000D02*
X1523595Y1178391D01*
X1522404Y1177596D01*
X1521609Y1176405D01*
X1521329Y1175000D01*
X1521609Y1173595D01*
X1522404Y1172405D01*
X1523595Y1171609D01*
X1525000Y1171329D01*
X1526405Y1171609D01*
X1527595Y1172405D01*
X1528391Y1173595D01*
X1528671Y1175000D01*
X1528391Y1176405D01*
X1527595Y1177596D01*
X1526405Y1178391D01*
X1525000Y1178671D01*
D02*
G37*
G36*
X1475000D02*
X1473595Y1178391D01*
X1472404Y1177596D01*
X1471609Y1176405D01*
X1471329Y1175000D01*
X1471609Y1173595D01*
X1472404Y1172405D01*
X1473595Y1171609D01*
X1475000Y1171329D01*
X1476405Y1171609D01*
X1477595Y1172405D01*
X1478391Y1173595D01*
X1478671Y1175000D01*
X1478391Y1176405D01*
X1477595Y1177596D01*
X1476405Y1178391D01*
X1475000Y1178671D01*
D02*
G37*
G36*
X1450000D02*
X1448595Y1178391D01*
X1447404Y1177596D01*
X1446609Y1176405D01*
X1446329Y1175000D01*
X1446609Y1173595D01*
X1447404Y1172405D01*
X1448595Y1171609D01*
X1450000Y1171329D01*
X1451405Y1171609D01*
X1452595Y1172405D01*
X1453391Y1173595D01*
X1453671Y1175000D01*
X1453391Y1176405D01*
X1452595Y1177596D01*
X1451405Y1178391D01*
X1450000Y1178671D01*
D02*
G37*
G36*
X1135000D02*
X1133595Y1178391D01*
X1132405Y1177596D01*
X1131609Y1176405D01*
X1131329Y1175000D01*
X1131609Y1173595D01*
X1132405Y1172405D01*
X1133595Y1171609D01*
X1135000Y1171329D01*
X1136405Y1171609D01*
X1137596Y1172405D01*
X1138391Y1173595D01*
X1138671Y1175000D01*
X1138391Y1176405D01*
X1137596Y1177596D01*
X1136405Y1178391D01*
X1135000Y1178671D01*
D02*
G37*
G36*
X1010000Y1173671D02*
X1008595Y1173391D01*
X1007405Y1172595D01*
X1006609Y1171405D01*
X1006329Y1170000D01*
X1006609Y1168595D01*
X1007405Y1167404D01*
X1008595Y1166609D01*
X1010000Y1166329D01*
X1011405Y1166609D01*
X1012596Y1167404D01*
X1013391Y1168595D01*
X1013671Y1170000D01*
X1013391Y1171405D01*
X1012596Y1172595D01*
X1011405Y1173391D01*
X1010000Y1173671D01*
D02*
G37*
G36*
X1301500Y1169670D02*
X1300095Y1169391D01*
X1298905Y1168596D01*
X1298109Y1167405D01*
X1297829Y1166000D01*
X1298109Y1164595D01*
X1298905Y1163405D01*
X1300095Y1162609D01*
X1301500Y1162329D01*
X1302905Y1162609D01*
X1304095Y1163405D01*
X1304891Y1164595D01*
X1305171Y1166000D01*
X1304891Y1167405D01*
X1304095Y1168596D01*
X1302905Y1169391D01*
X1301500Y1169670D01*
D02*
G37*
G36*
X1105550Y1187125D02*
X1102492Y1186824D01*
X1099551Y1185932D01*
X1096841Y1184484D01*
X1094466Y1182534D01*
X1092516Y1180159D01*
X1091068Y1177449D01*
X1090176Y1174508D01*
X1089874Y1171450D01*
X1090176Y1168392D01*
X1091068Y1165451D01*
X1092516Y1162741D01*
X1094466Y1160366D01*
X1096841Y1158416D01*
X1099551Y1156968D01*
X1102492Y1156076D01*
X1105550Y1155775D01*
X1108608Y1156076D01*
X1111549Y1156968D01*
X1114259Y1158416D01*
X1116634Y1160366D01*
X1118584Y1162741D01*
X1120032Y1165451D01*
X1120924Y1168392D01*
X1121225Y1171450D01*
X1120924Y1174508D01*
X1120032Y1177449D01*
X1118584Y1180159D01*
X1116634Y1182534D01*
X1114259Y1184484D01*
X1111549Y1185932D01*
X1108608Y1186824D01*
X1105550Y1187125D01*
D02*
G37*
G36*
X1372000Y1162421D02*
X1370595Y1162141D01*
X1369405Y1161346D01*
X1368609Y1160155D01*
X1368329Y1158750D01*
X1368609Y1157345D01*
X1369405Y1156155D01*
X1370595Y1155359D01*
X1372000Y1155079D01*
X1373405Y1155359D01*
X1374595Y1156155D01*
X1375391Y1157345D01*
X1375670Y1158750D01*
X1375391Y1160155D01*
X1374595Y1161346D01*
X1373405Y1162141D01*
X1372000Y1162421D01*
D02*
G37*
G36*
X1188500Y1161421D02*
X1187095Y1161141D01*
X1185905Y1160346D01*
X1185109Y1159155D01*
X1184829Y1157750D01*
X1185109Y1156345D01*
X1185905Y1155155D01*
X1187095Y1154359D01*
X1188500Y1154080D01*
X1189905Y1154359D01*
X1191096Y1155155D01*
X1191891Y1156345D01*
X1192170Y1157750D01*
X1191891Y1159155D01*
X1191096Y1160346D01*
X1189905Y1161141D01*
X1188500Y1161421D01*
D02*
G37*
G36*
X1255250Y1166171D02*
X1253845Y1165891D01*
X1252655Y1165096D01*
X1251859Y1163905D01*
X1251580Y1162500D01*
X1251859Y1161095D01*
X1252655Y1159905D01*
X1253756Y1159168D01*
X1253832Y1158500D01*
X1253756Y1157832D01*
X1252655Y1157095D01*
X1251859Y1155905D01*
X1251580Y1154500D01*
X1251859Y1153095D01*
X1252655Y1151905D01*
X1253845Y1151109D01*
X1255250Y1150829D01*
X1256655Y1151109D01*
X1257846Y1151905D01*
X1258641Y1153095D01*
X1258921Y1154500D01*
X1258641Y1155905D01*
X1257846Y1157095D01*
X1256744Y1157832D01*
X1256668Y1158500D01*
X1256744Y1159168D01*
X1257846Y1159905D01*
X1258641Y1161095D01*
X1258921Y1162500D01*
X1258641Y1163905D01*
X1257846Y1165096D01*
X1256655Y1165891D01*
X1255250Y1166171D01*
D02*
G37*
G36*
X1026050Y1171446D02*
X1023152Y1171064D01*
X1020452Y1169946D01*
X1018133Y1168167D01*
X1016354Y1165848D01*
X1015236Y1163148D01*
X1014854Y1160250D01*
X1015236Y1157352D01*
X1016354Y1154652D01*
X1018133Y1152333D01*
X1020452Y1150554D01*
X1023152Y1149436D01*
X1026050Y1149054D01*
X1028948Y1149436D01*
X1031648Y1150554D01*
X1033967Y1152333D01*
X1035746Y1154652D01*
X1036864Y1157352D01*
X1037246Y1160250D01*
X1036864Y1163148D01*
X1035746Y1165848D01*
X1033967Y1168167D01*
X1031648Y1169946D01*
X1028948Y1171064D01*
X1026050Y1171446D01*
D02*
G37*
G36*
X1790000Y1153671D02*
X1788595Y1153391D01*
X1787405Y1152596D01*
X1786609Y1151405D01*
X1786329Y1150000D01*
X1786609Y1148595D01*
X1787405Y1147405D01*
X1788595Y1146609D01*
X1790000Y1146329D01*
X1791405Y1146609D01*
X1792595Y1147405D01*
X1793391Y1148595D01*
X1793671Y1150000D01*
X1793391Y1151405D01*
X1792595Y1152596D01*
X1791405Y1153391D01*
X1790000Y1153671D01*
D02*
G37*
G36*
X1750000D02*
X1748595Y1153391D01*
X1747405Y1152596D01*
X1746609Y1151405D01*
X1746329Y1150000D01*
X1746609Y1148595D01*
X1747405Y1147405D01*
X1748595Y1146609D01*
X1750000Y1146329D01*
X1751405Y1146609D01*
X1752596Y1147405D01*
X1753391Y1148595D01*
X1753671Y1150000D01*
X1753391Y1151405D01*
X1752596Y1152596D01*
X1751405Y1153391D01*
X1750000Y1153671D01*
D02*
G37*
G36*
X1725000D02*
X1723595Y1153391D01*
X1722405Y1152596D01*
X1721609Y1151405D01*
X1721329Y1150000D01*
X1721609Y1148595D01*
X1722405Y1147405D01*
X1723595Y1146609D01*
X1725000Y1146329D01*
X1726405Y1146609D01*
X1727596Y1147405D01*
X1728391Y1148595D01*
X1728671Y1150000D01*
X1728391Y1151405D01*
X1727596Y1152596D01*
X1726405Y1153391D01*
X1725000Y1153671D01*
D02*
G37*
G36*
X1700000D02*
X1698595Y1153391D01*
X1697405Y1152596D01*
X1696609Y1151405D01*
X1696329Y1150000D01*
X1696609Y1148595D01*
X1697405Y1147405D01*
X1698595Y1146609D01*
X1700000Y1146329D01*
X1701405Y1146609D01*
X1702596Y1147405D01*
X1703391Y1148595D01*
X1703671Y1150000D01*
X1703391Y1151405D01*
X1702596Y1152596D01*
X1701405Y1153391D01*
X1700000Y1153671D01*
D02*
G37*
G36*
X1675000D02*
X1673595Y1153391D01*
X1672405Y1152596D01*
X1671609Y1151405D01*
X1671329Y1150000D01*
X1671609Y1148595D01*
X1672405Y1147405D01*
X1673595Y1146609D01*
X1675000Y1146329D01*
X1676405Y1146609D01*
X1677596Y1147405D01*
X1678391Y1148595D01*
X1678671Y1150000D01*
X1678391Y1151405D01*
X1677596Y1152596D01*
X1676405Y1153391D01*
X1675000Y1153671D01*
D02*
G37*
G36*
X1650000D02*
X1648595Y1153391D01*
X1647405Y1152596D01*
X1646609Y1151405D01*
X1646329Y1150000D01*
X1646609Y1148595D01*
X1647405Y1147405D01*
X1648595Y1146609D01*
X1650000Y1146329D01*
X1651405Y1146609D01*
X1652596Y1147405D01*
X1653391Y1148595D01*
X1653671Y1150000D01*
X1653391Y1151405D01*
X1652596Y1152596D01*
X1651405Y1153391D01*
X1650000Y1153671D01*
D02*
G37*
G36*
X1625000D02*
X1623595Y1153391D01*
X1622405Y1152596D01*
X1621609Y1151405D01*
X1621329Y1150000D01*
X1621609Y1148595D01*
X1622405Y1147405D01*
X1623595Y1146609D01*
X1625000Y1146329D01*
X1626405Y1146609D01*
X1627595Y1147405D01*
X1628391Y1148595D01*
X1628671Y1150000D01*
X1628391Y1151405D01*
X1627595Y1152596D01*
X1626405Y1153391D01*
X1625000Y1153671D01*
D02*
G37*
G36*
X1575000D02*
X1573595Y1153391D01*
X1572405Y1152596D01*
X1571609Y1151405D01*
X1571329Y1150000D01*
X1571609Y1148595D01*
X1572405Y1147405D01*
X1573595Y1146609D01*
X1575000Y1146329D01*
X1576405Y1146609D01*
X1577595Y1147405D01*
X1578391Y1148595D01*
X1578671Y1150000D01*
X1578391Y1151405D01*
X1577595Y1152596D01*
X1576405Y1153391D01*
X1575000Y1153671D01*
D02*
G37*
G36*
X1550000D02*
X1548595Y1153391D01*
X1547405Y1152596D01*
X1546609Y1151405D01*
X1546329Y1150000D01*
X1546609Y1148595D01*
X1547405Y1147405D01*
X1548595Y1146609D01*
X1550000Y1146329D01*
X1551405Y1146609D01*
X1552595Y1147405D01*
X1553391Y1148595D01*
X1553671Y1150000D01*
X1553391Y1151405D01*
X1552595Y1152596D01*
X1551405Y1153391D01*
X1550000Y1153671D01*
D02*
G37*
G36*
X1525000D02*
X1523595Y1153391D01*
X1522404Y1152596D01*
X1521609Y1151405D01*
X1521329Y1150000D01*
X1521609Y1148595D01*
X1522404Y1147405D01*
X1523595Y1146609D01*
X1525000Y1146329D01*
X1526405Y1146609D01*
X1527595Y1147405D01*
X1528391Y1148595D01*
X1528671Y1150000D01*
X1528391Y1151405D01*
X1527595Y1152596D01*
X1526405Y1153391D01*
X1525000Y1153671D01*
D02*
G37*
G36*
X1475000D02*
X1473595Y1153391D01*
X1472404Y1152596D01*
X1471609Y1151405D01*
X1471329Y1150000D01*
X1471609Y1148595D01*
X1472404Y1147405D01*
X1473595Y1146609D01*
X1475000Y1146329D01*
X1476405Y1146609D01*
X1477595Y1147405D01*
X1478391Y1148595D01*
X1478671Y1150000D01*
X1478391Y1151405D01*
X1477595Y1152596D01*
X1476405Y1153391D01*
X1475000Y1153671D01*
D02*
G37*
G36*
X1451000D02*
X1449595Y1153391D01*
X1448405Y1152596D01*
X1447609Y1151405D01*
X1447330Y1150000D01*
X1447609Y1148595D01*
X1448405Y1147405D01*
X1449595Y1146609D01*
X1451000Y1146329D01*
X1452405Y1146609D01*
X1453595Y1147405D01*
X1454391Y1148595D01*
X1454671Y1150000D01*
X1454391Y1151405D01*
X1453595Y1152596D01*
X1452405Y1153391D01*
X1451000Y1153671D01*
D02*
G37*
G36*
X1425000D02*
X1423595Y1153391D01*
X1422404Y1152596D01*
X1421609Y1151405D01*
X1421329Y1150000D01*
X1421609Y1148595D01*
X1422404Y1147405D01*
X1423595Y1146609D01*
X1425000Y1146329D01*
X1426405Y1146609D01*
X1427595Y1147405D01*
X1428391Y1148595D01*
X1428671Y1150000D01*
X1428391Y1151405D01*
X1427595Y1152596D01*
X1426405Y1153391D01*
X1425000Y1153671D01*
D02*
G37*
G36*
X1198250Y1152170D02*
X1196845Y1151891D01*
X1195655Y1151096D01*
X1194859Y1149905D01*
X1194579Y1148500D01*
X1194859Y1147095D01*
X1195655Y1145905D01*
X1196845Y1145109D01*
X1198250Y1144829D01*
X1199655Y1145109D01*
X1200845Y1145905D01*
X1201641Y1147095D01*
X1201921Y1148500D01*
X1201641Y1149905D01*
X1200845Y1151096D01*
X1199655Y1151891D01*
X1198250Y1152170D01*
D02*
G37*
G36*
X1411500Y1151121D02*
X1410095Y1150841D01*
X1408905Y1150045D01*
X1408109Y1148855D01*
X1407829Y1147450D01*
X1408109Y1146045D01*
X1408905Y1144855D01*
X1410095Y1144059D01*
X1411500Y1143780D01*
X1412905Y1144059D01*
X1414095Y1144855D01*
X1414891Y1146045D01*
X1415170Y1147450D01*
X1414891Y1148855D01*
X1414095Y1150045D01*
X1412905Y1150841D01*
X1411500Y1151121D01*
D02*
G37*
G36*
X1366250D02*
X1364845Y1150841D01*
X1363654Y1150045D01*
X1362859Y1148855D01*
X1362579Y1147450D01*
X1362859Y1146045D01*
X1363654Y1144855D01*
X1364845Y1144059D01*
X1366250Y1143780D01*
X1367655Y1144059D01*
X1368845Y1144855D01*
X1369641Y1146045D01*
X1369921Y1147450D01*
X1369641Y1148855D01*
X1368845Y1150045D01*
X1367655Y1150841D01*
X1366250Y1151121D01*
D02*
G37*
G36*
X1010000Y1148671D02*
X1008595Y1148391D01*
X1007405Y1147595D01*
X1006609Y1146405D01*
X1006329Y1145000D01*
X1006609Y1143595D01*
X1007405Y1142404D01*
X1008595Y1141609D01*
X1010000Y1141329D01*
X1011405Y1141609D01*
X1012596Y1142404D01*
X1013391Y1143595D01*
X1013671Y1145000D01*
X1013391Y1146405D01*
X1012596Y1147595D01*
X1011405Y1148391D01*
X1010000Y1148671D01*
D02*
G37*
G36*
X1028050Y1146690D02*
Y1136850D01*
X1037890D01*
X1037741Y1137983D01*
X1036532Y1140902D01*
X1034608Y1143409D01*
X1032102Y1145332D01*
X1029183Y1146541D01*
X1028050Y1146690D01*
D02*
G37*
G36*
X1024050Y1146690D02*
X1022917Y1146541D01*
X1019998Y1145332D01*
X1017492Y1143409D01*
X1015568Y1140902D01*
X1014359Y1137983D01*
X1014210Y1136850D01*
X1024050D01*
Y1146690D01*
D02*
G37*
G36*
X1411500Y1141821D02*
X1410095Y1141541D01*
X1408905Y1140745D01*
X1408109Y1139555D01*
X1407829Y1138150D01*
X1408109Y1136745D01*
X1408905Y1135555D01*
X1410095Y1134759D01*
X1411500Y1134480D01*
X1412905Y1134759D01*
X1414095Y1135555D01*
X1414891Y1136745D01*
X1415170Y1138150D01*
X1414891Y1139555D01*
X1414095Y1140745D01*
X1412905Y1141541D01*
X1411500Y1141821D01*
D02*
G37*
G36*
X1366250D02*
X1364845Y1141541D01*
X1363654Y1140745D01*
X1362859Y1139555D01*
X1362579Y1138150D01*
X1362859Y1136745D01*
X1363654Y1135555D01*
X1364845Y1134759D01*
X1366250Y1134480D01*
X1367655Y1134759D01*
X1368845Y1135555D01*
X1369641Y1136745D01*
X1369921Y1138150D01*
X1369641Y1139555D01*
X1368845Y1140745D01*
X1367655Y1141541D01*
X1366250Y1141821D01*
D02*
G37*
G36*
X1075050Y1169840D02*
X1071404Y1169481D01*
X1067898Y1168417D01*
X1064666Y1166690D01*
X1061834Y1164366D01*
X1059510Y1161534D01*
X1057783Y1158302D01*
X1056719Y1154796D01*
X1056360Y1151150D01*
X1056719Y1147504D01*
X1057783Y1143998D01*
X1059510Y1140766D01*
X1061834Y1137934D01*
X1064666Y1135610D01*
X1067898Y1133883D01*
X1071404Y1132819D01*
X1075050Y1132460D01*
X1078696Y1132819D01*
X1082202Y1133883D01*
X1085434Y1135610D01*
X1088266Y1137934D01*
X1090590Y1140766D01*
X1092317Y1143998D01*
X1093381Y1147504D01*
X1093740Y1151150D01*
X1093381Y1154796D01*
X1092317Y1158302D01*
X1090590Y1161534D01*
X1088266Y1164366D01*
X1085434Y1166690D01*
X1082202Y1168417D01*
X1078696Y1169481D01*
X1075050Y1169840D01*
D02*
G37*
G36*
X1198250Y1137671D02*
X1196845Y1137391D01*
X1195655Y1136596D01*
X1194859Y1135405D01*
X1194579Y1134000D01*
X1194859Y1132595D01*
X1195655Y1131405D01*
X1196845Y1130609D01*
X1198250Y1130330D01*
X1199655Y1130609D01*
X1200845Y1131405D01*
X1201641Y1132595D01*
X1201921Y1134000D01*
X1201641Y1135405D01*
X1200845Y1136596D01*
X1199655Y1137391D01*
X1198250Y1137671D01*
D02*
G37*
G36*
X1301750Y1136671D02*
X1300345Y1136391D01*
X1299155Y1135595D01*
X1298359Y1134405D01*
X1298080Y1133000D01*
X1298359Y1131595D01*
X1299155Y1130405D01*
X1300345Y1129609D01*
X1301750Y1129330D01*
X1303155Y1129609D01*
X1304345Y1130405D01*
X1305141Y1131595D01*
X1305421Y1133000D01*
X1305141Y1134405D01*
X1304345Y1135595D01*
X1303155Y1136391D01*
X1301750Y1136671D01*
D02*
G37*
G36*
X1142550Y1148670D02*
X1134550D01*
X1132170Y1148196D01*
X1130152Y1146848D01*
X1128804Y1144830D01*
X1128331Y1142450D01*
Y1134450D01*
X1128804Y1132070D01*
X1130152Y1130052D01*
X1132170Y1128704D01*
X1134550Y1128231D01*
X1142550D01*
X1144930Y1128704D01*
X1146948Y1130052D01*
X1148296Y1132070D01*
X1148770Y1134450D01*
Y1142450D01*
X1148296Y1144830D01*
X1146948Y1146848D01*
X1144930Y1148196D01*
X1142550Y1148670D01*
D02*
G37*
G36*
X1339000Y1130821D02*
X1337595Y1130541D01*
X1336405Y1129745D01*
X1335609Y1128555D01*
X1335329Y1127150D01*
X1335609Y1125745D01*
X1336405Y1124555D01*
X1337595Y1123759D01*
X1339000Y1123480D01*
X1340405Y1123759D01*
X1341595Y1124555D01*
X1342391Y1125745D01*
X1342670Y1127150D01*
X1342391Y1128555D01*
X1341595Y1129745D01*
X1340405Y1130541D01*
X1339000Y1130821D01*
D02*
G37*
G36*
X1037890Y1132850D02*
X1028050D01*
Y1123010D01*
X1029183Y1123159D01*
X1032102Y1124368D01*
X1034608Y1126292D01*
X1036532Y1128798D01*
X1037741Y1131717D01*
X1037890Y1132850D01*
D02*
G37*
G36*
X1024050D02*
X1014210D01*
X1014359Y1131717D01*
X1015568Y1128798D01*
X1017492Y1126292D01*
X1019998Y1124368D01*
X1022917Y1123159D01*
X1024050Y1123010D01*
Y1132850D01*
D02*
G37*
G36*
X1790000Y1128671D02*
X1788595Y1128391D01*
X1787405Y1127596D01*
X1786609Y1126405D01*
X1786329Y1125000D01*
X1786609Y1123595D01*
X1787405Y1122405D01*
X1788595Y1121609D01*
X1790000Y1121329D01*
X1791405Y1121609D01*
X1792595Y1122405D01*
X1793391Y1123595D01*
X1793671Y1125000D01*
X1793391Y1126405D01*
X1792595Y1127596D01*
X1791405Y1128391D01*
X1790000Y1128671D01*
D02*
G37*
G36*
X1675000D02*
X1673595Y1128391D01*
X1672405Y1127596D01*
X1671609Y1126405D01*
X1671329Y1125000D01*
X1671609Y1123595D01*
X1672405Y1122405D01*
X1673595Y1121609D01*
X1675000Y1121329D01*
X1676405Y1121609D01*
X1677596Y1122405D01*
X1678391Y1123595D01*
X1678671Y1125000D01*
X1678391Y1126405D01*
X1677596Y1127596D01*
X1676405Y1128391D01*
X1675000Y1128671D01*
D02*
G37*
G36*
X1650000D02*
X1648595Y1128391D01*
X1647405Y1127596D01*
X1646609Y1126405D01*
X1646329Y1125000D01*
X1646609Y1123595D01*
X1647405Y1122405D01*
X1648595Y1121609D01*
X1650000Y1121329D01*
X1651405Y1121609D01*
X1652596Y1122405D01*
X1653391Y1123595D01*
X1653671Y1125000D01*
X1653391Y1126405D01*
X1652596Y1127596D01*
X1651405Y1128391D01*
X1650000Y1128671D01*
D02*
G37*
G36*
X1625000D02*
X1623595Y1128391D01*
X1622405Y1127596D01*
X1621609Y1126405D01*
X1621329Y1125000D01*
X1621609Y1123595D01*
X1622405Y1122405D01*
X1623595Y1121609D01*
X1625000Y1121329D01*
X1626405Y1121609D01*
X1627595Y1122405D01*
X1628391Y1123595D01*
X1628671Y1125000D01*
X1628391Y1126405D01*
X1627595Y1127596D01*
X1626405Y1128391D01*
X1625000Y1128671D01*
D02*
G37*
G36*
X1575000D02*
X1573595Y1128391D01*
X1572405Y1127596D01*
X1571609Y1126405D01*
X1571329Y1125000D01*
X1571609Y1123595D01*
X1572405Y1122405D01*
X1573595Y1121609D01*
X1575000Y1121329D01*
X1576405Y1121609D01*
X1577595Y1122405D01*
X1578391Y1123595D01*
X1578671Y1125000D01*
X1578391Y1126405D01*
X1577595Y1127596D01*
X1576405Y1128391D01*
X1575000Y1128671D01*
D02*
G37*
G36*
X1550000D02*
X1548595Y1128391D01*
X1547405Y1127596D01*
X1546609Y1126405D01*
X1546329Y1125000D01*
X1546609Y1123595D01*
X1547405Y1122405D01*
X1548595Y1121609D01*
X1550000Y1121329D01*
X1551405Y1121609D01*
X1552595Y1122405D01*
X1553391Y1123595D01*
X1553671Y1125000D01*
X1553391Y1126405D01*
X1552595Y1127596D01*
X1551405Y1128391D01*
X1550000Y1128671D01*
D02*
G37*
G36*
X1525000D02*
X1523595Y1128391D01*
X1522404Y1127596D01*
X1521609Y1126405D01*
X1521329Y1125000D01*
X1521609Y1123595D01*
X1522404Y1122405D01*
X1523595Y1121609D01*
X1525000Y1121329D01*
X1526405Y1121609D01*
X1527595Y1122405D01*
X1528391Y1123595D01*
X1528671Y1125000D01*
X1528391Y1126405D01*
X1527595Y1127596D01*
X1526405Y1128391D01*
X1525000Y1128671D01*
D02*
G37*
G36*
X1450000D02*
X1448595Y1128391D01*
X1447404Y1127596D01*
X1446609Y1126405D01*
X1446329Y1125000D01*
X1446609Y1123595D01*
X1447404Y1122405D01*
X1448595Y1121609D01*
X1450000Y1121329D01*
X1451405Y1121609D01*
X1452595Y1122405D01*
X1453391Y1123595D01*
X1453671Y1125000D01*
X1453391Y1126405D01*
X1452595Y1127596D01*
X1451405Y1128391D01*
X1450000Y1128671D01*
D02*
G37*
G36*
X1425000D02*
X1423595Y1128391D01*
X1422404Y1127596D01*
X1421609Y1126405D01*
X1421329Y1125000D01*
X1421609Y1123595D01*
X1422404Y1122405D01*
X1423595Y1121609D01*
X1425000Y1121329D01*
X1426405Y1121609D01*
X1427595Y1122405D01*
X1428391Y1123595D01*
X1428671Y1125000D01*
X1428391Y1126405D01*
X1427595Y1127596D01*
X1426405Y1128391D01*
X1425000Y1128671D01*
D02*
G37*
G36*
X1100000D02*
X1098595Y1128391D01*
X1097405Y1127596D01*
X1096609Y1126405D01*
X1096329Y1125000D01*
X1096609Y1123595D01*
X1097405Y1122405D01*
X1098595Y1121609D01*
X1100000Y1121329D01*
X1101405Y1121609D01*
X1102596Y1122405D01*
X1103391Y1123595D01*
X1103671Y1125000D01*
X1103391Y1126405D01*
X1102596Y1127596D01*
X1101405Y1128391D01*
X1100000Y1128671D01*
D02*
G37*
G36*
X1075000D02*
X1073595Y1128391D01*
X1072405Y1127596D01*
X1071609Y1126405D01*
X1071329Y1125000D01*
X1071609Y1123595D01*
X1072405Y1122405D01*
X1073595Y1121609D01*
X1075000Y1121329D01*
X1076405Y1121609D01*
X1077596Y1122405D01*
X1078391Y1123595D01*
X1078671Y1125000D01*
X1078391Y1126405D01*
X1077596Y1127596D01*
X1076405Y1128391D01*
X1075000Y1128671D01*
D02*
G37*
G36*
X1255500Y1134171D02*
X1254095Y1133891D01*
X1252905Y1133095D01*
X1252109Y1131905D01*
X1251830Y1130500D01*
X1252109Y1129095D01*
X1252905Y1127905D01*
X1254006Y1127168D01*
X1254082Y1126500D01*
X1254006Y1125832D01*
X1252905Y1125096D01*
X1252109Y1123905D01*
X1251830Y1122500D01*
X1252109Y1121095D01*
X1252905Y1119905D01*
X1254095Y1119109D01*
X1255500Y1118829D01*
X1256905Y1119109D01*
X1258095Y1119905D01*
X1258891Y1121095D01*
X1259171Y1122500D01*
X1258891Y1123905D01*
X1258095Y1125096D01*
X1256994Y1125832D01*
X1256918Y1126500D01*
X1256994Y1127168D01*
X1258095Y1127905D01*
X1258891Y1129095D01*
X1259171Y1130500D01*
X1258891Y1131905D01*
X1258095Y1133095D01*
X1256905Y1133891D01*
X1255500Y1134171D01*
D02*
G37*
G36*
X1010000Y1123671D02*
X1008595Y1123391D01*
X1007405Y1122595D01*
X1006609Y1121405D01*
X1006329Y1120000D01*
X1006609Y1118595D01*
X1007405Y1117404D01*
X1008595Y1116609D01*
X1010000Y1116329D01*
X1011405Y1116609D01*
X1012596Y1117404D01*
X1013391Y1118595D01*
X1013671Y1120000D01*
X1013391Y1121405D01*
X1012596Y1122595D01*
X1011405Y1123391D01*
X1010000Y1123671D01*
D02*
G37*
G36*
X1163950Y1135937D02*
X1161313Y1135590D01*
X1158856Y1134572D01*
X1156747Y1132953D01*
X1155128Y1130844D01*
X1154110Y1128387D01*
X1153763Y1125750D01*
X1154110Y1123113D01*
X1155128Y1120656D01*
X1156747Y1118547D01*
X1158856Y1116928D01*
X1161313Y1115910D01*
X1163950Y1115563D01*
X1166587Y1115910D01*
X1169044Y1116928D01*
X1171153Y1118547D01*
X1172772Y1120656D01*
X1173790Y1123113D01*
X1174137Y1125750D01*
X1173790Y1128387D01*
X1172772Y1130844D01*
X1171153Y1132953D01*
X1169044Y1134572D01*
X1166587Y1135590D01*
X1163950Y1135937D01*
D02*
G37*
G36*
X1338500Y1121520D02*
X1337095Y1121241D01*
X1335905Y1120445D01*
X1335109Y1119255D01*
X1334830Y1117850D01*
X1335109Y1116445D01*
X1335905Y1115255D01*
X1337095Y1114459D01*
X1338500Y1114180D01*
X1339905Y1114459D01*
X1341095Y1115255D01*
X1341891Y1116445D01*
X1342171Y1117850D01*
X1341891Y1119255D01*
X1341095Y1120445D01*
X1339905Y1121241D01*
X1338500Y1121520D01*
D02*
G37*
G36*
X1354500Y1119312D02*
X1352276Y1118869D01*
X1350390Y1117609D01*
X1349131Y1115724D01*
X1348688Y1113500D01*
X1349131Y1111276D01*
X1350390Y1109390D01*
X1352276Y1108131D01*
X1354500Y1107688D01*
X1356724Y1108131D01*
X1358609Y1109390D01*
X1359869Y1111276D01*
X1360312Y1113500D01*
X1359869Y1115724D01*
X1358609Y1117609D01*
X1356724Y1118869D01*
X1354500Y1119312D01*
D02*
G37*
G36*
X1301250Y1114171D02*
X1299845Y1113891D01*
X1298655Y1113095D01*
X1297859Y1111905D01*
X1297579Y1110500D01*
X1297859Y1109095D01*
X1298655Y1107905D01*
X1299845Y1107109D01*
X1301250Y1106830D01*
X1302655Y1107109D01*
X1303845Y1107905D01*
X1304641Y1109095D01*
X1304921Y1110500D01*
X1304641Y1111905D01*
X1303845Y1113095D01*
X1302655Y1113891D01*
X1301250Y1114171D01*
D02*
G37*
G36*
X1042250Y1111171D02*
X1040845Y1110891D01*
X1039655Y1110095D01*
X1038859Y1108905D01*
X1038579Y1107500D01*
X1038859Y1106095D01*
X1039655Y1104904D01*
X1040845Y1104109D01*
X1042250Y1103829D01*
X1043655Y1104109D01*
X1044846Y1104904D01*
X1045641Y1106095D01*
X1045920Y1107500D01*
X1045641Y1108905D01*
X1044846Y1110095D01*
X1043655Y1110891D01*
X1042250Y1111171D01*
D02*
G37*
G36*
X1138550Y1123237D02*
X1135913Y1122890D01*
X1133456Y1121872D01*
X1131347Y1120253D01*
X1129728Y1118144D01*
X1128710Y1115687D01*
X1128363Y1113050D01*
X1128710Y1110413D01*
X1129728Y1107956D01*
X1131347Y1105847D01*
X1133456Y1104228D01*
X1135913Y1103210D01*
X1138550Y1102863D01*
X1141187Y1103210D01*
X1143643Y1104228D01*
X1145753Y1105847D01*
X1147372Y1107956D01*
X1148390Y1110413D01*
X1148737Y1113050D01*
X1148390Y1115687D01*
X1147372Y1118144D01*
X1145753Y1120253D01*
X1143643Y1121872D01*
X1141187Y1122890D01*
X1138550Y1123237D01*
D02*
G37*
G36*
X1198200Y1106290D02*
X1196405Y1105933D01*
X1194884Y1104916D01*
X1193867Y1103395D01*
X1193510Y1101600D01*
X1193867Y1099805D01*
X1194884Y1098284D01*
X1196405Y1097267D01*
X1198200Y1096910D01*
X1199995Y1097267D01*
X1201516Y1098284D01*
X1202533Y1099805D01*
X1202890Y1101600D01*
X1202533Y1103395D01*
X1201516Y1104916D01*
X1199995Y1105933D01*
X1198200Y1106290D01*
D02*
G37*
G36*
X1790000Y1103671D02*
X1788595Y1103391D01*
X1787405Y1102596D01*
X1786609Y1101405D01*
X1786329Y1100000D01*
X1786609Y1098595D01*
X1787405Y1097405D01*
X1788595Y1096609D01*
X1790000Y1096329D01*
X1791405Y1096609D01*
X1792595Y1097405D01*
X1793391Y1098595D01*
X1793671Y1100000D01*
X1793391Y1101405D01*
X1792595Y1102596D01*
X1791405Y1103391D01*
X1790000Y1103671D01*
D02*
G37*
G36*
X1770000D02*
X1768595Y1103391D01*
X1767405Y1102596D01*
X1766609Y1101405D01*
X1766329Y1100000D01*
X1766609Y1098595D01*
X1767405Y1097405D01*
X1768595Y1096609D01*
X1770000Y1096329D01*
X1771405Y1096609D01*
X1772596Y1097405D01*
X1773391Y1098595D01*
X1773671Y1100000D01*
X1773391Y1101405D01*
X1772596Y1102596D01*
X1771405Y1103391D01*
X1770000Y1103671D01*
D02*
G37*
G36*
X1745000D02*
X1743595Y1103391D01*
X1742405Y1102596D01*
X1741609Y1101405D01*
X1741329Y1100000D01*
X1741609Y1098595D01*
X1742405Y1097405D01*
X1743595Y1096609D01*
X1745000Y1096329D01*
X1746405Y1096609D01*
X1747596Y1097405D01*
X1748391Y1098595D01*
X1748671Y1100000D01*
X1748391Y1101405D01*
X1747596Y1102596D01*
X1746405Y1103391D01*
X1745000Y1103671D01*
D02*
G37*
G36*
X1720000D02*
X1718595Y1103391D01*
X1717405Y1102596D01*
X1716609Y1101405D01*
X1716329Y1100000D01*
X1716609Y1098595D01*
X1717405Y1097405D01*
X1718595Y1096609D01*
X1720000Y1096329D01*
X1721405Y1096609D01*
X1722596Y1097405D01*
X1723391Y1098595D01*
X1723671Y1100000D01*
X1723391Y1101405D01*
X1722596Y1102596D01*
X1721405Y1103391D01*
X1720000Y1103671D01*
D02*
G37*
G36*
X1100000D02*
X1098595Y1103391D01*
X1097405Y1102596D01*
X1096609Y1101405D01*
X1096329Y1100000D01*
X1096609Y1098595D01*
X1097405Y1097405D01*
X1098595Y1096609D01*
X1100000Y1096329D01*
X1101405Y1096609D01*
X1102596Y1097405D01*
X1103391Y1098595D01*
X1103671Y1100000D01*
X1103391Y1101405D01*
X1102596Y1102596D01*
X1101405Y1103391D01*
X1100000Y1103671D01*
D02*
G37*
G36*
X1010000D02*
X1008595Y1103391D01*
X1007405Y1102596D01*
X1006609Y1101405D01*
X1006329Y1100000D01*
X1006609Y1098595D01*
X1007405Y1097405D01*
X1008595Y1096609D01*
X1010000Y1096329D01*
X1011405Y1096609D01*
X1012596Y1097405D01*
X1013391Y1098595D01*
X1013671Y1100000D01*
X1013391Y1101405D01*
X1012596Y1102596D01*
X1011405Y1103391D01*
X1010000Y1103671D01*
D02*
G37*
G36*
X1255750Y1102421D02*
X1254345Y1102141D01*
X1253155Y1101345D01*
X1252359Y1100155D01*
X1252079Y1098750D01*
X1252359Y1097345D01*
X1253155Y1096155D01*
X1254345Y1095359D01*
X1255750Y1095079D01*
X1257155Y1095359D01*
X1258345Y1096155D01*
X1259141Y1097345D01*
X1259420Y1098750D01*
X1259141Y1100155D01*
X1258345Y1101345D01*
X1257155Y1102141D01*
X1255750Y1102421D01*
D02*
G37*
G36*
X1295250Y1100421D02*
X1293845Y1100141D01*
X1292655Y1099345D01*
X1291859Y1098155D01*
X1291579Y1096750D01*
X1291859Y1095345D01*
X1292655Y1094155D01*
X1293845Y1093359D01*
X1295250Y1093080D01*
X1296655Y1093359D01*
X1297845Y1094155D01*
X1298641Y1095345D01*
X1298920Y1096750D01*
X1298641Y1098155D01*
X1297845Y1099345D01*
X1296655Y1100141D01*
X1295250Y1100421D01*
D02*
G37*
G36*
X1163950Y1110537D02*
X1161313Y1110190D01*
X1158856Y1109172D01*
X1156747Y1107553D01*
X1155128Y1105444D01*
X1154110Y1102987D01*
X1153763Y1100350D01*
X1154110Y1097713D01*
X1155128Y1095256D01*
X1156747Y1093147D01*
X1158856Y1091528D01*
X1161313Y1090510D01*
X1163950Y1090163D01*
X1166587Y1090510D01*
X1169044Y1091528D01*
X1171153Y1093147D01*
X1172772Y1095256D01*
X1173790Y1097713D01*
X1174137Y1100350D01*
X1173790Y1102987D01*
X1172772Y1105444D01*
X1171153Y1107553D01*
X1169044Y1109172D01*
X1166587Y1110190D01*
X1163950Y1110537D01*
D02*
G37*
G36*
X1219250Y1085670D02*
X1217845Y1085391D01*
X1216655Y1084595D01*
X1215859Y1083405D01*
X1215580Y1082000D01*
X1215859Y1080595D01*
X1216655Y1079405D01*
X1217845Y1078609D01*
X1219250Y1078329D01*
X1220655Y1078609D01*
X1221845Y1079405D01*
X1222641Y1080595D01*
X1222921Y1082000D01*
X1222641Y1083405D01*
X1221845Y1084595D01*
X1220655Y1085391D01*
X1219250Y1085670D01*
D02*
G37*
G36*
X1138550Y1097837D02*
X1135913Y1097490D01*
X1133456Y1096472D01*
X1131347Y1094853D01*
X1129728Y1092744D01*
X1128710Y1090287D01*
X1128363Y1087650D01*
X1128710Y1085013D01*
X1129728Y1082556D01*
X1131347Y1080447D01*
X1133456Y1078828D01*
X1135913Y1077810D01*
X1138550Y1077463D01*
X1141187Y1077810D01*
X1143643Y1078828D01*
X1145753Y1080447D01*
X1147372Y1082556D01*
X1148390Y1085013D01*
X1148737Y1087650D01*
X1148390Y1090287D01*
X1147372Y1092744D01*
X1145753Y1094853D01*
X1143643Y1096472D01*
X1141187Y1097490D01*
X1138550Y1097837D01*
D02*
G37*
G36*
X1010000Y1081171D02*
X1008595Y1080891D01*
X1007405Y1080096D01*
X1006609Y1078905D01*
X1006329Y1077500D01*
X1006609Y1076095D01*
X1007405Y1074905D01*
X1008595Y1074109D01*
X1010000Y1073829D01*
X1011405Y1074109D01*
X1012596Y1074905D01*
X1013391Y1076095D01*
X1013671Y1077500D01*
X1013391Y1078905D01*
X1012596Y1080096D01*
X1011405Y1080891D01*
X1010000Y1081171D01*
D02*
G37*
G36*
X1181250Y1080471D02*
X1179845Y1080191D01*
X1178654Y1079396D01*
X1177859Y1078205D01*
X1177579Y1076800D01*
X1177859Y1075395D01*
X1178654Y1074205D01*
X1179845Y1073409D01*
X1181250Y1073130D01*
X1182655Y1073409D01*
X1183845Y1074205D01*
X1184641Y1075395D01*
X1184921Y1076800D01*
X1184641Y1078205D01*
X1183845Y1079396D01*
X1182655Y1080191D01*
X1181250Y1080471D01*
D02*
G37*
G36*
X1720000Y1078671D02*
X1718595Y1078391D01*
X1717405Y1077596D01*
X1716609Y1076405D01*
X1716329Y1075000D01*
X1716609Y1073595D01*
X1717405Y1072405D01*
X1718595Y1071609D01*
X1720000Y1071329D01*
X1721405Y1071609D01*
X1722596Y1072405D01*
X1723391Y1073595D01*
X1723671Y1075000D01*
X1723391Y1076405D01*
X1722596Y1077596D01*
X1721405Y1078391D01*
X1720000Y1078671D01*
D02*
G37*
G36*
X1075000D02*
X1073595Y1078391D01*
X1072405Y1077596D01*
X1071609Y1076405D01*
X1071329Y1075000D01*
X1071609Y1073595D01*
X1072405Y1072405D01*
X1073595Y1071609D01*
X1075000Y1071329D01*
X1076405Y1071609D01*
X1077596Y1072405D01*
X1078391Y1073595D01*
X1078671Y1075000D01*
X1078391Y1076405D01*
X1077596Y1077596D01*
X1076405Y1078391D01*
X1075000Y1078671D01*
D02*
G37*
G36*
X1050000D02*
X1048595Y1078391D01*
X1047405Y1077596D01*
X1046609Y1076405D01*
X1046329Y1075000D01*
X1046609Y1073595D01*
X1047405Y1072405D01*
X1048595Y1071609D01*
X1050000Y1071329D01*
X1051405Y1071609D01*
X1052596Y1072405D01*
X1053391Y1073595D01*
X1053671Y1075000D01*
X1053391Y1076405D01*
X1052596Y1077596D01*
X1051405Y1078391D01*
X1050000Y1078671D01*
D02*
G37*
G36*
X1163950Y1085137D02*
X1161313Y1084790D01*
X1158856Y1083772D01*
X1156747Y1082153D01*
X1155128Y1080044D01*
X1154110Y1077587D01*
X1153763Y1074950D01*
X1154110Y1072313D01*
X1155128Y1069856D01*
X1156747Y1067747D01*
X1158856Y1066128D01*
X1161313Y1065110D01*
X1163950Y1064763D01*
X1166587Y1065110D01*
X1169044Y1066128D01*
X1171153Y1067747D01*
X1172772Y1069856D01*
X1173790Y1072313D01*
X1174137Y1074950D01*
X1173790Y1077587D01*
X1172772Y1080044D01*
X1171153Y1082153D01*
X1169044Y1083772D01*
X1166587Y1084790D01*
X1163950Y1085137D01*
D02*
G37*
G36*
X1375018Y1071174D02*
X1373614Y1070894D01*
X1372423Y1070099D01*
X1371627Y1068908D01*
X1371348Y1067503D01*
X1371627Y1066099D01*
X1372423Y1064908D01*
X1373614Y1064112D01*
X1375018Y1063833D01*
X1376423Y1064112D01*
X1377614Y1064908D01*
X1378409Y1066099D01*
X1378689Y1067503D01*
X1378409Y1068908D01*
X1377614Y1070099D01*
X1376423Y1070894D01*
X1375018Y1071174D01*
D02*
G37*
G36*
X1253262Y1070174D02*
X1251858Y1069894D01*
X1250667Y1069099D01*
X1249871Y1067908D01*
X1249592Y1066503D01*
X1249871Y1065099D01*
X1250667Y1063908D01*
X1251858Y1063112D01*
X1253262Y1062833D01*
X1254667Y1063112D01*
X1255858Y1063908D01*
X1256654Y1065099D01*
X1256933Y1066503D01*
X1256654Y1067908D01*
X1255858Y1069099D01*
X1254667Y1069894D01*
X1253262Y1070174D01*
D02*
G37*
G36*
X1540000Y1068940D02*
X1538205Y1068583D01*
X1536684Y1067566D01*
X1535667Y1066045D01*
X1535310Y1064250D01*
X1535667Y1062455D01*
X1536684Y1060934D01*
X1538205Y1059917D01*
X1540000Y1059560D01*
X1541795Y1059917D01*
X1543316Y1060934D01*
X1544333Y1062455D01*
X1544690Y1064250D01*
X1544333Y1066045D01*
X1543316Y1067566D01*
X1541795Y1068583D01*
X1540000Y1068940D01*
D02*
G37*
G36*
X1526000D02*
X1524205Y1068583D01*
X1522684Y1067566D01*
X1521667Y1066045D01*
X1521310Y1064250D01*
X1521667Y1062455D01*
X1522684Y1060934D01*
X1524205Y1059917D01*
X1526000Y1059560D01*
X1527795Y1059917D01*
X1529316Y1060934D01*
X1530333Y1062455D01*
X1530690Y1064250D01*
X1530333Y1066045D01*
X1529316Y1067566D01*
X1527795Y1068583D01*
X1526000Y1068940D01*
D02*
G37*
G36*
X1512000D02*
X1510205Y1068583D01*
X1508684Y1067566D01*
X1507667Y1066045D01*
X1507310Y1064250D01*
X1507667Y1062455D01*
X1508684Y1060934D01*
X1510205Y1059917D01*
X1512000Y1059560D01*
X1513795Y1059917D01*
X1515316Y1060934D01*
X1516333Y1062455D01*
X1516690Y1064250D01*
X1516333Y1066045D01*
X1515316Y1067566D01*
X1513795Y1068583D01*
X1512000Y1068940D01*
D02*
G37*
G36*
X1498000D02*
X1496205Y1068583D01*
X1494684Y1067566D01*
X1493667Y1066045D01*
X1493310Y1064250D01*
X1493667Y1062455D01*
X1494684Y1060934D01*
X1496205Y1059917D01*
X1498000Y1059560D01*
X1499795Y1059917D01*
X1501316Y1060934D01*
X1502333Y1062455D01*
X1502690Y1064250D01*
X1502333Y1066045D01*
X1501316Y1067566D01*
X1499795Y1068583D01*
X1498000Y1068940D01*
D02*
G37*
G36*
X1010000Y1063671D02*
X1008595Y1063391D01*
X1007405Y1062596D01*
X1006609Y1061405D01*
X1006329Y1060000D01*
X1006609Y1058595D01*
X1007405Y1057405D01*
X1008595Y1056609D01*
X1010000Y1056329D01*
X1011405Y1056609D01*
X1012596Y1057405D01*
X1013391Y1058595D01*
X1013671Y1060000D01*
X1013391Y1061405D01*
X1012596Y1062596D01*
X1011405Y1063391D01*
X1010000Y1063671D01*
D02*
G37*
G36*
X1376500Y1060171D02*
X1375095Y1059891D01*
X1373905Y1059095D01*
X1373109Y1057905D01*
X1372829Y1056500D01*
X1373109Y1055095D01*
X1373905Y1053904D01*
X1375095Y1053109D01*
X1376500Y1052830D01*
X1377905Y1053109D01*
X1379095Y1053904D01*
X1379891Y1055095D01*
X1380170Y1056500D01*
X1379891Y1057905D01*
X1379095Y1059095D01*
X1377905Y1059891D01*
X1376500Y1060171D01*
D02*
G37*
G36*
X1138550Y1072437D02*
X1135913Y1072090D01*
X1133456Y1071072D01*
X1131347Y1069453D01*
X1129728Y1067344D01*
X1128710Y1064887D01*
X1128363Y1062250D01*
X1128710Y1059613D01*
X1129728Y1057156D01*
X1131347Y1055047D01*
X1133456Y1053428D01*
X1135913Y1052410D01*
X1138550Y1052063D01*
X1141187Y1052410D01*
X1143643Y1053428D01*
X1145753Y1055047D01*
X1147372Y1057156D01*
X1148390Y1059613D01*
X1148737Y1062250D01*
X1148390Y1064887D01*
X1147372Y1067344D01*
X1145753Y1069453D01*
X1143643Y1071072D01*
X1141187Y1072090D01*
X1138550Y1072437D01*
D02*
G37*
G36*
X1278000Y1063166D02*
X1276016Y1062904D01*
X1274167Y1062139D01*
X1272580Y1060920D01*
X1271361Y1059333D01*
X1270596Y1057484D01*
X1270334Y1055500D01*
X1270596Y1053516D01*
X1271361Y1051667D01*
X1272580Y1050080D01*
X1274167Y1048861D01*
X1276016Y1048096D01*
X1278000Y1047834D01*
X1279984Y1048096D01*
X1281833Y1048861D01*
X1283420Y1050080D01*
X1284639Y1051667D01*
X1285404Y1053516D01*
X1285666Y1055500D01*
X1285404Y1057484D01*
X1284639Y1059333D01*
X1283420Y1060920D01*
X1281833Y1062139D01*
X1279984Y1062904D01*
X1278000Y1063166D01*
D02*
G37*
G36*
X1720000Y1053671D02*
X1718595Y1053391D01*
X1717405Y1052596D01*
X1716609Y1051405D01*
X1716329Y1050000D01*
X1716609Y1048595D01*
X1717405Y1047405D01*
X1718595Y1046609D01*
X1720000Y1046329D01*
X1721405Y1046609D01*
X1722596Y1047405D01*
X1723391Y1048595D01*
X1723671Y1050000D01*
X1723391Y1051405D01*
X1722596Y1052596D01*
X1721405Y1053391D01*
X1720000Y1053671D01*
D02*
G37*
G36*
X1050000D02*
X1048595Y1053391D01*
X1047405Y1052596D01*
X1046609Y1051405D01*
X1046329Y1050000D01*
X1046609Y1048595D01*
X1047405Y1047405D01*
X1048595Y1046609D01*
X1050000Y1046329D01*
X1051405Y1046609D01*
X1052596Y1047405D01*
X1053391Y1048595D01*
X1053671Y1050000D01*
X1053391Y1051405D01*
X1052596Y1052596D01*
X1051405Y1053391D01*
X1050000Y1053671D01*
D02*
G37*
G36*
X1540000Y1054940D02*
X1538205Y1054583D01*
X1536684Y1053566D01*
X1535667Y1052045D01*
X1535310Y1050250D01*
X1535667Y1048455D01*
X1536684Y1046934D01*
X1538205Y1045917D01*
X1540000Y1045560D01*
X1541795Y1045917D01*
X1543316Y1046934D01*
X1544333Y1048455D01*
X1544690Y1050250D01*
X1544333Y1052045D01*
X1543316Y1053566D01*
X1541795Y1054583D01*
X1540000Y1054940D01*
D02*
G37*
G36*
X1526000D02*
X1524205Y1054583D01*
X1522684Y1053566D01*
X1521667Y1052045D01*
X1521310Y1050250D01*
X1521667Y1048455D01*
X1522684Y1046934D01*
X1524205Y1045917D01*
X1526000Y1045560D01*
X1527795Y1045917D01*
X1529316Y1046934D01*
X1530333Y1048455D01*
X1530690Y1050250D01*
X1530333Y1052045D01*
X1529316Y1053566D01*
X1527795Y1054583D01*
X1526000Y1054940D01*
D02*
G37*
G36*
X1512000D02*
X1510205Y1054583D01*
X1508684Y1053566D01*
X1507667Y1052045D01*
X1507310Y1050250D01*
X1507667Y1048455D01*
X1508684Y1046934D01*
X1510205Y1045917D01*
X1512000Y1045560D01*
X1513795Y1045917D01*
X1515316Y1046934D01*
X1516333Y1048455D01*
X1516690Y1050250D01*
X1516333Y1052045D01*
X1515316Y1053566D01*
X1513795Y1054583D01*
X1512000Y1054940D01*
D02*
G37*
G36*
X1498000D02*
X1496205Y1054583D01*
X1494684Y1053566D01*
X1493667Y1052045D01*
X1493310Y1050250D01*
X1493667Y1048455D01*
X1494684Y1046934D01*
X1496205Y1045917D01*
X1498000Y1045560D01*
X1499795Y1045917D01*
X1501316Y1046934D01*
X1502333Y1048455D01*
X1502690Y1050250D01*
X1502333Y1052045D01*
X1501316Y1053566D01*
X1499795Y1054583D01*
X1498000Y1054940D01*
D02*
G37*
G36*
X1026050Y1064346D02*
X1023152Y1063964D01*
X1020452Y1062846D01*
X1018133Y1061067D01*
X1016354Y1058748D01*
X1015236Y1056048D01*
X1014854Y1053150D01*
X1015236Y1050252D01*
X1016354Y1047552D01*
X1018133Y1045233D01*
X1020452Y1043454D01*
X1023152Y1042336D01*
X1026050Y1041954D01*
X1028948Y1042336D01*
X1031648Y1043454D01*
X1033967Y1045233D01*
X1035746Y1047552D01*
X1036864Y1050252D01*
X1037246Y1053150D01*
X1036864Y1056048D01*
X1035746Y1058748D01*
X1033967Y1061067D01*
X1031648Y1062846D01*
X1028948Y1063964D01*
X1026050Y1064346D01*
D02*
G37*
G36*
X1163950Y1059737D02*
X1161313Y1059390D01*
X1158856Y1058372D01*
X1156747Y1056753D01*
X1155128Y1054644D01*
X1154110Y1052187D01*
X1153763Y1049550D01*
X1154110Y1046913D01*
X1155128Y1044456D01*
X1156747Y1042347D01*
X1158856Y1040728D01*
X1161313Y1039710D01*
X1163950Y1039363D01*
X1166587Y1039710D01*
X1169044Y1040728D01*
X1171153Y1042347D01*
X1172772Y1044456D01*
X1173790Y1046913D01*
X1174137Y1049550D01*
X1173790Y1052187D01*
X1172772Y1054644D01*
X1171153Y1056753D01*
X1169044Y1058372D01*
X1166587Y1059390D01*
X1163950Y1059737D01*
D02*
G37*
G36*
X1329731Y1043152D02*
X1328327Y1042872D01*
X1327136Y1042077D01*
X1326340Y1040886D01*
X1326061Y1039481D01*
X1326340Y1038077D01*
X1327136Y1036886D01*
X1328327Y1036090D01*
X1329731Y1035811D01*
X1331136Y1036090D01*
X1332327Y1036886D01*
X1333122Y1038077D01*
X1333402Y1039481D01*
X1333122Y1040886D01*
X1332327Y1042077D01*
X1331136Y1042872D01*
X1329731Y1043152D01*
D02*
G37*
G36*
X1010000Y1038671D02*
X1008595Y1038391D01*
X1007405Y1037596D01*
X1006609Y1036405D01*
X1006329Y1035000D01*
X1006609Y1033595D01*
X1007405Y1032405D01*
X1008595Y1031609D01*
X1010000Y1031329D01*
X1011405Y1031609D01*
X1012596Y1032405D01*
X1013391Y1033595D01*
X1013671Y1035000D01*
X1013391Y1036405D01*
X1012596Y1037596D01*
X1011405Y1038391D01*
X1010000Y1038671D01*
D02*
G37*
G36*
X1758000Y1091726D02*
X1752883Y1091222D01*
X1747964Y1089730D01*
X1743430Y1087306D01*
X1739455Y1084045D01*
X1736194Y1080071D01*
X1733770Y1075536D01*
X1732278Y1070617D01*
X1731774Y1065500D01*
Y1053500D01*
X1732278Y1048384D01*
X1733770Y1043464D01*
X1736194Y1038930D01*
X1739455Y1034955D01*
X1743430Y1031694D01*
X1747964Y1029270D01*
X1752883Y1027778D01*
X1758000Y1027274D01*
X1763116Y1027778D01*
X1768036Y1029270D01*
X1772570Y1031694D01*
X1776545Y1034955D01*
X1779806Y1038930D01*
X1782230Y1043464D01*
X1783722Y1048384D01*
X1784226Y1053500D01*
Y1065500D01*
X1783722Y1070617D01*
X1782230Y1075536D01*
X1779806Y1080071D01*
X1776545Y1084045D01*
X1772570Y1087306D01*
X1768036Y1089730D01*
X1763116Y1091222D01*
X1758000Y1091726D01*
D02*
G37*
G36*
X1720000Y1028671D02*
X1718595Y1028391D01*
X1717405Y1027596D01*
X1716609Y1026405D01*
X1716329Y1025000D01*
X1716609Y1023595D01*
X1717405Y1022405D01*
X1718595Y1021609D01*
X1720000Y1021329D01*
X1721405Y1021609D01*
X1722596Y1022405D01*
X1723391Y1023595D01*
X1723671Y1025000D01*
X1723391Y1026405D01*
X1722596Y1027596D01*
X1721405Y1028391D01*
X1720000Y1028671D01*
D02*
G37*
G36*
X1075050Y1055540D02*
X1071404Y1055181D01*
X1067898Y1054117D01*
X1064666Y1052390D01*
X1061834Y1050066D01*
X1059510Y1047234D01*
X1057783Y1044002D01*
X1056719Y1040496D01*
X1056360Y1036850D01*
X1056719Y1033204D01*
X1057783Y1029698D01*
X1059510Y1026466D01*
X1061834Y1023634D01*
X1064666Y1021310D01*
X1067898Y1019583D01*
X1071404Y1018519D01*
X1075050Y1018160D01*
X1078696Y1018519D01*
X1082202Y1019583D01*
X1085434Y1021310D01*
X1088266Y1023634D01*
X1090590Y1026466D01*
X1092317Y1029698D01*
X1093381Y1033204D01*
X1093740Y1036850D01*
X1093381Y1040496D01*
X1092317Y1044002D01*
X1090590Y1047234D01*
X1088266Y1050066D01*
X1085434Y1052390D01*
X1082202Y1054117D01*
X1078696Y1055181D01*
X1075050Y1055540D01*
D02*
G37*
G36*
X1026050Y1038946D02*
X1023152Y1038564D01*
X1020452Y1037446D01*
X1018133Y1035667D01*
X1016354Y1033348D01*
X1015236Y1030648D01*
X1014854Y1027750D01*
X1015236Y1024852D01*
X1016354Y1022152D01*
X1018133Y1019833D01*
X1020452Y1018054D01*
X1023152Y1016936D01*
X1026050Y1016554D01*
X1028948Y1016936D01*
X1031648Y1018054D01*
X1033967Y1019833D01*
X1035746Y1022152D01*
X1036864Y1024852D01*
X1037246Y1027750D01*
X1036864Y1030648D01*
X1035746Y1033348D01*
X1033967Y1035667D01*
X1031648Y1037446D01*
X1028948Y1038564D01*
X1026050Y1038946D01*
D02*
G37*
G36*
X1202000Y1049695D02*
X1198158Y1049316D01*
X1194463Y1048196D01*
X1191058Y1046376D01*
X1188074Y1043926D01*
X1185624Y1040942D01*
X1183804Y1037537D01*
X1182684Y1033842D01*
X1182305Y1030000D01*
X1182684Y1026158D01*
X1183804Y1022463D01*
X1185624Y1019058D01*
X1188074Y1016074D01*
X1191058Y1013624D01*
X1194463Y1011804D01*
X1198158Y1010684D01*
X1202000Y1010305D01*
X1205842Y1010684D01*
X1209537Y1011804D01*
X1212942Y1013624D01*
X1215926Y1016074D01*
X1218376Y1019058D01*
X1220196Y1022463D01*
X1221316Y1026158D01*
X1221695Y1030000D01*
X1221316Y1033842D01*
X1220196Y1037537D01*
X1218376Y1040942D01*
X1215926Y1043926D01*
X1212942Y1046376D01*
X1209537Y1048196D01*
X1205842Y1049316D01*
X1202000Y1049695D01*
D02*
G37*
G36*
X1790000Y1013671D02*
X1788595Y1013391D01*
X1787405Y1012596D01*
X1786609Y1011405D01*
X1786329Y1010000D01*
X1786609Y1008595D01*
X1787405Y1007405D01*
X1788595Y1006609D01*
X1790000Y1006329D01*
X1791405Y1006609D01*
X1792595Y1007405D01*
X1793391Y1008595D01*
X1793671Y1010000D01*
X1793391Y1011405D01*
X1792595Y1012596D01*
X1791405Y1013391D01*
X1790000Y1013671D01*
D02*
G37*
G36*
X1765000D02*
X1763595Y1013391D01*
X1762405Y1012596D01*
X1761609Y1011405D01*
X1761329Y1010000D01*
X1761609Y1008595D01*
X1762405Y1007405D01*
X1763595Y1006609D01*
X1765000Y1006329D01*
X1766405Y1006609D01*
X1767595Y1007405D01*
X1768391Y1008595D01*
X1768671Y1010000D01*
X1768391Y1011405D01*
X1767595Y1012596D01*
X1766405Y1013391D01*
X1765000Y1013671D01*
D02*
G37*
G36*
X1740000D02*
X1738595Y1013391D01*
X1737405Y1012596D01*
X1736609Y1011405D01*
X1736329Y1010000D01*
X1736609Y1008595D01*
X1737405Y1007405D01*
X1738595Y1006609D01*
X1740000Y1006329D01*
X1741405Y1006609D01*
X1742595Y1007405D01*
X1743391Y1008595D01*
X1743671Y1010000D01*
X1743391Y1011405D01*
X1742595Y1012596D01*
X1741405Y1013391D01*
X1740000Y1013671D01*
D02*
G37*
G36*
X1715000D02*
X1713595Y1013391D01*
X1712405Y1012596D01*
X1711609Y1011405D01*
X1711329Y1010000D01*
X1711609Y1008595D01*
X1712405Y1007405D01*
X1713595Y1006609D01*
X1715000Y1006329D01*
X1716405Y1006609D01*
X1717595Y1007405D01*
X1718391Y1008595D01*
X1718671Y1010000D01*
X1718391Y1011405D01*
X1717595Y1012596D01*
X1716405Y1013391D01*
X1715000Y1013671D01*
D02*
G37*
G36*
X1690000D02*
X1688595Y1013391D01*
X1687404Y1012596D01*
X1686609Y1011405D01*
X1686329Y1010000D01*
X1686609Y1008595D01*
X1687404Y1007405D01*
X1688595Y1006609D01*
X1690000Y1006329D01*
X1691405Y1006609D01*
X1692595Y1007405D01*
X1693391Y1008595D01*
X1693671Y1010000D01*
X1693391Y1011405D01*
X1692595Y1012596D01*
X1691405Y1013391D01*
X1690000Y1013671D01*
D02*
G37*
G36*
X1670000D02*
X1668595Y1013391D01*
X1667405Y1012596D01*
X1666609Y1011405D01*
X1666329Y1010000D01*
X1666609Y1008595D01*
X1667405Y1007405D01*
X1668595Y1006609D01*
X1670000Y1006329D01*
X1671405Y1006609D01*
X1672596Y1007405D01*
X1673391Y1008595D01*
X1673671Y1010000D01*
X1673391Y1011405D01*
X1672596Y1012596D01*
X1671405Y1013391D01*
X1670000Y1013671D01*
D02*
G37*
G36*
X1595000D02*
X1593595Y1013391D01*
X1592405Y1012596D01*
X1591609Y1011405D01*
X1591329Y1010000D01*
X1591609Y1008595D01*
X1592405Y1007405D01*
X1593595Y1006609D01*
X1595000Y1006329D01*
X1596405Y1006609D01*
X1597596Y1007405D01*
X1598391Y1008595D01*
X1598671Y1010000D01*
X1598391Y1011405D01*
X1597596Y1012596D01*
X1596405Y1013391D01*
X1595000Y1013671D01*
D02*
G37*
G36*
X1570000D02*
X1568595Y1013391D01*
X1567405Y1012596D01*
X1566609Y1011405D01*
X1566329Y1010000D01*
X1566609Y1008595D01*
X1567405Y1007405D01*
X1568595Y1006609D01*
X1570000Y1006329D01*
X1571405Y1006609D01*
X1572596Y1007405D01*
X1573391Y1008595D01*
X1573671Y1010000D01*
X1573391Y1011405D01*
X1572596Y1012596D01*
X1571405Y1013391D01*
X1570000Y1013671D01*
D02*
G37*
G36*
X1545000D02*
X1543595Y1013391D01*
X1542405Y1012596D01*
X1541609Y1011405D01*
X1541329Y1010000D01*
X1541609Y1008595D01*
X1542405Y1007405D01*
X1543595Y1006609D01*
X1545000Y1006329D01*
X1546405Y1006609D01*
X1547596Y1007405D01*
X1548391Y1008595D01*
X1548671Y1010000D01*
X1548391Y1011405D01*
X1547596Y1012596D01*
X1546405Y1013391D01*
X1545000Y1013671D01*
D02*
G37*
G36*
X1520000D02*
X1518595Y1013391D01*
X1517405Y1012596D01*
X1516609Y1011405D01*
X1516329Y1010000D01*
X1516609Y1008595D01*
X1517405Y1007405D01*
X1518595Y1006609D01*
X1520000Y1006329D01*
X1521405Y1006609D01*
X1522596Y1007405D01*
X1523391Y1008595D01*
X1523671Y1010000D01*
X1523391Y1011405D01*
X1522596Y1012596D01*
X1521405Y1013391D01*
X1520000Y1013671D01*
D02*
G37*
G36*
X1495000D02*
X1493595Y1013391D01*
X1492405Y1012596D01*
X1491609Y1011405D01*
X1491329Y1010000D01*
X1491609Y1008595D01*
X1492405Y1007405D01*
X1493595Y1006609D01*
X1495000Y1006329D01*
X1496405Y1006609D01*
X1497596Y1007405D01*
X1498391Y1008595D01*
X1498671Y1010000D01*
X1498391Y1011405D01*
X1497596Y1012596D01*
X1496405Y1013391D01*
X1495000Y1013671D01*
D02*
G37*
G36*
X1455000D02*
X1453595Y1013391D01*
X1452405Y1012596D01*
X1451609Y1011405D01*
X1451329Y1010000D01*
X1451609Y1008595D01*
X1452405Y1007405D01*
X1453595Y1006609D01*
X1455000Y1006329D01*
X1456405Y1006609D01*
X1457596Y1007405D01*
X1458391Y1008595D01*
X1458671Y1010000D01*
X1458391Y1011405D01*
X1457596Y1012596D01*
X1456405Y1013391D01*
X1455000Y1013671D01*
D02*
G37*
G36*
X1415000D02*
X1413595Y1013391D01*
X1412405Y1012596D01*
X1411609Y1011405D01*
X1411329Y1010000D01*
X1411609Y1008595D01*
X1412405Y1007405D01*
X1413595Y1006609D01*
X1415000Y1006329D01*
X1416405Y1006609D01*
X1417596Y1007405D01*
X1418391Y1008595D01*
X1418671Y1010000D01*
X1418391Y1011405D01*
X1417596Y1012596D01*
X1416405Y1013391D01*
X1415000Y1013671D01*
D02*
G37*
G36*
X1305000D02*
X1303595Y1013391D01*
X1302405Y1012596D01*
X1301609Y1011405D01*
X1301329Y1010000D01*
X1301609Y1008595D01*
X1302405Y1007405D01*
X1303595Y1006609D01*
X1305000Y1006329D01*
X1306405Y1006609D01*
X1307596Y1007405D01*
X1308391Y1008595D01*
X1308671Y1010000D01*
X1308391Y1011405D01*
X1307596Y1012596D01*
X1306405Y1013391D01*
X1305000Y1013671D01*
D02*
G37*
G36*
X1275000D02*
X1273595Y1013391D01*
X1272405Y1012596D01*
X1271609Y1011405D01*
X1271329Y1010000D01*
X1271609Y1008595D01*
X1272405Y1007405D01*
X1273595Y1006609D01*
X1275000Y1006329D01*
X1276405Y1006609D01*
X1277596Y1007405D01*
X1278391Y1008595D01*
X1278671Y1010000D01*
X1278391Y1011405D01*
X1277596Y1012596D01*
X1276405Y1013391D01*
X1275000Y1013671D01*
D02*
G37*
G36*
X1250000D02*
X1248595Y1013391D01*
X1247405Y1012596D01*
X1246609Y1011405D01*
X1246329Y1010000D01*
X1246609Y1008595D01*
X1247405Y1007405D01*
X1248595Y1006609D01*
X1250000Y1006329D01*
X1251405Y1006609D01*
X1252596Y1007405D01*
X1253391Y1008595D01*
X1253671Y1010000D01*
X1253391Y1011405D01*
X1252596Y1012596D01*
X1251405Y1013391D01*
X1250000Y1013671D01*
D02*
G37*
G36*
X1175000D02*
X1173595Y1013391D01*
X1172405Y1012596D01*
X1171609Y1011405D01*
X1171329Y1010000D01*
X1171609Y1008595D01*
X1172405Y1007405D01*
X1173595Y1006609D01*
X1175000Y1006329D01*
X1176405Y1006609D01*
X1177596Y1007405D01*
X1178391Y1008595D01*
X1178671Y1010000D01*
X1178391Y1011405D01*
X1177596Y1012596D01*
X1176405Y1013391D01*
X1175000Y1013671D01*
D02*
G37*
G36*
X1150000D02*
X1148595Y1013391D01*
X1147405Y1012596D01*
X1146609Y1011405D01*
X1146329Y1010000D01*
X1146609Y1008595D01*
X1147405Y1007405D01*
X1148595Y1006609D01*
X1150000Y1006329D01*
X1151405Y1006609D01*
X1152596Y1007405D01*
X1153391Y1008595D01*
X1153671Y1010000D01*
X1153391Y1011405D01*
X1152596Y1012596D01*
X1151405Y1013391D01*
X1150000Y1013671D01*
D02*
G37*
G36*
X1085000D02*
X1083595Y1013391D01*
X1082405Y1012596D01*
X1081609Y1011405D01*
X1081329Y1010000D01*
X1081609Y1008595D01*
X1082405Y1007405D01*
X1083595Y1006609D01*
X1085000Y1006329D01*
X1086405Y1006609D01*
X1087596Y1007405D01*
X1088391Y1008595D01*
X1088671Y1010000D01*
X1088391Y1011405D01*
X1087596Y1012596D01*
X1086405Y1013391D01*
X1085000Y1013671D01*
D02*
G37*
G36*
X1060000D02*
X1058595Y1013391D01*
X1057405Y1012596D01*
X1056609Y1011405D01*
X1056329Y1010000D01*
X1056609Y1008595D01*
X1057405Y1007405D01*
X1058595Y1006609D01*
X1060000Y1006329D01*
X1061405Y1006609D01*
X1062596Y1007405D01*
X1063391Y1008595D01*
X1063671Y1010000D01*
X1063391Y1011405D01*
X1062596Y1012596D01*
X1061405Y1013391D01*
X1060000Y1013671D01*
D02*
G37*
G36*
X1035000D02*
X1033595Y1013391D01*
X1032405Y1012596D01*
X1031609Y1011405D01*
X1031329Y1010000D01*
X1031609Y1008595D01*
X1032405Y1007405D01*
X1033595Y1006609D01*
X1035000Y1006329D01*
X1036405Y1006609D01*
X1037596Y1007405D01*
X1038391Y1008595D01*
X1038671Y1010000D01*
X1038391Y1011405D01*
X1037596Y1012596D01*
X1036405Y1013391D01*
X1035000Y1013671D01*
D02*
G37*
G36*
X1010000D02*
X1008595Y1013391D01*
X1007405Y1012596D01*
X1006609Y1011405D01*
X1006329Y1010000D01*
X1006609Y1008595D01*
X1007405Y1007405D01*
X1008595Y1006609D01*
X1010000Y1006329D01*
X1011405Y1006609D01*
X1012596Y1007405D01*
X1013391Y1008595D01*
X1013671Y1010000D01*
X1013391Y1011405D01*
X1012596Y1012596D01*
X1011405Y1013391D01*
X1010000Y1013671D01*
D02*
G37*
%LPD*%
G54D10*
X1940325Y1432642D02*
X2174005D01*
X1940325Y1456772D02*
X2174005D01*
X1940325Y1432642D02*
Y1456772D01*
Y1432642D02*
X2174005D01*
Y1456772D01*
X1940325Y1115338D02*
X2174005D01*
X1940325Y1091208D02*
Y1115338D01*
Y1091208D02*
X2174005D01*
Y1115338D01*
G54D13*
X2006365Y1449658D02*
Y1439500D01*
X2008494Y1449658D02*
Y1439500D01*
Y1449658D02*
X2015266Y1439500D01*
Y1449658D02*
Y1439500D01*
X2018071Y1449658D02*
Y1439500D01*
Y1449658D02*
X2024843Y1439500D01*
Y1449658D02*
Y1439500D01*
X2033937Y1449658D02*
X2027648D01*
Y1439500D01*
X2033937D01*
X2027648Y1444821D02*
X2031518D01*
X2035629Y1449658D02*
Y1439500D01*
Y1449658D02*
X2039983D01*
X2041434Y1449174D01*
X2041918Y1448690D01*
X2042401Y1447723D01*
Y1446756D01*
X2041918Y1445788D01*
X2041434Y1445305D01*
X2039983Y1444821D01*
X2035629D01*
X2039016D02*
X2042401Y1439500D01*
X2052656Y1449658D02*
Y1439500D01*
X2058460D01*
X2067312D02*
X2063443Y1449658D01*
X2059573Y1439500D01*
X2061024Y1442886D02*
X2065861D01*
X2069682Y1449658D02*
X2073552Y1444821D01*
Y1439500D01*
X2077422Y1449658D02*
X2073552Y1444821D01*
X2085016Y1449658D02*
X2078728D01*
Y1439500D01*
X2085016D01*
X2078728Y1444821D02*
X2082597D01*
X2086709Y1449658D02*
Y1439500D01*
Y1449658D02*
X2091062D01*
X2092513Y1449174D01*
X2092997Y1448690D01*
X2093481Y1447723D01*
Y1446756D01*
X2092997Y1445788D01*
X2092513Y1445305D01*
X2091062Y1444821D01*
X2086709D01*
X2090095D02*
X2093481Y1439500D01*
X2104703Y1449658D02*
X2110023D01*
X2107121Y1445788D01*
X2108572D01*
X2109540Y1445305D01*
X2110023Y1444821D01*
X2110507Y1443370D01*
Y1442402D01*
X2110023Y1440951D01*
X2109056Y1439984D01*
X2107605Y1439500D01*
X2106154D01*
X2104703Y1439984D01*
X2104219Y1440467D01*
X2103735Y1441435D01*
X2006365Y1108224D02*
Y1098066D01*
Y1108224D02*
X2010235Y1098066D01*
X2014105Y1108224D02*
X2010235Y1098066D01*
X2014105Y1108224D02*
Y1098066D01*
X2017007Y1108224D02*
Y1100968D01*
X2017491Y1099517D01*
X2018458Y1098550D01*
X2019909Y1098066D01*
X2020876D01*
X2022328Y1098550D01*
X2023295Y1099517D01*
X2023779Y1100968D01*
Y1108224D01*
X2026584D02*
Y1098066D01*
X2032389D01*
X2036887Y1108224D02*
Y1098066D01*
X2033501Y1108224D02*
X2040273D01*
X2041482D02*
Y1098066D01*
X2043611Y1108224D02*
Y1098066D01*
X2049415D01*
X2058267D02*
X2054397Y1108224D01*
X2050528Y1098066D01*
X2051979Y1101452D02*
X2056816D01*
X2060637Y1108224D02*
X2064507Y1103387D01*
Y1098066D01*
X2068376Y1108224D02*
X2064507Y1103387D01*
X2075971Y1108224D02*
X2069682D01*
Y1098066D01*
X2075971D01*
X2069682Y1103387D02*
X2073552D01*
X2077664Y1108224D02*
Y1098066D01*
Y1108224D02*
X2082017D01*
X2083468Y1107740D01*
X2083952Y1107256D01*
X2084435Y1106289D01*
Y1105322D01*
X2083952Y1104354D01*
X2083468Y1103870D01*
X2082017Y1103387D01*
X2077664D01*
X2081049D02*
X2084435Y1098066D01*
G54D14*
X1964455Y1444707D02*
D03*
Y1103273D02*
D03*
G54D76*
X1228000Y1469250D02*
D03*
G54D85*
X1341375Y1452125D02*
X1351750Y1462500D01*
X1270500Y1440000D02*
X1282625Y1452125D01*
X1341375D01*
X1339000Y1458000D02*
X1349250Y1468250D01*
X1276250Y1458000D02*
X1339000D01*
X1257750Y1439500D02*
X1276250Y1458000D01*
X1401500Y1468250D02*
X1405750Y1472500D01*
X1349250Y1468250D02*
X1401500D01*
X1385250Y1462500D02*
X1405750Y1442000D01*
X1351750Y1462500D02*
X1385250D01*
X1354250Y1113250D02*
X1354500Y1113500D01*
G54D86*
X1297484Y1239016D02*
X1297500Y1239000D01*
G54D87*
X1224250Y1415500D02*
X1234500D01*
X1368000Y1478291D02*
X1368018Y1478273D01*
X1272500Y1102000D02*
Y1118250D01*
Y1081500D02*
Y1102000D01*
X1361000Y1433750D02*
X1371750D01*
X1185000Y1338000D02*
Y1376250D01*
X1171750Y1324750D02*
X1185000Y1338000D01*
X1272500Y1274500D02*
X1292500Y1294500D01*
X1272500Y1118250D02*
Y1274500D01*
X1573000Y1022250D02*
X1587500D01*
X1601250D01*
X1272500Y1081500D02*
X1302000Y1052000D01*
X1297500Y1239000D02*
X1606000D01*
X1234500Y1402000D02*
X1248750D01*
X1283250Y1367500D01*
Y1345250D02*
Y1367500D01*
X1185000Y1376250D02*
X1224250Y1415500D01*
X1234500Y1402000D02*
Y1415250D01*
X1618250Y1218500D02*
X1618500D01*
X1171750Y1312000D02*
Y1324750D01*
X1283250Y1345250D02*
X1295750D01*
G54D91*
X1096000Y1276250D02*
Y1288500D01*
Y1228000D02*
Y1276250D01*
X1112000Y1228000D02*
X1120000Y1220000D01*
X1165000D01*
X1096000Y1228000D02*
X1112000D01*
G54D107*
X1024050Y1442850D02*
D03*
X1026050Y1134850D02*
D03*
G54D109*
X1440250Y1150250D02*
D03*
X1689975Y1411750D02*
D03*
X1405750Y1442000D02*
D03*
Y1472500D02*
D03*
X1354500Y1113500D02*
D03*
X1618500Y1218500D02*
D03*
X1606000Y1239000D02*
D03*
X1471000Y1369500D02*
D03*
X1270500Y1440000D02*
D03*
X1257750Y1439500D02*
D03*
G54D110*
X1506750Y1415422D02*
D03*
X1368000Y1490000D02*
D03*
X1368018Y1478500D02*
D03*
X1284250Y1467200D02*
D03*
X1271750D02*
D03*
X1272500Y1102000D02*
D03*
X1601250Y1022250D02*
D03*
X1587500D02*
D03*
X1573000D02*
D03*
X1302000Y1052000D02*
D03*
X1272500Y1118250D02*
D03*
X1292500Y1294500D02*
D03*
X1297484Y1239016D02*
D03*
X1506750Y1299250D02*
D03*
X1371750Y1433750D02*
D03*
X1361000D02*
D03*
X1171750Y1324750D02*
D03*
Y1312000D02*
D03*
X1234500Y1402000D02*
D03*
X1295750Y1345250D02*
D03*
X1283250D02*
D03*
X1234500Y1415250D02*
D03*
X1165000Y1220000D02*
D03*
X1096000Y1276250D02*
D03*
Y1288500D02*
D03*
Y1228000D02*
D03*
X1112000D02*
D03*
G54D111*
X1368000Y1478291D02*
Y1490000D01*
X1308950Y1467200D02*
X1332650Y1490900D01*
X1367100D01*
X1368000Y1490000D01*
X1230700Y1485700D02*
X1234250Y1489250D01*
X1230700Y1485568D02*
Y1485700D01*
X1228000Y1482868D02*
X1230700Y1485568D01*
X1228000Y1469250D02*
Y1482868D01*
X1234250Y1489250D02*
X1261000D01*
X1284250Y1467200D02*
X1308950D01*
X1271750D02*
X1284250D01*
X1271750D02*
Y1478500D01*
X1261000Y1489250D02*
X1271750Y1478500D01*
M02*
